<?xml version="1.0" standalone="no"?>
<!DOCTYPE svg PUBLIC "-//W3C//DTD SVG 1.1//EN" "http://www.w3.org/Graphics/SVG/1.1/DTD/svg11.dtd">
<svg xmlns="http://www.w3.org/2000/svg">
<metadata>Generated by Fontastic.me</metadata>
<defs>
<font id="fifam-font" horiz-adv-x="512">
<font-face font-family="fifam-font" units-per-em="512" ascent="480" descent="-32"/>
<missing-glyph horiz-adv-x="512" />

<glyph glyph-name="info" unicode="&#105;" d="M256 457c27 0 53-5 78-16 49-20 87-58 107-107 11-25 16-51 16-78 0-53-21-105-59-142-37-38-89-59-142-59-27 0-53 5-78 16-49 20-87 58-107 107-11 25-16 51-16 78 0 53 21 105 59 142 37 38 89 59 142 59z m62-351c40 17 71 48 88 88 8 20 12 41 12 62 0 28-8 57-22 81-14 25-34 45-59 59-24 14-52 22-81 22-21 0-42-4-62-12-40-17-71-48-88-88-8-20-12-41-12-62 0-29 8-57 22-81 14-25 34-45 59-59 24-14 52-22 81-22 21 0 42 4 62 12z m-58 261c17 0 34-5 47-17 12-10 19-25 19-41 0-7-2-15-5-21-3-7-8-13-13-18-4-4-9-9-14-13-5-4-9-9-12-14-4-5-5-10-6-16l0-8-41 0 0 13c0 8 2 15 5 22 3 6 7 12 12 17 4 4 9 8 14 12 4 3 8 7 12 12 3 3 6 8 6 13 2 7 0 14-5 19-5 5-12 8-19 7-7 0-14-3-18-10-5-7-7-15-7-23l-41 0c0 18 6 36 19 48 13 12 30 18 47 18z m-25-214l0 41 41 0 0-41z"/>
<glyph glyph-name="time" unicode="&#116;" d="M178 441c50 22 106 22 156 0 49-20 87-58 107-107 11-25 16-51 16-78 0-53-21-105-59-142-37-38-89-59-142-59-27 0-53 5-78 16-49 20-87 58-107 107-22 50-22 106 0 156 20 49 58 87 107 107z m140-335c40 17 71 48 88 88 8 20 12 41 12 62 0 28-8 57-22 81-14 25-34 45-59 59-50 29-112 29-162 0-24-14-45-34-59-59-29-50-29-112 0-162 14-25 35-45 59-59 25-14 53-22 81-22 21 0 42 4 62 12z m-41 269l0-111 84-52-21-35-104 64 0 134z"/>
<glyph glyph-name="vip" unicode="&#118;" d="M150 184l17 48c10-9 22-17 35-22l-21-62-11-2c-36-7-59-12-69-14-12-3-20-13-20-25-1-6-3-33-6-81l-41 0c2 40 4 69 6 86 2 14 7 27 16 39 9 10 22 18 35 21 14 3 34 7 59 12z m188 87c-20-25-50-40-82-40-32 0-62 15-82 40-23 28-34 63-33 98 0 21 6 41 16 58 10 18 25 33 42 43 35 21 79 21 114 0 18-10 33-25 43-43 10-17 16-37 16-58 1-35-11-70-34-98z m-30 152c-13 14-32 23-52 23-20 0-39-9-52-23-15-14-23-33-23-53-1-25 7-50 22-70 12-18 32-28 53-28 21 0 41 10 53 28 15 20 23 45 22 70 0 20-8 39-23 53z m-14-293l-21-19 22-85-77 0 21 85-20 19 37 60z m178-19c1-9 3-37 6-85l-41 0c-3 44-5 71-6 81 0 11-8 22-20 25-10 2-33 7-69 14l-11 2-21 61c13 6 25 14 35 23l17-48c25-5 45-9 59-12 14-3 26-11 35-21 9-12 15-25 16-40z"/>
<glyph glyph-name="arrow" unicode="&#97;" d="M512 265l-68 68-14-14 42-41-472 0 0-20 479 0-44-44 14-14 63 63z"/>
<glyph glyph-name="without" unicode="&#100;" d="M442 422l-30-37 14 0c17 0 31-14 31-31l0-164c0-17-14-31-31-31l-24 0c-11 0-20-9-20-20l0-67-80 81c-4 4-9 6-14 6l-61 0-32-39 85 0 107-109c6-6 14-7 22-4 7 3 12 10 12 18l0 95 5 0c38 0 70 31 70 70l0 164c0 32-22 60-54 68z m-367-301l31 38-20 0c-17 0-31 14-31 31l0 164c0 17 14 31 31 31l205 0 32 39-237 0c-38 0-70-32-70-70l0-164c0-34 25-64 59-69z m334 303l42 52c5 5 6 13 4 20-3 6-9 11-16 12-7 1-14-2-18-7l-63-77-32-39-185-226-32-39-68-84c-6-8-5-20 3-27 8-6 20-5 27 2l89 109 32 39 185 226z"/>
<glyph glyph-name="alert" unicode="&#110;" d="M256 457c27 0 53-5 78-16 49-20 87-58 107-107 11-25 16-51 16-78 0-53-21-105-59-142-37-38-89-59-142-59-27 0-53 5-78 16-49 20-87 58-107 107-11 25-16 51-16 78 0 53 21 105 59 142 37 38 89 59 142 59z m62-351c40 17 71 48 88 88 8 20 12 41 12 62 0 28-8 57-22 81-14 25-34 45-59 59-24 14-52 22-81 22-21 0-42-4-62-12-40-17-71-48-88-88-8-20-12-41-12-62 0-29 8-57 22-81 14-25 34-45 59-59 24-14 52-22 81-22 21 0 42 4 62 12z m-83 212l0 41 41 0 0-41z m0-165l0 140 41 0 0-140z"/>
<glyph glyph-name="warning" unicode="&#119;" d="M256 478l227-444-454 0z m0-91l-159-312 318 0z m-21-90l41 0 0-49-8-66-24 0-8 66z m0-181l0 41 41 0 0-41z"/>
<glyph glyph-name="access" unicode="&#120;" d="M408 47l-15 131c0 3-1 5-3 7-3 1-5 2-8 1l-105 0 0 115c0 6-3 12-7 17-9 7-22 9-40 7l-4-1c-37-5-59-10-66-14-9-9-18-20-26-30-13-17-25-35-36-52l-35 23c13 19 27 38 41 57 9 13 20 25 32 36 10 5 20 9 30 12 13 3 31 6 54 9l4 1c30 4 54-2 72-18 14-11 22-29 22-47l0-74 70 0c11 0 21-4 29-11 9-8 15-19 16-31l16-134z m-73 106l40 0c0-4 0-6 0-8 0-17-3-35-10-51-13-31-38-57-70-70-33-14-69-14-102 0-32 13-57 38-70 70-15 37-13 78 5 113 19 35 52 60 91 67l0-41c-19-5-36-17-48-33-27-36-24-87 8-120 17-17 41-27 65-26 24 0 47 9 65 26 17 18 26 41 26 65 0 4 0 6 0 8z m15 247c-22-22-58-22-81 0-11 11-17 25-17 41 0 15 6 30 17 40 23 23 59 23 81 0 11-10 18-25 17-40 1-16-6-30-17-41z m-22 59c-7 7-18 9-28 5-9-4-15-13-15-23 0-14 12-24 25-24 14 0 25 10 25 24 1 7-2 13-7 18z"/>
<glyph glyph-name="sun" unicode="&#115;" d="M137 235l-107 0 0 42 107 0z m0 0l-107 0 0 42 107 0z m0 41l0-41-107 0 0 42z m20 50l-75 75 29 29 75-75z m0 0l-75 75 29 29 75-75z m-75 75l29 29 75-75-29-29z m29-320l-29 29 75 76 29-29z m0 0l-29 29 75 76 29-29z m-29 29l75 76 29-29-75-76z m195 265l-42 0 0 107 41 0z m0 0l-42 0 0 107 41 0z m-41 0l0 107 41 0 0-107z m41-345l-42 0 0 107 41 0z m0 0l-42 0 0 107 41 0z m-41 0l0 107 41 0 0-107z m119 296l-29 29 75 76 29-29z m0 0l-29 29 75 76 29-29z m75 76l-75-76-29 29 75 76z m-29-320l-75 75 29 29 75-75z m0 0l-75 75 29 29 75-75z m-75 75l29 29 75-75-29-29z m156 78l-107 0 0 42 107 0z m0 0l-107 0 0 42 107 0z m-107 42l107 0 0-41-107 0z"/>
<glyph glyph-name="young" unicode="&#121;" d="M470 285c12-15 19-34 18-54 0-24-10-46-28-62-5-5-11-9-17-12-12-43-35-81-67-111-32-29-66-44-103-44-37 0-72 15-103 44-33 30-56 68-68 111-6 3-12 7-17 12-18 16-28 38-28 62-1 20 6 40 19 55-19 8-36 18-52 29l26 34c2-2 5-3 8-5 4-3 11-6 19-11 10-5 20-9 30-12 11-4 23-6 36-8 13-1 26-1 39 2 14 3 27 8 40 14 12 5 23 12 34 18 10 6 19 13 28 20 9 7 15 12 18 15l7 6 15 15 76-71c-2-16-4-31-9-46 0 0 0-1 0-2l-1-2-66 62c-38-34-84-58-133-70-12-3-24-4-36-4-3 0-7 0-13 0l-12 1c-9-1-17-5-22-12-6-8-9-17-8-26 0-13 5-24 14-32 6-6 15-10 24-10l2 0c6-38 23-74 49-102 26-29 54-43 84-43 21 1 41 7 57 20 20 13 36 31 48 52 14 23 23 48 28 74l2 0c9-1 17 3 24 9 9 8 14 20 14 32 0 8-2 16-6 22-4 7-10 12-17 14 6 20 10 41 13 61 5 42-3 73-23 92-7 6-14 11-22 14-6 3-13 5-21 5-6 1-12 1-18 0-4 0-9-1-13-2-3 0-5-1-6-1l-10-4-9 5 0 1c-26 15-55 24-85 27-15 1-29-1-43-6-12-4-23-10-32-18-9-7-17-15-24-24-6-8-12-16-16-25-4-7-7-14-10-21-2-5-3-9-4-13-13 6-26 14-38 22 2 8 5 15 8 22 4 9 9 17 14 26 7 10 13 19 21 28 9 9 18 18 29 25 12 8 24 14 38 19 43 15 95 8 154-21 7 2 14 3 22 3 9 1 19 1 28 0 12-1 23-4 34-9 12-5 22-13 32-22 11-10 19-23 25-37 6-13 9-26 11-40 2-13 2-27 1-40-1-11-2-21-4-32-2-7-3-13-5-19z m-275-93c-11 12-11 31 0 43 12 11 31 11 43 0 12-12 12-31 0-43-12-12-31-12-43 0z m111-2c-11 11-12 28-4 41 9 12 25 17 39 11 14-5 22-20 19-35-3-15-16-26-31-26-9 0-17 4-23 10z"/>
<glyph glyph-name="3d" unicode="&#51;" d="M481 325c11-5 18-15 10-33-13-27-27-57-44-80-16-22-45-30-90-31l-84-1-60 0-101-1-47 1c0 0-55-3-58 27-12-43 60-40 60-40l48-1 107 1 62 0 89 1c48 1 77 10 94 33 18 24 33 56 46 83 15 32-16 39-32 41z m-42 8l-136 1-18-30-1-2 6 0c0 0 67 1 101 1 34 0 21-24 21-24 0 0-4-6-18-30-15-25-49-27-49-27l-57 0 36 58-53 0-31-47-26-41 56 0 0 0c23 0 48 0 69 0 48 0 78 8 94 30 16 21 29 50 41 74 18 37-35 37-35 37z m-231-64c17 0 36 19 36 19l6 8c0 0 37 39-64 39-100 0-118-40-118-40l58 0c4 4 9 7 14 10 7 3 14 4 35 4 21 0 20-7 14-18-6-12-26-11-26-11l-42 0-16-26 42 0c24 0 13-16 13-16l-3-5c0 0-11-14-46-14-35 0-27 21-27 21l-57 0c-29-52 48-49 48-49l44 0c19 1 38 5 56 12 20 8 32 17 45 38 13 21-12 28-12 28z"/>
<glyph glyph-name="vonst" unicode="&#78;" d="M454 388l-398 0c-31 0-56-26-56-56l0-152c0-31 25-56 56-56l398 0c31 0 56 25 56 56l0 152c0 31-25 56-56 56z m-360-213l-24 0-29 152 23 0c0 0 9-54 15-90 2-8 3-18 4-26 2 8 3 17 5 26 6 35 14 90 14 90l21 0z m74-2c-29 0-42 18-42 78 0 60 14 79 42 79 29 0 43-19 43-79 0-60-13-78-42-78z m132 3l-21 0c0 0-17 51-27 83-2 5-4 10-5 15 1-7 1-14 1-21l0-77-21 0 0 151 21 0c0 0 21-67 29-90 0-2 2-5 3-11 0 7-1 13-1 20l0 81 21 0z m53-3c-24 0-36 12-36 38 0 7 1 13 3 19l20 1c-1-6-1-11-1-17 0-19 4-24 14-24 11 0 16 5 16 23 0 18-4 26-20 33-5 2-8 3-13 6-13 6-19 20-19 37 0 25 10 41 35 41 22 0 33-13 33-35 0-5-1-10-2-15l-19-2c0 5 1 9 1 14 0 15-4 21-14 21-10 0-12-6-12-19 0-14 2-19 16-26 5-2 9-4 14-7 16-7 23-21 23-43 0-30-11-45-39-45z m115 137l-26 0 0-134-23 0 0 134-26 0 0 17 75 0z m-299 3c-15 0-19-15-19-62 0-50 4-61 19-61 14 0 18 11 18 61 0 47-5 62-18 62z"/>
<glyph glyph-name="vosta" unicode="&#65;" d="M178 313c-14 0-19-15-19-62 0-50 4-61 19-61 15 0 19 11 19 61 0 47-5 62-19 62z m228-90l22 0-11 74z m48 165l-398 0c-31 0-56-26-56-56l0-152c0-31 25-56 56-56l398 0c31 0 56 25 56 56l0 152c0 31-25 56-56 56z m-351-213l-24 0-29 152 23 0c0 0 9-54 15-90 2-8 3-18 4-26 2 8 3 17 5 26 5 36 14 90 14 90l21 0z m75-2c-30 0-42 18-42 78 0 60 13 79 42 79 29 0 42-19 42-79 0-60-13-78-42-78z m91 0c-25 0-37 12-37 38 0 7 1 13 3 19l20 1c-1-6-1-11-1-17 0-19 4-24 15-24 10 0 15 5 15 23 0 18-4 26-20 33-5 2-8 3-13 6-13 6-20 20-20 37 0 25 11 41 36 41 22 0 33-13 33-35 0-5 0-10-2-15l-20-1c1 4 2 8 2 13 0 15-3 21-14 21-10 0-12-6-12-19 0-14 2-19 16-26 5-2 9-4 15-7 15-7 22-21 22-43 0-30-11-45-38-45z m89 3l-23 0 0 134-27 0 0 17 76 0 0-17-27 0z m79 0l-5 28-29 0-5-28-21 0 27 152 27 0 29-152z"/>
<glyph glyph-name="brochure" unicode="&#66;" d="M351 15c-154 55-236 82-245 87-9 4-18 13-27 18-9 4-9 22-9 36l0 282c0 4 0 9 0 13 4 14 9 28 23 37 13 9 27 9 40 9l309 0 0-391-41 0 0 350-268 0c-9 0-18-5-18-14 0-4 0-9 0-13 0-5 5-10 9-10 9-4 32-13 68-27 37-13 69-22 96-32 27-9 45-18 45-18l14-4 0-323z m-240 364l0-227c0-5 0-5 0-5 0 0 4 0 4 0 0 0 5-5 9-5 23-9 82-31 182-68l0 232c-64 23-132 50-195 73z"/>
<glyph glyph-name="prev" unicode="&#60;" d="M203 64l42 45-119 113 386 0 0 65-386 0 119 116-42 45-203-194z"/>
<glyph glyph-name="next" unicode="&#62;" d="M312 448l-45-45 119-116-386 0 0-65 386 0-119-113 45-45 200 190z"/>
<glyph glyph-name="up" unicode="&#57347;" d="M194 446l14-14 38 39 0-471 21 0 0 471 37-39 14 14-61 66z"/>
<glyph glyph-name="down" unicode="&#57348;" d="M318 65l-14 15-37-39 0 471-21 0 0-471-38 39-14-15 63-65z"/>
<glyph glyph-name="left" unicode="&#35;" d="M66 194l14 14-39 37 471 0 0 21-471 0 39 38-14 14-66-63z"/>
<glyph glyph-name="down-right" unicode="&#57350;" d="M14 425l59 64 338-320 0 224 87 0 0-370-370 0 0 87 219 0z"/>
<glyph glyph-name="down-left" unicode="&#57351;" d="M498 425l-59 64-338-320 0 224-87 0 0-370 370 0 0 87-219 0z"/>
<glyph glyph-name="links" unicode="&#76;" d="M157 0c-35 0-61 10-86 36-30 25-40 60-40 96 0 35 15 71 45 101 51 51 86 86 117 117 20 10 40 20 66 20 20 0 40-10 55-25 20-16 26-36 31-61 0-25-11-46-26-66l-111-106-30 35 106 106c10 11 10 16 10 31 0 10-5 20-10 25-10 10-15 10-31 15-10 0-15-5-25-15l-116-111c-21-20-31-46-31-66 0-20 5-41 26-61 15-15 30-25 55-25 26 0 46 10 71 35l162 162c31 31 41 61 46 91 0 36-10 61-41 92-30 25-60 40-91 40-30-5-66-20-91-45l-157-157-35 30 157 157c35 40 81 61 126 61 46 0 86-15 122-56 35-35 55-81 50-127 0-40-20-81-55-121l-162-162c-31-31-66-46-107-46z"/>
<glyph glyph-name="ok" unicode="&#108;" d="M470 214c0-5-5-10-5-10 0-5 0-11 0-16 0-16 0-31-5-47 0-5-5-10-5-16 0-5-6-15-11-21-5-5-5-5-5-10-5-5-11-10-16-16 0 0-5-5-5-10 0-5-5-11-5-11 0 0 0-10-5-15-6-5-11-11-16-11-5 0-11-10-21-15-16-11-42-16-68-16l-5 0c-47 0-89 10-131 37-15 10-57 15-130 15l-11 0 0 47 11 0c15 0 26 0 41 0 16 0 32 0 42 0 11 0 26-5 42-5 16 0 21-10 31-16 32-21 68-31 105-31 21 0 36 0 52 10 5 6 10 6 16 11 5 5 5 10 10 16 0 10 5 20 11 26 0 5 5 10 15 21 0 0 6 5 6 5 0 0 5 5 5 5 0 0 0 5 5 5 5 0 0 6 0 6 0 10 5 15 0 31 0 10 0 26 0 31 0 11 5 16 10 21 6 11 11 21 11 26 0 5 0 5 0 5 0 0 0 6-5 6-6 0-6 10-11 15-5 6-10 0-21 0l-52 0c-21 0-37 6-52 16-16 16-26 26-26 47 0 21 5 47 15 68 6 16 11 21 11 26 0 11 0 16-5 16-11 5-16 5-27 0-5 0-10-11-26-26-15-16-26-32-41-47l0-6c-11-10-16-15-16-21 0-5-11-10-21-20-10-11-10-11-16-16-5-5-10-11-21-16-5-10-15-15-21-15-5 0-15-11-20-16-6-5-21-5-27-5-5 0-20-6-31-6l0 47c11 0 16 0 26 6 11 5 16 5 21 10 5 5 11 5 21 11 10 5 10 10 16 15 5 5 10 11 15 16 6 5 11 16 16 21 5 5 11 10 16 21l5 5c42 47 68 78 84 84 10 5 20 10 36 10 16 0 26-5 37-10 5-6 15-11 21-21 5-11 10-21 10-32 0-5 0-10 0-21 0-10-5-10-10-15-6-5-6-11-6-16-10-16-15-31-15-42 0-5 5-10 10-15 5-6 16-6 21-6l52 0c26 0 47-5 58-21 10-15 21-31 21-52 5-15 0-31-11-47z"/>
<glyph glyph-name="pic" unicode="&#99;" d="M441 400c20 0 36-5 51-20 15-15 20-30 20-50l0-198c0-20-5-36-20-51-15-15-31-20-51-20l-76 0c15 10 30 25 41 45l30 0c5 0 10 6 15 11 5 5 5 10 5 20l0 187c0 6 0 16-5 21-5 5-5 5-10 5l-71 0-30 61-163 0-35-61-71 0c-5 0-15 0-15-5 0-5-10-10-10-21l0-197c0-5 0-15 5-21 5-5 10-10 15-10l35 0c16-25 31-40 41-45l-71 0c-20 0-36 5-51 20-15 15-20 41-20 61l0 192c0 21 5 36 20 51 15 15 31 20 51 20l46 0 35 61 213 0 35-56z m-253-324c20-15 45-20 71-20 25 0 50 5 71 20 20 15 40 30 50 51 10 20 20 45 20 71 0 25-5 50-20 71-15 20-30 40-50 50-21 11-46 26-71 26-26 0-51-5-71-21-21-15-41-30-51-50-10-21-25-51-25-76 0-26 5-51 20-71 15-21 30-36 56-51z m0 193c20 20 40 30 71 30 30 0 50-10 71-30 20-21 25-41 25-71 0-31-10-46-31-66-20-20-40-31-65-31-26 0-51 11-71 31-21 20-26 40-26 66 0 25 5 50 26 71z"/>
<glyph glyph-name="catalogue" unicode="&#98;" d="M489 331l-95-222-72 0 0-104-95 59-95-59 0 104-36 0c-50 0-73 32-73 95 0 23 5 41 9 59 36 81 68 144 95 190 9 13 18 22 23 31 4 9 18 14 27 18 9 5 27 5 45 5l267 0-122-244-271 0c-5 0-5 0-9 0-5 0-5 0-9-5-5-4-5-4-5-9 0-4-5-9-5-18 0-9 0-18 0-27 0-9 0-18 0-27 0-9 5-14 5-18 0-5 5-5 9-9 5-5 5-5 9-5 5 0 5 0 9 0l36 0 0 64 41 0 0-127 50 32 49-32 0 127 41 0 0-59 45 0 77 176 50 0z m-326 99c-22-32-45-72-67-127l244 0 76 163-194 0c-18 0-27-4-32-9-4-4-18-13-27-27z"/>
<glyph glyph-name="right-light" unicode="&#34;" d="M253 512l256-256-256-256-36 37 198 198-412 0 0 47 412 0-198 193z"/>
<glyph glyph-name="left-light" unicode="&#39;" d="M509 282l0-47-412 0 198-198-36-37-256 256 256 256 36-37-198-193z"/>
<glyph glyph-name="pin" unicode="&#114;" d="M187 498c19 9 43 14 67 14 24 0 47-5 71-14 24-10 43-24 58-39 14-14 29-38 38-57 10-19 14-48 14-72 0-19 0-38-4-57-5-19-10-39-19-58-10-19-15-28-24-43-10-14-20-28-34-43l-81-105-19-24-20 24c-33 48-62 86-76 105-14 15-24 29-34 43-9 15-14 29-24 43-9 15-19 39-23 58-5 19-5 33-5 52 0 24 5 48 14 72 10 24 24 43 38 58 15 14 39 33 63 43z m134-345c28 34 47 67 57 91 10 24 19 53 19 81 0 24-5 48-19 72-14 24-29 38-53 53-24 14-43 19-71 19-29 0-48-5-67-19-20-15-39-29-53-53-14-24-19-43-19-67 0-29 5-57 19-86 14-29 33-53 57-91 10-14 34-43 63-81 33 38 52 67 67 81z m-106 235c10 9 24 19 43 19 20 0 29-5 43-19 15-15 20-24 20-43 0-20-15-29-24-39-10-9-24-19-43-19-20 0-29 5-39 19-9 15-19 24-19 39 0 14 5 33 19 43z"/>
<glyph glyph-name="play" unicode="&#112;" d="M0 0l0 512 512-253z m54 422l0-326 325 163z"/>
<glyph glyph-name="download" unicode="&#68;" d="M452 210l49 0 0-153-496 0 0 153 49 0 0-104 398 0z m-49 92l-147-152-153 152 38 39 88-88 0 202 49 0 0-207 87 87z"/>
<glyph glyph-name="down-right-light" unicode="&#40;" d="M50 512l398-398 0 384 64 0 0-491-491 0 0 64 377 0-398 391z"/>
<glyph glyph-name="down-left-light" unicode="&#41;" d="M512 462l-398-398 377 0 0-64-491 0 0 491 64 0 0-377 398 398z"/>
<glyph glyph-name="right" unicode="&#42;" d="M447 318l-15-14 39-38-471 0 0-21 471 0-39-37 15-14 65 61z"/>
<glyph glyph-name="unlimited" unicode="&#73;" d="M375 130c-48 0-96 51-121 86-31-45-68-86-124-86-70 0-127 57-127 127 0 70 57 127 127 127 31 0 64-18 100-60l-26-38c-27 30-57 50-74 50-44 0-80-35-80-80 0-45 36-80 80-80 43 0 73 45 104 93 34 54 74 114 141 114 70 0 127-57 127-127 0-70-57-126-127-126z m-95 127c26-37 67-80 94-80 45 0 80 36 80 80 0 45-35 80-80 80-37 1-65-36-94-80z"/>
<glyph glyph-name="ticket" unicode="&#84;" d="M509 297l-209 207-286-286 76-76 14 12c15 15 39 15 54 0 15-15 15-40 0-55l-12-12 77-76 101 100z m-288-237l-27 29c17 28 14 66-10 90-24 24-62 29-91 11l-28 28 75 76 35-35 25 26-36 33 136 135 158-158-136-135-34 34-26-25 35-35z m5 198l-26-26 38-38 26 26z"/>
<glyph glyph-name="mouse" unicode="&#83;" d="M392 512l41 0 0-39c0-16-6-31-18-42-11-11-27-17-43-17l-106 0c-6 1-13-2-16-7-5-4-7-9-7-15l0-29c15 1 30 0 44-2 10-1 19-4 28-7 8-3 15-7 22-12 5-3 10-8 14-13 4-5 7-10 9-16 2-5 4-10 5-16 0-6 0-11 0-16l0-134c2-39-11-76-35-106-27-31-67-48-108-45-42-2-82 14-109 45-24 30-36 68-34 106l0 133c0 12 2 24 7 35 5 10 11 18 19 25 9 6 19 11 29 14 11 3 22 6 33 8 12 1 24 1 36 0l0 32c-1 16 6 32 18 43 11 12 27 18 43 18l105 0c6-1 11 1 15 4 5 3 8 8 8 14z m-67-232l0 16c-1 3-2 6-4 8l-9 7c-4 3-9 6-14 7l-23 5c-10 0-20 0-30 0l0-121-42 0 0 123c-10 0-20 0-30 0l-22-5c-5-1-10-3-14-7-3-2-6-5-8-9-2-2-4-5-5-8 0-3 0-5 0-8 0-3 0-5 0-8l0-137c-1-28 7-55 24-78 20-19 47-29 75-27 29-2 58 9 78 31 16 21 25 47 24 74z"/>
<glyph glyph-name="flag" unicode="&#102;" d="M458 418l30 9 0-331-17-6-6 0-16-3c-8-1-16-3-24-3-10-1-20-1-30 0-13-1-25-1-37 0-15 2-30 6-44 11-11 4-22 8-32 14-6 3-16 9-30 18l-6 3c-19 13-39 24-61 31-26 5-53 6-79 3l0 46c30 4 61 2 90-5 10-2 20-5 29-9l22-12 24-14 8-5 8-5 8-5 8-5 9-7 9 0 9-4 11-3 22 0c27-3 53-3 80 0l0 233c-29-4-57-4-85 0-16 2-31 5-46 10-12 4-24 9-34 15-9 4-19 10-32 18l-20 12-19 9c-7 3-14 6-22 8-38 8-78 8-116 0l0-421-46 0 0 455 17 4 12 3c8 2 16 4 24 5 12 0 24 3 37 4 13 1 27 1 41 0 13-1 27-3 40-6 26-9 51-20 74-35l27-17c10-4 19-8 29-12 12-4 24-7 37-8 32-5 64-3 95 4z"/>
<glyph glyph-name="quote" unicode="&#81;" d="M23 200l0 200 211 0 0-192c3-35-10-69-33-95-26-23-60-35-95-33l0 40c25-3 49 5 68 20 15 19 22 44 20 68l0 152-130 0 0-120 95 0 0-40z m257 200l211 0 0-192c2-35-10-69-34-95-26-23-60-35-95-33l0 40c25-3 49 5 68 20 15 19 23 44 20 68l0 152-130 0 0-120 96 0 0-40-136 0z"/>
<glyph glyph-name="plus" unicode="&#43;" d="M468 280l0-50-187 0 0-188-50 0 0 188-188 0 0 50 188 0 0 188 50 0 0-188z"/>
<glyph glyph-name="mic" unicode="&#109;" d="M372 456c-62 0-112-51-112-113 0-62 50-112 112-112 62 0 113 50 113 112 0 62-51 113-113 113z m0-183c-38 0-70 32-70 70 0 39 32 70 70 70 39 0 70-31 70-70 0-38-31-70-70-70z m-135-105l-23-4c-5-1-9-4-13-8-3-4-4-9-4-14 1-8-2-16-8-22-5-6-12-8-20-8-8 0-15 2-20 8-5 5-8 12-8 20 0 8 3 14 8 20 6 5 12 8 20 8l2 0c6-1 10 1 15 4 4 3 6 7 7 12l4 24 50 50c-8 12-14 25-18 39l-65-65c-3-3-5-6-5-11l-3-14c-14-2-26-9-35-18-14-14-21-30-21-49 0-10 2-19 6-27-5-4-10-6-17-8-13-4-24-2-31 0-11 3-23-4-26-15-3-11 3-23 15-26 7-2 16-4 27-4 8 0 17 1 27 4 13 4 24 10 33 17 10-7 22-10 35-10 19 0 35 7 49 20 10 10 16 22 19 35l14 3c4 1 7 3 11 6l63 63c-14 5-27 11-38 19z"/>
<glyph glyph-name="guest" unicode="&#103;" d="M150 184l17 48c10-9 22-17 35-22l-21-62-12-2c-35-7-58-12-68-14-12-3-18-12-20-25-1-6-3-33-6-81l-41 0c2 40 4 69 6 85 2 16 8 29 16 40 9 10 21 17 35 21 14 3 34 7 59 12z m188 87c-22-26-49-40-82-40-33 0-60 14-82 40-22 26-33 59-33 98 0 21 5 41 16 58 10 18 24 33 42 43 18 11 37 16 57 16 20 0 39-5 57-16 18-10 32-25 42-43 11-17 16-37 16-58 0-39-11-72-33-98z m-30 152c-15 15-32 23-52 23-20 0-37-8-52-23-15-15-23-33-23-53 0-28 7-51 22-70 14-19 32-28 53-28 21 0 39 9 53 28 15 19 22 42 22 70 0 20-8 38-23 53z m164-312c1-9 3-37 6-85l-41 0c-3 44-5 71-6 81-2 13-8 22-20 25-10 2-33 7-68 14l-12 2-21 62c12 5 24 13 35 22l17-48c25-5 45-9 59-12 14-4 26-11 35-21 8-11 14-24 16-40z"/>
<glyph glyph-name="mic-alt" unicode="&#77;" d="M233 168l-23-4c-5-1-9-4-12-8-4-4-5-9-5-14 1-8-2-16-8-22-5-6-12-8-20-8-8 0-15 2-20 8-5 5-8 12-8 20 0 8 3 14 8 20 6 5 12 8 20 8l2 0c6-1 10 1 15 4 4 3 6 7 7 12l4 24 50 50c-8 12-14 25-18 39l-65-65c-3-3-5-6-5-11l-3-14c-14-2-26-9-35-18-14-14-21-30-21-49 0-10 2-19 6-27-5-4-10-6-17-8-13-4-24-2-31 0-11 3-23-4-26-15-3-11 4-23 15-26 7-2 16-4 27-4 8 0 17 1 27 4 13 4 24 10 33 17 10-7 22-10 35-10 19 0 35 7 49 20 10 10 16 22 19 35l14 3c4 1 8 3 11 6l63 63c-14 5-26 11-38 19z m245 175c0-60-49-109-110-109-60 0-109 49-109 109 0 61 49 110 109 110 61 0 110-49 110-110z"/>
<glyph glyph-name="gratuit" unicode="&#49;" d="M256 496c-133 0-240-107-240-240 0-133 107-240 240-240 133 0 240 107 240 240 0 133-107 240-240 240z m84-375l-31 0-7 19-8-7c-15-13-27-18-49-18-53 0-80 32-80 143 0 120 22 159 91 159 52 0 82-23 82-77 0-11-2-33-4-43l-56-1c1 8 2 25 2 38 0 18-7 32-24 32-19 0-24-18-24-107 0-81 5-91 27-91 19 0 25 13 25 44l0 18-29 0 0 41 85 0z"/>
<glyph glyph-name="special" unicode="&#50;" d="M256 496c-133 0-240-107-240-240 0-133 107-240 240-240 133 0 240 107 240 240 0 133-107 240-240 240z m-6-380c-63 0-88 30-88 74 0 12 2 25 5 35l56 2c-3-7-4-19-4-28 0-18 11-30 28-30 17 0 29 8 29 30 0 20-13 30-34 43l-34 20c-25 14-43 40-43 73 0 48 31 82 91 82 52 0 72-28 72-70 0-10-1-20-3-26l-55-1c2 4 4 11 4 19 0 20-8 26-22 26-12 0-21-7-21-25 0-20 20-32 38-41l25-12c31-15 48-39 48-78 0-54-23-93-92-93z"/>
<glyph glyph-name="vo" unicode="&#86;" d="M317 357c-25 0-33-27-33-109 0-90 7-109 33-109 25 0 33 19 33 109 0 82-8 109-33 109z m95 133l-312 0c-55 0-100-44-100-99l0-270c0-55 45-99 100-99l312 0c55 0 100 44 100 99l0 270c0 55-45 99-100 99z m-228-378l-44 0-50 271 40 0c0 0 16-98 27-160 3-16 6-33 8-46 2 13 4 30 7 46 11 62 26 160 26 160l37 0z m133-4c-53 0-75 31-75 140 0 106 24 139 75 139 51 0 76-33 76-139 0-109-23-140-76-140z"/>
<glyph glyph-name="avantpremiere" unicode="&#53;" d="M225 212l30 0-17 92z m31 284c-133 0-240-107-240-240 0-133 107-240 240-240 133 0 240 107 240 240 0 133-107 240-240 240z m14-375l-8 50-43 0-7-50-55 0 56 292 64 0 62-292z"/>
<glyph glyph-name="premiereint" unicode="&#54;" d="M503 293c13 12 6 34-12 37l-138 20c-7 1-13 5-16 12l-62 124c-7 17-31 17-38 0l-62-124c-3-7-9-11-16-12l-138-20c-18-3-25-25-12-37l99-98c5-5 8-12 7-19l-24-137c-3-18 16-31 32-23l123 65c6 3 14 3 20 0l123-65c16-8 35 5 32 23l-24 137c-1 7 2 14 7 19z m-225-142l-48 0 0 132-30 0 0 26c10 1 22 4 31 9 8 4 15 10 17 16l30 0z m32 96l-17 0 0 78 17 0z m52 0l-12 0-17 41 0-41-14 0 0 78 15 0 15-37 0 37 13 0z"/>
<glyph glyph-name="premierefr" unicode="&#55;" d="M358 312l-4 0 0-22 4 0c5 0 6 3 6 11 0 8-2 11-6 11z m145-19c13 12 6 34-12 37l-138 20c-7 1-13 5-16 12l-62 124c-7 17-31 17-38 0l-62-124c-3-7-9-11-16-12l-138-20c-18-3-25-25-12-37l99-98c5-5 8-12 7-19l-24-137c-3-18 16-31 32-23l123 65c6 3 14 3 20 0l123-65c16-8 35 5 32 23l-24 137c-1 7 2 14 7 19z m-225-142l-48 0 0 132-30 0 0 26c10 1 22 4 31 9 8 4 15 10 17 16l30 0 0-183z m53 158l-21 0 0-17 18 0 0-14-18 0 0-31-17 0 0 78 38 0z m48-45c1-3 1-6 1-8 0-3 1-8 1-9l-18 0c-1 3-1 6-1 9 0 2 0 9 0 13 0 5-1 9-5 9l-3 0 0-31-17 0 0 78 25 0c14 0 19-9 19-24 0-13-5-17-12-19 7-1 10-6 10-18z"/>
<glyph glyph-name="premiere-1" unicode="&#56;" d="M314 299l-3 0 0-22 4 0c4 0 5 4 5 11 0 8-2 11-6 11z m189-6c13 12 6 34-12 37l-138 20c-7 1-13 5-16 12l-62 124c-7 17-31 17-38 0l-62-124c-3-7-9-11-16-12l-138-20c-18-3-25-25-12-37l99-98c5-5 8-12 7-19l-24-137c-3-18 16-31 32-23l123 65c6 3 14 3 20 0l123-65c16-8 35 5 32 23l-24 137c-1 7 2 14 7 19z m-225-142l-48 0 0 132-30 0 0 26c10 1 22 4 31 9 8 4 15 10 17 16l30 0 0-183z m57 102c0-3 0-6 0-8 0-3 1-7 1-8l-16 0c-1 2-2 5-2 9 0 2 0 8 0 12 0 5-1 8-5 8l-2 0 0-29-17 0 0 74 24 0c13 0 18-8 18-23 0-12-4-16-11-17 7-2 9-6 10-18z m47-16l-39 0 0 74 37 0 0-14-20 0 0-15 18 0 0-14-18 0 0-17 22 0z"/>
<glyph glyph-name="vosta-2" unicode="&#79;" d="M179 313c-15 0-19-15-19-62 0-50 4-61 19-61 14 0 18 11 18 61 0 47-4 62-18 62z m229-90l22 0-11 75z m48 165l-400 0c-31 0-56-25-56-56l0-152c0-31 25-56 56-56l400 0c31 0 56 25 56 56l0 152c0 31-25 56-56 56z m-353-213l-24 0-29 153 23 0c0 0 9-55 15-91 2-9 3-19 4-26 2 8 3 17 5 26 6 36 14 91 14 91l21 0z m76-3c-30 0-43 18-43 79 0 60 14 79 43 79 28 0 42-19 42-79 0-61-13-79-42-79z m91 0c-25 0-37 12-37 39 0 6 1 14 3 19l21 1c-1-5-2-12-2-17 0-20 5-24 15-24 10 0 16 4 16 23 0 18-4 26-20 33-5 2-9 3-13 6-13 6-20 20-20 37 0 25 10 41 36 41 22 0 33-13 33-35 0-6-1-11-2-15l-20-1c0 3 1 9 1 13 0 15-3 22-13 22-10 0-13-7-13-19 0-15 2-20 16-27 5-2 9-4 15-7 16-7 22-21 22-43 0-30-10-46-38-46z m89 3l-23 0 0 135-27 0 0 18 77 0 0-18-27 0z m80 0l-5 29-29 0-5-29-21 0 27 153 27 0 29-153z"/>
<glyph glyph-name="premiere" unicode="&#57;" d="M491 330c18-3 25-25 12-37m0 0c13 12 6 34-12 37l-138 20c-7 1-13 5-16 12l-62 124c-7 17-31 17-38 0l-62-124c-3-7-9-11-16-12l-138-20c-18-3-25-25-12-37l99-98c5-5 8-12 7-19l-24-137c-3-18 16-31 32-23l123 65c6 3 14 3 20 0l123-65c16-8 35 5 32 23l-24 137c-1 7 2 14 7 19z m-215-161l-57 0 0 159-37 0 0 32c13 1 27 4 38 10 10 5 17 12 20 19l36 0z"/>
<glyph glyph-name="premiere-2" unicode="&#48;" d="M256 436l45-92c9-18 27-31 47-34l101-15-73-71c-15-14-21-35-18-55l17-100-90 47c-9 5-19 7-29 7-10 0-20-2-29-7l-90-47 17 100c3 20-3 41-18 55l-73 71 101 15c20 3 38 16 47 34l45 92m0 63c-8 0-15-4-19-13l-62-124c-3-7-9-11-16-12l-138-20c-18-3-25-25-12-37l99-98c5-5 8-12 7-19l-24-137c-2-14 9-26 21-26 4 0 7 1 11 3l123 65c3 1 7 2 10 2 3 0 7-1 10-2l123-65c4-2 7-3 11-3 12 0 23 12 21 26l-24 137c-1 7 2 14 7 19l99 98c13 12 6 34-12 37l-138 20c-7 1-13 5-16 12l-62 124c-3 9-11 13-19 13z m26-354l-46 0 0 128-29 0 0 25c10 1 21 3 30 8 8 4 14 10 16 15l29 0z"/>
</font>
</defs>
</svg>
