<?xml version="1.0" encoding="UTF-8"?>
<svg id="Calque_1" xmlns="http://www.w3.org/2000/svg" xmlns:xlink="http://www.w3.org/1999/xlink" viewBox="0 0 554.35 555.41">
  <defs>
    <style>
      .cls-1 {
        fill: #e40521;
      }

      .cls-2 {
        fill: #5bc5f2;
      }

      .cls-3 {
        fill: #bccf00;
      }

      .cls-4 {
        fill: #f7a600;
      }

      .cls-5 {
        fill: #8bb31d;
      }

      .cls-6 {
        fill: #4565ad;
      }
    </style>
  </defs>
  <g id="wild">
    <a xlink:href="https://en.wikipedia.org/wiki/Mali">
      <g id="malic">
        <path id="A" class="cls-5" d="M86.31,242.49c5.03-3.68,6.36-1.95,14.43-5.12,3.35,6.39,13.88,1.55,15.83,10.14,6.7-5.73,7.64-.44,17.1-1.81.05,4.05,2.35,4.64,3.49,7.02,1.47-1.18,2.95-2.35,2.89-4.53,15.4,6.31,34.58,9.72,40.29,24.21,1.41,2.57,2.21-1.25,5.57-1.21.19,6.14,4.73,4.97,2.03,9.26,4.23-5.87,8.5,3.31,14.2,2.72-1.03,7.87,2.31,20.29,11.25,24.74.97,6.74-1.14,13.89,4.48,20.4-12.67,14.99-38,.01-50.89,7.29-14.1-3.69-30.64-3.59-47.35-3.23-.27-1.23-.55-2.46-.81-3.69-8.87,3.87-10.34-3.77-17.92-1.91-.41-1.85-.82-3.71-1.23-5.56-5.4,4.47-11.6,3.7-18.54,4.07-.41-1.86-.8-3.71-1.21-5.55-5.6,5.07-9.55-4.54-9.68.17-2.64-.02-2.57-4.32-3.48-7.02-1.44,1.74-2.07,4.01-2.49,6.37-7.25-1.96-13.51-5.45-16.64-13.83-1.8.44-.94,2.58-1.04,4.13-4.5-.47-5.61-6.2-10.91-5.41.53-4.2-.21-7.54-2.44-11.12-1.8.44-.94,2.57-1.04,4.12-6.07-3.79-8.79-12.83-16.63-13.85,1.56-2.74.77-4.15-2.68-3.3,6.95-5.08-5.25-3.42,2.08-8.24-1.76-2.21-4.72-2.57-8.23-2.07-3.18-10.94-2.75-12.17-6.74-21.85.19-2.23,7.99-7.34,2.09-8.23-.04-3.75,8.44-2.03,3.92-8.65,9.8-2.83,14.24,2.66,24.92-1.57,4.97,5.51,14.02,4.66,19.54,9.31-.16-2.21-1.13-3.19-2.65-3.29,3.16-3.97,13.97,1.28,21.2-.78.28,1.25.56,2.48.81,3.73,5.29-7.41,9.75,5.63,13.4-.99,2.24-.19,2.31,3.02,3.07,5.15"/>
      </g>
    </a>
  </g>
  <path id="B" class="cls-1" d="M416.05,315.99c1.53-.04,1.22-1.94,1.59-3.17,7.44,4.47,12.57,2.05,22.08,3.17v3.15c10.03.49,13.55-4.41,17.34,3.16,3.97-2.98,6.22,1.32,11.06-1.57,5.39,3.54,9.49,1.25,14.18,3.14.85,1.28,1.66,2.58,1.59,4.76,1.34.27,1.48-.63,1.59-1.59,1.85.26,1.31,2.88,1.56,4.74,1.53-.05,1.22-1.95,1.56-3.15,4.64-1.83,5.87,7.55,7.88,3.15,2.17,1.53,3.18,4.2,4.77,6.3,1.25-.83,2.55-1.65,4.71-1.58-.31,1.29-1.56,1.58-1.56,3.16h7.88c4.7,7.89,16.59,9.8,23.67,11.04,1.33,4.43,5.08,6.48,4.71,12.64,1.83.25,2.81-.35,3.18-1.58,2.87,3.95-.14,6.05,1.56,12.62-1.53.05-1.24,1.93-1.56,3.16-5.72,3.21-9.82,8.04-17.38,9.46-4.81,3.64-14.39,10.79-18.91,9.46-1.53.03-1.23,1.93-1.59,3.17-5.57-1.4-8.13,4.04-9.48-1.58-3.01,3.51-4.16,3.32-9.44,6.3-2.46,1.41-4.85,4.21-11.03,4.74-1.22.1-1.66-1.98-3.17-1.57-.38.08-.14,1.49-1.58,1.57.2,0-.39-1.82-1.59-1.57.46-.09-6.22,4.1-6.3-1.59-3.06,1.88-8.01,6.02-11.03,3.16-20.95,9.05-35.64-4.33-50.5-3.16-1.84-.25-1.31-2.87-1.55-4.73-3.38-.73-3.01,2.24-3.15,4.73-8.18-3.41-17.22-5.92-20.52-14.19-1.28.82-2.56,1.65-4.74,1.58.89-3.5-3.01-2.24-3.15-4.73-8.85,3.74-12.37-7.68-20.5-9.47,2.15-6.39-3.43-4.99-3.17-9.46-6.6,4.07-4.87-4.29-12.62-3.17.3-1.27,1.59-1.57,1.59-3.14-7.11,1.31-4.15-7.42-12.64-4.75,3.14-5.92-3.43-8.27-11.03-7.89-3.35-6.26-2.59-13.33,0-20.49,3.38,1.86,8.81,1.69,11.03,4.73,9.91-.96,9.89-2.81,18.94-3.14,4.09-7.49,16.21-6.95,22.09-12.64,5,2.62,14.25-1.98,18.93-4.74,6.85.05,8.74,2.79,11.03-3.14,3.67,1.07,4.22,5.24,7.91,6.3,4.14.47,1.22-6.11,6.29-4.73v3.17c4.35-.92,6.58-3.94,11.06-4.73-.83,1.26-1.66,2.56-1.59,4.73"/>
  <path id="C" class="cls-3" d="M252.12,293.32c1.99,3.55,4.99,5.79,8.96,6.74-3.16-12.85-1.67-15.67-5.95-23.18,7.51-1.17,4.08-15.68,11.96-9.71-1.55-5.78-.79-9.8,3.54-11.15l.49-7.78c-1.31-.52-2.72-.7-4.03.24-3.43-9.42,8.17-19.5-2.98-20.93.41-3.8,4.57-.88,5.62,1.88,1.01-.9,2.07-1.8,3.37-2.49l3.68-10.18c-1.14-2.79-1-6.89,2.66-7.83.27-.99.65-2.23,1.08-3.7-3.15.3-4.22,2.17-6.31-.47,7.33-6,7.4-7.95,1.52-8.21.27-2.12,1.75-3.35,4.85-3.38-.87-6.09-1.72-12.19-2.6-18.31-14.61-8.76-14.99-27.88-27.62-44.12,3.83-13.43-11.28-22.43-12.31-30.28.2,1.45-1.69,3.27-2.62.38-.52-3.45-4.92-1.73-5.97-4.5,8.41-15.03-15.45-9.24-14.19-24.67-7.91,1.26-11.1-3.49-13.07-16.83-9.94-.35-5.3-.66-12.32-11.59-3.99.13-9.52,2.31-10.85-1.12-.82-3.04-.59-7.5-3.73-7.5-1.47,8.47-3.53-7.14-8.58-4.11.32,6.83-5.01-2.94-10.47,1.48-7.18-17.4-26.98-18-41.11-26.18-.35-2.62,1.69-3.42,1.9-5.61-10.31-.68-19.98.29-23.56,3.36,1.61-.08,3.15-.06,3,2.24-5.03,1.52-5.71-2.79-8.59-4.12,2.54,6.59.27,9.56-6.74,8.97,2.41,11.82,5.52,23.36-6.37,30.29.45,4.57,1.74,8.04,4.09,10.07-4.35-.17-6.55,4.53-1.86,5.61-.22-1.45,1.69-3.28,2.61-.38,1.26,7.92-2.66,14.59,2.97,20.92-.19-1.46,1.71-3.27,2.62-.38-2.05.58-6.7,9.77-1.51,8.22-.19-1.45,1.72-3.26,2.62-.38-2.06,26,17.22,40.98,18.25,72.15,7.82,2.06,11.33,9.81,17.96,13.48.74,8.33,8.18,7.73,7.82,17.57,11.81,1.24,14.89,11.19,13.82,22.05,3.12-.03,7.36-1.5,8.2,1.49,4.95,14.18,19.95,14.97,23.16,31.42,3.15-.04,7.37-1.51,8.23,1.5-1.95.87-5.17.81-4.87,3.37,7.67,2.23,13.87,6.43,15.69,16.45,9.72-.51,14.65,5.4,17.92,13.46,4.87.78,11.05-.2,13.82,3.38.79,10.34-7.84,14.9-2.66,23.16l6.99,2.78c9.7.68,19.8-6.37,21.46-13.58"/>
  <path id="D" class="cls-4" d="M280.62,288.77c-.91,4.74-6.56,4.3-7.47,9.05,4.98,10.91,2.16,16.1,3.43,28.32,13.96,2.21,17.67-6.83,33-3.19,4.81-4.57,12.09-6.46,21.42-6.09,6.62-6.64,17.27-8.95,28.65-10.43,4.46-5.78,13.72-6.3,19.27-10.88,7.4.73,8.11-5.85,16.62-3.94.6-1.79,2.09-2.63,4.79-2.12,1.26-2.73,2.74-5.21,5.01-6.82,3.91,7.24,7.48-6.33,16.51-1.62,3.18-9.61,16.84-7.78,21.83-15.44.07,1.45.24,2.81,2.25,2.46,3.92-6.38,12.89-7.2,17.04-13.32,4.65.19,3.27-6.27,9.59-4.26,15.74-18.01,35.09-32.1,47.06-54.22,3,0,3.4-2.86,7.14-2.03,6.06-16.35,21.06-22.89,27.59-38.68-1.81-.6-2.64-2.09-2.12-4.8-13.79-1.64-16.47-13.42-24.94-19.92-10.58-.06-11.82,2.34-18.65-3.19-1.98,5.2-13.18.32-18.83,1.48-5.74-6.16-12.98,3.03-16.21-5.43-7.13-2.05-4.81,6.23-11.93,4.16-12.15-5.48-15.13,1.82-23.75,5.98,3.19-1.54-6.85-.44-7.15,2.03.97-5.39-6.64-2.93-6.73-7.35-11.17,5.78-28.73,4.59-31.4,19.7.66-5.08-1.58-7.55-6.71-7.36-9.1,5.61-13.99,15.85-26.62,17.59-5.34,3.13,2.68,5.85-2.66,6.93-4.51.78-4.56,6.49-11.96,4.15,2.57,7.72-7.65,1.44-5.1,9.15-11.44,1.42-13.69,12.89-21.93,17.8-.09,6.41-4.13,4.55-.43,9.38-9.27,1.32-11.77,10.08-17.14,15.66-1.41-.79-2.57-1.14-3.54-1.29l-1.45,2.99c.73,0,1.57.18,2.52.54.68,4.02-2.01,4.33-4.89,4.47-.52,1.98.81,2.26,2.24,2.45-1.56,2.72-3.07,1.71-3.71-.31l-4.06,7.28c.83-.17,1.72-.24,2.76-.15-.15,1.87-2.07,1.8-3.79,1.96l-.52.94c2.96,5.45-1.34,14.43,1.11,15.73-1.33,4.97-3.27,1.57-5.91-.03l-1.79,6.8c.12-.02.23-.03.36-.05,6.9,5.21-.3,13.3,1.17,25.89"/>
  <path id="E" class="cls-2" d="M77.6,531.24l1.84-.08c4.08-1.25,5.73-6.49,12.67-3.07,6.99-10.59,22.55-7.19,29.43-17.99,2.58.28,3.71,1.41,3.78,3.21,3.23-.71,5.12-3.65,6.39-7.57,4.79,6.95,9.99-3.64,16.66-2.84.52-2.16,1.05-4.31,1.56-6.45.95-2.46,4.37-.88,6.99-.61.29-12.54,12.97-4.82,14.93-14.65,11.17,2.26,14.47-8.39,23.05-10.38,1.39-6.74,5.11-9.69,7.94-14.05.97-2.45,4.36-.88,7.01-.61,4.89-10.08,13.55-15.6,18.06-27.57,2.29-6.1,2.63-13.35,5.2-21.55-1.45-.35-2.88-.69-4.31-1.04-.22-7.38,6.68-3.12,8.56-7.07.06-9.57,5.44-18.26-2.9-25.79,7.53-5.52-.09-13.56,3.03-22.07-10.48-5.84-10.56-9.81-22.12-12.2-11.98,10.9-24.38,2.41-40.3,6.23.99,5.33.8,2.75-.52,2.17-1.47-.65-8.68,8.31-9.67,2.22-7.97,3.98-18.37,3.99-23.56,12.56-1.52-2.13-4.3-3.5-8.1-4.23-8.94,4.4-15.61,12.56-26.24,14.18-.53,2.16-1.04,4.33-1.56,6.47-3.57-1.34-6.47,2.33-6.47-1.58-2.76.89-1.3,7.27-8.55,7.07-1.93-.05-1.83-1.33-1.63-2.68-2.56-.18-1.72,1.89-.52,2.16-6.62,3.22-10.62,10.72-20.38,8.77-1.94,4.82-3.84,9.77-10.71,6.54,1.61,11.81-14.45,10.19-10.62,15.68-2.08,1.62-4.71,2.32-7.51,2.74,4.26,12.45-13.52,10.88-9.52,20.52-5.15-.43-4.32,8.94-10.7,6.53-.41,12.65-5.92,16.99-4.1,26.38-2.38,4.59-2.73-3.41-6.97.59-1.82,4.06-7.05,14.96.15,18.29-5.94,1.64-2.39,3.99-5.88,5.43-.78,8.18,10.35,9.09,2.82,16.64,1.84.01,2.66-1.64,4.82-1.12-1.02,6.19.88,8.7,5.5,15.03-1.29,3.89-7.61-.43-9.66,2.22.59,6.39,4.41,10.8,4.98,17.18,7.81,1.77,14.19,1.2,20.97,1.28l8.18-1.96c4.12-1.45,6.64-5.61,13.18-3.14l4.95-3.28c2.13-2.36,4.69-4.34,6.18-2.28l6.1-1.99c-.4-6.5,7.4.46,6.45-6.92,2.01.55,1.11,2.87,1.11,4.64"/>
  <path id="F" class="cls-6" d="M259.99,360.03c1.49.7,2.71,3.94,3.17,1.19,2.1.25,1.65,3.63,2.14,5.86-5.38,2.53-9.72,5.89-12.59,10.46-.58-.23-.98-.47-1.25-.73l-1.89,3.94c.14.03.28.07.44.11-10.44,48.34,8.45,100.25,32.3,133.57,0-.93.04-1.81,1.35-1.67.47,5.1,4.19,6.16,6.96,8.39,4.54,6.89,10.64,11.83,18.3,14.83,1.37,3.54,5.2,6.05,6.82,6.89,2.86,1.49,4.24,3.47,7.84,2.21,2.44,7.75,8.94,10.52,17.82,10.32,1.97-4.65,3.53-2.05,8.89-2.46-.16-2.08-1.07-3.23-1.99-4.35,5.61-.51,3.65-7.16,3.26-12.52,5.67.47,1.92-6.71,5.22-8.16-1.88-6.58,1.05-9.24-.06-15.21,2.19.37,2.71,1.54,4.5-.47-.16-3.77-2.85-4.41-3.8-7.21,2.37-.39.77-3.96,4.2-3.49-1.48-3.39-1.94-8.37.23-12.2.47,1.14.36,2.97,1.83,2.85-1.35-15.96,3.35-29.7-1.26-40.95,1.13-.45,2.96-.35,2.85-1.82-5.75.89-.68-1.17-1.98-4.36-.2-2.26-6.23-5.58-2.29-7.37.45,1.13.34,2.97,1.81,2.84,1.01-5.76-3.67-4.51-5.3-7.04,1.5-.19,1.61-2.84-.32-3.01.09.83-1.05,1.84-1.52.16,1.08-1.87,1.57-4.24.72-7.68-4.33-4.63-3.43-9.12-7.29-11.41,3.08-5.04-5.67-6.85-7.3-11.41-.16-3.76-1.43-6.16-3.8-7.21.09.84-1.05,1.84-1.5.16,2.52-3.16-1.18-2.62-.79-7.52-2.69.47-3.7-1.12-3.48-4.2-3.17-1.21-5.68-3.21-8.16-5.24-.15,3.25-4.88-1.66-6.35-2.37,2.5-.89-.51-1.91-.47-4.51-1.84.02-3.61-.08-3.32-2.69-6.23-.82-11.44-2.88-15.83-5.96-.22,1.21-1.08,1.89-2.87,1.83-.28-1.92-2.13-1.89-1.97-4.36-11.43,3.33-15.49-2.42-21.85-5.3-1.09,2.33-1.77,5-5.56,5.14,1.98-6.39-1.23-.2-4.51.48.07-.88.16-1.74.26-2.58l-2.05,5.36c.17-.35.34-.72.45-1.12"/>
</svg>