<svg xmlns="http://www.w3.org/2000/svg" width="54.3922" height="59.9374" viewBox="0 0 54.3922 59.9374"><defs><style>.a{fill:#fff;}</style></defs><title>logotype_fifam_seul_white</title><path class="a" d="M.1364,29.2433c4.6894.5834,9.3787,1.1742,14.1653,1.7726a.1541.1541,0,0,1,.1272.2094C11.34,39.2428,7.9146,47.0734,4.7435,54.9938a.1594.1594,0,0,0,.0374.172c.4412.4188.86.8152,1.3013,1.2266a.163.163,0,0,0,.2244-.0075q5.6766-6.0693,11.3607-12.1311a.1582.1582,0,0,1,.2318,0c.06.0748.1122.1347.1646.202,1.78,2.296,3.5675,4.5847,5.3326,6.8807a.4379.4379,0,0,0,.6058.1646q4.4649-1.84,8.9449-3.65c.6433-.2618,1.279-.5161,1.93-.7779a.1605.1605,0,0,1,.1944.06c2.52,4.27,5.0185,8.4962,7.524,12.7293a.1461.1461,0,0,0,.172.0673c1.1891-.3141,2.3484-.6207,3.5376-.9423a.1466.1466,0,0,0,.1122-.172q-.9873-7.0341-1.9595-14.0008a.1566.1566,0,0,1,.2767-.12q3.0626,3.3543,6.1254,6.6863c.1346.1421.2991.3441.4637.3515.688.03,1.3836.0224,2.0941.015a.15.15,0,0,0,.1421-.202Q48.1744,35.6042,42.7372,19.543a.15.15,0,0,1,.15-.2019c3.8292.1869,7.5837.3739,11.3382.5534a.1526.1526,0,0,0,.09-.2842c-2.6775-1.6679-5.3551-3.3432-8.055-5.0259a.1518.1518,0,0,1-.0524-.202c.0449-.0822.0823-.1645.1272-.2393C48.7578,9.94,51.1661,5.7366,53.6192,1.5483A1.8247,1.8247,0,0,0,53.9109.12.1555.1555,0,0,0,53.6267.075a.69.69,0,0,1-.06.0972Q50.089,4.57,46.6188,8.9676c-.9947,1.2639-1.9894,2.52-3.0066,3.8068a.16.16,0,0,1-.2019.0374c-.9424-.5908-1.8773-1.1592-2.79-1.75a.4635.4635,0,0,0-.6357.0225c-2.6776,1.9669-5.3625,3.919-8.04,5.8934a1.114,1.114,0,0,0-.3665.5535c-1.0471,4.1958-2.0717,8.399-3.1038,12.6023-.1347.5534-.2767,1.1069-.4263,1.6977a.1581.1581,0,0,1-.2543.0823,1.9475,1.9475,0,0,1-.2169-.2094q-4.4426-5.228-8.8852-10.4633a.6205.6205,0,0,0-.7329-.172q-7.8306,3.4665-15.6762,6.9032c-.7329.3216-1.4584.6507-2.1913.9723A.1577.1577,0,0,0,.1364,29.2433Z"/></svg>