<?xml version="1.0" encoding="UTF-8"?><svg id="a" xmlns="http://www.w3.org/2000/svg" width="314.8701" height="87.2068" viewBox="0 0 314.8701 87.2068"><defs><style>.b{fill:#28008c;}</style></defs><path class="b" d="m125.4025,37.5269h-11.4717V7.7534h11.4717c7.4336,0,13.4805,6.0469,13.4805,13.4795v2.8145c0,7.4326-6.0469,13.4795-13.4805,13.4795Zm-8.4717-3h8.4717c5.7793,0,10.4805-4.7012,10.4805-10.4795v-2.8145c0-5.7783-4.7012-10.4795-10.4805-10.4795h-8.4717v23.7734Z"/><path class="b" d="m145.1671,8.4742c-.4141-.4141-.6211-.9238-.6211-1.5293,0-.6045.207-1.1152.6211-1.5293s.9238-.6211,1.5293-.6211,1.1152.207,1.5303.6211c.4131.4141.6211.9248.6211,1.5293,0,.6055-.208,1.1152-.6211,1.5293-.415.4141-.9248.6211-1.5303.6211s-1.1152-.207-1.5293-.6211Zm.0957,29.5352V14.1138h2.8682v23.8955h-2.8682Z"/><path class="b" d="m157.4493,34.9273c-2.2305-2.373-3.3457-5.3291-3.3457-8.8652s1.1152-6.4922,3.3457-8.8662c2.2295-2.373,4.9375-3.5605,8.124-3.5605,2.2617,0,4.1738.5498,5.7344,1.6494,1.5605,1.0986,2.6602,2.3018,3.2988,3.6084h.0469v-4.7793h2.8672v23.8955h-2.8672v-4.7793h-.0469c-.6387,1.3076-1.7383,2.5098-3.2988,3.6084-1.5605,1.0996-3.4727,1.6494-5.7344,1.6494-3.1865,0-5.8945-1.1865-8.124-3.5605Zm2.126-15.8672c-1.7363,1.8643-2.6045,4.1982-2.6045,7.002s.8682,5.1367,2.6045,7.001,3.8154,2.7959,6.2373,2.7959c2.3564,0,4.4209-.9316,6.1885-2.7959s2.6523-4.1973,2.6523-7.001-.8848-5.1377-2.6523-7.002-3.832-2.7959-6.1885-2.7959c-2.4219,0-4.501.9316-6.2373,2.7959Z"/><path class="b" d="m186.84,34.9273c-2.2305-2.373-3.3457-5.3291-3.3457-8.8652s1.1152-6.4922,3.3457-8.8662c2.2295-2.373,4.9385-3.5605,8.124-3.5605,2.2627,0,4.1738.5498,5.7354,1.6494,1.5605,1.0986,2.6602,2.3018,3.2979,3.6084h.0479v-4.7793h2.8672v32.9766h-20.3115v-2.6289h17.4443v-11.2314h-.0479c-.6377,1.3076-1.7373,2.5098-3.2979,3.6084-1.5615,1.0996-3.4727,1.6494-5.7354,1.6494-3.1855,0-5.8945-1.1865-8.124-3.5605Zm2.127-15.8672c-1.7373,1.8643-2.6045,4.1982-2.6045,7.002s.8672,5.1367,2.6045,7.001c1.7363,1.8643,3.8145,2.7959,6.2363,2.7959,2.3574,0,4.4209-.9316,6.1895-2.7959,1.7676-1.8643,2.6523-4.1973,2.6523-7.001s-.8848-5.1377-2.6523-7.002c-1.7686-1.8643-3.832-2.7959-6.1895-2.7959-2.4219,0-4.5.9316-6.2363,2.7959Z"/><rect class="b" x="212.769" y="5.0513" width="3.1562" height="7.1479" rx="1.5781" ry="1.5781"/><path class="b" d="m69.4896,11.2808c-.02-.02-.0499-.03-.08-.04-.01,0-.02,0-.02-.02-.3301-.23-.67-.45-1.02-.67-3.53-2.3199-7.3101-4.18-11.29-5.56-5.45-1.88-10.97-2.78-16.4199-2.66-6.05.14-11.99,1.61-17.15,4.23-5.4301,2.73-10.2101,6.79-13.85,11.75-3.6201,4.98-5.92,10.84-6.65,16.92-.6801,5.3799-.2201,11.11,1.39,17.05,1.27,4.65,3.1399,9.16,5.5599,13.44-2.6-4.48-4.61-8.56-6.3099-12.76C1.0695,46.4808-.1204,40.6108.0096,34.9808c.08-6.78,2.2999-13.61,6.25-19.16,3.9301-5.49,9.47-9.97,15.58-12.62C27.5996.6608,34.1896-.4092,40.8596.1408c5.5.44,10.98,1.89,16.74,4.4,4.21,1.86,8.1001,4.0699,11.89,6.74Z"/><path class="b" d="m68.3696,10.5508c-8.26-5.22-18.2901-7.38-27.97-5.96-10.8401,1.51-20.8,7.42-27.3201,16.17-6.5898,8.74-9.46,19.96-7.8799,30.75.7,5.01,2.3398,9.83,4.76,14.21.03.05.0601.1.0999.15-2.5398-4.61-3.8999-9.82-3.97-15.13-.0601-4.99,1.01-10.15,3.1899-15.32.26-.6.52-1.1899.8-1.77,1.6902-3.6,3.8-7.02,6.4102-10.4,2.9399-3.79,6.3699-7.09,10.2-9.81,1.4399-1.02,2.8999-1.94,4.3999-2.77h.01c2.8801-1.61,5.8801-2.85,8.9399-3.72,5.27-1.5,10.78-1.84,15.9301-.97,4.7301.77,9.34,2.58,13.42,5.24-.3301-.23-.67-.45-1.02-.67Z"/><path class="b" d="m46.4472,87.2068c-8.8896,0-17.7148-2.9028-24.8755-8.3066-4.3335-3.2607-8.0684-7.4263-10.7939-12.0425-2.9854-5.0225-4.2363-11.0088-3.5161-16.8442l.0303-.2505c.2949-2.4717,1.0781-9.0376,5.9253-14.7891,1.2939-1.5352,3.7559-3.583,9.7036-8.5303.9521-.7915,2.3066-1.918,3.8286-3.6807,1.0391-1.2031,1.6431-2.1025,2.2266-2.9717.1675-.249.3247-.4839.479-.7061.7031-1.0137,4.481-6.2183,9.9712-9.376,6.7993-3.9111,13.6196-3.3306,16.188-3.1108,7.0957.6045,12.4346,3.543,15.6636,5.9009l.0498.0371c4.1333,3.0977,13.9839,11.96,16.1821,27.3066,2.1875,15.2744-4.7656,26.5845-7.8564,30.7378-6.5361,8.7827-16.499,14.687-27.335,16.1982-1.9482.2861-3.9121.4277-5.8711.4277Zm5.8623-70.7676c-2.1772,0-5.1084.3345-7.8979,1.9385-3.0146,1.7339-5.6543,4.8418-6.7383,6.4053-.126.1816-.2563.376-.395.5825-.6436.9585-1.5249,2.2715-2.96,3.9326-2.0615,2.3887-3.8691,3.8911-4.9487,4.7886-4.541,3.7773-7.7832,6.4746-8.5063,7.3325-2.918,3.4624-3.4253,7.7134-3.6416,9.5283l-.0352.292c-.4438,3.5928.3564,7.4277,2.1948,10.521,2.0718,3.5093,4.9077,6.6699,8.208,9.1528,6.623,4.998,15.1182,7.1694,23.311,5.9668,8.2393-1.1494,15.7817-5.6196,20.7305-12.269,2.3511-3.1592,7.6401-11.7588,5.9795-23.3501-1.709-11.9341-9.7793-18.8428-12.2554-20.7041-2.2007-1.6025-5.8174-3.5879-10.5889-3.9946-.5957-.0508-1.4448-.123-2.4565-.123Z"/><path class="b" d="m114.5532,48.3006c-.749-.7168-1.1235-1.5537-1.1235-2.5088,0-.9561.3745-1.792,1.1235-2.5098.748-.7168,1.6484-1.0752,2.7002-1.0752s1.9512.3584,2.7002,1.0752c.748.7178,1.123,1.5537,1.123,2.5098,0,.9551-.375,1.792-1.123,2.5088-.749.7168-1.6489,1.0752-2.7002,1.0752s-1.9521-.3584-2.7002-1.0752Zm-.6455,28.5557v-24.374h6.6909v24.374h-6.6909Z"/><path class="b" d="m125.856,76.8563v-24.374h6.6909v3.3457h.2388c.4458-.7959.9873-1.4648,1.625-2.0078,1.5605-1.3691,3.4092-2.0547,5.5439-2.0547,2.5483,0,4.6836.7646,6.4038,2.2939.7007.6689,1.2739,1.418,1.7207,2.2461h.2388c.4458-.8281,1.0195-1.5771,1.7207-2.2461,1.7202-1.5293,3.7754-2.2939,6.165-2.2939,2.9312,0,5.2168.8838,6.8579,2.6523,1.6406,1.7686,2.4614,4.3096,2.4614,7.623v14.8154h-6.6909v-14.0986c0-3.5049-1.5137-5.2568-4.54-5.2568-1.4658,0-2.7085.5732-3.7275,1.7207-1.0205,1.1465-1.5298,2.6445-1.5298,4.4922v13.1426h-6.6904v-14.0986c0-3.5049-1.5137-5.2568-4.5405-5.2568-1.4658,0-2.708.5732-3.7275,1.7207-1.02,1.1465-1.5293,2.6445-1.5293,4.4922v13.1426h-6.6909Z"/><path class="b" d="m172.5718,74.0125c-2.1504-2.373-3.2261-5.4873-3.2261-9.3428s1.0757-6.9697,3.2261-9.3438c2.1504-2.373,4.8188-3.5605,8.0049-3.5605,2.1343,0,4.0625.6377,5.7827,1.9121.7329.6055,1.354,1.2422,1.8643,1.9111h.2388v-3.1064h6.6909v24.374h-6.6909v-3.1064h-.2388c-.5103.6689-1.1313,1.3066-1.8643,1.9121-1.7202,1.2734-3.6484,1.9111-5.7827,1.9111-3.186,0-5.8545-1.1865-8.0049-3.5605Zm5.3765-14.6006c-1.1157,1.2754-1.6729,3.0273-1.6729,5.2578s.5571,3.9824,1.6729,5.2568c1.1147,1.2744,2.5488,1.9111,4.3013,1.9111,1.8477,0,3.3452-.6279,4.4922-1.8877,1.1475-1.2578,1.7207-3.0176,1.7207-5.2803s-.5732-4.0225-1.7207-5.2812c-1.147-1.2588-2.6445-1.8877-4.4922-1.8877-1.7524,0-3.1865.6377-4.3013,1.9111Z"/><path class="b" d="m202.4653,73.5584c-2.167-2.3574-3.25-5.4004-3.25-9.1279s1.083-6.7705,3.25-9.1279c2.1665-2.3584,4.8267-3.5371,7.981-3.5371,2.103,0,4.0303.6533,5.7827,1.96.7329.6055,1.354,1.2422,1.8643,1.9111h.2388v-3.1543h6.6909v33.4541h-22.2231v-5.7344h15.5322v-6.9775h-.2388c-.5425.7646-1.1636,1.418-1.8643,1.959-1.7202,1.2744-3.6484,1.9121-5.7827,1.9121-3.1543,0-5.8145-1.1787-7.981-3.5371Zm5.4004-14.1943c-1.147,1.2432-1.7207,2.9316-1.7207,5.0664s.5737,3.8232,1.7207,5.0654c1.147,1.2432,2.644,1.8643,4.4922,1.8643,1.752,0,3.186-.6211,4.3013-1.8643,1.1152-1.2422,1.6729-2.9307,1.6729-5.0654s-.5576-3.8232-1.6729-5.0664c-1.1152-1.2422-2.5493-1.8633-4.3013-1.8633-1.8481,0-3.3452.6211-4.4922,1.8633Z"/><path class="b" d="m232.6455,73.8211c-2.5327-2.501-3.7993-5.5508-3.7993-9.1514s1.2666-6.6514,3.7993-9.1523c2.5332-2.501,5.647-3.752,9.3433-3.752,3.7593,0,6.8501,1.2422,9.2715,3.7275,2.4209,2.4854,3.6323,5.5439,3.6323,9.1768v1.4336h-19.1167c.2549,1.5938.9717,2.9473,2.1509,4.0625,1.1782,1.1152,2.5327,1.6719,4.062,1.6719,1.6885,0,3.1377-.4775,4.3491-1.4336.478-.4131.8604-.8916,1.147-1.4336h7.1685c-.542,1.625-1.3379,3.0586-2.3892,4.3018-2.5498,2.8672-5.9741,4.3008-10.2754,4.3008-3.6963,0-6.8101-1.25-9.3433-3.752Zm3.3691-11.7803h11.709c-.2554-1.2744-.9004-2.3496-1.9355-3.2256-1.0356-.876-2.3022-1.3145-3.7993-1.3145-1.498,0-2.772.4297-3.8232,1.29s-1.7686,1.9443-2.1509,3.25Z"/><path class="b" d="m258.9541,76.8563v-24.374h6.6909v3.585h.2388c.2871-.7646.7173-1.4346,1.2905-2.0078,1.3062-1.3691,2.9468-2.0547,4.9224-2.0547h2.8677v6.4521h-3.5845c-1.8159,0-3.2256.4854-4.2295,1.457-1.0034.9727-1.5054,2.3184-1.5054,4.0381v12.9043h-6.6909Z"/><path class="b" d="m278.9551,48.3006c-.749-.7168-1.1235-1.5537-1.1235-2.5088,0-.9561.3745-1.792,1.1235-2.5098.748-.7168,1.6484-1.0752,2.7002-1.0752s1.9512.3584,2.7002,1.0752c.748.7178,1.123,1.5537,1.123,2.5098,0,.9551-.375,1.792-1.123,2.5088-.749.7168-1.6489,1.0752-2.7002,1.0752s-1.9521-.3584-2.7002-1.0752Zm-.6455,28.5557v-24.374h6.6909v24.374h-6.6909Z"/><path class="b" d="m292.623,73.8211c-2.5327-2.501-3.7993-5.5508-3.7993-9.1514s1.2666-6.6514,3.7993-9.1523c2.5332-2.501,5.647-3.752,9.3433-3.752,3.7593,0,6.8501,1.2422,9.2715,3.7275,2.4209,2.4854,3.6323,5.5439,3.6323,9.1768v1.4336h-19.1167c.2549,1.5938.9717,2.9473,2.1509,4.0625,1.1782,1.1152,2.5327,1.6719,4.062,1.6719,1.6885,0,3.1377-.4775,4.3491-1.4336.478-.4131.8604-.8916,1.147-1.4336h7.1685c-.542,1.625-1.3379,3.0586-2.3892,4.3018-2.5498,2.8672-5.9741,4.3008-10.2754,4.3008-3.6963,0-6.8101-1.25-9.3433-3.752Zm3.3691-11.7803h11.709c-.2554-1.2744-.9004-2.3496-1.9355-3.2256-1.0356-.876-2.3022-1.3145-3.7993-1.3145-1.498,0-2.772.4297-3.8232,1.29s-1.7686,1.9443-2.1509,3.25Z"/></svg>