<svg id="Calque_1" data-name="Calque 1" xmlns="http://www.w3.org/2000/svg" viewBox="0 0 188.68 190"><defs><style>.cls-1{fill:#1d1d1b;}</style></defs><path class="cls-1" d="M130.78,54.37a8.62,8.62,0,0,0-3.89-.69h-3.76V60.8h3.76a8,8,0,0,0,3.86-.75,3,3,0,0,0,1.34-2.88A2.88,2.88,0,0,0,130.78,54.37Z" transform="translate(0 0)"/><path class="cls-1" d="M154.41,53.68h-2.85V73.8h2.3a17,17,0,0,0,6.16-.94,6.77,6.77,0,0,0,3.58-3.14,12.6,12.6,0,0,0,1.19-6q0-5.37-2.55-7.71C160.55,54.46,157.93,53.68,154.41,53.68Z" transform="translate(0 0)"/><polygon class="cls-1" points="93.91 67.79 101.77 67.79 97.86 57.36 93.91 67.79"/><path class="cls-1" d="M17.38,53.68H14.53V73.8h2.29A16.94,16.94,0,0,0,23,72.86a6.74,6.74,0,0,0,3.58-3.14,12.59,12.59,0,0,0,1.2-6q0-5.37-2.55-7.71T17.38,53.68Z" transform="translate(0 0)"/><path class="cls-1" d="M164.55,38.42c-2.5-3.67-12.38-14.44-14.43-16.67a8.33,8.33,0,0,0-.11-11.2c0-.28,0-.55,0-.83,0-5.78-4.62-9.72-10.32-9.72C132.12,0,130,5.91,130,9.78a11.3,11.3,0,0,0,3.47,8.32c-5.89,4.6-8.43,9.55-9.29,19.3a28.45,28.45,0,0,0-.06,4.21H0V85.89H136.41a133.43,133.43,0,0,1,1.77,21.36c.29,11.55-4.53,44-4.53,44l-50.2.85V130.41h-3L73.84,149l-6.59-18.54h-3v23.24h2.05V133.51l6.54,18.2h2l6.51-18.14v20.08h2.08v0l66.2-.59s3.16-29.68,5.77-38.81,10.43-17.88,12.48-21A78.4,78.4,0,0,0,174.42,80c.93-3,2.05-5.22,2.05-16.21S167.34,42.52,164.55,38.42ZM30,75.73q-4.32,4-12.49,4H8.05v-32h9.46q8,0,12.38,4.25t4.39,12Q34.28,71.69,30,75.73Zm15.81,4H39.29v-32h6.48Zm33.16,0H72.27L59.55,58.87V79.78H53.07v-32h6.62L72.46,68.52V47.76h6.47Zm27.29,0-2.25-6H91.66l-2.25,6H82.33l13.1-32h4.82l13,32Zm27.7,0-7.53-13h-3.26v13H116.7v-32h10.84q5.69,0,8.36,2.43a8.88,8.88,0,0,1,2.66,6.89,10,10,0,0,1-1.47,5.63A8.31,8.31,0,0,1,132.82,66l8.59,13.83Zm33.08-4q-4.32,4-12.5,4h-9.41v-32h9.46q8,0,12.38,4.25t4.39,12Q171.32,71.69,167,75.73Z" transform="translate(0 0)"/><polygon class="cls-1" points="1.77 119.61 3.82 119.61 3.82 108.87 14.01 108.87 14.01 106.67 3.82 106.67 3.82 98.56 15.46 98.56 15.46 96.36 1.77 96.36 1.77 119.61"/><polygon class="cls-1" points="33.17 98.56 33.17 96.36 19.94 96.36 19.94 119.61 33.17 119.61 33.17 117.41 22 117.41 22 108.87 32.04 108.87 32.04 106.67 22 106.67 22 98.56 33.17 98.56"/><path class="cls-1" d="M50,113.54a7.14,7.14,0,0,0-.52-2.87,6,6,0,0,0-1.77-2.22,14.82,14.82,0,0,0-3.47-2,12.39,12.39,0,0,1-3.53-2.12,3.4,3.4,0,0,1-1-2.55,3.59,3.59,0,0,1,1-2.57,3.46,3.46,0,0,1,2.59-1.07,4,4,0,0,1,2.36.75A5.39,5.39,0,0,1,47.32,101l1.74-1.23A6.86,6.86,0,0,0,46.69,97a6,6,0,0,0-3.39-1,5.52,5.52,0,0,0-4.15,1.62,5.83,5.83,0,0,0-1.58,4.25,6.17,6.17,0,0,0,.52,2.65,5.46,5.46,0,0,0,1.71,2,15.93,15.93,0,0,0,3.27,1.8,15,15,0,0,1,2.85,1.55,4.77,4.77,0,0,1,1.49,1.65,4.67,4.67,0,0,1,.46,2.17,3.94,3.94,0,0,1-1.14,2.93,4.41,4.41,0,0,1-3.25,1.14,4.7,4.7,0,0,1-3.42-1.34,5.85,5.85,0,0,1-1.65-3.57l-2,.57a7.52,7.52,0,0,0,2.34,4.7,6.77,6.77,0,0,0,4.75,1.77,6.45,6.45,0,0,0,4.8-1.72A6.32,6.32,0,0,0,50,113.54Z" transform="translate(0 0)"/><polygon class="cls-1" points="61.45 119.61 61.45 98.56 68.45 98.56 68.45 96.36 52.39 96.36 52.39 98.56 59.37 98.56 59.37 119.61 61.45 119.61"/><rect class="cls-1" x="72.74" y="96.36" width="2.06" height="23.24"/><polygon class="cls-1" points="88.8 119.61 96.76 96.36 94.5 96.36 87.96 115.9 81.42 96.36 79.13 96.36 87.12 119.61 88.8 119.61"/><path class="cls-1" d="M109.81,113.37l1.91,6.24H114l-7.55-23.25h-1.71l-7.53,23.25h2.26l1.94-6.24Zm-4.19-13.64,3.56,11.61H102Z" transform="translate(0 0)"/><polygon class="cls-1" points="118.35 96.36 118.35 119.61 129.61 119.61 129.61 117.41 120.41 117.41 120.41 96.36 118.35 96.36"/><polygon class="cls-1" points="21.86 153.65 23.92 153.65 23.92 142.91 34.11 142.91 34.11 140.71 23.92 140.71 23.92 132.61 35.55 132.61 35.55 130.41 21.86 130.41 21.86 153.65"/><rect class="cls-1" x="40.04" y="130.41" width="2.06" height="23.24"/><polygon class="cls-1" points="48.69 130.41 48.69 153.65 59.95 153.65 59.95 151.45 50.75 151.45 50.75 130.41 48.69 130.41"/><path class="cls-1" d="M7.2,153.65V143.41H6.32v4a2.52,2.52,0,0,0-.88-.81,2.51,2.51,0,0,0-1.2-.29,2.39,2.39,0,0,0-2,1A4.47,4.47,0,0,0,1.45,150a4.57,4.57,0,0,0,.73,2.71,2.37,2.37,0,0,0,2.06,1,2.48,2.48,0,0,0,1.2-.29,2.58,2.58,0,0,0,.88-.8v1Zm-1.33-1.57a1.69,1.69,0,0,1-1.5.79,1.7,1.7,0,0,1-1.51-.79A3.64,3.64,0,0,1,2.33,150a3.49,3.49,0,0,1,.55-2.08,1.73,1.73,0,0,1,1.49-.77,1.72,1.72,0,0,1,1.49.78A3.57,3.57,0,0,1,6.4,150,3.64,3.64,0,0,1,5.87,152.08Z" transform="translate(0 0)"/><path class="cls-1" d="M9.31,146.4v4.44a4,4,0,0,0,.5,2.16,1.73,1.73,0,0,0,1.55.77,2.49,2.49,0,0,0,1.21-.3,2.06,2.06,0,0,0,.87-.86v1h.88V146.4h-.88v3.34A4.62,4.62,0,0,1,13,152a1.51,1.51,0,0,1-1.39.84,1.09,1.09,0,0,1-1.1-.61,4,4,0,0,1-.28-1.67V146.4Z" transform="translate(0 0)"/><path class="cls-1" d="M11.32,175.83a4.42,4.42,0,0,0,2-2,6.65,6.65,0,0,0,.69-3.12,5.66,5.66,0,0,0-1.59-4.27A6.13,6.13,0,0,0,8,165H1.77V188.2h6.8a6.48,6.48,0,0,0,4.78-1.68A6.58,6.58,0,0,0,15,181.7a7,7,0,0,0-.95-3.84A4.71,4.71,0,0,0,11.32,175.83Zm-7.5-8.67H8a4,4,0,0,1,2.93,1.05,4,4,0,0,1,1,2.95A4.19,4.19,0,0,1,11,174a3.34,3.34,0,0,1-2.62,1.05H3.82Zm8,17.67A4.54,4.54,0,0,1,8.42,186H3.82v-8.84H9a3.77,3.77,0,0,1,2.92,1.14,4.56,4.56,0,0,1,1,3.2A4.5,4.5,0,0,1,11.77,184.83Z" transform="translate(0 0)"/><path class="cls-1" d="M31.61,175.39a7.09,7.09,0,0,0,1-4A6.36,6.36,0,0,0,31,166.61,6.85,6.85,0,0,0,26,165H20.23V188.2h2.06V177.89h4.17l5.15,10.31H34l-5.5-10.6A5.57,5.57,0,0,0,31.61,175.39Zm-5.82.3h-3.5v-8.53h3.5c3.18,0,4.78,1.42,4.78,4.27S29,175.69,25.79,175.69Z" transform="translate(0 0)"/><rect class="cls-1" x="38.56" y="164.96" width="2.06" height="23.24"/><polygon class="cls-1" points="44.89 167.16 51.87 167.16 51.87 188.2 53.95 188.2 53.95 167.16 60.96 167.16 60.96 164.96 44.89 164.96 44.89 167.16"/><path class="cls-1" d="M68.6,165,61.07,188.2h2.26L65.27,182h8.39l1.91,6.24h2.29L70.31,165Zm-2.72,15,3.59-11.61L73,179.93Z" transform="translate(0 0)"/><polygon class="cls-1" points="94.39 184.06 84.43 164.96 82.2 164.96 82.2 188.2 84.26 188.2 84.26 168.99 94.19 188.2 96.44 188.2 96.44 164.96 94.39 164.96 94.39 184.06"/><polygon class="cls-1" points="115.23 184.06 105.27 164.96 103.04 164.96 103.04 188.2 105.1 188.2 105.1 168.99 115.02 188.2 117.28 188.2 117.28 164.96 115.23 164.96 115.23 184.06"/><rect class="cls-1" x="123.88" y="164.96" width="2.06" height="23.24"/><path class="cls-1" d="M149,181.46a17.23,17.23,0,0,0,.65-4.87,15.78,15.78,0,0,0-1.16-6.28,9.63,9.63,0,0,0-3.24-4.2,8.59,8.59,0,0,0-9.67,0,9.7,9.7,0,0,0-3.24,4.2,17.67,17.67,0,0,0,0,12.54,9.7,9.7,0,0,0,3.24,4.2,8.59,8.59,0,0,0,10.16-.38l3,3.33,1.33-1.43-2.93-3.3A11.35,11.35,0,0,0,149,181.46Zm-3.34,2.17-3.27-3.7L141,181.36l3.27,3.67a6.66,6.66,0,0,1-7.64.05,7.56,7.56,0,0,1-2.51-3.37,13.55,13.55,0,0,1-.88-5.12,13.71,13.71,0,0,1,.88-5.13,7.56,7.56,0,0,1,2.51-3.39,6.68,6.68,0,0,1,7.58,0,7.55,7.55,0,0,1,2.5,3.39,13.71,13.71,0,0,1,.89,5.13,14.51,14.51,0,0,1-.51,4A9.68,9.68,0,0,1,145.62,183.63Z" transform="translate(0 0)"/><path class="cls-1" d="M167.24,179.46a8.3,8.3,0,0,1-1.28,5.09,5.49,5.49,0,0,1-7.84,0,8.05,8.05,0,0,1-1.27-5V165h-2.06V179.8q0,4.26,1.85,6.5a7.61,7.61,0,0,0,10.8,0q1.84-2.26,1.85-6.63V165h-2Z" transform="translate(0 0)"/><polygon class="cls-1" points="188.69 167.16 188.69 164.96 175.46 164.96 175.46 188.2 188.69 188.2 188.69 186 177.51 186 177.51 177.46 187.56 177.46 187.56 175.26 177.51 175.26 177.51 167.16 188.69 167.16"/></svg>