<svg xmlns="http://www.w3.org/2000/svg" width="190" height="190" viewBox="0 0 190 190"><defs><style>.a{fill:#fff;}</style></defs><path class="a" d="M125.2785,59.151h-2.1946V74.6568h1.77a13.0962,13.0962,0,0,0,4.7433-.7257,5.21,5.21,0,0,0,2.7614-2.4251,9.71,9.71,0,0,0,.9206-4.602q0-4.1422-1.9649-5.9475T125.2785,59.151Z"/><path class="a" d="M107.0646,59.6819a6.6153,6.6153,0,0,0-2.9912-.5309H101.17v5.4872h2.9031a6.1161,6.1161,0,0,0,2.9737-.5841,2.3205,2.3205,0,0,0,1.0264-2.2126A2.2086,2.2086,0,0,0,107.0646,59.6819Z"/><polygon class="a" points="78.655 70.019 84.709 70.019 81.7 61.983 78.655 70.019"/><path class="a" d="M19.6772,59.151H17.4824V74.6568h1.77a13.1,13.1,0,0,0,4.7439-.7257,5.211,5.211,0,0,0,2.7612-2.4251,9.7076,9.7076,0,0,0,.9205-4.602q0-4.1422-1.9649-5.9475T19.6772,59.151Z"/><polygon class="a" points="7.499 120.578 9.548 120.578 9.548 109.873 19.705 109.873 19.705 107.679 9.548 107.679 9.548 99.601 21.148 99.601 21.148 97.406 7.499 97.406 7.499 120.578"/><polygon class="a" points="38.807 99.601 38.807 97.406 25.62 97.406 25.62 120.578 38.807 120.578 38.807 118.384 27.669 118.384 27.669 109.873 37.681 109.873 37.681 107.679 27.669 107.679 27.669 99.601 38.807 99.601"/><path class="a" d="M53.84,119.1985a6.3339,6.3339,0,0,0,1.7026-4.671,7.1573,7.1573,0,0,0-.52-2.86,5.9669,5.9669,0,0,0-1.76-2.2108,14.9378,14.9378,0,0,0-3.4628-1.978,12.3328,12.3328,0,0,1-3.52-2.1106,3.4078,3.4078,0,0,1-1.0387-2.5434,3.56,3.56,0,0,1,1.0243-2.56,3.4348,3.4348,0,0,1,2.5825-1.0638,3.97,3.97,0,0,1,2.3517.7482,5.4473,5.4473,0,0,1,1.7171,2.1114l1.7312-1.23a6.8263,6.8263,0,0,0-2.3662-2.7926,6.0239,6.0239,0,0,0-3.3759-.9642,5.5242,5.5242,0,0,0-4.1408,1.6123,5.8129,5.8129,0,0,0-1.5724,4.2389,6.2006,6.2006,0,0,0,.5192,2.6429,5.4322,5.4322,0,0,0,1.7026,2.0118,15.9646,15.9646,0,0,0,3.2605,1.7951,15.415,15.415,0,0,1,2.8423,1.5459,4.7919,4.7919,0,0,1,1.4859,1.6454,4.6789,4.6789,0,0,1,.4617,2.1608,3.9414,3.9414,0,0,1-1.14,2.9259,4.4158,4.4158,0,0,1-3.246,1.13,4.6649,4.6649,0,0,1-3.4049-1.33,5.8552,5.8552,0,0,1-1.6448-3.5571l-2.0489.5648a7.4924,7.4924,0,0,0,2.3373,4.6878A6.7684,6.7684,0,0,0,49.05,120.91,6.456,6.456,0,0,0,53.84,119.1985Z"/><polygon class="a" points="66.998 120.578 66.998 99.601 73.981 99.601 73.981 97.406 57.966 97.406 57.966 99.601 64.92 99.601 64.92 120.578 66.998 120.578"/><rect class="a" x="78.2511" y="97.406" width="2.0489" height="23.1718"/><polygon class="a" points="94.265 120.578 102.201 97.406 99.95 97.406 93.429 116.887 86.908 97.406 84.628 97.406 92.592 120.578 94.265 120.578"/><path class="a" d="M115.2144,114.3609l1.9045,6.2169h2.28L111.8674,97.406h-1.7026l-7.5023,23.1718h2.2507l1.9335-6.2169Zm-4.1838-13.597,3.5492,11.569h-7.1274Z"/><polygon class="a" points="123.726 97.406 123.726 120.578 134.951 120.578 134.951 118.384 125.775 118.384 125.775 97.406 123.726 97.406"/><polygon class="a" points="27.532 154.517 29.581 154.517 29.581 143.812 39.738 143.812 39.738 141.618 29.581 141.618 29.581 133.539 41.181 133.539 41.181 131.345 27.532 131.345 27.532 154.517"/><rect class="a" x="45.6531" y="131.3448" width="2.0489" height="23.1718"/><polygon class="a" points="54.281 131.345 54.281 154.517 65.505 154.517 65.505 152.323 56.329 152.323 56.329 131.345 54.281 131.345"/><path class="a" d="M86.8578,154.5167H87.92l-.02.0465,67.6881.7935s3.2146-30.1309,5.8619-39.3966,10.5894-18.1531,12.6694-21.3677a45.9644,45.9644,0,0,0,8.6984-27.6078c0-13.5514-9.2657-23.8259-12.1021-27.9861s-15.0384-17.338-15.0384-17.338l-.5079-.1115a8.4732,8.4732,0,0,0,.7824-10.6783c.0308-.333.05-.6684.05-1.0071C156.0014,3.9976,151.3086,0,145.52,0c-7.723,0-9.9041,5.9983-9.9041,9.93a11.4852,11.4852,0,0,0,3.5235,8.4444c-5.9817,4.67-8.5617,9.6946-9.4349,19.5921a29.1822,29.1822,0,0,0,1.4677,11.8808H7.38V83.9741H141.5432c1.9753,9.6644,2.1885,16.4777,2.4018,24.9.2966,11.719-4.5986,44.6345-4.5986,44.6345l-50.4112.2054v-22.369H85.9341l-6.579,18.484-6.5789-18.484H69.7754v23.1719h2.0489v-20.08l6.521,18.1514h2.02l6.4925-18.0851Zm-57.48-78.373q-3.3282,3.1155-9.6292,3.1153H12.4908V54.5842h7.2926q6.16,0,9.5408,3.2747t3.3808,9.2574Q32.705,73.0289,29.3774,76.1437ZM41.5551,79.259H36.5635V54.5842h4.9916Zm25.56,0H61.9816L52.1752,63.1513V79.259H47.1837V54.5842h5.0977l9.8417,16.0016V54.5842h4.9916Zm21.0283,0-1.7346-4.6377H76.9208L75.1861,79.259h-5.452l10.09-24.6748h3.7172L93.5594,79.259Zm21.3464,0-5.8056-10.0185H101.17V79.259H96.2142V54.5842h8.3546q4.3894,0,6.443,1.8762a6.8325,6.8325,0,0,1,2.0532,5.31,7.7193,7.7193,0,0,1-1.1327,4.3368,6.405,6.405,0,0,1-3.2924,2.4958l6.62,10.6558Zm25.489-3.1153q-3.3279,3.1155-9.629,3.1153h-7.2576V54.5842h7.2931q6.16,0,9.5406,3.2747t3.3808,9.2574Q138.3063,73.0289,134.9784,76.1437Z"/><path class="a" d="M12.9181,154.5167V144.3044h-.8774V148.26a2.4942,2.4942,0,0,0-.8838-.8132,2.4636,2.4636,0,0,0-1.1891-.2852,2.396,2.396,0,0,0-2.0411,1.0109,4.5006,4.5006,0,0,0-.7437,2.7247,4.6116,4.6116,0,0,0,.7246,2.7036,2.3683,2.3683,0,0,0,2.06,1.0327,2.4464,2.4464,0,0,0,1.1955-.2859,2.552,2.552,0,0,0,.8774-.7983v.9671Zm-1.3288-1.56a1.6978,1.6978,0,0,1-1.4944.7836,1.7085,1.7085,0,0,1-1.5068-.7836,3.6255,3.6255,0,0,1-.5276-2.0591,3.5148,3.5148,0,0,1,.5467-2.0732,1.7307,1.7307,0,0,1,1.4877-.7687,1.711,1.711,0,0,1,1.4817.7765,3.55,3.55,0,0,1,.54,2.0654A3.6286,3.6286,0,0,1,11.5893,152.9566Z"/><path class="a" d="M19.1367,150.6194a4.6222,4.6222,0,0,1-.4768,2.2857,1.5168,1.5168,0,0,1-1.3924.8351,1.0849,1.0849,0,0,1-1.0938-.6078,4.049,4.049,0,0,1-.28-1.6631v-4.1754h-.8774v4.4246a3.8973,3.8973,0,0,0,.5026,2.1537,1.7214,1.7214,0,0,0,1.5449.7616,2.5261,2.5261,0,0,0,1.2017-.2929,2.118,2.118,0,0,0,.8711-.8647v1.04h.8775v-7.2228h-.8775Z"/><path class="a" d="M16.4527,176.7152a4.129,4.129,0,0,0,1.8448-1.8285,6.1823,6.1823,0,0,0,.6511-2.9223,5.2959,5.2959,0,0,0-1.492-4.0008,5.7366,5.7366,0,0,0-4.1512-1.4382H7.5v21.7868h6.3756a6.0464,6.0464,0,0,0,4.4767-1.5783,6.1246,6.1246,0,0,0,1.5734-4.5172,6.5892,6.5892,0,0,0-.8951-3.5946A4.4453,4.4453,0,0,0,16.4527,176.7152Zm-7.0266-8.1264h3.8793a3.6877,3.6877,0,0,1,2.74.9843,3.7576,3.7576,0,0,1,.9766,2.7663,3.9092,3.9092,0,0,1-.8817,2.7039,3.1271,3.1271,0,0,1-2.4554.9843H9.4261Zm7.4471,16.5661a4.2475,4.2475,0,0,1-3.1337,1.0945H9.4261v-8.2837h4.8291a3.5366,3.5366,0,0,1,2.74,1.0632,4.2722,4.2722,0,0,1,.9766,3.0006A4.2169,4.2169,0,0,1,16.8732,185.1549Z"/><path class="a" d="M35.4706,176.3091a6.6415,6.6415,0,0,0,.977-3.7507,5.9867,5.9867,0,0,0-1.5873-4.486,6.4057,6.4057,0,0,0-4.6529-1.547H24.8085v21.7868h1.9264v-9.6589h3.9066l4.8291,9.6589h2.2519l-5.1547-9.94A5.1715,5.1715,0,0,0,35.4706,176.3091Zm-5.453.2813H26.7349v-8.0016h3.2827q4.4765,0,4.4763,4.0008T30.0176,176.59Z"/><rect class="a" x="41.9819" y="166.5254" width="1.9264" height="21.7868"/><polygon class="a" points="47.923 168.589 54.462 168.589 54.462 188.312 56.415 188.312 56.415 168.589 62.981 168.589 62.981 166.525 47.923 166.525 47.923 168.589"/><path class="a" d="M70.143,166.5254l-7.0539,21.7868h2.1162l1.8179-5.8453h7.8676l1.7907,5.8453h2.1434l-7.0811-21.7868Zm-2.55,14.0347,3.3643-10.8775L74.2942,180.56Z"/><polygon class="a" points="94.316 184.436 84.983 166.525 82.894 166.525 82.894 188.312 84.821 188.312 84.821 170.308 94.126 188.312 96.242 188.312 96.242 166.525 94.316 166.525 94.316 184.436"/><polygon class="a" points="113.85 184.436 104.517 166.525 102.428 166.525 102.428 188.312 104.354 188.312 104.354 170.308 113.66 188.312 115.776 188.312 115.776 166.525 113.85 166.525 113.85 184.436"/><rect class="a" x="121.9613" y="166.5254" width="1.9264" height="21.7868"/><path class="a" d="M145.47,181.9983a16.0774,16.0774,0,0,0,.6106-4.5636,14.9288,14.9288,0,0,0-1.0859-5.8924,9.0361,9.0361,0,0,0-3.0384-3.9384,8.0739,8.0739,0,0,0-9.0619,0,9.0341,9.0341,0,0,0-3.0385,3.9384,16.4546,16.4546,0,0,0,0,11.7529,9.0309,9.0309,0,0,0,3.0385,3.9385,8.031,8.031,0,0,0,9.5225-.3591L145.1847,190l1.2477-1.344-2.74-3.0942A10.6869,10.6869,0,0,0,145.47,181.9983ZM142.336,184.03l-3.0656-3.47-1.3022,1.344,3.0657,3.4386a6.2288,6.2288,0,0,1-7.1624.0472,7.0649,7.0649,0,0,1-2.3469-3.1573,14.3678,14.3678,0,0,1,0-9.6118,7.058,7.058,0,0,1,2.3469-3.1725,6.2458,6.2458,0,0,1,7.1079,0,7.0652,7.0652,0,0,1,2.3469,3.1725,12.8926,12.8926,0,0,1,.827,4.8139,13.6932,13.6932,0,0,1-.4739,3.7354A8.95,8.95,0,0,1,142.336,184.03Z"/><path class="a" d="M162.6017,180.1227a7.7839,7.7839,0,0,1-1.1934,4.7667,5.16,5.16,0,0,1-7.3525.016,7.5784,7.5784,0,0,1-1.1934-4.6891V166.5254h-1.9261v13.91a9.3374,9.3374,0,0,0,1.7363,6.0955,7.1211,7.1211,0,0,0,10.1189-.0319q1.7363-2.1244,1.7363-6.22V166.5254h-1.9261Z"/><polygon class="a" points="170.307 188.312 182.705 188.312 182.705 186.249 172.233 186.249 172.233 178.247 181.647 178.247 181.647 176.184 172.233 176.184 172.233 168.589 182.705 168.589 182.705 166.525 170.307 166.525 170.307 188.312"/></svg>