<?xml version="1.0" encoding="UTF-8"?>
<svg id="Calque_1" data-name="Calque 1" xmlns="http://www.w3.org/2000/svg" viewBox="0 0 254.5 64.3">
  <defs>
    <style>
      .cls-1 {
        fill: #d7be96;
      }

      .cls-2 {
        fill: #ef5a3f;
      }

      .cls-3 {
        fill: #efe5d5;
      }

      .cls-4 {
        fill: #380908;
      }

      .cls-5 {
        fill: #ff644b;
      }

      .cls-6 {
        fill: #3c0a0a;
      }

      .cls-7 {
        fill: #3a1011;
      }
    </style>
  </defs>
  <g>
    <path class="cls-7" d="M105.4,12.8l3.8,5.5h-2.9l-3.4-5h-2.4v5h-2.5V3.2h4.6c1.7,0,3.1.5,4.1,1.4,1,.9,1.5,2.2,1.5,3.7,0,.6-.1,1.2-.3,1.8-.2.5-.4,1-.7,1.3-.3.3-.5.6-.8.8s-.5.4-.7.5l-.3.1s0,0,0,0ZM100.5,5.4v5.6h2.1c.9,0,1.7-.2,2.2-.7s.8-1.2.8-2.1-.3-1.6-.8-2.1-1.3-.7-2.2-.7c0,0-2.1,0-2.1,0Z"/>
    <path class="cls-7" d="M116,7.2c1.6,0,2.9.5,3.9,1.5s1.4,2.3,1.4,4v.8h-8.6c.1.9.5,1.6,1.1,2.2s1.5.8,2.6.8c.5,0,.9,0,1.4-.1.4-.1.8-.2,1.1-.3.3-.1.5-.3.7-.4.2-.1.4-.2.5-.3l.1-.1h.3v2.3s-.1.1-.2.1c-.1.1-.3.2-.5.3-.3.1-.6.3-.9.4s-.7.2-1.2.3c-.5.1-1,.1-1.6.1-1.7,0-3-.5-4.1-1.6s-1.6-2.4-1.6-4.1c0-1.6.5-3,1.6-4,1.1-1.3,2.4-1.9,4-1.9ZM116.1,9.4c-.9,0-1.6.2-2.1.6-.6.4-1,.9-1.2,1.5h6.2c-.1-.6-.4-1.1-.9-1.6-.5-.3-1.2-.5-2-.5ZM115.1,6l1.4-3.8h2.7l-2.5,3.8h-1.6Z"/>
    <path class="cls-7" d="M133.4,8.8c1,1.1,1.5,2.4,1.5,4.1,0,1.6-.5,3-1.5,4.1s-2.3,1.6-3.7,1.6c-.5,0-1-.1-1.4-.2-.4-.1-.8-.3-1.1-.5-.3-.2-.5-.4-.7-.6s-.3-.4-.4-.5l-.1-.2h-.1v6.2h-2.4V7.5h2.3l.1,1.7h.1c0-.1.1-.1.1-.2.1-.1.2-.2.4-.5s.5-.4.7-.6c.3-.2.6-.3,1.1-.5.4-.1.9-.2,1.4-.2,1.4,0,2.7.5,3.7,1.6ZM126.8,10.4c-.6.7-1,1.5-1,2.5s.3,1.9,1,2.5c.6.7,1.4,1,2.4,1s1.7-.3,2.4-1,1-1.5,1-2.5-.3-1.9-1-2.5c-.6-.7-1.4-1-2.4-1s-1.8.3-2.4,1Z"/>
    <path class="cls-7" d="M142.2,7.2c1.6,0,2.9.5,3.9,1.5s1.4,2.3,1.4,4v.8h-8.6c.1.9.5,1.6,1.1,2.2s1.5.8,2.6.8c.5,0,.9,0,1.4-.1.4-.1.8-.2,1.1-.3.3-.1.5-.3.7-.4.2-.1.4-.2.5-.3l.1-.1h.3v2.3s-.1.1-.2.1c-.1.1-.3.2-.5.3-.3.1-.6.3-.9.4-.3.1-.7.2-1.2.3-.5.1-1,.1-1.6.1-1.7,0-3-.5-4.1-1.6s-1.6-2.4-1.6-4.1c0-1.6.5-3,1.6-4,1.1-1.3,2.4-1.9,4-1.9ZM142.3,9.4c-.9,0-1.6.2-2.1.6-.6.4-1,.9-1.2,1.5h6.2c-.1-.6-.4-1.1-.9-1.6-.5-.3-1.2-.5-2-.5Z"/>
    <path class="cls-7" d="M154.7,9.4c-.3,0-.7.1-1,.2-.3.2-.6.3-.8.6-.2.2-.4.4-.6.7s-.3.4-.4.6l-.1.2v6.6h-2.4V7.5h2.3l.1,1.7h.1c0-.1.1-.1.1-.2s.2-.2.4-.5c.2-.2.4-.4.6-.6.2-.2.5-.3.9-.5.4-.1.7-.2,1.1-.2.5,0,.9.1,1.3.2.4.1.7.3.8.4l.2.2-.5,2.1c0-.1-.1-.1-.2-.2-.1-.1-.3-.2-.7-.3-.3-.2-.7-.2-1.2-.2Z"/>
    <path class="cls-7" d="M159.5,14.7v-5h-2v-.8l4.2-4.6h.1v3.2h3.4v2.2h-3.4v4.9c0,.6.2,1.1.5,1.4s.7.5,1.2.5c.3,0,.6-.1.9-.2.3-.1.5-.3.6-.4l.2-.2h.3v2.1c-.1.1-.2.2-.3.3-.1.1-.4.2-.9.4s-.9.3-1.4.3c-1,0-1.9-.3-2.5-1-.6-.9-.9-1.9-.9-3.1Z"/>
    <path class="cls-7" d="M176.9,8.8c1.1,1.1,1.7,2.4,1.7,4.1s-.6,3-1.7,4.1c-1.1,1.1-2.5,1.6-4.2,1.6s-3.1-.5-4.2-1.6c-1.1-1.1-1.7-2.4-1.7-4.1s.6-3,1.7-4.1c1.1-1.1,2.5-1.6,4.2-1.6s3,.5,4.2,1.6ZM170.2,10.4c-.6.7-1,1.5-1,2.5s.3,1.9,1,2.5c.6.7,1.5,1,2.5,1s1.8-.3,2.5-1c.6-.7,1-1.5,1-2.5s-.3-1.9-1-2.5c-.6-.7-1.5-1-2.5-1-1.1,0-1.9.3-2.5,1Z"/>
    <path class="cls-7" d="M180.9,5c-.3-.2-.4-.6-.4-1s.1-.8.4-1c.3-.3.6-.4,1-.4s.7.1,1,.4.4.6.4,1-.1.8-.4,1c-.3.2-.6.4-1,.4-.4-.1-.7-.2-1-.4ZM183.1,7.4v10.9h-2.4V7.4c.3.1.7.2,1.2.2.2,0,.4,0,.6-.1.2,0,.3-.1.4-.1h.2Z"/>
    <path class="cls-7" d="M191.1,9.4c-.3,0-.7.1-1,.2-.3.2-.6.3-.8.6s-.4.4-.6.7-.3.4-.4.6l-.1.2v6.6h-2.4V7.5h2.3l.1,1.7h.1c0-.1.1-.1.1-.2s.2-.2.4-.5.4-.4.6-.6c.2-.2.5-.3.9-.5.4-.1.7-.2,1.1-.2.5,0,.9.1,1.3.2.4.1.7.3.8.4l.2.2-.5,2.1c0-.1-.1-.1-.2-.2-.1-.1-.3-.2-.7-.3-.4-.2-.8-.2-1.2-.2Z"/>
    <path class="cls-7" d="M199.7,7.2c1.6,0,2.9.5,3.9,1.5s1.4,2.3,1.4,4v.8h-8.6c.1.9.5,1.6,1.1,2.2s1.5.8,2.6.8c.5,0,.9,0,1.4-.1.4-.1.8-.2,1.1-.3.3-.1.5-.3.7-.4.2-.1.4-.2.5-.3l.1-.1h.3v2.3s-.1.1-.2.1c-.1.1-.3.2-.5.3-.3.1-.6.3-.9.4-.3.1-.7.2-1.2.3-.5.1-1,.1-1.6.1-1.7,0-3-.5-4.1-1.6s-1.6-2.4-1.6-4.1c0-1.6.5-3,1.6-4,1.1-1.3,2.4-1.9,4-1.9ZM199.8,9.4c-.9,0-1.6.2-2.1.6-.6.4-1,.9-1.2,1.5h6.2c-.1-.6-.4-1.1-.9-1.6-.5-.3-1.2-.5-2-.5Z"/>
    <path class="cls-5" d="M98.8,37.7c-1-1.1-1.5-2.4-1.5-4.1,0-1.6.5-3,1.5-4.1s2.3-1.6,3.7-1.6c.5,0,1,.1,1.5.2s.8.3,1.1.5c.3.2.5.4.7.6s.3.4.4.5l.1.2h.1v-6.7h1.8v15.8h-1.7l-.1-1.8h-.1c0,.1-.1.1-.1.2-.1.1-.2.3-.4.5-.2.2-.5.4-.7.6-.3.2-.6.3-1.1.5s-.9.2-1.5.2c-1.5.1-2.7-.4-3.7-1.5ZM105.4,36.5c.7-.8,1.1-1.7,1.1-2.9s-.4-2.1-1.1-2.9-1.6-1.1-2.7-1.1c-1,0-1.9.4-2.7,1.1-.7.8-1.1,1.7-1.1,2.9s.4,2.1,1.1,2.9c.7.8,1.6,1.1,2.7,1.1,1.1.1,2-.3,2.7-1.1Z"/>
    <path class="cls-5" d="M112.2,29.5c1-1.1,2.4-1.6,3.9-1.6,1.6,0,2.8.5,3.8,1.5.9,1,1.4,2.3,1.4,3.9v.6h-8.9c.1,1.1.5,2,1.3,2.7.7.7,1.7,1,2.8,1,.8,0,1.5-.1,2.1-.4.6-.2,1.1-.5,1.3-.7l.4-.4h.3v1.9s-.1.1-.2.1c-.1.1-.2.2-.5.3s-.5.3-.9.4c-.3.1-.7.2-1.2.3s-1,.1-1.6.1c-1.6,0-3-.5-4-1.6-1.1-1.1-1.6-2.4-1.6-4.1,0-1.5.5-2.9,1.6-4ZM116.1,29.6c-.9,0-1.6.3-2.3.8-.6.5-1,1.2-1.3,1.9h6.8c-.1-.8-.5-1.4-1.1-1.9-.5-.6-1.2-.8-2.1-.8Z"/>
    <path class="cls-5" d="M131.1,36c0,1-.4,1.8-1.1,2.4-.7.6-1.8.9-3.2.9-.8,0-1.5-.1-2.2-.3s-1.2-.5-1.5-.7l-.5-.3.4-1.6s.1.1.2.1c.1.1.2.2.5.3.2.1.5.3.8.4.3.1.6.2,1.1.3.4.1.9.1,1.3.1,1.6,0,2.4-.5,2.4-1.6,0-.5-.2-.8-.7-1.1-.4-.3-1-.5-1.6-.7s-1.3-.4-1.9-.6c-.6-.2-1.2-.6-1.6-1-.4-.5-.7-1.1-.7-1.8,0-.9.3-1.6,1-2.1.7-.6,1.6-.9,2.7-.9.5,0,1,.1,1.4.2.5.1.8.2,1.1.4.3.2.6.3.8.5s.4.3.5.4l.2.2-.7,1.5c-.1-.1-.2-.2-.4-.4-.2-.2-.5-.4-1.1-.6-.6-.2-1.2-.4-1.8-.4s-1.1.1-1.5.4c-.3.3-.5.6-.5,1s.2.7.7.9c.4.2,1,.4,1.6.6s1.3.4,1.9.6c.6.2,1.2.6,1.6,1,.6.6.8,1.2.8,1.9Z"/>
    <path class="cls-5" d="M146.1,35.9c0,1-.4,1.9-1.2,2.5s-2,.9-3.6.9c-.8,0-1.6-.1-2.3-.3s-1.2-.5-1.5-.7l-.5-.3.6-2.4c.1.1.2.2.4.3s.6.3,1.2.5,1.2.3,1.9.3c1.2,0,1.8-.3,1.8-.9,0-.2-.1-.5-.4-.6-.3-.2-.6-.3-1.1-.4-.4-.1-.9-.2-1.4-.4s-1-.4-1.4-.6c-.4-.2-.8-.6-1.1-1-.3-.5-.4-1-.4-1.7,0-.9.4-1.7,1.1-2.4.8-.6,1.8-1,3.1-1,.5,0,1,.1,1.5.2s.9.2,1.2.4.6.3.9.5c.3.2.4.3.5.4l.2.2-1.1,2.1c-.1-.1-.2-.2-.3-.3-.1-.1-.4-.3-.9-.5s-1-.3-1.6-.3c-.5,0-.9.1-1.1.3-.3.2-.4.4-.4.7s.2.5.6.6c.4.2.9.3,1.5.4.6.1,1.1.3,1.7.5.6.2,1,.6,1.5,1.1.4.5.6,1.1.6,1.9Z"/>
    <path class="cls-5" d="M152.6,27.7c1.6,0,2.9.4,3.7,1.2.8.8,1.3,1.8,1.3,3.2v6.9h-2.9l-.1-1.6h-.1q0,.1-.1.2c0,.1-.2.2-.3.4-.2.2-.4.4-.6.6-.2.2-.5.3-1,.4-.4.1-.9.2-1.3.2-1.1,0-2-.3-2.6-.9-.7-.6-1-1.4-1-2.4s.4-1.8,1.1-2.5c.7-.6,1.8-.9,3.1-.9.6,0,1.1.1,1.5.2.5.1.8.2,1,.3l.3.2v-.8c0-1.4-.8-2.1-2.4-2.1-.7,0-1.4.1-2.1.4-.7.2-1.1.5-1.4.7l-.4.4h-.3v-2.6c.1-.1.3-.2.6-.4.2-.2.8-.4,1.6-.6.8-.4,1.6-.5,2.4-.5ZM152.1,36.9c.6,0,1.1-.2,1.5-.5s.7-.7.8-1l.2-.5c-.6-.4-1.3-.6-2.2-.6-.6,0-1,.1-1.3.4-.3.2-.5.6-.5,1s.1.7.4,1c.3.1.7.2,1.1.2Z"/>
    <path class="cls-5" d="M161.5,28l2.8,6.6h.1l2.8-6.6h3.2l-4.8,11h-2.6l-4.8-11h3.3Z"/>
    <path class="cls-5" d="M181.3,29.3c1.1,1.1,1.7,2.5,1.7,4.2s-.6,3.1-1.7,4.2c-1.1,1.1-2.6,1.6-4.4,1.6s-3.3-.5-4.4-1.6c-1.1-1.1-1.7-2.5-1.7-4.2s.6-3.1,1.7-4.2c1.1-1.1,2.6-1.6,4.4-1.6s3.3.6,4.4,1.6ZM174.7,31.3c-.6.6-.9,1.3-.9,2.2s.3,1.7.9,2.2c.6.6,1.3.9,2.1.9s1.6-.3,2.1-.9c.6-.6.9-1.3.9-2.2s-.3-1.7-.9-2.2c-.6-.6-1.3-.9-2.1-.9s-1.5.3-2.1.9Z"/>
    <path class="cls-5" d="M185.2,25.9c-.3-.3-.5-.7-.5-1.2s.2-.9.5-1.2c.3-.3.7-.4,1.2-.4s.9.1,1.2.4.5.7.5,1.2-.2.9-.5,1.2c-.3.3-.7.4-1.2.4-.5.1-.9-.1-1.2-.4ZM188,27.9v11.1h-3v-11.1c.4.1.9.2,1.5.2.3,0,.5,0,.8-.1.3,0,.4-.1.5-.1h.2Z"/>
    <path class="cls-5" d="M196.1,30.4c-.3,0-.6.1-.9.2-.3.1-.6.3-.8.5s-.4.4-.5.6c-.2.2-.3.4-.4.5l-.1.2v6.6h-3v-11h2.9l.1,1.7h.1c0-.1.1-.1.1-.2s.1-.2.3-.5c.2-.2.4-.4.6-.6.2-.2.5-.3.8-.5.3-.1.7-.2,1.1-.2.5,0,.9.1,1.3.2.4.2.6.3.8.5l.2.2-.6,2.4c-.4-.4-1.1-.6-2-.6Z"/>
    <path class="cls-5" d="M199.3,33.6v-2.7h7v2.7h-7Z"/>
    <path class="cls-5" d="M209.2,28v-1.5c0-1.3.3-2.3,1-3s1.6-1.1,2.8-1.1c.6,0,1.2.1,1.7.3.5.2.9.3,1.1.5l.3.2-.9,2.2c-.3-.3-.8-.5-1.4-.5-.5,0-.9.1-1.1.4-.3.3-.4.7-.4,1.2v1.3h3.3v2.7h-3.3v8.3h-3v-8.3h-1.9v-2.7h1.8Z"/>
    <path class="cls-5" d="M221.9,27.7c1.6,0,2.9.4,3.7,1.2.8.8,1.3,1.8,1.3,3.2v6.9h-2.9l-.1-1.6h-.1q0,.1-.1.2c0,.1-.2.2-.3.4-.2.2-.4.4-.6.6-.2.2-.5.3-1,.4-.4.1-.9.2-1.3.2-1.1,0-2-.3-2.6-.9-.7-.6-1-1.4-1-2.4s.4-1.8,1.1-2.5c.7-.6,1.8-.9,3.1-.9.6,0,1.1.1,1.5.2.5.1.8.2,1,.3l.3.2v-.8c0-1.4-.8-2.1-2.4-2.1-.7,0-1.4.1-2.1.4-.7.2-1.1.5-1.4.7l-.4.4h-.3v-2.6c.1-.1.3-.2.6-.4.2-.2.8-.4,1.6-.6.7-.4,1.6-.5,2.4-.5ZM221.4,36.9c.6,0,1.1-.2,1.5-.5s.7-.7.8-1l.2-.5c-.6-.4-1.3-.6-2.2-.6-.6,0-1,.1-1.3.4-.3.2-.5.6-.5,1s.1.7.4,1c.3.1.7.2,1.1.2Z"/>
    <path class="cls-5" d="M229.5,25.9c-.3-.3-.5-.7-.5-1.2s.2-.9.5-1.2c.3-.3.7-.4,1.2-.4s.9.1,1.2.4.5.7.5,1.2-.2.9-.5,1.2c-.3.3-.7.4-1.2.4-.4.1-.8-.1-1.2-.4ZM232.3,27.9v11.1h-3v-11.1c.4.1.9.2,1.5.2.3,0,.5,0,.8-.1.3,0,.4-.1.5-.1h.2Z"/>
    <path class="cls-5" d="M240.5,30.4c-.3,0-.6.1-.9.2-.3.1-.6.3-.8.5s-.4.4-.5.6c-.2.2-.3.4-.4.5l-.1.2v6.6h-3v-11h2.9l.1,1.7h.1c0-.1.1-.1.1-.2s.1-.2.3-.5c.2-.2.4-.4.6-.6.2-.2.5-.3.8-.5.3-.1.7-.2,1.1-.2.5,0,.9.1,1.3.2.4.2.6.3.8.5l.2.2-.6,2.4c-.5-.4-1.1-.6-2-.6Z"/>
    <path class="cls-5" d="M249.2,27.7c1.7,0,3,.5,3.9,1.5,1,1,1.4,2.4,1.4,4.1v.8h-8.4c.1.8.5,1.4,1,1.8.6.4,1.4.7,2.4.7.8,0,1.5-.1,2.2-.3.6-.2,1.1-.4,1.3-.6l.4-.3h.3v2.7c-.1.1-.3.2-.5.4s-.7.3-1.5.5-1.6.3-2.4.3c-1.8,0-3.2-.5-4.3-1.6s-1.6-2.5-1.6-4.2.6-3,1.7-4.1c1-1.1,2.4-1.7,4.1-1.7ZM249.4,30.3c-.8,0-1.5.2-2.1.5-.5.4-.9.8-1.1,1.3h5.5c0-.5-.2-1-.7-1.3-.4-.3-.9-.5-1.6-.5Z"/>
    <path class="cls-5" d="M100.5,58.2v6.1h-3v-15.6h2.9l.1,1.6h.1c0-.1.1-.1.1-.2.1-.1.2-.2.4-.4.2-.2.4-.4.7-.6.3-.2.6-.3,1-.4.4-.1.9-.2,1.4-.2,1.5,0,2.7.5,3.7,1.6s1.5,2.5,1.5,4.2-.5,3.1-1.5,4.2c-1,1.1-2.3,1.6-3.7,1.6-.5,0-.9-.1-1.4-.2-.4-.1-.8-.3-1-.5-.3-.2-.5-.4-.7-.5-.2-.2-.3-.3-.4-.5l-.1-.2s-.1,0-.1,0ZM101.4,52c-.6.6-.8,1.3-.8,2.2s.3,1.7.8,2.2c.6.6,1.2.9,2.1.9.8,0,1.6-.3,2.1-.9.6-.6.9-1.3.9-2.2s-.3-1.7-.9-2.2c-.6-.6-1.3-.9-2.1-.9-.9,0-1.5.3-2.1.9Z"/>
    <path class="cls-5" d="M116.3,48.4c1.6,0,2.9.4,3.7,1.2.8.8,1.3,1.8,1.3,3.2v6.9h-2.9l-.1-1.6h-.1q0,.1-.1.2c0,.1-.2.2-.3.4-.2.2-.4.4-.6.6-.2.2-.5.3-1,.4-.4.1-.9.2-1.3.2-1.1,0-2-.3-2.6-.9-.7-.6-1-1.4-1-2.4s.4-1.8,1.1-2.5c.7-.6,1.8-.9,3.1-.9.6,0,1.1.1,1.5.2.5.1.8.2,1,.3l.3.2v-.8c0-1.4-.8-2.1-2.4-2.1-.7,0-1.4.1-2.1.4-.7.2-1.1.5-1.4.7l-.4.4h-.3v-2.6c.1-.1.3-.2.6-.4.2-.2.8-.4,1.6-.6.7-.3,1.5-.5,2.4-.5ZM115.8,57.6c.6,0,1.1-.2,1.5-.5s.7-.7.8-1l.2-.5c-.6-.4-1.3-.6-2.2-.6-.6,0-1,.1-1.3.4-.3.2-.5.6-.5,1s.1.7.4,1c.3.1.6.2,1.1.2Z"/>
    <path class="cls-5" d="M134.2,48.7l-6.2,15.6h-3.1l1.9-4.7-4.8-10.9h3.2l3,7h.1l2.7-7h3.2Z"/>
    <path class="cls-5" d="M143.7,56.6c0,1-.4,1.9-1.2,2.5s-2,.9-3.6.9c-.8,0-1.6-.1-2.3-.3s-1.2-.5-1.5-.7l-.5-.3.6-2.4c.1.1.2.2.4.3s.6.3,1.2.5,1.2.3,1.9.3c1.2,0,1.8-.3,1.8-.9,0-.2-.1-.5-.4-.6-.3-.2-.6-.3-1.1-.4-.4-.1-.9-.2-1.4-.4s-1-.4-1.4-.6c-.4-.2-.8-.6-1.1-1-.3-.5-.4-1-.4-1.7,0-.9.4-1.7,1.1-2.4.8-.6,1.8-1,3.1-1,.5,0,1,.1,1.5.2.5.1.9.2,1.2.4s.6.3.9.5c.3.2.4.3.5.4l.2.2-1.1,2.1c-.1-.1-.2-.2-.3-.3s-.4-.3-.9-.5-1-.3-1.6-.3c-.5,0-.9.1-1.1.3-.3.2-.4.4-.4.7s.2.5.6.6c.4.2.9.3,1.5.4.6.1,1.1.3,1.7.5.6.2,1,.6,1.5,1.1.4.5.6,1.1.6,1.9Z"/>
    <path class="cls-5" d="M150.3,48.4c1.6,0,2.9.4,3.7,1.2s1.3,1.8,1.3,3.2v6.9h-2.9l-.1-1.6h-.1q0,.1-.1.2c0,.1-.2.2-.3.4-.2.2-.4.4-.6.6-.2.2-.5.3-1,.4-.4.1-.9.2-1.3.2-1.1,0-2-.3-2.6-.9-.7-.6-1-1.4-1-2.4s.4-1.8,1.1-2.5c.7-.6,1.8-.9,3.1-.9.6,0,1.1.1,1.5.2.5.1.8.2,1,.3l.3.2v-.8c0-1.4-.8-2.1-2.4-2.1-.7,0-1.4.1-2.1.4-.7.2-1.1.5-1.4.7l-.4.4h-.3v-2.6c.1-.1.3-.2.6-.4.2-.2.8-.4,1.6-.6.7-.3,1.5-.5,2.4-.5ZM149.7,57.6c.6,0,1.1-.2,1.5-.5s.7-.7.8-1l.2-.5c-.6-.4-1.3-.6-2.2-.6-.6,0-1,.1-1.3.4-.3.2-.5.6-.5,1s.1.7.4,1c.4.1.7.2,1.1.2Z"/>
    <path class="cls-5" d="M168.4,59.7h-3v-6.5c0-.7-.2-1.2-.6-1.5-.4-.4-.9-.5-1.5-.5-.8,0-1.4.2-1.9.7s-.8,1.1-.8,2v5.9h-3v-11h2.9l.1,1.6h.1c0-.1.1-.1.1-.2s.2-.2.4-.4.4-.4.7-.6c.2-.2.6-.3,1-.4.4-.1.8-.2,1.3-.2,1.3,0,2.3.4,3.1,1.2s1.1,1.9,1.1,3.3v6.6h0Z"/>
    <path class="cls-5" d="M179,56.6c0,1-.4,1.9-1.2,2.5s-2,.9-3.6.9c-.8,0-1.6-.1-2.3-.3s-1.2-.5-1.5-.7l-.5-.3.6-2.4c.1.1.2.2.4.3s.6.3,1.2.5,1.2.3,1.9.3c1.2,0,1.8-.3,1.8-.9,0-.2-.1-.5-.4-.6-.3-.2-.6-.3-1.1-.4-.4-.1-.9-.2-1.4-.4s-1-.4-1.4-.6c-.4-.2-.8-.6-1.1-1-.3-.5-.4-1-.4-1.7,0-.9.4-1.7,1.1-2.4.8-.6,1.8-1,3.1-1,.5,0,1,.1,1.5.2.5.1.9.2,1.2.4s.6.3.9.5c.3.2.4.3.5.4l.2.2-1.1,2.1c-.1-.1-.2-.2-.3-.3s-.4-.3-.9-.5-1-.3-1.6-.3c-.5,0-.9.1-1.1.3-.3.2-.4.4-.4.7s.2.5.6.6c.4.2.9.3,1.5.4.6.1,1.1.3,1.7.5.6.2,1,.6,1.5,1.1.4.5.6,1.1.6,1.9Z"/>
  </g>
  <g>
    <g>
      <path class="cls-5" d="M52.9841,5.3124c-9.084,0-13.4967,7.6023-15.2595,11.878,6.2878,1.6808,13.0786,3.9565,20.149,6.7965,3.7607,1.5105,7.3009,3.0923,10.6198,4.7028.6027.2915,1.2249.5903,1.8579.897.5356-1.5323,1.1113-3.4077,1.2514-4.6958.3957-3.6378-.1405-7.6444-2.2982-11.098-2.3728-3.7979-5.8918-5.624-7.0707-6.2177-.3061-.1542-1.2873-.609-2.6062-1.0606-2.452-.8395-4.6586-1.2021-6.6434-1.2021"/>
      <path class="cls-5" d="M70.3916,29.6852l-.0713-.0347c-.3496-.1694-.6958-.3364-1.0376-.501l-.8203-.396c-3.4736-1.6855-7.0449-3.2671-10.6152-4.7007-6.9604-2.7964-13.7368-5.082-20.1406-6.7939l-.0781-.0205.0308-.0747c1.8354-4.4526,6.2671-11.9224,15.3247-11.9224,2.0859,0,4.3286.4058,6.6665,1.2061,1.2402.4248,2.2275.8687,2.6152,1.064,3.0967,1.5601,5.4849,3.6606,7.0986,6.2437,2.4785,3.9668,2.6235,8.249,2.3086,11.1436-.1465,1.3457-.7632,3.3047-1.2549,4.7114l-.0264.0752ZM37.8208,17.1432c6.3867,1.7109,13.1421,3.9912,20.0791,6.7778,3.5732,1.4351,7.1479,3.0181,10.624,4.7046l.8203.396c.3184.1538.6411.3091.9663.4663.4844-1.3936,1.0791-3.2959,1.2217-4.605.312-2.8716.1685-7.1206-2.2881-11.0527-1.5996-2.5605-3.9692-4.644-7.042-6.1919-.3848-.1938-1.3643-.6348-2.5977-1.0571-2.3232-.7949-4.5503-1.1982-6.6206-1.1982-3.8428,0-10.9146,1.5308-15.1631,11.7603Z"/>
    </g>
    <path class="cls-3" d="M34.1544,32.6383c-3.5175,0-6.369,2.8515-6.369,6.369s2.8514,6.369,6.369,6.369c1.3517,0,2.6051-.4211,3.6361-1.1393-1.0499-.1852-1.7131-1.2726-1.3596-2.3078l2.454-7.1865c-1.1656-1.2921-2.8532-2.1043-4.7304-2.1043"/>
    <g>
      <path class="cls-5" d="M45.2292,32.8928c-.0083.0435-.0192.0871-.0326.1304l-3.4829,11.2563,2.2155.1808c.5706-.2834.9709-.8652.9735-1.5494.0075-1.9585.5639-4.7411,3.6653-4.7411.1611,0,.3289.0075.504.023,4.0012.3546,4.4076,3.3044,3.4712,5.4449-.2112.4825-.5035.8652-.8297,1.1683-.8717.8101-.6842,2.2366.3552,2.816.2702.1506.5663.2241.8601.2241.4549,0,.9043-.176,1.2436-.5142,1.7682-1.7626,5.6319-5.7187,8.3223-9.2328-6.1748-1.6724-12.5436-3.6665-17.2655-5.2063M40.0991,31.1868l-1.2142,3.5558c1.0185,1.129,1.6385,2.6244,1.6385,4.2646,0,2.1658-1.081,4.079-2.7329,5.2297.0581.0102.1173.0177.1776.0223l1.2172.092,3.7242-12.0358c.0177-.0571.0393-.1119.0644-.1643-1.1154-.37-2.0849-.6962-2.8748-.9643"/>
      <path class="cls-5" d="M52.9287,47.9172c-.312,0-.6211-.0811-.8945-.2334-.5205-.29-.8599-.7949-.9316-1.3867-.0703-.583.1348-1.1455.5625-1.543.3491-.3242.6226-.709.813-1.1445.5615-1.2832.5527-2.6299-.0239-3.6016-.5908-.998-1.7627-1.6006-3.3887-1.7451-.1646-.0146-.332-.0215-.4976-.0215-1.6318,0-3.5796.8096-3.5942,4.6699-.0029.6865-.3911,1.3037-1.0127,1.6123l-.0181.0088-.0195-.002-2.3032-.1875.0259-.084,3.4829-11.2568c.0127-.0405.0225-.0815.0303-.1226l.0151-.0791.0767.0249c4.376,1.4268,10.9233,3.4883,17.2622,5.2051l.1021.0273-.0645.084c-2.6357,3.4434-6.3496,7.2676-8.3286,9.2402-.3457.3447-.8052.5352-1.2935.5352ZM48.5679,38.0988c.1699,0,.3413.0078.5103.0234,1.6733.1484,2.8828.7754,3.498,1.8135.5996,1.0107.6113,2.4062.0317,3.7305-.1982.4531-.4829.8545-.8462,1.1914-.3945.3672-.5835.8857-.5186,1.4229.0664.5459.3799,1.0127.8604,1.2803.252.1396.5376.2139.8252.2139.4502,0,.8745-.1748,1.1938-.4922,1.5786-1.5742,5.5244-5.5977,8.2515-9.1426-6.2744-1.7021-12.7393-3.7363-17.0928-5.1558-.0054.02-.0107.04-.0166.0596l-3.457,11.1724,2.1074.1719c.5635-.2871.9141-.8516.917-1.4766.0156-4.1865,2.3472-4.8125,3.7358-4.8125ZM39.2358,44.426l-.0562-.0049-1.2168-.0918c-.062-.0039-.1235-.0117-.1841-.0215l-.1714-.0293.1426-.0996c1.6924-1.1787,2.7026-3.1123,2.7026-5.1719,0-1.5615-.5757-3.0586-1.6206-4.2168l-.0278-.0312.0137-.0391,1.2368-3.623.0674.0229c.7891.2676,1.7588.5938,2.874.9639l.0762.0254-.0347.0723c-.0234.0493-.0439.1016-.0601.1553l-3.7417,12.0894ZM37.98,44.1887l1.1543.0869.6802-2.1992c-.4443.8193-1.0664,1.5439-1.8345,2.1123ZM38.9653,34.7258c1.0508,1.1797,1.6289,2.6982,1.6289,4.2812,0,.2217-.0112.4424-.0337.6602l2.2812-7.3726c.0107-.0342.0225-.0679.0356-.1006-1.0532-.3501-1.9746-.6597-2.7339-.9175l-1.1782,3.4492Z"/>
    </g>
    <g>
      <path class="cls-2" d="M38.8849,34.7427l-2.454,7.1865c-.3535,1.0352.3097,2.1227,1.3596,2.3078,1.6519-1.1507,2.7329-3.0639,2.7329-5.2297,0-1.6402-.6201-3.1356-1.6385-4.2646"/>
      <path class="cls-2" d="M37.8071,44.3127l-.0288-.0059c-.5259-.0928-.9844-.4111-1.2583-.875-.2725-.4619-.3296-1.0176-.1558-1.5254l2.4922-7.3008.0811.0889c1.0684,1.1846,1.6567,2.7158,1.6567,4.3125,0,2.1055-1.0327,4.083-2.7632,5.2891l-.0239.0166ZM38.9126,34.881l-2.4146,7.0703c-.1602.4697-.1074.9824.144,1.4092.2476.4189.6592.71,1.1323.8018,1.6777-1.1807,2.6782-3.1055,2.6782-5.1553,0-1.5205-.5459-2.9814-1.54-4.126Z"/>
    </g>
    <path class="cls-6" d="M31.2619,39.2274c.4389.1177.8575.166,1.2512.166,1.5099,0,2.6387-.7156,3.005-.9814.5355-.3882.654-1.1365.2658-1.6721-.3874-.5348-1.135-.6533-1.6721-.2658-.1076.0772-1.0781.7507-2.2302.4396-.9105-.244-1.6261-.9939-1.8677-1.9589-.1614-.64-.8052-1.0282-1.453-.87-.6408.1606-1.0305.8115-.87,1.453.4529,1.8069,1.8217,3.2202,3.571,3.6895h0Z"/>
    <path class="cls-6" d="M49.9859,50.2357c-.6509-.099-1.2628.3555-1.3595,1.0103l-1.3299,9.0144c-.0959.654.3562,1.2628,1.0103,1.3595.0592.0086.1177.0125.1762.0125.5839,0,1.0952-.4279,1.1833-1.0227l1.3299-9.0144c.0959-.654-.3562-1.2628-1.0103-1.3595Z"/>
    <path class="cls-6" d="M42.3997,51.5968c-7.1201,3.6162-14.6659,3.7612-17.943.343-2.0057-2.0883-2.62-5.6671-1.9339-11.2617l.1496-1.2254-3.3083-.3032c-.3687-.0764-.8637-.1824-1.0648-.2728.0031-.0343.0117-.0788.025-.1349.0569-.2385.5199-.5636,1.5621-1.2761l.2884-.1973c.3905-.2674,2.1562-1.4811,2.9419-2.0353l.0226-.0197.0165-.0142c.3138-.2424.4777-.6105.466-.9829.4809-2.4694.743-3.2369,1.2606-4.7516.2136-.6259-.1208-1.3064-.746-1.5208-.6267-.2128-1.3072.1208-1.5208.746-.5222,1.531-.8186,2.4004-1.3084,4.8868-.8634.6022-2.1573,1.4921-2.4855,1.7157l-.2869.1965c-1.4616.9993-2.2661,1.5497-2.5397,2.6964-.1676.7-.1029,1.3283.1918,1.867.5434.9963,1.5692,1.209,2.7564,1.4562l1.0672.1052c-.3734,3.882-.2939,8.8468,2.7182,11.9843,2.0494,2.1375,5.2446,3.2085,8.9598,3.2085,3.631,0,7.7586-1.0235,11.7965-3.0736.5893-.3001.8248-1.0204.5254-1.6105-.2993-.5893-1.0204-.8247-1.6105-.5254h0Z"/>
    <path class="cls-6" d="M59.7549,27.9079c-2.7533-.7662-5.5229-1.6151-8.2317-2.5225-6.9533-2.3292-13.8185-5.1479-20.4218-8.3853.8318-2.4493,3.5795-9.1632,9.5803-12.4505,4.1961-2.298,9.2303-2.5155,14.9621-.6431.6315.2066,1.3049-.1372,1.51-.7662.205-.6283-.138-1.305-.7663-1.51-6.3944-2.0891-12.0701-1.8085-16.8735.8287-4.89,2.6858-7.8047,7.2239-9.3968,10.5841-7.903-1.7258-13.4695-1.9305-16.9837-.6203-2.2699.845-2.7517,2.1358-2.7564,3.0697-.0249,5.2789,18.5066,12.7857,24.1869,14.9598.1403.0545.2853.0795.4279.0795.4818,0,.9354-.2923,1.1179-.7694.237-.6174-.0725-1.3096-.6899-1.5458-10.9468-4.1922-22.6598-10.3005-22.6482-12.7124.0008-.1949.3719-.5294,1.1981-.8372,2.9713-1.1087,8.0805-.8983,15.1951.6175-.4353,1.1563-.6404,1.9295-.6688,2.0398l-.2401.9378.8661.4311c6.9806,3.4758,14.2613,6.4911,21.6402,8.9621,2.7479.9206,5.5573,1.782,8.3503,2.5599.1076.0296.2151.0437.3219.0437.5238,0,1.0056-.3469,1.1529-.8762.177-.6368-.1957-1.2971-.8326-1.4748h0"/>
    <path class="cls-6" d="M50.6711,39.2913c-1.7126,0-3.2584,1.0804-3.8462,2.6894-.2268.6213.0927,1.3088.714,1.5357.6221.2261,1.3088-.0928,1.5357-.7141.244-.668.8855-1.1163,1.5965-1.1163.9362,0,1.6978.7616,1.6978,1.6986,0,.9362-.7616,1.6978-1.6978,1.6978-.6611,0-1.1974.5363-1.1974,1.1973s.5363,1.1974,1.1974,1.1974c2.2567,0,4.0925-1.8358,4.0925-4.0925s-1.8358-4.0933-4.0925-4.0933h0Z"/>
    <path class="cls-3" d="M31.574,15.7242c-.1985.4963-.3549.929-.4727,1.276,2.0599,1.0099,4.1455,1.9791,6.2511,2.9054-.2236-.4649-.266-1.0217-.0795-1.5427.1254-.3502.2753-.7448.4516-1.1725-1.3933-.3725-2.7616-.7156-4.1031-1.0293-.6889-.1574-1.372-.3033-2.0474-.4369M23.061,14.7646c-2.0886,0-3.9117.2404-5.3429.7741-2.4443.9093-2.2065,2.371-.5303,4.0307,4.4017,2.7305,11.4631,6.0551,18.232,8.6474.6044.2313.9137.8994.7041,1.5066,1.0513.4308,1.6843.6767,1.6843.6767,0,0,.8402.2945,2.2909.7868l.4869-1.4259h0c.2513-.7359.9383-1.1977,1.666-1.1976.2279,0,.46.0454.6837.1418,7.0766,3.05,15.1635,4.888,19.1804,5.685,1.2501.248,1.8396,1.705,1.0971,2.7409-.2276.3175-.4679.6408-.7184.9681,6.8576,1.8574,13.4743,3.3175,17.3299,3.3175,2.4057,0,3.7362-.5686,3.3785-1.9641-1.0124-3.9369-7.3335-7.1927-12.8519-9.8659-.1372.3926-.2719.7629-.3959,1.0948-.2798.7491-.9674,1.2231-1.707,1.2231-.1402,0-.2822-.017-.4237-.0524-2.3839-.5967-4.8646-1.2843-7.428-2.078-.2241.3024-.582.485-.9621.485-.1068,0-.2143-.014-.3219-.0437-2.793-.778-5.6024-1.6394-8.3503-2.5599-7.3789-2.4711-14.6596-5.4863-21.6402-8.9621l-.8661-.4311.2401-.9378c.0283-.11.2322-.8787.6647-2.029-2.1837-.3416-4.2462-.5309-6.0999-.5308"/>
    <g>
      <path class="cls-2" d="M37.7245,17.1904c-.1763.4277-.3263.8223-.4516,1.1725-.1865.521-.1441,1.0778.0795,1.5427,4.6442,2.043,9.3865,3.8773,14.1707,5.4798,2.7089.9074,5.4785,1.7563,8.2317,2.5225h0c.6369.1778,1.0095.8381.8326,1.4749-.0404.1453-.1061.2768-.1909.3912,2.5635.7937,5.0442,1.4813,7.428,2.078.1415.0354.2835.0524.4237.0524.7395,0,1.4272-.474,1.707-1.2231.124-.3319.2587-.7021.3959-1.0948-.633-.3066-1.2553-.6055-1.8579-.897-3.3188-1.6105-6.859-3.1923-10.6198-4.7028-7.0704-2.84-13.8611-5.1157-20.149-6.7965"/>
      <path class="cls-2" d="M68.248,31.9753c-.147,0-.2954-.0181-.4404-.0542-2.4785-.6206-4.979-1.3198-7.4321-2.0791l-.0957-.0298.0601-.0806c.0815-.1094.1416-.2334.1792-.3677.166-.5981-.1855-1.2207-.7832-1.3877-2.7461-.7642-5.5171-1.6133-8.2354-2.5234-4.7681-1.5972-9.5376-3.4419-14.1763-5.4824l-.0244-.0107-.0112-.0234c-.2383-.4956-.2686-1.0776-.0825-1.5972.1411-.3936.2935-.7891.4531-1.1753l.0234-.0576.0601.0161c6.4097,1.7134,13.1919,4.001,20.1572,6.7988,3.5732,1.4351,7.1479,3.0181,10.624,4.7046l.8203.396c.3418.165.688.332,1.0376.501l.0571.0278-.021.0596c-.125.3569-.2583.7261-.3965,1.0962-.2837.7593-.9961,1.269-1.7734,1.269ZM60.5093,29.7346c2.4209.7476,4.8872,1.437,7.3325,2.0488.1343.0332.2705.0503.4062.0503.7183,0,1.3774-.4731,1.6406-1.1772.1304-.3486.2563-.6958.3745-1.0337-.3301-.1597-.6572-.3174-.9805-.4731l-.8203-.396c-3.4736-1.6855-7.0449-3.2671-10.6152-4.7007-6.9385-2.7876-13.6943-5.0679-20.0806-6.7778-.1499.3662-.2935.7397-.4268,1.1118-.1704.4756-.1465,1.0078.0654,1.4644,4.6274,2.0347,9.3848,3.874,14.1401,5.4668,2.7163.9097,5.4844,1.7583,8.2285,2.5215.6729.188,1.0688.8887.8818,1.5625-.0332.1187-.0825.2305-.1465.3325Z"/>
    </g>
    <g>
      <path class="cls-2" d="M42.2519,28.5634c-.7276,0-1.4146.4617-1.666,1.1977h0s-.4869,1.4258-.4869,1.4258c.7898.2681,1.7594.5943,2.8748.9643.2004-.4185.6246-.6798,1.0781-.6798.1175,0,.237.0176.355.0545.5881.1815.9355.7762.8223,1.3671,4.7219,1.5398,11.0907,3.5339,17.2655,5.2063.2506-.3273.4909-.6506.7184-.9681.7425-1.0359.153-2.4928-1.0971-2.7409-4.0169-.797-12.1039-2.635-19.1804-5.685-.2237-.0964-.4557-.1417-.6837-.1418"/>
      <path class="cls-2" d="M62.522,38.1799l-.0459-.0127c-6.3418-1.7168-12.8916-3.7793-17.269-5.207l-.0596-.0195.0117-.061c.1084-.564-.2241-1.1167-.7734-1.2861-.1089-.0342-.2212-.0513-.334-.0513-.4297,0-.8281.251-1.0142.6396l-.0269.0562-.0596-.0195c-1.1152-.3701-2.085-.6963-2.875-.9648l-.0669-.0225.5098-1.4932c.2544-.7451.9512-1.2456,1.7329-1.2456.2451,0,.4849.0498.7119.1479,7.0254,3.0278,15.0234,4.8579,19.166,5.6802.6152.1221,1.1206.543,1.3516,1.127.228.5781.1494,1.2227-.2109,1.7246-.2222.3105-.4644.6367-.7197.9697l-.0288.0381ZM45.3091,32.8444c4.3647,1.4224,10.8613,3.4673,17.1582,5.1733.2437-.3184.4751-.6309.688-.9277.332-.4639.4048-1.0576.1943-1.5898-.2134-.5391-.6792-.9277-1.2471-1.041-4.1479-.8223-12.1577-2.6558-19.1948-5.689-.2095-.0903-.4302-.1362-.6558-.1362-.7212,0-1.3638.4619-1.5991,1.1499l-.4639,1.3584c.7632.2593,1.6899.5708,2.749.9224.2202-.4053.6509-.6641,1.1138-.6641.127,0,.2534.019.376.0571.5981.1851.9678.7734.8813,1.3867Z"/>
    </g>
    <path class="cls-4" d="M17.1878,19.5693c3.7524,3.7155,14.7144,8.4242,18.9361,10.154.2096-.6073-.0998-1.2754-.7041-1.5066-6.7689-2.5922-13.8304-5.9168-18.232-8.6474M29.1608,15.2954c-.4325,1.1503-.6364,1.919-.6647,2.029l-.2401.9378.8661.4311c6.9806,3.4758,14.2613,6.4911,21.6402,8.9621,2.7479.9206,5.5573,1.782,8.3503,2.5599.1076.0296.2151.0437.3219.0437.38,0,.738-.1826.9621-.485.0848-.1144.1504-.2459.1909-.3912.177-.6368-.1957-1.2971-.8326-1.4748h0c-2.7533-.7663-5.5229-1.6152-8.2317-2.5226-4.7842-1.6026-9.5265-3.4368-14.1707-5.4798-2.1056-.9263-4.1912-1.8955-6.2511-2.9054.1178-.347.2742-.7797.4727-1.276-.8173-.1616-1.6234-.3052-2.4132-.4287"/>
    <path class="cls-4" d="M44.0519,31.4713c-.4535,0-.8776.2614-1.0781.6798.6976.2314,1.4538.4803,2.2553.7417.1132-.5909-.2342-1.1856-.8223-1.3671-.118-.0369-.2375-.0545-.355-.0545"/>
    <path class="cls-1" d="M31.0693,48.2542c-.1606-.6423-.8107-1.0352-1.4507-.8723-.1021.0253-5.8237,1.4464-12.3277,2.8715-.0135-.9119-.2393-2.0962-1.1262-3.0754-.8318-.9186-2.29-1.707-2.8727-1.2602-.5587.4276-.1196,1.8438-.0251,2.129.4084,1.2247,1.2981,2.0704,2.1163,2.6196-.8644.1848-1.7341.3673-2.5985.5445-.0059-.9182-.2245-2.1292-1.1277-3.1264-.8318-.9186-2.29-1.707-2.8727-1.2602-.5587.4276-.1195,1.8438-.0251,2.129.4128,1.238,1.3171,2.0876,2.1426,2.6362-.8513.1678-1.6896.3282-2.5033.4776.0263-.8581-.1328-2.0757-1.0284-3.0646-.7608-.8402-2.0946-1.5613-2.6276-1.1526-.511.3912-.1094,1.6865-.0229,1.9474.4118,1.2351,1.3582,2.0472,2.1626,2.5405-.8226.1421-1.6106.2701-2.351.3801-.0549-.721-.2826-1.5791-.9398-2.3048-.7047-.7783-1.9402-1.4462-2.4339-1.0677-.4734.3623-.1013,1.5622-.0212,1.8038.2494.748.7115,1.327,1.2093,1.7675-.3476.0652-.6988.1727-1.0429.3456-.2359.1191-1.3886.7291-1.3059,1.3424.0859.6401,1.484,1.054,2.5725.9977.2466-.0127.4798-.0506.7007-.1064-.288.6576-.4814,1.4524-.3505,2.3132.0387.2516.2539,1.4892.8403,1.5962.6119.1122,1.4077-1.0451,1.6807-2.0589.2347-.8715.0936-1.6779-.1488-2.3212.5949-.0911,1.2158-.1926,1.8562-.3021-.3002.7013-.4973,1.5436-.3589,2.4535.0418.2716.2741,1.6077.9072,1.7233.6606.1211,1.5197-1.1283,1.8145-2.2228.2359-.8758.1193-1.6895-.1088-2.3582.6534-.1219,1.3189-.2497,1.9921-.3822-.4003.8192-.6966,1.8518-.5254,2.9769.0457.2969.2997,1.7577.9918,1.884.7222.1324,1.6615-1.2335,1.9837-2.4301.2944-1.0928.0875-2.0977-.231-2.8782.7546-.1554,1.5112-.3145,2.2634-.4752-.4427.8442-.7966,1.9409-.6132,3.1461.0457.2969.2997,1.7577.9919,1.884.7222.1324,1.6615-1.2335,1.9837-2.4301.3157-1.172.0562-2.2455-.3008-3.0465,6.3238-1.3879,11.8469-2.76,12.2585-2.8627.6415-.1598,1.0329-.8091.8723-1.4507h0Z"/>
    <path class="cls-6" d="M45.3517,44.5764l-3.638-.2969,3.4829-11.2563c.1957-.6314-.1583-1.3026-.7897-1.4975-.6307-.1972-1.3018.1583-1.4974.7897l-4.3653,14.1077,6.6126.5402.099.0039c.6166,0,1.1404-.474,1.1918-1.0999.0538-.6588-.4365-1.2371-1.096-1.2909h0"/>
  </g>
</svg>