<?xml version="1.0" encoding="UTF-8"?>
<svg id="Calque_1" data-name="Calque 1" xmlns="http://www.w3.org/2000/svg" viewBox="0 0 90 90">
  <defs>
    <style>
      .cls-1 {
        fill: #fff;
      }
    </style>
  </defs>
  <path class="cls-1" d="M26.08,61.35c.06-.06,1.01.69,1.14.79.25.2,1.08.96,1.26,1.04.23.1.55-.05.84-.02.68.06,1.32.89,1.82,1.3,1.36-.99,2.33-.08,3.42.74.37-.4.84-.75,1.41-.81.75-.07,1.29.35,1.95.4.77.06,2.68-.16,3.53-.25,1.66-.18,5.02-.74,6.51-1.35,1.76-.73.86-1.83,1.46-3.21.42-.96,1.62-1.6,2.62-1.72.12-.01.4-.11.35.1-.07.24-.59,1.1-.75,1.38-.19.33-.5.61-.66.98-.27.62-.28,1.2-.15,1.86.99-.34,1.97-.6,2.05-1.84.05-.69-.33-1.15-.23-1.87.11-.83.85-1.33,1.1-2.09.41-1.27,0-2.34.21-3.48.08-.49.58-.83.63-1.09.17-.89-.52-2.08-.57-3.03-.06-1.12.55-1.5.12-2.66-.81-2.18-3.87-3.03-4.28-4.98-.06-.3.01-.63-.12-.94-.2-.44-1.21-1.1-1.7-1.17-.18-.03-1.17.04-.94.21l2.33,1.6c-.53.29-1.55.08-2.04-.25-.98-.67-.69-2.07-1.45-2.48l-3.8-1.16c1.39-.18,2.95.19,4.28.6,9.03,2.79,14.34,11.39,11.94,20.74-2.98,11.61-17.29,16.79-26.86,9.34-2.38-1.85-3.93-4.07-5.42-6.67ZM53.2,43.89c-.18-1.15-.87-2.04-2.05-2.29l2.05,2.29ZM56.15,51.51c.5-1.22.34-2.54-.9-3.2l.9,3.2ZM55.8,53.26s-.21-.12-.22-.11l-.08,3.2c1.07-.71,1.31-2.2.3-3.09ZM57.38,58.97l.24-2.01-.16-.25-.28-.05c-.21.05-.65,2.28.2,2.3ZM55.33,57.91c-.21-.03-.13.02-.17.11-.37.82-.55,1.9-.89,2.75,1.31-.33,1.62-1.73,1.06-2.87ZM54.02,63.15c-.48-.28-1.71,1.26-1.56,1.39.77.09,1.59-.62,1.56-1.39ZM48.78,66.02c1.1-.01,2.11-.55,1.88-1.8l-1.88,1.8ZM31.38,65.99c.53-.47-.47-.65-.85-.86-.32-.18-1-.7-1.26-.79-.31-.11-.26.17-.13.37.36.56,1.52,1.91,2.23,1.28ZM46.89,65.37l-2.46,1.39c1.03-.02,2.57.05,2.46-1.39ZM34.34,66.12l-2.6-.51c.31,1.03,1.92,1.77,2.83,1.15l-.23-.64ZM39.6,66.84c-.18.2.85.59.98.62.68.12,1.35.05,1.85-.46l.21-.98-3.03.82ZM35.59,66.35c.49,1.4,2.21,1.61,2.95.29-.87-.9-1.89-.43-2.95-.29Z"/>
  <path class="cls-1" d="M56.89,26.52l-2.27-1.7c-.89.47-1.59-.37-2.21-.91-.31.09-.54.34-.86.42-.88.22-1.54-.55-2.24-.93-.14,0-.36.4-.54.53-.91.65-1.72.05-2.65-.11-2.09.4-4.17.96-6.26,1.37-.59.11-1.05.02-1.69.28-2.02.81-.97,2.74-2.02,3.96-.37.43-1.39.94-1.94,1.01-.11.01-.24.07-.18-.1.35-1.21,1.68-2.27,1.08-3.63-.05-.09.04-.12-.13-.09-.27.05-1.36.8-1.47,1.07-.22.53.23,1.47.17,2.14-.07.92-.75,1.33-.95,2.16-.28,1.16.59,2.15.05,3.25-.13.27-.38.39-.41.66.09,1.18.77,2.04.66,3.28-.07.74-.32.77.04,1.6.76,1.74,3.56,2.67,3.92,3.86.06.19.04.39.09.56.36,1.16,1.35,1.53,2.5,1.39l-2.13-1.43c.86-.29,1.91-.08,2.39.72.37.6.2,1.27.97,1.57.27.11,2.31.58,2.48.54l.71-.99.33,2.46c-.7,0-.86-.62-1.12-1.14-1.57.04-3.19-.28-4.66-.83-7.57-2.8-11.73-10.46-9.5-18.36,2.98-10.55,15.87-14.32,24.25-7.29,1.44,1.21,3.04,2.83,3.57,4.67ZM48.29,22.5c-.28-1.23-2.16-1.4-2.52-.12.69.81,1.65.14,2.52.12ZM44.85,22.1c-.99-.54-2.86-.6-2.62.98.22.22,2.1-.65,2.42-.82.08-.04.19-.05.2-.17ZM51.73,22.91c-.27-.91-1.77-1.44-2.54-.89l.4.61,2.13.28ZM40.58,22.42c-1.14-.16-2.3.31-1.97,1.64l1.97-1.64ZM51.89,22.91c.68.03,1.5.81,2.05.95.15.04.15.04.25-.09-.43-.66-1.73-2.13-2.29-.86ZM36.73,23.41c-.9.12-1.69.62-1.56,1.64.08.09.39-.26.45-.33.28-.29.69-.72.94-1.03.08-.09.2-.13.16-.29ZM32.31,26.19c.67.05,1.23-.7,1.31-1.31-.56.3-.99.77-1.31,1.31ZM31.4,30.78l.82-2.38c-.69.39-1.15,1.01-1.06,1.84.01.12.1.49.24.54ZM30.01,31.23c.05-.36-.04-.81,0-1.19-.65.45-.38,1.32-.57,1.97.21.17.55-.63.57-.78ZM31.49,35.04l-.12-2.7c-.66.52-.9,1.15-.57,1.97.05.13.56.89.7.74ZM32.06,39.3l-.98-2.7c-.43,1.04-.11,2.26.98,2.7Z"/>
  <path class="cls-1" d="M37.2,6c-.09.11-.35.14-.3.36,2.2.1,2.91,3.07,1.09,4.33-.69.47-4,1.27-4.93,1.39-.11.01-.22.05-.34.01l-1.97-8.43c1.52-.19,4-1.32,5.45-.91s1.91,2.15.99,3.25ZM33.13,6.69c.76-.27,2.75-.35,2.87-1.35.23-1.92-2.28-.89-3.28-.78l.41,2.13ZM36.87,7.7c-.76-.68-2.48.04-3.38.21l.54,2.43c.82-.26,2.71-.31,3.13-1.14.25-.48.11-1.15-.29-1.5Z"/>
  <path class="cls-1" d="M8.95,49.3c-.08.12-.66,0-.57.21,2.9,2.76.7,6.73-2.99,7.01-2.81.21-5.2-1.76-4.85-4.69.13-1.1.95-2.42,2.02-2.76l.74,1.35-.08.16c-1.19.6-1.54,1.94-.85,3.07,1.14,1.89,5.43,1.18,5.69-1.1.18-1.53-.74-2.62-2.29-2.58l.33,2.21-1.48.16-.57-3.6,4.62-.82.29,1.38Z"/>
  <path class="cls-1" d="M43.7,1.69l3.24.17c3.25.14,4.48,3.08,3.67,5.96-.91,3.24-3.71,2.89-6.45,2.64-.17-.02-.95-.1-.99-.16l.54-8.61ZM44.93,8.98c2.03.13,3.69.47,4.09-2.02.42-2.67-.94-3.84-3.56-3.64l-.17.08-.36,5.58Z"/>
  <path class="cls-1" d="M3.69,38.75c2.31-.26,4.88.8,5.39,3.25.86,4.11-3.74,6.32-7.04,4.41s-2.3-7.22,1.65-7.66ZM4.43,40.39c-3.71.08-3.92,4.6-.26,4.97,1.33.13,2.92-.3,3.33-1.73.6-2.04-1.23-3.28-3.07-3.24Z"/>
  <path class="cls-1" d="M80.4,25.81c2.03-.07,3.86,1.32,4.25,3.32.95,4.81-6.53,7.41-8.63,2.97-1.47-3.13,1.2-6.18,4.37-6.29ZM80.15,27.53c-4.27.58-3.62,6.33.61,5.04,3.53-1.08,2.99-5.53-.61-5.04Z"/>
  <path class="cls-1" d="M62.63,12.75c-.42,1.39,2.37,3.86,3.4,2.62.44-.53.12-1.02-.24-1.47-1.06-1.33-3.35-2.58-2.02-4.65,1.54-2.4,5.09-.7,6.01,1.39.23.52.28,1.03.39,1.57l-1.72.12c.19-1.29-1.4-3.06-2.68-2.64-1.67.55,1,2.63,1.45,3.18.83,1,1.28,2.14.45,3.31-1.99,2.82-7.15-.42-6.76-3.44h1.72Z"/>
  <polygon class="cls-1" points="87.46 51.11 85.9 51.02 86.15 46.43 84.18 46.35 83.93 50.53 82.54 50.45 82.71 46.27 80.55 46.19 80.21 50.95 78.69 50.94 79.02 44.47 87.71 44.92 87.46 51.11"/>
  <polygon class="cls-1" points="54.76 4.72 54.27 6.6 58.2 7.76 57.88 9.15 53.78 8 53.2 10.21 57.88 11.52 57.35 12.98 51.16 11.07 53.62 2.84 59.52 4.52 59.58 4.74 59.23 5.87 59 5.94 54.76 4.72"/>
  <path class="cls-1" d="M21.49,7.76l1.55-.65,2.63,5.36c.9,1.38,3.47.16,3.34-1.29l-2.69-5.76,1.43-.69c.08.02.2.24.24.33.54.97,2.66,5.08,2.75,5.94.3,2.95-4.58,5.23-6.37,2.6l-2.88-5.85Z"/>
  <path class="cls-1" d="M86.56,34.96l.25,1.64-6.06,1.03c-1.52.58-1.07,3.43.53,3.56l6.05-.91.3,1.64-6.43.99c-3.19-.07-4.22-5.74-1.24-6.82l6.61-1.13Z"/>
  <path class="cls-1" d="M14.93,16.68c-.86-.31-1.5-.48-2.28.14-2.58,2.03,1.52,6.37,3.97,4.54,1-.75.95-1.93.46-2.98l1.43-.78c1.68,2.71-.63,6.25-3.76,5.96-2.01-.19-4.35-2.24-4.56-4.29-.3-2.88,2.53-5.49,5.32-4.09l.07.15-.65,1.36Z"/>
  <path class="cls-1" d="M71.64,23.57c-.21.15-1.13-.99-1.29-1.2l.76-1.58c-.7-.52-1.45-1.68-2.13-2.14-.07-.05-.11-.09-.21-.04l-1.43.77-1.27-1.25,8.24-4.03,1.32,1.37-3.98,8.11ZM73.77,15.95l-3.44,1.85.07.24,1.44,1.43,1.92-3.52Z"/>
  <polygon class="cls-1" points="5.35 28.24 7.31 29.06 8.71 25.86 10.01 26.36 8.56 29.68 11.79 31.27 11.2 32.67 3.3 29.14 5.68 23.9 6.99 24.43 5.35 28.24"/>
  <polygon class="cls-1" points="78.9 19.15 79.8 20.54 73.86 24.59 75.74 27.38 74.56 28.23 71.73 24.03 78.9 19.15"/>
  <polygon class="cls-1" points="10.92 33.32 9.47 38.23 1.16 35.89 1.58 34.31 8.49 36.2 9.44 32.91 10.92 33.32"/>
  <path class="cls-1" d="M24.84,16.02l-4.03,2.95-5.23-6.91,1.28-.95,4.35,5.65,2.71-1.95c.11-.01.82.84.89.97.04.07.07.16.03.23Z"/>
  <polygon class="cls-1" points="86.97 53.4 86.59 55.04 79.64 53.49 78.81 56.68 77.3 56.43 78.56 51.45 86.97 53.4"/>
  <path class="cls-1" d="M36.56,82.34l1.28,4.66,2.18-4.17.72.08-.65,5.31-.57-.04.57-4.22-2.17,3.93c-.09.09-.3.12-.4.09-.23-.06-.85-4.02-1.24-4.51l-.45,4.26-.57-.09.77-5.38.53.07Z"/>
  <path class="cls-1" d="M13.3,75.12l4.34-1.93.49.43-3.85,3.84-.33-.33,3.03-3.07-4.21,1.87-.27-.4,1.77-4.18-2.95,3.08c-.14.1-.41-.2-.41-.33,0-.27,3.35-3.32,3.74-3.8l.43.5-1.79,4.32Z"/>
  <path class="cls-1" d="M53.53,84.7c.57.42,1.29.94,1.8,1.43.07.07.37.31.37.31l-.7.18-2.01-1.77-1.27.18.49,2.32-.58.13-1.2-5.25c.94-.15,2.43-.86,3.32-.53s1.3,1.67.62,2.42c-.25.27-.62.32-.86.57ZM51.57,84.53c.99-.22,3.11-.26,2.51-1.82-.45-1.18-2.15-.21-3.02-.14l.5,1.96Z"/>
  <polygon class="cls-1" points="25.42 83.56 27.5 79.55 27.96 79.86 25.5 84.62 24.95 84.15 24.28 78.97 22.23 82.98 21.74 82.69 24.12 77.91 24.67 78.2 25.42 83.56"/>
  <path class="cls-1" d="M68.91,75.72c1.05,1.05,1.67,2.94.4,4.07-2.46,2.19-6.13-2.38-3.65-4.39,1.07-.87,2.32-.62,3.25.32ZM66.54,75.46c-.16.03-.51.24-.64.35-1.57,1.35.84,4.86,2.71,3.86,1.99-1.07.03-4.63-2.08-4.21Z"/>
  <path class="cls-1" d="M57.61,79.97c2.53-.32,3.99,4.06,1.93,5.29-3.39,2.02-5.83-4.8-1.93-5.29ZM57.69,80.46c-2.97.29-1.04,5.85,1.47,4.43,1.7-.96.33-4.6-1.47-4.43Z"/>
  <polygon class="cls-1" points="73.94 72 75.45 73.23 77.58 70.78 77.95 71.14 75.52 73.96 71.4 70.56 73.58 67.82 74 68.11 72.17 70.44 73.56 71.59 75.25 69.58 75.65 69.84 73.94 72"/>
  <polygon class="cls-1" points="23.12 77.73 20.51 76.1 19.53 77.73 21.73 79.14 21.45 79.62 19.16 78.14 18.14 79.74 20.66 81.62 20.45 81.91 17.4 79.9 20.38 75.37 23.34 77.39 23.12 77.73"/>
  <polygon class="cls-1" points="41.9 82.9 45.42 82.82 45.42 83.39 42.47 83.39 42.47 85.28 45.17 85.28 45.17 85.77 42.47 85.77 42.47 87.82 45.67 87.74 45.67 88.31 41.9 88.31 41.9 82.9"/>
  <path class="cls-1" d="M32.14,82.41l-.53.04c.18-1.28-2.21-2.1-2.54-.86s1.98,1.55,2.24,2.77c.57,2.72-4.51,2.19-3.92-.47h.53s-.05.31-.04.52c.09,1.44,3.17,1.92,2.86.01-.16-.97-2.83-1.29-2.16-3.08.62-1.67,3.63-.64,3.56,1.06Z"/>
  <path class="cls-1" d="M61.98,81.35l1.13,2.09-.21.15-.27.17-2.54-4.74c.04-.14,2.31-1.34,2.59-1.43.77-.25,1.46.18,1.76.91.68,1.66-1.39,2.2-2.47,2.85ZM61.65,80.94c.86-.48,3.17-1.15,2.13-2.5-.78-1.01-2.17.4-3.03.7l.9,1.8Z"/>
  <path class="cls-1" d="M12.79,67.76c.06,0,.24.34.24.34l-3.05,4.97-.34-.45.86-1.46-1.46-1.88-1.71.41-.26-.47c2.5-.61,5.17-1.44,5.72-1.46ZM12.31,68.32l-2.71.82,1.19,1.55,1.52-2.37Z"/>
  <path class="cls-1" d="M45.5,63.56c-.53-1.46-.94-2.59.61-3.53.72-.44,1.52-.67,2.09.12-.02.08-.83.54-.98.66-.86.72-.99,1.93-1.73,2.74Z"/>
  <path class="cls-1" d="M52.45,53.99l-.4,3.59c-2.14.11-1.66-4.14.4-3.59Z"/>
  <path class="cls-1" d="M49.83,82.85l-1.65.23c.18,1.53.46,3.24.63,4.81,0,0-.46.05-.6.1l-.57-4.83-1.71.2-.04-.53,3.84-.48.11.51Z"/>
  <polygon class="cls-1" points="68.8 73.17 72.11 76.59 74.18 74.66 74.59 74.98 72.09 77.41 68.4 73.56 68.8 73.17"/>
  <path class="cls-1" d="M39.85,25.46c.13.53.49,1.13.49,1.68.02,1.12-1.91,2.46-2.79,1.39.5-.47,1.32-.76,1.62-1.41.32-.68-.13-1.24.67-1.67Z"/>
  <path class="cls-1" d="M49.11,55.04s-.14.02-.2.08c-1.06.99-1.26,2.14-.86,3.53-1.75-.25-1.72-2.84-.25-3.48.42-.19.85-.16,1.27-.29l.04.16Z"/>
  <path class="cls-1" d="M53.12,52.83c-2.03.2-1.79-1.84-1.56-3.24.02-.1.04-.15.12-.2l.82.41.62,3.03Z"/>
  <path class="cls-1" d="M34.12,34.13l.24-3.19c1.91-.06,1.66,3.69-.24,3.19Z"/>
  <path class="cls-1" d="M53.29,48.07c-1.24.1-2.78-1.56-2.15-2.76.13-.24.31-.43.61-.34.49.15.58,1.38.78,1.85.07.17.81,1.2.75,1.25Z"/>
  <path class="cls-1" d="M41.24,63.23c-.14.03-.17-.04-.24-.12-1.45-1.48,1.52-3.7,2.78-2.13-1.11.46-2.59.72-2.54,2.25Z"/>
  <path class="cls-1" d="M48.61,50.29l.41,3.36c-1.83.02-1.99-2.8-.41-3.36Z"/>
  <rect class="cls-1" x="14.84" y="76.3" width="5.48" height=".59" transform="translate(-53.11 42.27) rotate(-51.18)"/>
  <path class="cls-1" d="M37.88,29.96c1.09.07,1.35.97,1.13,1.9s-.89,1.17-1.74,1.29l-.08-.16c.97-.77,1.01-1.91.7-3.03Z"/>
  <path class="cls-1" d="M35.09,38.16c-.26-.07-.63-.08-.76-.35-.09-.18-.55-2.49-.47-2.6,1.66-.26,1.41,1.88,1.23,2.95Z"/>
  <path class="cls-1" d="M49.27,49.06c-.7-.07-1.24-.44-1.45-1.13-.3-.96.19-1.51.39-2.39l1.06,3.52Z"/>
  <path class="cls-1" d="M33.7,39.39c1.27-.17,3.01,1.63,1.72,2.67-.53.23-.76-1.26-.94-1.61-.2-.38-.56-.69-.78-1.06Z"/>
  <path class="cls-1" d="M43.62,25.54c1.6.97-.67,3.22-1.93,2.21-.08-.07-.27-.2-.12-.29,1.01-.26,1.94-.78,2.05-1.93Z"/>
  <path class="cls-1" d="M49.68,44.88c-1.19.25-3.25-1.56-2.09-2.62l2.09,2.62Z"/>
  <path class="cls-1" d="M37.72,37.17l-.33-3.03c1.39.24,1.72,2.58.33,3.03Z"/>
  <polygon class="cls-1" points="89.8 48.4 89.91 48.6 89.84 49.88 88.28 49.79 88.36 48.4 89.8 48.4"/>
  <path class="cls-1" d="M90,46.02v1.19s-.08.13-.1.19l-1.52-.19s.06-.06.06-.08v-1.19h1.35s.12.11.2.08Z"/>
  <path class="cls-1" d="M39.19,61.11v.27s-2.67.62-2.67.62l-.26-.28c.84-1.22,1.67-1.01,2.92-.61Z"/>
  <path class="cls-1" d="M38.37,41.35c-.21.03-.13-.02-.17-.12-.39-.87-.59-2.02-.98-2.92,1.78.18,1.55,1.75,1.15,3.03Z"/>
  <path class="cls-1" d="M37.28,42.02c.91-.28,2.73,1.29,1.79,2.2l-1.92-2.09.13-.11Z"/>
  <path class="cls-1" d="M34.65,61.05c.05.06.33.41.27.46l-2.54-.08c.41-1.04,1.51-1.19,2.27-.38Z"/>
  <path class="cls-1" d="M47.96,26.28c-.36,1.26-1.49,1.69-2.46.7-.04-.19.08-.1.19-.13.75-.2,1.51-.36,2.26-.56Z"/>
  <path class="cls-1" d="M44.03,51.52l-.12,2.62c-.74-.6-.91-1.21-.44-2.07.05-.09.44-.69.56-.55Z"/>
  <path class="cls-1" d="M26.73,60.78l-1.88-3.03c1.23.47,1.83,1.77,1.88,3.03Z"/>
  <path class="cls-1" d="M28.78,61.51l-1.88-2.13c1.28-.13,1.77,1.06,1.88,2.13Z"/>
  <path class="cls-1" d="M51.57,26.6c-.26.28-.53.74-.94.75-.23,0-1.35-.32-1.54-.44-.1-.06-.17-.08-.14-.23.08.02.17-.08.2-.08h2.42Z"/>
  <path class="cls-1" d="M42.87,58.8l-.25-.04c-.12-.39-.29-.72-.24-1.14.02-.2.51-1.22.7-1.19.16.12.13.28.12.45-.02.57-.26,1.34-.33,1.93Z"/>
  <path class="cls-1" d="M45.09,45.53c-1-.15-2.13-.85-1.43-1.97l1.43,1.97Z"/>
  <path class="cls-1" d="M41.9,39.88l-.33-2.21c1.12.27,1.18,1.59.33,2.21Z"/>
  <polygon class="cls-1" points="45.16 39.15 45.17 39.34 45.05 39.47 42.72 38.84 42.8 38.41 45.16 39.15"/>
  <path class="cls-1" d="M45.34,41.84c-1.17.15-1.8-.2-1.97-1.39l1.97,1.39Z"/>
  <path class="cls-1" d="M41.65,33.65c.4.1.73.64.74,1.02,0,.24-.46,1.42-.66,1.19.08-.18-.08-.44-.08-.53v-1.68Z"/>
  <path class="cls-1" d="M58.2,29.47c-1.14-.38-1.67-1.4-1.8-2.54l1.8,2.54Z"/>
  <path class="cls-1" d="M31.57,61.68l-2.21-1.39c.75-.48,1.38.27,1.84.82.07.08.43.52.37.57Z"/>
  <path class="cls-1" d="M56.24,28.08c-1.05.31-1.55-.87-1.64-1.72l1.64,1.72Z"/>
  <path class="cls-1" d="M42.14,31.44l.2-1.97c.76.54.72,1.66-.2,1.97Z"/>
  <polygon class="cls-1" points="43.53 46.93 43.33 47.41 41.33 46.83 41.32 46.52 43.53 46.93"/>
  <path class="cls-1" d="M42.63,42.99c-.21-.21-1.63-1.69-1.47-1.88.82.47,1.66.73,1.47,1.88Z"/>
  <path class="cls-1" d="M42.52,44.74c.14.14.35.56.36.75.03.1-.02.17-.12.12-.25-.1-1.18-.74-1.44-.93-.09-.07-.2,0-.15-.21.48,0,.99-.1,1.36.27Z"/>
  <path class="cls-1" d="M54.11,27.34c.04.19-.03.13-.1.18-.46.3-.72.03-1.09-.26-.1-.08-.86-.82-.78-.9l1.97.98Z"/>
  <path class="cls-1" d="M44.76,81.43c-.42.42-.91,1.11-1.56.98l.74-.94.82-.04Z"/>
</svg>