<?xml version="1.0" encoding="UTF-8"?>
<svg id="Calque_1" data-name="Calque 1" xmlns="http://www.w3.org/2000/svg" version="1.1" viewBox="0 0 190 190">
  <defs>
    <style>
      .cls-1 {
        fill: #000;
        stroke-width: 0px;
      }
    </style>
  </defs>
  <path class="cls-1" d="M26.9,186.8s3.3-31.1,6.1-40.7,10.9-18.8,13.1-22.1c2.2-3.3,9-12.4,9-28.5s-9.6-24.6-12.5-28.9c-2.9-4.3-15.5-17.9-15.5-17.9h-.5c1.5-1.7,2.4-3.8,2.4-6.1s-.6-3.6-1.6-5c0-.3,0-.7,0-1,0-6.1-4.9-10.2-10.8-10.2s-10.2,6.2-10.2,10.3,1.4,6.6,3.6,8.7C3.7,50,1.1,55.2.2,65.5c-.9,10.4,3.7,16.1,8.9,34.2,5.2,18.1,5.5,27,5.8,39.1.3,12.1-5.5,49-5.5,49h179.9v-.9H26.9Z"/>
  <path class="cls-1" d="M63.5,66.3v3.4h-3.8v2.6h3.7v19.5h2.5v-19.5h5.1v-2.6h-5.1v-3.6c0-1,.2-1.8.6-2.4.4-.6,1-.9,1.6-.9s1.2.2,2,.7l.9-2.5c-1.1-.6-2.1-.9-3.2-.9s-2.4.5-3.2,1.4c-.8.9-1.3,2.5-1.3,4.7Z"/>
  <path class="cls-1" d="M73.6,75c-.6,1.7-.9,3.7-.9,5.8s.3,4,.9,5.8c.6,1.7,1.5,3.1,2.8,4.1,1.2,1,2.7,1.5,4.4,1.5s2.6-.3,3.7-.9c1.1-.6,2.1-1.5,3.2-2.9l-1.7-1.9c-.8,1-1.5,1.8-2.3,2.2-.8.4-1.7.6-2.7.6-1.7,0-3.1-.7-4.1-2.1-1-1.4-1.5-3.3-1.6-5.7h12.9c0-.5.1-1.2.1-1.9,0-1.8-.3-3.4-.8-5-.5-1.6-1.4-2.8-2.5-3.8-1.1-1-2.6-1.5-4.3-1.5s-3.1.5-4.2,1.5c-1.2,1-2.1,2.4-2.7,4.2ZM80.6,71.9c1.6,0,2.8.6,3.7,1.8.9,1.2,1.4,2.7,1.5,4.5,0,.2,0,.4,0,.5,0,.1,0,.2,0,.2h-10.7c.1-2,.7-3.7,1.6-5,1-1.3,2.2-2,3.8-2Z"/>
  <path class="cls-1" d="M98.5,89.4c-1.3,0-2.4-.4-3.3-1.2-.9-.8-1.5-1.8-1.8-3l-2.1,1.2c.5,1.8,1.3,3.2,2.7,4.2,1.3,1,2.8,1.6,4.6,1.6s3.3-.6,4.5-1.7c1.2-1.2,1.8-2.8,1.8-5s-.3-2.6-.8-3.4c-.6-.9-1.2-1.5-2-1.9-.8-.4-1.8-.8-3.1-1.3-1-.3-1.7-.6-2.3-.9-.5-.2-1-.6-1.4-1.1-.4-.5-.6-1.1-.6-1.8s.3-1.7,1-2.2c.6-.5,1.5-.8,2.6-.8,2,0,3.5,1.1,4.4,3.2l2-1.3c-.6-1.5-1.4-2.7-2.5-3.4-1.1-.8-2.4-1.2-3.8-1.2s-3.2.6-4.4,1.7c-1.1,1.1-1.7,2.6-1.7,4.5s.3,2.4.8,3.1c.5.8,1.2,1.3,1.9,1.7.7.4,1.7.7,2.9,1.1,1,.3,1.8.6,2.4.9.6.3,1.1.7,1.5,1.2.4.5.6,1.2.6,2.1s-.4,2.1-1.1,2.8c-.7.7-1.7,1-2.9,1Z"/>
  <path class="cls-1" d="M110.5,86.5c0,1.9.4,3.3,1.1,4.2.7.9,1.7,1.4,3,1.4s1.7-.2,2.7-.6v-2.7c-.9.3-1.6.5-2.1.5-1.5,0-2.2-1-2.2-3.1v-13.9h4.3v-2.6h-4.3v-8.5l-2.5,2.3v6.2h-2.9v2.6h2.9v14.3Z"/>
  <rect class="cls-1" x="122" y="69.7" width="2.5" height="22.1"/>
  <rect class="cls-1" x="121.7" y="60.5" width="2.9" height="4.6"/>
  <polygon class="cls-1" points="137.7 91.7 145 69.7 142.2 69.7 136.7 87.8 131.1 69.7 128.4 69.7 135.6 91.7 137.7 91.7"/>
  <path class="cls-1" d="M155.8,79c-1.7,0-3.1.1-4.1.3-1,.2-1.9.6-2.6,1.1-.6.5-1.1,1.2-1.5,2-.3.8-.5,1.8-.5,2.9,0,2.1.5,3.8,1.6,5,1.1,1.2,2.6,1.8,4.5,1.8,2.8,0,4.9-1.3,6.3-3.8v3.4h2.4v-13.8c0-2.7-.6-4.9-1.8-6.4-1.2-1.5-3-2.3-5.2-2.3s-2.8.4-4,1.1c-1.2.7-2.2,1.9-3.2,3.4l1.8,1.9c.7-1.2,1.5-2.1,2.4-2.8.9-.6,1.9-.9,3-.9s2.6.5,3.4,1.5c.8,1,1.2,2.5,1.2,4.4v1h-3.6ZM159.4,81.8c0,2.4-.5,4.2-1.5,5.6-1,1.4-2.4,2.1-4,2.1s-2.4-.4-3.2-1.1c-.8-.7-1.2-1.7-1.2-2.9s.3-2.2,1-2.9c.4-.4,1-.7,1.8-.9.8-.2,2-.2,3.7-.2h3.4v.3Z"/>
  <path class="cls-1" d="M167.8,60.5v26.4c0,1.7.3,2.9.9,3.8.6.9,1.4,1.3,2.5,1.3s1.5-.2,2.4-.6v-2.6c-.7.3-1.2.4-1.7.4-1.1,0-1.6-.8-1.6-2.5v-26.2h-2.5Z"/>
  <path class="cls-1" d="M110.3,99.6c1.6,0,3,.6,4.2,1.7l1.2-2.2c-1.6-1.4-3.5-2.1-5.5-2.1s-3.4.7-4.5,2c-1.2,1.3-1.8,3.2-1.8,5.7v1.8h-3v2.6h3v19.5h2.5v-19.5h6.8v19.5h2.5v-22.1h-9.3v-1.7c0-3.5,1.3-5.2,3.9-5.2Z"/>
  <path class="cls-1" d="M125.3,129c.7,0,1.5-.2,2.4-.6v-2.6c-.7.3-1.2.4-1.7.4-1.1,0-1.6-.8-1.6-2.5v-26.2h-2.5v26.4c0,1.7.3,2.9.9,3.8.6.9,1.4,1.3,2.5,1.3Z"/>
  <path class="cls-1" d="M145.1,128.6v-10.6c0-2.8.3-5,1-6.6.7-1.6,1.9-2.5,3.5-2.5s2.7.7,3.2,2.1c.5,1.4.7,2.9.7,4.7v12.9h2.5v-13.8c0-2.7-.5-4.8-1.5-6.3-1-1.5-2.5-2.3-4.5-2.3s-4.7,1.4-5.8,4.3c-.9-2.8-2.6-4.3-5.2-4.3s-3.8,1-4.9,3v-2.7h-2.4v22.1h2.5v-10.6c0-6.1,1.5-9.1,4.4-9.1s2.5.6,3.1,1.9c.6,1.3.9,3,.9,5v12.8h2.5Z"/>
  <path class="cls-1" d="M87,128.6v-13h-1v5c-.3-.4-.6-.8-1-1-.4-.2-.9-.4-1.4-.4-1,0-1.8.4-2.4,1.3-.6.9-.9,2-.9,3.5s.3,2.6.9,3.4,1.4,1.3,2.4,1.3,1-.1,1.4-.4c.4-.2.8-.6,1-1v1.2h1ZM85.5,126.7c-.4.7-1,1-1.8,1s-1.4-.3-1.8-1c-.4-.7-.6-1.5-.6-2.6s.2-2,.6-2.6c.4-.7,1-1,1.7-1s1.3.3,1.7,1,.6,1.5.6,2.6-.2,2-.6,2.6Z"/>
  <path class="cls-1" d="M89.5,119.4v5.6c0,1.2.2,2.1.6,2.7s1,1,1.8,1,1-.1,1.4-.4c.4-.2.8-.6,1-1.1v1.3h1v-9.2h-1v4.2c0,1.2-.2,2.2-.6,2.9-.4.7-.9,1.1-1.6,1.1s-1.1-.3-1.3-.8c-.2-.5-.3-1.2-.3-2.1v-5.3h-1Z"/>
  <path class="cls-1" d="M54.4,144.3c.4-.6.5-1.3.5-2.1,0-1.2-.4-2.2-1.2-2.8-.8-.7-1.9-1-3.4-1h-4.8v15.5h5.2c1.6,0,2.8-.4,3.7-1.1.9-.7,1.3-1.8,1.3-3.2s-.2-1.9-.7-2.6c-.5-.7-1.2-1.1-2.1-1.4.7-.3,1.2-.7,1.5-1.3ZM53.3,147.3c.5.5.8,1.2.8,2.1s-.3,1.7-.9,2.2c-.6.5-1.5.8-2.6.8h-3.5v-5.9h4c1,0,1.7.3,2.2.8ZM52.6,144.5c-.5.5-1.2.7-2,.7h-3.5v-5.3h3.2c1,0,1.7.2,2.2.7.5.5.8,1.1.8,2s-.2,1.5-.7,1.9Z"/>
  <path class="cls-1" d="M68.5,153.9h1.8l-4.2-7.1c1.1-.3,1.8-.8,2.4-1.5.5-.7.8-1.6.8-2.7s-.4-2.5-1.3-3.2c-.9-.7-2.1-1.1-3.8-1.1h-4.4v15.5h1.6v-6.9h3.2l4,6.9ZM61.3,145.6v-5.7h2.7c2.4,0,3.7.9,3.7,2.8s-1.2,2.8-3.7,2.8h-2.7Z"/>
  <rect class="cls-1" x="73.8" y="138.4" width="1.6" height="15.5"/>
  <polygon class="cls-1" points="85.6 153.9 85.6 139.9 91 139.9 91 138.4 78.6 138.4 78.6 139.9 84 139.9 84 153.9 85.6 153.9"/>
  <path class="cls-1" d="M102.2,153.9h1.8l-5.8-15.5h-1.3l-5.8,15.5h1.7l1.5-4.2h6.4l1.5,4.2ZM94.7,148.4l2.8-7.7,2.7,7.7h-5.5Z"/>
  <polygon class="cls-1" points="108.9 141.1 116.5 153.9 118.2 153.9 118.2 138.4 116.6 138.4 116.6 151.1 109 138.4 107.3 138.4 107.3 153.9 108.9 153.9 108.9 141.1"/>
  <polygon class="cls-1" points="124.8 141.1 132.5 153.9 134.2 153.9 134.2 138.4 132.6 138.4 132.6 151.1 125 138.4 123.3 138.4 123.3 153.9 124.8 153.9 124.8 141.1"/>
  <rect class="cls-1" x="139.3" y="138.4" width="1.6" height="15.5"/>
  <path class="cls-1" d="M158.3,155.1l1-1-2.2-2.2c.6-.7,1.1-1.6,1.5-2.5.3-1,.5-2.1.5-3.2s-.3-3-.9-4.2c-.6-1.2-1.4-2.1-2.5-2.8-1.1-.7-2.3-1-3.7-1s-2.6.3-3.7,1c-1.1.7-1.9,1.6-2.5,2.8-.6,1.2-.9,2.6-.9,4.2s.3,3,.9,4.2c.6,1.2,1.4,2.1,2.5,2.8,1.1.7,2.3,1,3.7,1s2.9-.4,4.1-1.2l2.3,2.2ZM154.9,151.8c-.8.5-1.8.8-3,.8s-2.1-.3-2.9-.8c-.8-.5-1.5-1.3-1.9-2.2-.5-1-.7-2.1-.7-3.4s.2-2.4.7-3.4c.5-1,1.1-1.7,1.9-2.3.8-.5,1.8-.8,2.9-.8s2.1.3,2.9.8c.8.5,1.5,1.3,1.9,2.3.5,1,.7,2.1.7,3.4s-.1,1.9-.4,2.7c-.3.8-.6,1.5-1.1,2l-2.5-2.5-1.1,1,2.5,2.4Z"/>
  <path class="cls-1" d="M168.5,154.1c1.8,0,3.2-.5,4.2-1.5s1.4-2.5,1.4-4.4v-9.8h-1.6v9.7c0,1.5-.3,2.7-1,3.4-.7.7-1.7,1.1-3,1.1s-2.3-.4-3-1.1c-.7-.7-1-1.8-1-3.3v-9.7h-1.6v9.9c0,1.9.5,3.3,1.4,4.3.9,1,2.3,1.5,4.1,1.5Z"/>
  <polygon class="cls-1" points="178.8 153.9 189 153.9 189 152.4 180.4 152.4 180.4 146.7 188.1 146.7 188.1 145.3 180.4 145.3 180.4 139.9 189 139.9 189 138.4 178.8 138.4 178.8 153.9"/>
  <path class="cls-1" d="M53,178.4c.9.7,2,1,3.5,1s3.5-.6,4.8-1.9l2.1,2.4,1.1-.9-2.3-2.6c.9-1.3,1.4-2.8,1.5-4.6l-1.5-.2c0,1.4-.4,2.6-1,3.6l-3.5-4c1.1-.6,2-1.2,2.6-1.9.6-.6.9-1.4.9-2.4s-.2-1.3-.5-1.8c-.3-.5-.8-1-1.4-1.3-.6-.3-1.2-.5-1.9-.5s-1.4.1-2,.4c-.6.3-1.1.7-1.5,1.3-.4.5-.6,1.2-.6,1.9s.2,1.4.6,2c.4.6.9,1.3,1.5,1.9-1.2.6-2.2,1.3-2.9,2-.7.7-1,1.6-1,2.7s.4,2.1,1.3,2.8ZM55.5,168.6c-.3-.5-.5-1-.5-1.5s.2-1.3.7-1.7c.5-.4,1.1-.7,1.8-.7s1.3.2,1.7.7c.4.5.7,1,.7,1.7s-.3,1.3-.8,1.7c-.5.5-1.3,1-2.3,1.5-.5-.6-1-1.2-1.3-1.7ZM54,173.7c.6-.6,1.4-1.1,2.5-1.7l3.9,4.5c-1,1.1-2.4,1.6-3.9,1.6s-1.8-.2-2.4-.6c-.6-.4-.9-1-.9-1.8s.3-1.5.9-2Z"/>
  <rect class="cls-1" x="77.8" y="163.8" width="1.6" height="15.5"/>
  <path class="cls-1" d="M86.3,172.4h3.2l4,6.9h1.8l-4.2-7.1c1.1-.3,1.8-.8,2.4-1.5.5-.7.8-1.6.8-2.7s-.4-2.5-1.3-3.2c-.9-.7-2.1-1.1-3.8-1.1h-4.4v15.5h1.6v-6.9ZM86.3,165.2h2.7c2.4,0,3.7.9,3.7,2.8s-1.2,2.8-3.7,2.8h-2.7v-5.7Z"/>
  <polygon class="cls-1" points="107.7 177.8 100.6 177.8 100.6 163.8 99 163.8 99 179.3 107.7 179.3 107.7 177.8"/>
  <path class="cls-1" d="M113.1,175.1h6.4l1.5,4.2h1.8l-5.8-15.5h-1.3l-5.8,15.5h1.7l1.5-4.2ZM116.4,166l2.7,7.7h-5.5l2.8-7.7Z"/>
  <polygon class="cls-1" points="128 166.5 135.6 179.3 137.3 179.3 137.3 163.8 135.8 163.8 135.8 176.5 128.1 163.8 126.4 163.8 126.4 179.3 128 179.3 128 166.5"/>
  <path class="cls-1" d="M152.7,177.3c1.4-1.3,2-3.2,2-5.7s-.7-4.4-2.1-5.8c-1.4-1.4-3.3-2.1-5.8-2.1h-4.2v15.5h4.2c2.6,0,4.5-.7,5.9-2ZM144.2,177.8v-12.5h2.6c2.1,0,3.7.5,4.7,1.6,1.1,1.1,1.6,2.6,1.6,4.7s-.5,3.6-1.6,4.7c-1.1,1-2.7,1.5-4.9,1.5h-2.5Z"/>
  <path class="cls-1" d="M158.5,179.3l1.5-4.2h6.4l1.5,4.2h1.8l-5.8-15.5h-1.3l-5.8,15.5h1.7ZM163.2,166l2.7,7.7h-5.5l2.8-7.7Z"/>
  <rect class="cls-1" x="173.2" y="163.8" width="1.6" height="15.5"/>
  <path class="cls-1" d="M184.1,178.1c-1.1,0-1.9-.3-2.6-.9-.7-.6-1.1-1.4-1.3-2.4l-1.6.4c.2,1.3.8,2.3,1.8,3.1,1,.8,2.2,1.2,3.6,1.2s2.8-.4,3.7-1.1c.9-.8,1.3-1.8,1.3-3.1s-.1-1.4-.4-1.9c-.3-.5-.7-1-1.4-1.5-.6-.5-1.5-.9-2.7-1.3-1.3-.5-2.2-1-2.7-1.4-.5-.5-.8-1-.8-1.7s.3-1.2.8-1.7c.5-.5,1.2-.7,2-.7s1.3.2,1.8.5c.5.3,1,.8,1.3,1.4l1.3-.8c-.5-.8-1.1-1.4-1.8-1.9-.8-.4-1.6-.6-2.6-.6s-2.4.4-3.2,1.1c-.8.7-1.2,1.7-1.2,2.8s.1,1.3.4,1.8c.3.5.7.9,1.3,1.3s1.4.8,2.5,1.2c.9.4,1.7.7,2.2,1,.5.3.9.7,1.1,1.1.2.4.4.9.4,1.4,0,.8-.3,1.5-.9,2-.6.5-1.4.8-2.5.8Z"/>
  <path class="cls-1" d="M63.4,50.2c2.5-2.3,3.8-5.6,3.8-10s-1.3-7.9-3.9-10.3c-2.6-2.4-6.2-3.6-11-3.6h-8.4v27.4h8.3c4.8,0,8.5-1.2,11.1-3.5ZM49.8,48.5v-17.2h2.5c3.1,0,5.4.7,6.9,2s2.3,3.5,2.3,6.6-.4,3.9-1.1,5.1c-.7,1.3-1.8,2.2-3.2,2.7-1.4.5-3.2.8-5.4.8h-2Z"/>
  <rect class="cls-1" x="71.7" y="26.2" width="5.7" height="27.4"/>
  <polygon class="cls-1" points="89.6 35.8 100.9 53.6 106.8 53.6 106.8 26.2 101.1 26.2 101.1 44 89.8 26.2 83.9 26.2 83.9 53.6 89.6 53.6 89.6 35.8"/>
  <path class="cls-1" d="M118.1,48.5h10.9l2,5.2h6.2l-11.5-27.4h-4.3l-11.6,27.4h6.3l2-5.2ZM123.6,34.5l3.5,8.9h-7l3.5-8.9Z"/>
  <path class="cls-1" d="M145.9,42.5h2.9l6.7,11.1h6.6l-7.6-11.8c1.7-.6,2.9-1.5,3.8-2.8.9-1.3,1.3-2.9,1.3-4.8s-.8-4.5-2.4-5.9c-1.6-1.4-4-2.1-7.4-2.1h-9.6v27.4h5.7v-11.1ZM145.9,31.3h3.3c1.5,0,2.7.2,3.4.6.8.4,1.2,1.2,1.2,2.4s-.4,2-1.2,2.5c-.8.4-1.9.6-3.4.6h-3.3v-6.1Z"/>
  <path class="cls-1" d="M184.8,50.2c2.5-2.3,3.8-5.6,3.8-10s-1.3-7.9-3.9-10.3c-2.6-2.4-6.2-3.6-11-3.6h-8.4v27.4h8.3c4.8,0,8.5-1.2,11.1-3.5ZM171.1,48.5v-17.2h2.5c3.1,0,5.4.7,6.9,2,1.5,1.3,2.3,3.5,2.3,6.6s-.4,3.9-1.1,5.1c-.7,1.3-1.8,2.2-3.2,2.7-1.4.5-3.2.8-5.4.8h-2Z"/>
</svg>