<?xml version="1.0" encoding="utf-8"?>
<!-- Generator: Adobe Illustrator 27.9.0, SVG Export Plug-In . SVG Version: 6.00 Build 0)  -->
<svg version="1.1" id="Calque_1" xmlns="http://www.w3.org/2000/svg" xmlns:xlink="http://www.w3.org/1999/xlink" x="0px" y="0px"
	 viewBox="0 0 254.5 64.3" style="enable-background:new 0 0 254.5 64.3;" xml:space="preserve">
<style type="text/css">
	.st0{fill:#3A1011;}
	.st1{fill:#FF644B;}
	.st2{fill:#EFE5D5;}
	.st3{fill:none;stroke:#3A1011;stroke-width:3;stroke-linecap:round;stroke-miterlimit:10;}
	.st4{fill:#D7BE96;}
</style>
<g>
	<g>
		<g>
			<path class="st0" d="M105.4,12.8l3.8,5.5h-2.9l-3.4-5h-2.4v5h-2.5V3.2h4.6c1.7,0,3.1,0.5,4.1,1.4c1,0.9,1.5,2.2,1.5,3.7
				c0,0.6-0.1,1.2-0.3,1.8c-0.2,0.5-0.4,1-0.7,1.3c-0.3,0.3-0.5,0.6-0.8,0.8c-0.3,0.2-0.5,0.4-0.7,0.5l-0.3,0.1V12.8z M100.5,5.4V11
				h2.1c0.9,0,1.7-0.2,2.2-0.7c0.5-0.5,0.8-1.2,0.8-2.1c0-0.9-0.3-1.6-0.8-2.1c-0.5-0.5-1.3-0.7-2.2-0.7H100.5z"/>
		</g>
		<g>
			<path class="st0" d="M116,7.2c1.6,0,2.9,0.5,3.9,1.5c1,1,1.4,2.3,1.4,4v0.8h-8.6c0.1,0.9,0.5,1.6,1.1,2.2
				c0.6,0.6,1.5,0.8,2.6,0.8c0.5,0,0.9,0,1.4-0.1c0.4-0.1,0.8-0.2,1.1-0.3c0.3-0.1,0.5-0.3,0.7-0.4c0.2-0.1,0.4-0.2,0.5-0.3l0.1-0.1
				h0.3v2.3c0,0-0.1,0.1-0.2,0.1c-0.1,0.1-0.3,0.2-0.5,0.3c-0.3,0.1-0.6,0.3-0.9,0.4c-0.3,0.1-0.7,0.2-1.2,0.3
				c-0.5,0.1-1,0.1-1.6,0.1c-1.7,0-3-0.5-4.1-1.6s-1.6-2.4-1.6-4.1c0-1.6,0.5-3,1.6-4C113.1,7.8,114.4,7.2,116,7.2z M116.1,9.4
				c-0.9,0-1.6,0.2-2.1,0.6c-0.6,0.4-1,0.9-1.2,1.5h6.2c-0.1-0.6-0.4-1.1-0.9-1.6C117.6,9.6,116.9,9.4,116.1,9.4z M115.1,6l1.4-3.8
				h2.7L116.7,6H115.1z"/>
		</g>
		<g>
			<path class="st0" d="M133.4,8.8c1,1.1,1.5,2.4,1.5,4.1c0,1.6-0.5,3-1.5,4.1c-1,1.1-2.3,1.6-3.7,1.6c-0.5,0-1-0.1-1.4-0.2
				c-0.4-0.1-0.8-0.3-1.1-0.5c-0.3-0.2-0.5-0.4-0.7-0.6c-0.2-0.2-0.3-0.4-0.4-0.5l-0.1-0.2h-0.1v6.2h-2.4V7.5h2.3l0.1,1.7h0.1
				c0-0.1,0.1-0.1,0.1-0.2c0.1-0.1,0.2-0.2,0.4-0.5s0.5-0.4,0.7-0.6c0.3-0.2,0.6-0.3,1.1-0.5c0.4-0.1,0.9-0.2,1.4-0.2
				C131.1,7.2,132.4,7.7,133.4,8.8z M126.8,10.4c-0.6,0.7-1,1.5-1,2.5c0,1,0.3,1.9,1,2.5c0.6,0.7,1.4,1,2.4,1s1.7-0.3,2.4-1
				s1-1.5,1-2.5c0-1-0.3-1.9-1-2.5c-0.6-0.7-1.4-1-2.4-1S127.4,9.7,126.8,10.4z"/>
		</g>
		<g>
			<path class="st0" d="M142.2,7.2c1.6,0,2.9,0.5,3.9,1.5c1,1,1.4,2.3,1.4,4v0.8h-8.6c0.1,0.9,0.5,1.6,1.1,2.2
				c0.6,0.6,1.5,0.8,2.6,0.8c0.5,0,0.9,0,1.4-0.1c0.4-0.1,0.8-0.2,1.1-0.3c0.3-0.1,0.5-0.3,0.7-0.4c0.2-0.1,0.4-0.2,0.5-0.3l0.1-0.1
				h0.3v2.3c0,0-0.1,0.1-0.2,0.1c-0.1,0.1-0.3,0.2-0.5,0.3c-0.3,0.1-0.6,0.3-0.9,0.4c-0.3,0.1-0.7,0.2-1.2,0.3
				c-0.5,0.1-1,0.1-1.6,0.1c-1.7,0-3-0.5-4.1-1.6s-1.6-2.4-1.6-4.1c0-1.6,0.5-3,1.6-4C139.3,7.8,140.6,7.2,142.2,7.2z M142.3,9.4
				c-0.9,0-1.6,0.2-2.1,0.6c-0.6,0.4-1,0.9-1.2,1.5h6.2c-0.1-0.6-0.4-1.1-0.9-1.6C143.8,9.6,143.1,9.4,142.3,9.4z"/>
		</g>
		<g>
			<path class="st0" d="M154.7,9.4c-0.3,0-0.7,0.1-1,0.2c-0.3,0.2-0.6,0.3-0.8,0.6c-0.2,0.2-0.4,0.4-0.6,0.7s-0.3,0.4-0.4,0.6
				l-0.1,0.2v6.6h-2.4V7.5h2.3l0.1,1.7h0.1c0-0.1,0.1-0.1,0.1-0.2c0-0.1,0.2-0.2,0.4-0.5c0.2-0.2,0.4-0.4,0.6-0.6
				c0.2-0.2,0.5-0.3,0.9-0.5c0.4-0.1,0.7-0.2,1.1-0.2c0.5,0,0.9,0.1,1.3,0.2c0.4,0.1,0.7,0.3,0.8,0.4l0.2,0.2l-0.5,2.1
				c0-0.1-0.1-0.1-0.2-0.2c-0.1-0.1-0.3-0.2-0.7-0.3C155.6,9.4,155.2,9.4,154.7,9.4z"/>
		</g>
		<g>
			<path class="st0" d="M159.5,14.7v-5h-2V8.9l4.2-4.6h0.1v3.2h3.4v2.2h-3.4v4.9c0,0.6,0.2,1.1,0.5,1.4c0.3,0.3,0.7,0.5,1.2,0.5
				c0.3,0,0.6-0.1,0.9-0.2c0.3-0.1,0.5-0.3,0.6-0.4l0.2-0.2h0.3v2.1c-0.1,0.1-0.2,0.2-0.3,0.3c-0.1,0.1-0.4,0.2-0.9,0.4
				s-0.9,0.3-1.4,0.3c-1,0-1.9-0.3-2.5-1C159.8,16.9,159.5,15.9,159.5,14.7z"/>
		</g>
		<g>
			<path class="st0" d="M176.9,8.8c1.1,1.1,1.7,2.4,1.7,4.1s-0.6,3-1.7,4.1c-1.1,1.1-2.5,1.6-4.2,1.6s-3.1-0.5-4.2-1.6
				c-1.1-1.1-1.7-2.4-1.7-4.1s0.6-3,1.7-4.1c1.1-1.1,2.5-1.6,4.2-1.6S175.7,7.7,176.9,8.8z M170.2,10.4c-0.6,0.7-1,1.5-1,2.5
				s0.3,1.9,1,2.5c0.6,0.7,1.5,1,2.5,1c1,0,1.8-0.3,2.5-1c0.6-0.7,1-1.5,1-2.5s-0.3-1.9-1-2.5c-0.6-0.7-1.5-1-2.5-1
				C171.6,9.4,170.8,9.7,170.2,10.4z"/>
		</g>
		<g>
			<path class="st0" d="M180.9,5c-0.3-0.2-0.4-0.6-0.4-1s0.1-0.8,0.4-1c0.3-0.3,0.6-0.4,1-0.4c0.4,0,0.7,0.1,1,0.4s0.4,0.6,0.4,1
				s-0.1,0.8-0.4,1c-0.3,0.2-0.6,0.4-1,0.4C181.5,5.3,181.2,5.2,180.9,5z M183.1,7.4v10.9h-2.4V7.4c0.3,0.1,0.7,0.2,1.2,0.2
				c0.2,0,0.4,0,0.6-0.1c0.2,0,0.3-0.1,0.4-0.1L183.1,7.4z"/>
		</g>
		<g>
			<path class="st0" d="M191.1,9.4c-0.3,0-0.7,0.1-1,0.2c-0.3,0.2-0.6,0.3-0.8,0.6s-0.4,0.4-0.6,0.7s-0.3,0.4-0.4,0.6l-0.1,0.2v6.6
				h-2.4V7.5h2.3l0.1,1.7h0.1c0-0.1,0.1-0.1,0.1-0.2c0-0.1,0.2-0.2,0.4-0.5s0.4-0.4,0.6-0.6c0.2-0.2,0.5-0.3,0.9-0.5
				c0.4-0.1,0.7-0.2,1.1-0.2c0.5,0,0.9,0.1,1.3,0.2c0.4,0.1,0.7,0.3,0.8,0.4l0.2,0.2l-0.5,2.1c0-0.1-0.1-0.1-0.2-0.2
				c-0.1-0.1-0.3-0.2-0.7-0.3C191.9,9.4,191.5,9.4,191.1,9.4z"/>
		</g>
		<g>
			<path class="st0" d="M199.7,7.2c1.6,0,2.9,0.5,3.9,1.5c1,1,1.4,2.3,1.4,4v0.8h-8.6c0.1,0.9,0.5,1.6,1.1,2.2
				c0.6,0.6,1.5,0.8,2.6,0.8c0.5,0,0.9,0,1.4-0.1c0.4-0.1,0.8-0.2,1.1-0.3c0.3-0.1,0.5-0.3,0.7-0.4c0.2-0.1,0.4-0.2,0.5-0.3l0.1-0.1
				h0.3v2.3c0,0-0.1,0.1-0.2,0.1c-0.1,0.1-0.3,0.2-0.5,0.3c-0.3,0.1-0.6,0.3-0.9,0.4c-0.3,0.1-0.7,0.2-1.2,0.3
				c-0.5,0.1-1,0.1-1.6,0.1c-1.7,0-3-0.5-4.1-1.6s-1.6-2.4-1.6-4.1c0-1.6,0.5-3,1.6-4C196.8,7.8,198.1,7.2,199.7,7.2z M199.8,9.4
				c-0.9,0-1.6,0.2-2.1,0.6c-0.6,0.4-1,0.9-1.2,1.5h6.2c-0.1-0.6-0.4-1.1-0.9-1.6C201.3,9.6,200.6,9.4,199.8,9.4z"/>
		</g>
		<g>
			<path class="st1" d="M98.8,37.7c-1-1.1-1.5-2.4-1.5-4.1c0-1.6,0.5-3,1.5-4.1c1-1.1,2.3-1.6,3.7-1.6c0.5,0,1,0.1,1.5,0.2
				c0.5,0.1,0.8,0.3,1.1,0.5c0.3,0.2,0.5,0.4,0.7,0.6c0.2,0.2,0.3,0.4,0.4,0.5l0.1,0.2h0.1v-6.7h1.8V39h-1.7l-0.1-1.8h-0.1
				c0,0.1-0.1,0.1-0.1,0.2c-0.1,0.1-0.2,0.3-0.4,0.5c-0.2,0.2-0.5,0.4-0.7,0.6c-0.3,0.2-0.6,0.3-1.1,0.5c-0.5,0.2-0.9,0.2-1.5,0.2
				C101,39.3,99.8,38.8,98.8,37.7z M105.4,36.5c0.7-0.8,1.1-1.7,1.1-2.9c0-1.2-0.4-2.1-1.1-2.9s-1.6-1.1-2.7-1.1
				c-1,0-1.9,0.4-2.7,1.1c-0.7,0.8-1.1,1.7-1.1,2.9c0,1.2,0.4,2.1,1.1,2.9c0.7,0.8,1.6,1.1,2.7,1.1
				C103.8,37.7,104.7,37.3,105.4,36.5z"/>
		</g>
		<g>
			<path class="st1" d="M112.2,29.5c1-1.1,2.4-1.6,3.9-1.6c1.6,0,2.8,0.5,3.8,1.5c0.9,1,1.4,2.3,1.4,3.9v0.6h-8.9
				c0.1,1.1,0.5,2,1.3,2.7c0.7,0.7,1.7,1,2.8,1c0.8,0,1.5-0.1,2.1-0.4c0.6-0.2,1.1-0.5,1.3-0.7l0.4-0.4h0.3v1.9c0,0-0.1,0.1-0.2,0.1
				c-0.1,0.1-0.2,0.2-0.5,0.3c-0.3,0.1-0.5,0.3-0.9,0.4c-0.3,0.1-0.7,0.2-1.2,0.3c-0.5,0.1-1,0.1-1.6,0.1c-1.6,0-3-0.5-4-1.6
				c-1.1-1.1-1.6-2.4-1.6-4.1C110.6,32,111.1,30.6,112.2,29.5z M116.1,29.6c-0.9,0-1.6,0.3-2.3,0.8c-0.6,0.5-1,1.2-1.3,1.9h6.8
				c-0.1-0.8-0.5-1.4-1.1-1.9C117.7,29.8,117,29.6,116.1,29.6z"/>
		</g>
		<g>
			<path class="st1" d="M131.1,36c0,1-0.4,1.8-1.1,2.4c-0.7,0.6-1.8,0.9-3.2,0.9c-0.8,0-1.5-0.1-2.2-0.3c-0.7-0.2-1.2-0.5-1.5-0.7
				l-0.5-0.3l0.4-1.6c0,0,0.1,0.1,0.2,0.1c0.1,0.1,0.2,0.2,0.5,0.3c0.2,0.1,0.5,0.3,0.8,0.4c0.3,0.1,0.6,0.2,1.1,0.3
				c0.4,0.1,0.9,0.1,1.3,0.1c1.6,0,2.4-0.5,2.4-1.6c0-0.5-0.2-0.8-0.7-1.1c-0.4-0.3-1-0.5-1.6-0.7c-0.6-0.2-1.3-0.4-1.9-0.6
				c-0.6-0.2-1.2-0.6-1.6-1c-0.4-0.5-0.7-1.1-0.7-1.8c0-0.9,0.3-1.6,1-2.1c0.7-0.6,1.6-0.9,2.7-0.9c0.5,0,1,0.1,1.4,0.2
				c0.5,0.1,0.8,0.2,1.1,0.4c0.3,0.2,0.6,0.3,0.8,0.5c0.2,0.2,0.4,0.3,0.5,0.4l0.2,0.2l-0.7,1.5c-0.1-0.1-0.2-0.2-0.4-0.4
				c-0.2-0.2-0.5-0.4-1.1-0.6c-0.6-0.2-1.2-0.4-1.8-0.4c-0.6,0-1.1,0.1-1.5,0.4c-0.3,0.3-0.5,0.6-0.5,1c0,0.4,0.2,0.7,0.7,0.9
				c0.4,0.2,1,0.4,1.6,0.6c0.6,0.2,1.3,0.4,1.9,0.6c0.6,0.2,1.2,0.6,1.6,1C130.9,34.7,131.1,35.3,131.1,36z"/>
		</g>
		<g>
			<path class="st1" d="M146.1,35.9c0,1-0.4,1.9-1.2,2.5c-0.8,0.6-2,0.9-3.6,0.9c-0.8,0-1.6-0.1-2.3-0.3c-0.7-0.2-1.2-0.5-1.5-0.7
				l-0.5-0.3l0.6-2.4c0.1,0.1,0.2,0.2,0.4,0.3c0.2,0.1,0.6,0.3,1.2,0.5s1.2,0.3,1.9,0.3c1.2,0,1.8-0.3,1.8-0.9
				c0-0.2-0.1-0.5-0.4-0.6c-0.3-0.2-0.6-0.3-1.1-0.4c-0.4-0.1-0.9-0.2-1.4-0.4c-0.5-0.2-1-0.4-1.4-0.6c-0.4-0.2-0.8-0.6-1.1-1
				c-0.3-0.5-0.4-1-0.4-1.7c0-0.9,0.4-1.7,1.1-2.4c0.8-0.6,1.8-1,3.1-1c0.5,0,1,0.1,1.5,0.2c0.5,0.1,0.9,0.2,1.2,0.4
				s0.6,0.3,0.9,0.5c0.3,0.2,0.4,0.3,0.5,0.4l0.2,0.2l-1.1,2.1c-0.1-0.1-0.2-0.2-0.3-0.3c-0.1-0.1-0.4-0.3-0.9-0.5
				c-0.5-0.2-1-0.3-1.6-0.3c-0.5,0-0.9,0.1-1.1,0.3c-0.3,0.2-0.4,0.4-0.4,0.7c0,0.3,0.2,0.5,0.6,0.6c0.4,0.2,0.9,0.3,1.5,0.4
				c0.6,0.1,1.1,0.3,1.7,0.5c0.6,0.2,1,0.6,1.5,1.1C145.9,34.5,146.1,35.1,146.1,35.9z"/>
		</g>
		<g>
			<path class="st1" d="M152.6,27.7c1.6,0,2.9,0.4,3.7,1.2c0.8,0.8,1.3,1.8,1.3,3.2V39h-2.9l-0.1-1.6h-0.1c0,0.1,0,0.1-0.1,0.2
				c0,0.1-0.2,0.2-0.3,0.4c-0.2,0.2-0.4,0.4-0.6,0.6c-0.2,0.2-0.5,0.3-1,0.4c-0.4,0.1-0.9,0.2-1.3,0.2c-1.1,0-2-0.3-2.6-0.9
				c-0.7-0.6-1-1.4-1-2.4c0-1,0.4-1.8,1.1-2.5c0.7-0.6,1.8-0.9,3.1-0.9c0.6,0,1.1,0.1,1.5,0.2c0.5,0.1,0.8,0.2,1,0.3l0.3,0.2v-0.8
				c0-1.4-0.8-2.1-2.4-2.1c-0.7,0-1.4,0.1-2.1,0.4c-0.7,0.2-1.1,0.5-1.4,0.7l-0.4,0.4H148v-2.6c0.1-0.1,0.3-0.2,0.6-0.4
				c0.2-0.2,0.8-0.4,1.6-0.6C151,27.8,151.8,27.7,152.6,27.7z M152.1,36.9c0.6,0,1.1-0.2,1.5-0.5c0.4-0.3,0.7-0.7,0.8-1l0.2-0.5
				c-0.6-0.4-1.3-0.6-2.2-0.6c-0.6,0-1,0.1-1.3,0.4c-0.3,0.2-0.5,0.6-0.5,1c0,0.4,0.1,0.7,0.4,1C151.3,36.8,151.7,36.9,152.1,36.9z"
				/>
		</g>
		<g>
			<path class="st1" d="M161.5,28l2.8,6.6h0.1l2.8-6.6h3.2l-4.8,11h-2.6l-4.8-11H161.5z"/>
		</g>
		<g>
			<path class="st1" d="M181.3,29.3c1.1,1.1,1.7,2.5,1.7,4.2c0,1.7-0.6,3.1-1.7,4.2c-1.1,1.1-2.6,1.6-4.4,1.6s-3.3-0.5-4.4-1.6
				c-1.1-1.1-1.7-2.5-1.7-4.2c0-1.7,0.6-3.1,1.7-4.2c1.1-1.1,2.6-1.6,4.4-1.6S180.2,28.3,181.3,29.3z M174.7,31.3
				c-0.6,0.6-0.9,1.3-0.9,2.2s0.3,1.7,0.9,2.2c0.6,0.6,1.3,0.9,2.1,0.9c0.8,0,1.6-0.3,2.1-0.9c0.6-0.6,0.9-1.3,0.9-2.2
				s-0.3-1.7-0.9-2.2c-0.6-0.6-1.3-0.9-2.1-0.9C176,30.4,175.3,30.7,174.7,31.3z"/>
		</g>
		<g>
			<path class="st1" d="M185.2,25.9c-0.3-0.3-0.5-0.7-0.5-1.2s0.2-0.9,0.5-1.2c0.3-0.3,0.7-0.4,1.2-0.4c0.5,0,0.9,0.1,1.2,0.4
				c0.3,0.3,0.5,0.7,0.5,1.2s-0.2,0.9-0.5,1.2c-0.3,0.3-0.7,0.4-1.2,0.4C185.9,26.4,185.5,26.2,185.2,25.9z M188,27.9V39h-3V27.9
				c0.4,0.1,0.9,0.2,1.5,0.2c0.3,0,0.5,0,0.8-0.1c0.3,0,0.4-0.1,0.5-0.1L188,27.9z"/>
		</g>
		<g>
			<path class="st1" d="M196.1,30.4c-0.3,0-0.6,0.1-0.9,0.2c-0.3,0.1-0.6,0.3-0.8,0.5c-0.2,0.2-0.4,0.4-0.5,0.6
				c-0.2,0.2-0.3,0.4-0.4,0.5l-0.1,0.2V39h-3V28h2.9l0.1,1.7h0.1c0-0.1,0.1-0.1,0.1-0.2c0-0.1,0.1-0.2,0.3-0.5
				c0.2-0.2,0.4-0.4,0.6-0.6c0.2-0.2,0.5-0.3,0.8-0.5c0.3-0.1,0.7-0.2,1.1-0.2c0.5,0,0.9,0.1,1.3,0.2c0.4,0.2,0.6,0.3,0.8,0.5
				l0.2,0.2l-0.6,2.4C197.7,30.6,197,30.4,196.1,30.4z"/>
		</g>
		<g>
			<path class="st1" d="M199.3,33.6v-2.7h7v2.7H199.3z"/>
		</g>
		<g>
			<path class="st1" d="M209.2,28v-1.5c0-1.3,0.3-2.3,1-3c0.7-0.7,1.6-1.1,2.8-1.1c0.6,0,1.2,0.1,1.7,0.3c0.5,0.2,0.9,0.3,1.1,0.5
				l0.3,0.2l-0.9,2.2c-0.3-0.3-0.8-0.5-1.4-0.5c-0.5,0-0.9,0.1-1.1,0.4c-0.3,0.3-0.4,0.7-0.4,1.2V28h3.3v2.7h-3.3V39h-3v-8.3h-1.9
				V28H209.2z"/>
		</g>
		<g>
			<path class="st1" d="M221.9,27.7c1.6,0,2.9,0.4,3.7,1.2c0.8,0.8,1.3,1.8,1.3,3.2V39H224l-0.1-1.6h-0.1c0,0.1,0,0.1-0.1,0.2
				c0,0.1-0.2,0.2-0.3,0.4c-0.2,0.2-0.4,0.4-0.6,0.6c-0.2,0.2-0.5,0.3-1,0.4c-0.4,0.1-0.9,0.2-1.3,0.2c-1.1,0-2-0.3-2.6-0.9
				c-0.7-0.6-1-1.4-1-2.4c0-1,0.4-1.8,1.1-2.5c0.7-0.6,1.8-0.9,3.1-0.9c0.6,0,1.1,0.1,1.5,0.2c0.5,0.1,0.8,0.2,1,0.3l0.3,0.2v-0.8
				c0-1.4-0.8-2.1-2.4-2.1c-0.7,0-1.4,0.1-2.1,0.4c-0.7,0.2-1.1,0.5-1.4,0.7l-0.4,0.4h-0.3v-2.6c0.1-0.1,0.3-0.2,0.6-0.4
				c0.2-0.2,0.8-0.4,1.6-0.6C220.2,27.8,221.1,27.7,221.9,27.7z M221.4,36.9c0.6,0,1.1-0.2,1.5-0.5c0.4-0.3,0.7-0.7,0.8-1l0.2-0.5
				c-0.6-0.4-1.3-0.6-2.2-0.6c-0.6,0-1,0.1-1.3,0.4c-0.3,0.2-0.5,0.6-0.5,1c0,0.4,0.1,0.7,0.4,1C220.6,36.8,221,36.9,221.4,36.9z"/>
		</g>
		<g>
			<path class="st1" d="M229.5,25.9c-0.3-0.3-0.5-0.7-0.5-1.2s0.2-0.9,0.5-1.2c0.3-0.3,0.7-0.4,1.2-0.4c0.5,0,0.9,0.1,1.2,0.4
				c0.3,0.3,0.5,0.7,0.5,1.2s-0.2,0.9-0.5,1.2c-0.3,0.3-0.7,0.4-1.2,0.4C230.3,26.4,229.9,26.2,229.5,25.9z M232.3,27.9V39h-3V27.9
				c0.4,0.1,0.9,0.2,1.5,0.2c0.3,0,0.5,0,0.8-0.1c0.3,0,0.4-0.1,0.5-0.1L232.3,27.9z"/>
		</g>
		<g>
			<path class="st1" d="M240.5,30.4c-0.3,0-0.6,0.1-0.9,0.2c-0.3,0.1-0.6,0.3-0.8,0.5c-0.2,0.2-0.4,0.4-0.5,0.6
				c-0.2,0.2-0.3,0.4-0.4,0.5l-0.1,0.2V39h-3V28h2.9l0.1,1.7h0.1c0-0.1,0.1-0.1,0.1-0.2c0-0.1,0.1-0.2,0.3-0.5
				c0.2-0.2,0.4-0.4,0.6-0.6c0.2-0.2,0.5-0.3,0.8-0.5c0.3-0.1,0.7-0.2,1.1-0.2c0.5,0,0.9,0.1,1.3,0.2c0.4,0.2,0.6,0.3,0.8,0.5
				l0.2,0.2l-0.6,2.4C242,30.6,241.4,30.4,240.5,30.4z"/>
		</g>
		<g>
			<path class="st1" d="M249.2,27.7c1.7,0,3,0.5,3.9,1.5c1,1,1.4,2.4,1.4,4.1v0.8h-8.4c0.1,0.8,0.5,1.4,1,1.8
				c0.6,0.4,1.4,0.7,2.4,0.7c0.8,0,1.5-0.1,2.2-0.3c0.6-0.2,1.1-0.4,1.3-0.6l0.4-0.3h0.3v2.7c-0.1,0.1-0.3,0.2-0.5,0.4
				s-0.7,0.3-1.5,0.5c-0.8,0.2-1.6,0.3-2.4,0.3c-1.8,0-3.2-0.5-4.3-1.6c-1.1-1.1-1.6-2.5-1.6-4.2c0-1.7,0.6-3,1.7-4.1
				C246.1,28.3,247.5,27.7,249.2,27.7z M249.4,30.3c-0.8,0-1.5,0.2-2.1,0.5c-0.5,0.4-0.9,0.8-1.1,1.3h5.5c0-0.5-0.2-1-0.7-1.3
				C250.6,30.5,250.1,30.3,249.4,30.3z"/>
		</g>
		<g>
			<path class="st1" d="M100.5,58.2v6.1h-3V48.7h2.9l0.1,1.6h0.1c0-0.1,0.1-0.1,0.1-0.2c0.1-0.1,0.2-0.2,0.4-0.4
				c0.2-0.2,0.4-0.4,0.7-0.6c0.3-0.2,0.6-0.3,1-0.4c0.4-0.1,0.9-0.2,1.4-0.2c1.5,0,2.7,0.5,3.7,1.6s1.5,2.5,1.5,4.2
				c0,1.7-0.5,3.1-1.5,4.2c-1,1.1-2.3,1.6-3.7,1.6c-0.5,0-0.9-0.1-1.4-0.2c-0.4-0.1-0.8-0.3-1-0.5c-0.3-0.2-0.5-0.4-0.7-0.5
				c-0.2-0.2-0.3-0.3-0.4-0.5l-0.1-0.2H100.5z M101.4,52c-0.6,0.6-0.8,1.3-0.8,2.2c0,0.9,0.3,1.7,0.8,2.2c0.6,0.6,1.2,0.9,2.1,0.9
				c0.8,0,1.6-0.3,2.1-0.9c0.6-0.6,0.9-1.3,0.9-2.2c0-0.9-0.3-1.7-0.9-2.2c-0.6-0.6-1.3-0.9-2.1-0.9C102.6,51.1,102,51.4,101.4,52z"
				/>
		</g>
		<g>
			<path class="st1" d="M116.3,48.4c1.6,0,2.9,0.4,3.7,1.2c0.8,0.8,1.3,1.8,1.3,3.2v6.9h-2.9l-0.1-1.6h-0.1c0,0.1,0,0.1-0.1,0.2
				c0,0.1-0.2,0.2-0.3,0.4c-0.2,0.2-0.4,0.4-0.6,0.6c-0.2,0.2-0.5,0.3-1,0.4c-0.4,0.1-0.9,0.2-1.3,0.2c-1.1,0-2-0.3-2.6-0.9
				c-0.7-0.6-1-1.4-1-2.4c0-1,0.4-1.8,1.1-2.5c0.7-0.6,1.8-0.9,3.1-0.9c0.6,0,1.1,0.1,1.5,0.2c0.5,0.1,0.8,0.2,1,0.3l0.3,0.2v-0.8
				c0-1.4-0.8-2.1-2.4-2.1c-0.7,0-1.4,0.1-2.1,0.4c-0.7,0.2-1.1,0.5-1.4,0.7l-0.4,0.4h-0.3v-2.6c0.1-0.1,0.3-0.2,0.6-0.4
				c0.2-0.2,0.8-0.4,1.6-0.6C114.6,48.6,115.4,48.4,116.3,48.4z M115.8,57.6c0.6,0,1.1-0.2,1.5-0.5c0.4-0.3,0.7-0.7,0.8-1l0.2-0.5
				c-0.6-0.4-1.3-0.6-2.2-0.6c-0.6,0-1,0.1-1.3,0.4c-0.3,0.2-0.5,0.6-0.5,1c0,0.4,0.1,0.7,0.4,1C115,57.5,115.3,57.6,115.8,57.6z"/>
		</g>
		<g>
			<path class="st1" d="M134.2,48.7L128,64.3h-3.1l1.9-4.7L122,48.7h3.2l3,7h0.1l2.7-7H134.2z"/>
		</g>
		<g>
			<path class="st1" d="M143.7,56.6c0,1-0.4,1.9-1.2,2.5c-0.8,0.6-2,0.9-3.6,0.9c-0.8,0-1.6-0.1-2.3-0.3c-0.7-0.2-1.2-0.5-1.5-0.7
				l-0.5-0.3l0.6-2.4c0.1,0.1,0.2,0.2,0.4,0.3c0.2,0.1,0.6,0.3,1.2,0.5s1.2,0.3,1.9,0.3c1.2,0,1.8-0.3,1.8-0.9
				c0-0.2-0.1-0.5-0.4-0.6c-0.3-0.2-0.6-0.3-1.1-0.4c-0.4-0.1-0.9-0.2-1.4-0.4c-0.5-0.2-1-0.4-1.4-0.6c-0.4-0.2-0.8-0.6-1.1-1
				c-0.3-0.5-0.4-1-0.4-1.7c0-0.9,0.4-1.7,1.1-2.4c0.8-0.6,1.8-1,3.1-1c0.5,0,1,0.1,1.5,0.2c0.5,0.1,0.9,0.2,1.2,0.4
				c0.3,0.2,0.6,0.3,0.9,0.5c0.3,0.2,0.4,0.3,0.5,0.4l0.2,0.2l-1.1,2.1c-0.1-0.1-0.2-0.2-0.3-0.3c-0.1-0.1-0.4-0.3-0.9-0.5
				c-0.5-0.2-1-0.3-1.6-0.3c-0.5,0-0.9,0.1-1.1,0.3c-0.3,0.2-0.4,0.4-0.4,0.7c0,0.3,0.2,0.5,0.6,0.6c0.4,0.2,0.9,0.3,1.5,0.4
				c0.6,0.1,1.1,0.3,1.7,0.5c0.6,0.2,1,0.6,1.5,1.1C143.5,55.2,143.7,55.8,143.7,56.6z"/>
		</g>
		<g>
			<path class="st1" d="M150.3,48.4c1.6,0,2.9,0.4,3.7,1.2c0.8,0.8,1.3,1.8,1.3,3.2v6.9h-2.9l-0.1-1.6h-0.1c0,0.1,0,0.1-0.1,0.2
				c0,0.1-0.2,0.2-0.3,0.4c-0.2,0.2-0.4,0.4-0.6,0.6c-0.2,0.2-0.5,0.3-1,0.4c-0.4,0.1-0.9,0.2-1.3,0.2c-1.1,0-2-0.3-2.6-0.9
				c-0.7-0.6-1-1.4-1-2.4c0-1,0.4-1.8,1.1-2.5c0.7-0.6,1.8-0.9,3.1-0.9c0.6,0,1.1,0.1,1.5,0.2c0.5,0.1,0.8,0.2,1,0.3l0.3,0.2v-0.8
				c0-1.4-0.8-2.1-2.4-2.1c-0.7,0-1.4,0.1-2.1,0.4c-0.7,0.2-1.1,0.5-1.4,0.7l-0.4,0.4h-0.3v-2.6c0.1-0.1,0.3-0.2,0.6-0.4
				c0.2-0.2,0.8-0.4,1.6-0.6C148.6,48.6,149.4,48.4,150.3,48.4z M149.7,57.6c0.6,0,1.1-0.2,1.5-0.5c0.4-0.3,0.7-0.7,0.8-1l0.2-0.5
				c-0.6-0.4-1.3-0.6-2.2-0.6c-0.6,0-1,0.1-1.3,0.4c-0.3,0.2-0.5,0.6-0.5,1c0,0.4,0.1,0.7,0.4,1C149,57.5,149.3,57.6,149.7,57.6z"/>
		</g>
		<g>
			<path class="st1" d="M168.4,59.7h-3v-6.5c0-0.7-0.2-1.2-0.6-1.5c-0.4-0.4-0.9-0.5-1.5-0.5c-0.8,0-1.4,0.2-1.9,0.7
				c-0.5,0.5-0.8,1.1-0.8,2v5.9h-3v-11h2.9l0.1,1.6h0.1c0-0.1,0.1-0.1,0.1-0.2c0-0.1,0.2-0.2,0.4-0.4c0.2-0.2,0.4-0.4,0.7-0.6
				c0.2-0.2,0.6-0.3,1-0.4c0.4-0.1,0.8-0.2,1.3-0.2c1.3,0,2.3,0.4,3.1,1.2c0.8,0.8,1.1,1.9,1.1,3.3V59.7z"/>
		</g>
		<g>
			<path class="st1" d="M179,56.6c0,1-0.4,1.9-1.2,2.5c-0.8,0.6-2,0.9-3.6,0.9c-0.8,0-1.6-0.1-2.3-0.3c-0.7-0.2-1.2-0.5-1.5-0.7
				l-0.5-0.3l0.6-2.4c0.1,0.1,0.2,0.2,0.4,0.3c0.2,0.1,0.6,0.3,1.2,0.5s1.2,0.3,1.9,0.3c1.2,0,1.8-0.3,1.8-0.9
				c0-0.2-0.1-0.5-0.4-0.6c-0.3-0.2-0.6-0.3-1.1-0.4c-0.4-0.1-0.9-0.2-1.4-0.4c-0.5-0.2-1-0.4-1.4-0.6c-0.4-0.2-0.8-0.6-1.1-1
				c-0.3-0.5-0.4-1-0.4-1.7c0-0.9,0.4-1.7,1.1-2.4c0.8-0.6,1.8-1,3.1-1c0.5,0,1,0.1,1.5,0.2c0.5,0.1,0.9,0.2,1.2,0.4
				c0.3,0.2,0.6,0.3,0.9,0.5c0.3,0.2,0.4,0.3,0.5,0.4l0.2,0.2l-1.1,2.1c-0.1-0.1-0.2-0.2-0.3-0.3c-0.1-0.1-0.4-0.3-0.9-0.5
				c-0.5-0.2-1-0.3-1.6-0.3c-0.5,0-0.9,0.1-1.1,0.3c-0.3,0.2-0.4,0.4-0.4,0.7c0,0.3,0.2,0.5,0.6,0.6c0.4,0.2,0.9,0.3,1.5,0.4
				c0.6,0.1,1.1,0.3,1.7,0.5c0.6,0.2,1,0.6,1.5,1.1C178.8,55.2,179,55.8,179,56.6z"/>
		</g>
	</g>
	<g>
		<g>
			<path class="st1" d="M38.4,20.8c-0.9-0.4-1.3-1.5-0.9-2.4c1.7-4.6,7.6-17,22.5-11.9c1.3,0.5,2.3,0.9,2.6,1.1
				c1.2,0.6,4.7,2.4,7.1,6.2c2.2,3.5,2.7,7.5,2.3,11.2c-0.2,1.6-1,4.2-1.7,5.8c-0.3,0.9-1.2,1.4-2.1,1.2c-3.9-1-8.1-2.2-12.5-3.7
				C49.3,25.9,43.5,23.4,38.4,20.8z"/>
		</g>
		<g>
			<circle class="st2" cx="34.3" cy="39" r="6.4"/>
		</g>
		<g>
			<path class="st1" d="M40.8,29.7l-4.2,12.2c-0.4,1.1,0.4,2.3,1.5,2.3l5.1,0.4c1,0.1,1.9-0.7,1.9-1.7c0-2.1,0.6-5.1,4.2-4.7
				c4,0.4,4.4,3.3,3.5,5.5c-0.2,0.5-0.5,0.9-0.8,1.2c-0.9,0.8-0.7,2.2,0.4,2.8l0,0c0.7,0.4,1.6,0.3,2.1-0.3
				c1.9-1.9,6.4-6.5,9.1-10.3c0.7-1,0.2-2.5-1.1-2.8c-4-0.8-12.2-2.6-19.3-5.7C42.2,28.2,41.1,28.7,40.8,29.7z"/>
		</g>
		<g>
			<path class="st0" d="M48.7,61.7c-0.1,0-0.1,0-0.2,0c-0.7-0.1-1.1-0.7-1-1.4l1.3-9.1c0.1-0.7,0.7-1.1,1.4-1c0.7,0.1,1.1,0.7,1,1.4
				l-1.3,9.1C49.8,61.3,49.3,61.7,48.7,61.7z"/>
		</g>
		<g>
			<path class="st0" d="M22.5,35.4c-0.1,0-0.2,0-0.2,0c-0.7-0.1-1.1-0.8-1-1.4l0-0.2c0.5-2.7,0.8-3.6,1.4-5.1c0.2-0.6,0.9-1,1.5-0.7
				c0.6,0.2,1,0.9,0.7,1.5c-0.5,1.5-0.8,2.3-1.3,4.8l0,0.2C23.6,35,23.1,35.4,22.5,35.4z"/>
		</g>
		<g>
			<path class="st0" d="M32.7,39.3c-0.4,0-0.8,0-1.3-0.2c-1.8-0.5-3.1-1.9-3.6-3.7c-0.2-0.6,0.2-1.3,0.9-1.5
				c0.7-0.2,1.3,0.2,1.5,0.9c0.2,1,1,1.7,1.9,2c1.2,0.3,2.1-0.4,2.2-0.4c0.5-0.4,1.3-0.3,1.7,0.3c0.4,0.5,0.3,1.3-0.3,1.7
				C35.3,38.6,34.2,39.3,32.7,39.3z"/>
		</g>
		<g>
			<path class="st0" d="M31.9,56.8c-3.7,0-6.9-1.1-9-3.2c-3-3.2-3.1-8.1-2.7-12L19,41.5c-1.2-0.2-2.2-0.5-2.8-1.5
				c-0.3-0.5-0.4-1.2-0.2-1.9c0.3-1.2,1.1-1.7,2.6-2.7l0.3-0.2c0.4-0.3,2.1-1.5,2.9-2c0.5-0.4,1.3-0.3,1.7,0.3
				c0.4,0.5,0.3,1.3-0.3,1.7c-0.8,0.6-2.6,1.8-3,2L20,37.4c-1,0.7-1.5,1-1.6,1.3c0,0.1,0,0.1,0,0.1c0.2,0.1,0.7,0.2,1.1,0.3l3.3,0.3
				l-0.2,1.2c-0.7,5.6-0.1,9.2,1.9,11.3c3.3,3.4,10.9,3.3,18-0.3c0.6-0.3,1.3-0.1,1.6,0.5c0.3,0.6,0.1,1.3-0.5,1.6
				C39.7,55.8,35.5,56.8,31.9,56.8z M18.4,38.9L18.4,38.9L18.4,38.9z"/>
		</g>
		<g>
			<path class="st0" d="M35.2,30.4c-0.1,0-0.3,0-0.4-0.1c-5.7-2.2-24.3-9.7-24.3-15c0-0.9,0.5-2.2,2.8-3.1c3.7-1.4,9.6-1.1,18,0.8
				c0.6,0.1,1.1,0.8,0.9,1.4c-0.1,0.6-0.8,1.1-1.4,0.9c-7.9-1.8-13.5-2.1-16.7-0.9c-0.8,0.3-1.2,0.6-1.2,0.8
				c0,2.4,11.8,8.6,22.8,12.8c0.6,0.2,0.9,0.9,0.7,1.6C36.1,30.1,35.7,30.4,35.2,30.4z"/>
		</g>
		<g>
			<path class="st0" d="M59.7,30.2c-0.1,0-0.2,0-0.3,0c-2.8-0.8-5.6-1.6-8.4-2.6c-7.4-2.5-14.7-5.5-21.7-9l-0.9-0.4l0.2-0.9
				c0.1-0.4,2.7-10.4,11.1-14.9c4.8-2.7,10.5-2.9,17-0.8c0.6,0.2,1,0.9,0.8,1.5c-0.2,0.6-0.9,1-1.5,0.8c-5.8-1.9-10.8-1.7-15,0.6
				c-6,3.3-8.8,10.1-9.6,12.5c6.6,3.3,13.5,6.1,20.5,8.4c2.7,0.9,5.5,1.8,8.3,2.5c0.6,0.2,1,0.8,0.8,1.5
				C60.8,29.8,60.3,30.2,59.7,30.2z"/>
		</g>
		<g>
			<path class="st0" d="M45.5,47C45.5,47,45.4,47,45.5,47l-6.7-0.5l4.4-14.2c0.2-0.6,0.9-1,1.5-0.8c0.6,0.2,1,0.9,0.8,1.5l-3.5,11.3
				l3.7,0.3c0.7,0.1,1.2,0.6,1.1,1.3C46.6,46.5,46.1,47,45.5,47z"/>
		</g>
		<g>
			<path class="st3" d="M55.5,49.4"/>
		</g>
		<g>
			<g>
				<path class="st4" d="M3,55.4c-0.6,0-1.1-0.4-1.2-1.1C1.7,53.6,2.2,53,2.9,53c8.5-1,26.7-5.5,26.9-5.6c0.6-0.2,1.3,0.2,1.5,0.9
					c0.2,0.6-0.2,1.3-0.9,1.5c-0.8,0.2-18.6,4.6-27.2,5.6C3.1,55.4,3,55.4,3,55.4z"/>
			</g>
			<g>
				<path class="st4" d="M18.3,55.6c-0.3,1.2-1.3,2.6-2,2.4c-0.7-0.1-1-1.6-1-1.9c-0.4-2.6,1.6-4.7,1.8-4.8c0,0,0.1-0.1,0.1-0.1
					C17.6,51.8,18.9,53.6,18.3,55.6z"/>
			</g>
			<g>
				<path class="st4" d="M13.9,56.4c-0.3,1.2-1.3,2.6-2,2.4c-0.7-0.1-1-1.6-1-1.9c-0.4-2.6,1.6-4.7,1.8-4.8c0,0,0.1-0.1,0.1-0.1
					C13.2,52.5,14.5,54.3,13.9,56.4z"/>
			</g>
			<g>
				<path class="st4" d="M9.6,56.7c-0.3,1.1-1.2,2.4-1.8,2.2c-0.6-0.1-0.9-1.5-0.9-1.7c-0.4-2.3,1.5-4.3,1.7-4.4c0,0,0,0,0.1-0.1
					C8.9,53.2,10.1,54.8,9.6,56.7z"/>
			</g>
			<g>
				<path class="st4" d="M5.5,57.4c-0.3,1-1.1,2.2-1.7,2.1c-0.6-0.1-0.8-1.4-0.8-1.6c-0.3-2.2,1.4-3.9,1.5-4.1c0,0,0,0,0.1-0.1
					C4.9,54.1,6,55.6,5.5,57.4z"/>
			</g>
			<g>
				<path class="st4" d="M17.3,51.5c0,0-0.1,0-0.1,0c-0.3-0.1-3-1-3.8-3.5c-0.1-0.3-0.5-1.7,0-2.1c0.6-0.4,2.1,0.3,2.9,1.3
					C17.7,48.8,17.4,50.9,17.3,51.5z"/>
			</g>
			<g>
				<path class="st4" d="M12.7,52.5c0,0-0.1,0-0.1,0c-0.3-0.1-3-1-3.8-3.5c-0.1-0.3-0.5-1.7,0-2.1c0.6-0.4,2.1,0.3,2.9,1.3
					C13.2,49.7,12.9,51.9,12.7,52.5z"/>
			</g>
			<g>
				<path class="st4" d="M8.3,53C8.3,53,8.3,53,8.3,53c-0.3-0.1-2.8-1-3.6-3.2c-0.1-0.3-0.5-1.6,0-2c0.5-0.4,1.9,0.3,2.6,1.2
					C8.7,50.5,8.5,52.5,8.3,53z"/>
			</g>
			<g>
				<path class="st4" d="M4.5,54.1C4.4,54.1,4.4,54.1,4.5,54.1c-0.3-0.1-2.6-0.9-3.3-3c-0.1-0.2-0.5-1.4,0-1.8
					c0.5-0.4,1.7,0.3,2.4,1.1C4.9,51.8,4.6,53.6,4.5,54.1z"/>
			</g>
			<g>
				<path class="st4" d="M2.6,55.6c-1.1,0.1-2.5-0.4-2.6-1c-0.1-0.6,1.1-1.2,1.3-1.3c2-1,4.3,0.1,4.5,0.2c0,0,0.1,0,0.1,0
					C5.6,54,4.5,55.5,2.6,55.6z"/>
			</g>
		</g>
		<g>
			<path class="st0" d="M50.9,47.5c-0.7,0-1.2-0.5-1.2-1.2s0.5-1.2,1.2-1.2c0.9,0,1.7-0.8,1.7-1.7c0-0.9-0.8-1.7-1.7-1.7
				c-0.7,0-1.4,0.5-1.6,1.1c-0.2,0.6-0.9,0.9-1.5,0.7c-0.6-0.2-0.9-0.9-0.7-1.5c0.6-1.6,2.1-2.7,3.9-2.7c2.3,0,4.1,1.8,4.1,4.1
				S53.2,47.5,50.9,47.5z"/>
		</g>
		<g>
			<path class="st2" d="M68.8,28.6c5.9,2.8,13.3,7.2,14.4,11.6C85.2,47.8,37.7,30,37.7,30S8.5,18.8,17.8,15.4
				c3.6-1.3,9.6-0.7,16,0.8c7.4,1.7,15.6,4.2,24.3,7.7C62,25.4,65.5,27,68.8,28.6z"/>
		</g>
	</g>
</g>
</svg>
