<?xml version="1.0" encoding="UTF-8"?>
<svg id="Calque_1" xmlns="http://www.w3.org/2000/svg" version="1.1" viewBox="0 0 254.5 64.3">
  <!-- Generator: Adobe Illustrator 29.5.1, SVG Export Plug-In . SVG Version: 2.1.0 Build 141)  -->
  <defs>
    <style>
      .st0 {
        fill: #d7be96;
      }

      .st1 {
        fill: #efe5d5;
      }

      .st2 {
        stroke: #ff644b;
      }

      .st2, .st3 {
        stroke-miterlimit: 10;
        stroke-width: .1px;
      }

      .st2, .st4 {
        fill: #ff644b;
      }

      .st5 {
        fill: #380908;
      }

      .st3 {
        fill: #ef5a3f;
        stroke: #ef5a3f;
      }

      .st6 {
        fill: #3c0a0a;
      }

      .st7 {
        fill: #3a1011;
      }
    </style>
  </defs>
  <g>
    <path class="st7" d="M105.4,12.8l3.8,5.5h-2.9l-3.4-5h-2.4v5h-2.5V3.2h4.6c1.7,0,3.1.5,4.1,1.4,1,.9,1.5,2.2,1.5,3.7s0,1.2-.3,1.8c-.2.5-.4,1-.7,1.3-.3.3-.5.6-.8.8s-.5.4-.7.5h-.3q0,.1,0,0ZM100.5,5.4v5.6h2.1c.9,0,1.7-.2,2.2-.7s.8-1.2.8-2.1-.3-1.6-.8-2.1-1.3-.7-2.2-.7c0,0-2.1,0-2.1,0Z"/>
    <path class="st7" d="M116,7.2c1.6,0,2.9.5,3.9,1.5s1.4,2.3,1.4,4v.8h-8.6c0,.9.5,1.6,1.1,2.2s1.5.8,2.6.8.9,0,1.4-.1c.4-.1.8-.2,1.1-.3.3-.1.5-.3.7-.4.2-.1.4-.2.5-.3h0c0-.1.3-.1.3-.1v2.3s0,.1-.2.1c0,.1-.3.2-.5.3-.3.1-.6.3-.9.4s-.7.2-1.2.3c-.5.1-1,.1-1.6.1-1.7,0-3-.5-4.1-1.6s-1.6-2.4-1.6-4.1.5-3,1.6-4c1.1-1.3,2.4-1.9,4-1.9ZM116.1,9.4c-.9,0-1.6.2-2.1.6-.6.4-1,.9-1.2,1.5h6.2c0-.6-.4-1.1-.9-1.6-.5-.3-1.2-.5-2-.5ZM115.1,6l1.4-3.8h2.7l-2.5,3.8h-1.6Z"/>
    <path class="st7" d="M133.4,8.8c1,1.1,1.5,2.4,1.5,4.1s-.5,3-1.5,4.1-2.3,1.6-3.7,1.6-1-.1-1.4-.2c-.4-.1-.8-.3-1.1-.5-.3-.2-.5-.4-.7-.6s-.3-.4-.4-.5v-.2h-.2v6.2h-2.4V7.5h2.3v1.7h.2c0-.1,0-.1,0-.2,0-.1.2-.2.4-.5s.5-.4.7-.6c.3-.2.6-.3,1.1-.5.4,0,.9-.2,1.4-.2,1.4,0,2.7.5,3.7,1.6ZM126.8,10.4c-.6.7-1,1.5-1,2.5s.3,1.9,1,2.5c.6.7,1.4,1,2.4,1s1.7-.3,2.4-1,1-1.5,1-2.5-.3-1.9-1-2.5c-.6-.7-1.4-1-2.4-1s-1.8.3-2.4,1Z"/>
    <path class="st7" d="M142.2,7.2c1.6,0,2.9.5,3.9,1.5s1.4,2.3,1.4,4v.8h-8.6c.1.9.5,1.6,1.1,2.2s1.5.8,2.6.8.9,0,1.4-.1c.4-.1.8-.2,1.1-.3.3-.1.5-.3.7-.4.2-.1.4-.2.5-.3h.1c0-.1.3-.1.3-.1v2.3s-.1.1-.2.1c-.1.1-.3.2-.5.3-.3.1-.6.3-.9.4-.3.1-.7.2-1.2.3-.5.1-1,.1-1.6.1-1.7,0-3-.5-4.1-1.6s-1.6-2.4-1.6-4.1.5-3,1.6-4c1.1-1.3,2.4-1.9,4-1.9ZM142.3,9.4c-.9,0-1.6.2-2.1.6-.6.4-1,.9-1.2,1.5h6.2c-.1-.6-.4-1.1-.9-1.6-.5-.3-1.2-.5-2-.5Z"/>
    <path class="st7" d="M154.7,9.4c-.3,0-.7.1-1,.2-.3.2-.6.3-.8.6-.2.2-.4.4-.6.7s-.3.4-.4.6v.2c-.1,0-.1,6.6-.1,6.6h-2.4V7.5h2.3v1.7h.2c0-.1.1-.1.1-.2s.2-.2.4-.5c.2-.2.4-.4.6-.6.2-.2.5-.3.9-.5.4,0,.7-.2,1.1-.2s.9,0,1.3.2c.4,0,.7.3.8.4l.2.2-.5,2.1c0-.1-.1-.1-.2-.2-.1-.1-.3-.2-.7-.3-.3-.2-.7-.2-1.2-.2Z"/>
    <path class="st7" d="M159.5,14.7v-5h-2v-.8l4.2-4.6h.1v3.2h3.4v2.2h-3.4v4.9c0,.6.2,1.1.5,1.4s.7.5,1.2.5.6-.1.9-.2c.3-.1.5-.3.6-.4l.2-.2h.3v2.1c-.1.1-.2.2-.3.3-.1.1-.4.2-.9.4s-.9.3-1.4.3c-1,0-1.9-.3-2.5-1-.6-.9-.9-1.9-.9-3.1Z"/>
    <path class="st7" d="M176.9,8.8c1.1,1.1,1.7,2.4,1.7,4.1s-.6,3-1.7,4.1c-1.1,1.1-2.5,1.6-4.2,1.6s-3.1-.5-4.2-1.6c-1.1-1.1-1.7-2.4-1.7-4.1s.6-3,1.7-4.1c1.1-1.1,2.5-1.6,4.2-1.6s3,.5,4.2,1.6ZM170.2,10.4c-.6.7-1,1.5-1,2.5s.3,1.9,1,2.5c.6.7,1.5,1,2.5,1s1.8-.3,2.5-1c.6-.7,1-1.5,1-2.5s-.3-1.9-1-2.5c-.6-.7-1.5-1-2.5-1s-1.9.3-2.5,1Z"/>
    <path class="st7" d="M180.9,5c-.3-.2-.4-.6-.4-1s.1-.8.4-1c.3-.3.6-.4,1-.4s.7,0,1,.4.4.6.4,1-.1.8-.4,1c-.3.2-.6.4-1,.4-.4,0-.7-.2-1-.4ZM183.1,7.4v10.9h-2.4V7.4c.3,0,.7.2,1.2.2s.4,0,.6,0c.2,0,.3,0,.4,0h.2Z"/>
    <path class="st7" d="M191.1,9.4c-.3,0-.7.1-1,.2-.3.2-.6.3-.8.6s-.4.4-.6.7-.3.4-.4.6v.2c-.1,0-.1,6.6-.1,6.6h-2.4V7.5h2.3v1.7h.2c0-.1.1-.1.1-.2s.2-.2.4-.5.4-.4.6-.6c.2-.2.5-.3.9-.5.4,0,.7-.2,1.1-.2s.9,0,1.3.2c.4,0,.7.3.8.4l.2.2-.5,2.1c0-.1-.1-.1-.2-.2-.1-.1-.3-.2-.7-.3-.4-.2-.8-.2-1.2-.2Z"/>
    <path class="st7" d="M199.7,7.2c1.6,0,2.9.5,3.9,1.5s1.4,2.3,1.4,4v.8h-8.6c.1.9.5,1.6,1.1,2.2s1.5.8,2.6.8.9,0,1.4-.1c.4-.1.8-.2,1.1-.3.3-.1.5-.3.7-.4.2-.1.4-.2.5-.3h.1c0-.1.3-.1.3-.1v2.3s-.1.1-.2.1c-.1.1-.3.2-.5.3-.3.1-.6.3-.9.4-.3.1-.7.2-1.2.3-.5.1-1,.1-1.6.1-1.7,0-3-.5-4.1-1.6s-1.6-2.4-1.6-4.1.5-3,1.6-4c1.1-1.3,2.4-1.9,4-1.9ZM199.8,9.4c-.9,0-1.6.2-2.1.6-.6.4-1,.9-1.2,1.5h6.2c-.1-.6-.4-1.1-.9-1.6-.5-.3-1.2-.5-2-.5Z"/>
    <path class="st4" d="M98.8,37.7c-1-1.1-1.5-2.4-1.5-4.1s.5-3,1.5-4.1,2.3-1.6,3.7-1.6,1,.1,1.5.2.8.3,1.1.5c.3.2.5.4.7.6s.3.4.4.5v.2h.2v-6.7h1.8v15.8h-1.7v-1.8h-.2c0,0,0,0,0,.2,0,0-.2.3-.4.5-.2.2-.5.4-.7.6-.3.2-.6.3-1.1.5s-.9.2-1.5.2c-1.5,0-2.7-.4-3.7-1.5ZM105.4,36.5c.7-.8,1.1-1.7,1.1-2.9s-.4-2.1-1.1-2.9-1.6-1.1-2.7-1.1-1.9.4-2.7,1.1c-.7.8-1.1,1.7-1.1,2.9s.4,2.1,1.1,2.9c.7.8,1.6,1.1,2.7,1.1,1.1.1,2-.3,2.7-1.1Z"/>
    <path class="st4" d="M112.2,29.5c1-1.1,2.4-1.6,3.9-1.6s2.8.5,3.8,1.5c.9,1,1.4,2.3,1.4,3.9v.6h-8.9c0,1.1.5,2,1.3,2.7.7.7,1.7,1,2.8,1s1.5,0,2.1-.4c.6-.2,1.1-.5,1.3-.7l.4-.4h.3v1.9s0,0-.2,0c0,0-.2.2-.5.3s-.5.3-.9.4c-.3,0-.7.2-1.2.3s-1,0-1.6,0c-1.6,0-3-.5-4-1.6-1.1-1.1-1.6-2.4-1.6-4.1,0-1.5.5-2.9,1.6-4ZM116.1,29.6c-.9,0-1.6.3-2.3.8-.6.5-1,1.2-1.3,1.9h6.8c0-.8-.5-1.4-1.1-1.9-.5-.6-1.2-.8-2.1-.8Z"/>
    <path class="st4" d="M131.1,36c0,1-.4,1.8-1.1,2.4-.7.6-1.8.9-3.2.9s-1.5,0-2.2-.3-1.2-.5-1.5-.7l-.5-.3.4-1.6s0,0,.2,0c0,0,.2.2.5.3.2,0,.5.3.8.4.3,0,.6.2,1.1.3.4,0,.9,0,1.3,0,1.6,0,2.4-.5,2.4-1.6s-.2-.8-.7-1.1c-.4-.3-1-.5-1.6-.7s-1.3-.4-1.9-.6c-.6-.2-1.2-.6-1.6-1-.4-.5-.7-1.1-.7-1.8s.3-1.6,1-2.1c.7-.6,1.6-.9,2.7-.9s1,.1,1.4.2c.5.1.8.2,1.1.4.3.2.6.3.8.5s.4.3.5.4l.2.2-.7,1.5c-.1-.1-.2-.2-.4-.4-.2-.2-.5-.4-1.1-.6-.6-.2-1.2-.4-1.8-.4s-1.1.1-1.5.4c-.3.3-.5.6-.5,1s.2.7.7.9c.4.2,1,.4,1.6.6s1.3.4,1.9.6c.6.2,1.2.6,1.6,1,.6.6.8,1.2.8,1.9Z"/>
    <path class="st4" d="M146.1,35.9c0,1-.4,1.9-1.2,2.5s-2,.9-3.6.9-1.6,0-2.3-.3-1.2-.5-1.5-.7l-.5-.3.6-2.4c.1,0,.2.2.4.3s.6.3,1.2.5,1.2.3,1.9.3c1.2,0,1.8-.3,1.8-.9s-.1-.5-.4-.6c-.3-.2-.6-.3-1.1-.4-.4,0-.9-.2-1.4-.4s-1-.4-1.4-.6c-.4-.2-.8-.6-1.1-1-.3-.5-.4-1-.4-1.7s.4-1.7,1.1-2.4c.8-.6,1.8-1,3.1-1s1,.1,1.5.2.9.2,1.2.4.6.3.9.5c.3.2.4.3.5.4l.2.2-1.1,2.1c-.1-.1-.2-.2-.3-.3-.1-.1-.4-.3-.9-.5s-1-.3-1.6-.3-.9.1-1.1.3c-.3.2-.4.4-.4.7s.2.5.6.6c.4.2.9.3,1.5.4.6,0,1.1.3,1.7.5.6.2,1,.6,1.5,1.1.4.5.6,1.1.6,1.9Z"/>
    <path class="st4" d="M152.6,27.7c1.6,0,2.9.4,3.7,1.2.8.8,1.3,1.8,1.3,3.2v6.9h-2.9v-1.6h-.2q0,0-.1.2c0,0-.2.2-.3.4-.2.2-.4.4-.6.6-.2.2-.5.3-1,.4-.4,0-.9.2-1.3.2-1.1,0-2-.3-2.6-.9-.7-.6-1-1.4-1-2.4s.4-1.8,1.1-2.5c.7-.6,1.8-.9,3.1-.9s1.1,0,1.5.2c.5,0,.8.2,1,.3l.3.2v-.8c0-1.4-.8-2.1-2.4-2.1s-1.4.1-2.1.4c-.7.2-1.1.5-1.4.7l-.4.4h-.3v-2.6c.1-.1.3-.2.6-.4.2-.2.8-.4,1.6-.6.8-.4,1.6-.5,2.4-.5ZM152.1,36.9c.6,0,1.1-.2,1.5-.5s.7-.7.8-1l.2-.5c-.6-.4-1.3-.6-2.2-.6s-1,0-1.3.4c-.3.2-.5.6-.5,1s.1.7.4,1c.3,0,.7.2,1.1.2Z"/>
    <path class="st4" d="M161.5,28l2.8,6.6h.1l2.8-6.6h3.2l-4.8,11h-2.6l-4.8-11h3.3Z"/>
    <path class="st4" d="M181.3,29.3c1.1,1.1,1.7,2.5,1.7,4.2s-.6,3.1-1.7,4.2c-1.1,1.1-2.6,1.6-4.4,1.6s-3.3-.5-4.4-1.6c-1.1-1.1-1.7-2.5-1.7-4.2s.6-3.1,1.7-4.2c1.1-1.1,2.6-1.6,4.4-1.6s3.3.6,4.4,1.6ZM174.7,31.3c-.6.6-.9,1.3-.9,2.2s.3,1.7.9,2.2c.6.6,1.3.9,2.1.9s1.6-.3,2.1-.9c.6-.6.9-1.3.9-2.2s-.3-1.7-.9-2.2c-.6-.6-1.3-.9-2.1-.9s-1.5.3-2.1.9Z"/>
    <path class="st4" d="M185.2,25.9c-.3-.3-.5-.7-.5-1.2s.2-.9.5-1.2c.3-.3.7-.4,1.2-.4s.9.1,1.2.4.5.7.5,1.2-.2.9-.5,1.2c-.3.3-.7.4-1.2.4-.5.1-.9,0-1.2-.4ZM188,27.9v11.1h-3v-11.1c.4.1.9.2,1.5.2s.5,0,.8-.1c.3,0,.4-.1.5-.1h.2Z"/>
    <path class="st4" d="M196.1,30.4c-.3,0-.6.1-.9.2-.3.1-.6.3-.8.5s-.4.4-.5.6c-.2.2-.3.4-.4.5v.2c-.1,0-.1,6.6-.1,6.6h-3v-11h2.9v1.7h.2c0-.1.1-.1.1-.2s.1-.2.3-.5c.2-.2.4-.4.6-.6.2-.2.5-.3.8-.5.3-.1.7-.2,1.1-.2s.9.1,1.3.2c.4.2.6.3.8.5l.2.2-.6,2.4c-.4-.4-1.1-.6-2-.6Z"/>
    <path class="st4" d="M199.3,33.6v-2.7h7v2.7h-7Z"/>
    <path class="st4" d="M209.2,28v-1.5c0-1.3.3-2.3,1-3s1.6-1.1,2.8-1.1,1.2.1,1.7.3c.5.2.9.3,1.1.5l.3.2-.9,2.2c-.3-.3-.8-.5-1.4-.5s-.9.1-1.1.4c-.3.3-.4.7-.4,1.2v1.3h3.3v2.7h-3.3v8.3h-3v-8.3h-1.9v-2.7h1.8Z"/>
    <path class="st4" d="M221.9,27.7c1.6,0,2.9.4,3.7,1.2.8.8,1.3,1.8,1.3,3.2v6.9h-2.9v-1.6h-.2q0,0-.1.2c0,0-.2.2-.3.4-.2.2-.4.4-.6.6-.2.2-.5.3-1,.4-.4,0-.9.2-1.3.2-1.1,0-2-.3-2.6-.9-.7-.6-1-1.4-1-2.4s.4-1.8,1.1-2.5c.7-.6,1.8-.9,3.1-.9s1.1,0,1.5.2c.5,0,.8.2,1,.3l.3.2v-.8c0-1.4-.8-2.1-2.4-2.1s-1.4.1-2.1.4c-.7.2-1.1.5-1.4.7l-.4.4h-.3v-2.6c.1-.1.3-.2.6-.4.2-.2.8-.4,1.6-.6.7-.4,1.6-.5,2.4-.5ZM221.4,36.9c.6,0,1.1-.2,1.5-.5s.7-.7.8-1l.2-.5c-.6-.4-1.3-.6-2.2-.6s-1,0-1.3.4c-.3.2-.5.6-.5,1s.1.7.4,1c.3,0,.7.2,1.1.2Z"/>
    <path class="st4" d="M229.5,25.9c-.3-.3-.5-.7-.5-1.2s.2-.9.5-1.2c.3-.3.7-.4,1.2-.4s.9.1,1.2.4.5.7.5,1.2-.2.9-.5,1.2c-.3.3-.7.4-1.2.4-.4.1-.8,0-1.2-.4ZM232.3,27.9v11.1h-3v-11.1c.4.1.9.2,1.5.2s.5,0,.8-.1c.3,0,.4-.1.5-.1h.2Z"/>
    <path class="st4" d="M240.5,30.4c-.3,0-.6.1-.9.2-.3.1-.6.3-.8.5s-.4.4-.5.6c-.2.2-.3.4-.4.5v.2c-.1,0-.1,6.6-.1,6.6h-3v-11h2.9v1.7h.2c0-.1.1-.1.1-.2s.1-.2.3-.5c.2-.2.4-.4.6-.6.2-.2.5-.3.8-.5.3-.1.7-.2,1.1-.2s.9.1,1.3.2c.4.2.6.3.8.5l.2.2-.6,2.4c-.5-.4-1.1-.6-2-.6Z"/>
    <path class="st4" d="M249.2,27.7c1.7,0,3,.5,3.9,1.5,1,1,1.4,2.4,1.4,4.1v.8h-8.4c.1.8.5,1.4,1,1.8.6.4,1.4.7,2.4.7s1.5,0,2.2-.3c.6-.2,1.1-.4,1.3-.6l.4-.3h.3v2.7c-.1,0-.3.2-.5.4s-.7.3-1.5.5-1.6.3-2.4.3c-1.8,0-3.2-.5-4.3-1.6s-1.6-2.5-1.6-4.2.6-3,1.7-4.1c1-1.1,2.4-1.7,4.1-1.7ZM249.4,30.3c-.8,0-1.5.2-2.1.5-.5.4-.9.8-1.1,1.3h5.5c0-.5-.2-1-.7-1.3-.4-.3-.9-.5-1.6-.5Z"/>
    <path class="st4" d="M100.5,58.2v6.1h-3v-15.6h2.9v1.6h.2c0,0,0,0,0-.2,0,0,.2-.2.4-.4.2-.2.4-.4.7-.6.3-.2.6-.3,1-.4.4,0,.9-.2,1.4-.2,1.5,0,2.7.5,3.7,1.6s1.5,2.5,1.5,4.2-.5,3.1-1.5,4.2c-1,1.1-2.3,1.6-3.7,1.6s-.9,0-1.4-.2c-.4,0-.8-.3-1-.5-.3-.2-.5-.4-.7-.5-.2-.2-.3-.3-.4-.5v-.2c0,0-.2,0-.2,0ZM101.4,52c-.6.6-.8,1.3-.8,2.2s.3,1.7.8,2.2,1.2.9,2.1.9,1.6-.3,2.1-.9c.6-.6.9-1.3.9-2.2s-.3-1.7-.9-2.2c-.6-.6-1.3-.9-2.1-.9s-1.5.3-2.1.9Z"/>
    <path class="st4" d="M116.3,48.4c1.6,0,2.9.4,3.7,1.2.8.8,1.3,1.8,1.3,3.2v6.9h-2.9v-1.6h-.2q0,0,0,.2c0,0-.2.2-.3.4-.2.2-.4.4-.6.6-.2.2-.5.3-1,.4-.4,0-.9.2-1.3.2-1.1,0-2-.3-2.6-.9-.7-.6-1-1.4-1-2.4s.4-1.8,1.1-2.5c.7-.6,1.8-.9,3.1-.9s1.1,0,1.5.2c.5,0,.8.2,1,.3l.3.2v-.8c0-1.4-.8-2.1-2.4-2.1s-1.4,0-2.1.4c-.7.2-1.1.5-1.4.7l-.4.4h-.3v-2.6c0,0,.3-.2.6-.4.2-.2.8-.4,1.6-.6.7-.3,1.5-.5,2.4-.5ZM115.8,57.6c.6,0,1.1-.2,1.5-.5s.7-.7.8-1l.2-.5c-.6-.4-1.3-.6-2.2-.6s-1,0-1.3.4c-.3.2-.5.6-.5,1s0,.7.4,1c.3,0,.6.2,1.1.2Z"/>
    <path class="st4" d="M134.2,48.7l-6.2,15.6h-3.1l1.9-4.7-4.8-10.9h3.2l3,7h.1l2.7-7h3.2Z"/>
    <path class="st4" d="M143.7,56.6c0,1-.4,1.9-1.2,2.5s-2,.9-3.6.9-1.6,0-2.3-.3-1.2-.5-1.5-.7l-.5-.3.6-2.4c.1,0,.2.2.4.3s.6.3,1.2.5,1.2.3,1.9.3c1.2,0,1.8-.3,1.8-.9s-.1-.5-.4-.6c-.3-.2-.6-.3-1.1-.4-.4,0-.9-.2-1.4-.4s-1-.4-1.4-.6c-.4-.2-.8-.6-1.1-1-.3-.5-.4-1-.4-1.7s.4-1.7,1.1-2.4c.8-.6,1.8-1,3.1-1s1,0,1.5.2c.5,0,.9.2,1.2.4s.6.3.9.5c.3.2.4.3.5.4l.2.2-1.1,2.1c-.1,0-.2-.2-.3-.3s-.4-.3-.9-.5-1-.3-1.6-.3-.9,0-1.1.3c-.3.2-.4.4-.4.7s.2.5.6.6c.4.2.9.3,1.5.4.6,0,1.1.3,1.7.5.6.2,1,.6,1.5,1.1.4.5.6,1.1.6,1.9Z"/>
    <path class="st4" d="M150.3,48.4c1.6,0,2.9.4,3.7,1.2s1.3,1.8,1.3,3.2v6.9h-2.9v-1.6h-.2q0,0-.1.2c0,0-.2.2-.3.4-.2.2-.4.4-.6.6-.2.2-.5.3-1,.4-.4,0-.9.2-1.3.2-1.1,0-2-.3-2.6-.9-.7-.6-1-1.4-1-2.4s.4-1.8,1.1-2.5c.7-.6,1.8-.9,3.1-.9s1.1,0,1.5.2c.5,0,.8.2,1,.3l.3.2v-.8c0-1.4-.8-2.1-2.4-2.1s-1.4,0-2.1.4c-.7.2-1.1.5-1.4.7l-.4.4h-.3v-2.6c.1,0,.3-.2.6-.4.2-.2.8-.4,1.6-.6.7-.3,1.5-.5,2.4-.5ZM149.7,57.6c.6,0,1.1-.2,1.5-.5s.7-.7.8-1l.2-.5c-.6-.4-1.3-.6-2.2-.6s-1,0-1.3.4c-.3.2-.5.6-.5,1s.1.7.4,1c.4,0,.7.2,1.1.2Z"/>
    <path class="st4" d="M168.4,59.7h-3v-6.5c0-.7-.2-1.2-.6-1.5-.4-.4-.9-.5-1.5-.5s-1.4.2-1.9.7-.8,1.1-.8,2v5.9h-3v-11h2.9v1.6h.2c0,0,.1,0,.1-.2s.2-.2.4-.4.4-.4.7-.6c.2-.2.6-.3,1-.4.4,0,.8-.2,1.3-.2,1.3,0,2.3.4,3.1,1.2s1.1,1.9,1.1,3.3v6.6h0Z"/>
    <path class="st4" d="M179,56.6c0,1-.4,1.9-1.2,2.5s-2,.9-3.6.9-1.6,0-2.3-.3-1.2-.5-1.5-.7l-.5-.3.6-2.4c.1,0,.2.2.4.3s.6.3,1.2.5,1.2.3,1.9.3c1.2,0,1.8-.3,1.8-.9s-.1-.5-.4-.6c-.3-.2-.6-.3-1.1-.4-.4,0-.9-.2-1.4-.4s-1-.4-1.4-.6c-.4-.2-.8-.6-1.1-1-.3-.5-.4-1-.4-1.7s.4-1.7,1.1-2.4c.8-.6,1.8-1,3.1-1s1,0,1.5.2c.5,0,.9.2,1.2.4s.6.3.9.5c.3.2.4.3.5.4l.2.2-1.1,2.1c-.1,0-.2-.2-.3-.3s-.4-.3-.9-.5-1-.3-1.6-.3-.9,0-1.1.3c-.3.2-.4.4-.4.7s.2.5.6.6c.4.2.9.3,1.5.4.6,0,1.1.3,1.7.5.6.2,1,.6,1.5,1.1.4.5.6,1.1.6,1.9Z"/>
  </g>
  <g>
    <path class="st2" d="M53,5.3c-9.1,0-13.5,7.6-15.3,11.9,6.3,1.7,13.1,4,20.1,6.8,3.8,1.5,7.3,3.1,10.6,4.7.6.3,1.2.6,1.9.9.5-1.5,1.1-3.4,1.3-4.7.4-3.6-.1-7.6-2.3-11.1-2.4-3.8-5.9-5.6-7.1-6.2-.3-.2-1.3-.6-2.6-1.1-2.5-.8-4.7-1.2-6.6-1.2"/>
    <path class="st1" d="M34.2,32.6c-3.5,0-6.4,2.9-6.4,6.4s2.9,6.4,6.4,6.4,2.6-.4,3.6-1.1c-1-.2-1.7-1.3-1.4-2.3l2.5-7.2c-1.2-1.3-2.9-2.1-4.7-2.1"/>
    <path class="st2" d="M45.2,32.9s0,0,0,.1l-3.5,11.3,2.2.2c.6-.3,1-.9,1-1.5,0-2,.6-4.7,3.7-4.7s.3,0,.5,0c4,.4,4.4,3.3,3.5,5.4-.2.5-.5.9-.8,1.2-.9.8-.7,2.2.4,2.8.3.2.6.2.9.2.5,0,.9-.2,1.2-.5,1.8-1.8,5.6-5.7,8.3-9.2-6.2-1.7-12.5-3.7-17.3-5.2M40.1,31.2l-1.2,3.6c1,1.1,1.6,2.6,1.6,4.3s-1.1,4.1-2.7,5.2c0,0,.1,0,.2,0h1.2c0,0,3.7-11.9,3.7-11.9,0,0,0-.1,0-.2-1.1-.4-2.1-.7-2.9-1"/>
    <path class="st3" d="M38.9,34.7l-2.5,7.2c-.4,1,.3,2.1,1.4,2.3,1.7-1.2,2.7-3.1,2.7-5.2s-.6-3.1-1.6-4.3"/>
    <path class="st6" d="M31.3,39.2c.4.1.9.2,1.3.2,1.5,0,2.6-.7,3-1,.5-.4.7-1.1.3-1.7-.4-.5-1.1-.7-1.7-.3-.1,0-1.1.8-2.2.4-.9-.2-1.6-1-1.9-2-.2-.6-.8-1-1.5-.9-.6.2-1,.8-.9,1.5.5,1.8,1.8,3.2,3.6,3.7h0Z"/>
    <path class="st6" d="M50,50.2c-.7,0-1.3.4-1.4,1l-1.3,9c0,.7.4,1.3,1,1.4,0,0,.1,0,.2,0,.6,0,1.1-.4,1.2-1l1.3-9c0-.7-.4-1.3-1-1.4Z"/>
    <path class="st6" d="M42.4,51.6c-7.1,3.6-14.7,3.8-17.9.3-2-2.1-2.6-5.7-1.9-11.3v-1.2c.1,0-3.2-.3-3.2-.3-.4,0-.9-.2-1.1-.3,0,0,0,0,0-.1,0-.2.5-.6,1.6-1.3l.3-.2c.4-.3,2.2-1.5,2.9-2h0s0,0,0,0c.3-.2.5-.6.5-1,.5-2.5.7-3.2,1.3-4.8.2-.6-.1-1.3-.7-1.5-.6-.2-1.3.1-1.5.7-.5,1.5-.8,2.4-1.3,4.9-.9.6-2.2,1.5-2.5,1.7l-.3.2c-1.5,1-2.3,1.5-2.5,2.7-.2.7-.1,1.3.2,1.9.5,1,1.6,1.2,2.8,1.5h1.1c-.4,4-.3,9,2.7,12.1,2,2.1,5.2,3.2,9,3.2s7.8-1,11.8-3.1c.6-.3.8-1,.5-1.6-.3-.6-1-.8-1.6-.5h0Z"/>
    <path class="st6" d="M59.8,27.9c-2.8-.8-5.5-1.6-8.2-2.5-7-2.3-13.8-5.1-20.4-8.4.8-2.4,3.6-9.2,9.6-12.5,4.2-2.3,9.2-2.5,15-.6.6.2,1.3-.1,1.5-.8.2-.6-.1-1.3-.8-1.5-6.4-2.1-12.1-1.8-16.9.8-4.9,2.7-7.8,7.2-9.4,10.6-7.9-1.7-13.5-1.9-17-.6-2.3.8-2.8,2.1-2.8,3.1,0,5.3,18.5,12.8,24.2,15,.1,0,.3,0,.4,0,.5,0,.9-.3,1.1-.8.2-.6,0-1.3-.7-1.5-10.9-4.2-22.7-10.3-22.6-12.7,0-.2.4-.5,1.2-.8,3-1.1,8.1-.9,15.2.6-.4,1.2-.6,1.9-.7,2l-.2.9.9.4c7,3.5,14.3,6.5,21.6,9,2.7.9,5.6,1.8,8.4,2.6.1,0,.2,0,.3,0,.5,0,1-.3,1.2-.9.2-.6-.2-1.3-.8-1.5h0"/>
    <path class="st6" d="M45.4,44.6l-3.6-.3,3.5-11.3c.2-.6-.2-1.3-.8-1.5-.6-.2-1.3.2-1.5.8l-4.4,14.1,6.6.5h0c.6,0,1.1-.5,1.2-1.1,0-.7-.4-1.2-1.1-1.3h0"/>
    <path class="st6" d="M50.7,39.3c-1.7,0-3.3,1.1-3.8,2.7-.2.6,0,1.3.7,1.5.6.2,1.3,0,1.5-.7.2-.7.9-1.1,1.6-1.1s1.7.8,1.7,1.7-.8,1.7-1.7,1.7-1.2.5-1.2,1.2.5,1.2,1.2,1.2c2.3,0,4.1-1.8,4.1-4.1s-1.8-4.1-4.1-4.1h0Z"/>
    <path class="st1" d="M31.6,15.7c-.2.5-.4.9-.5,1.3,2.1,1,4.1,2,6.3,2.9-.2-.5-.3-1,0-1.5.1-.4.3-.7.5-1.2-1.4-.4-2.8-.7-4.1-1-.7-.2-1.4-.3-2-.4M23.1,14.8c-2.1,0-3.9.2-5.3.8-2.4.9-2.2,2.4-.5,4,4.4,2.7,11.5,6.1,18.2,8.6.6.2.9.9.7,1.5,1.1.4,1.7.7,1.7.7,0,0,.8.3,2.3.8l.5-1.4h0c.3-.7.9-1.2,1.7-1.2.2,0,.5,0,.7.1,7.1,3.1,15.2,4.9,19.2,5.7,1.3.2,1.8,1.7,1.1,2.7-.2.3-.5.6-.7,1,6.9,1.9,13.5,3.3,17.3,3.3s3.7-.6,3.4-2c-1-3.9-7.3-7.2-12.9-9.9-.1.4-.3.8-.4,1.1-.3.7-1,1.2-1.7,1.2s-.3,0-.4,0c-2.4-.6-4.9-1.3-7.4-2.1-.2.3-.6.5-1,.5s-.2,0-.3,0c-2.8-.8-5.6-1.6-8.4-2.6-7.4-2.5-14.7-5.5-21.6-9l-.9-.4.2-.9c0-.1.2-.9.7-2-2.2-.3-4.2-.5-6.1-.5"/>
    <path class="st3" d="M37.7,17.2c-.2.4-.3.8-.5,1.2-.2.5-.1,1.1,0,1.5,4.6,2,9.4,3.9,14.2,5.5,2.7.9,5.5,1.8,8.2,2.5h0c.6.2,1,.8.8,1.5,0,.1-.1.3-.2.4,2.6.8,5,1.5,7.4,2.1.1,0,.3,0,.4,0,.7,0,1.4-.5,1.7-1.2.1-.3.3-.7.4-1.1-.6-.3-1.3-.6-1.9-.9-3.3-1.6-6.9-3.2-10.6-4.7-7.1-2.8-13.9-5.1-20.1-6.8"/>
    <path class="st3" d="M42.3,28.6c-.7,0-1.4.5-1.7,1.2h0s-.5,1.4-.5,1.4c.8.3,1.8.6,2.9,1,.2-.4.6-.7,1.1-.7s.2,0,.4,0c.6.2.9.8.8,1.4,4.7,1.5,11.1,3.5,17.3,5.2.3-.3.5-.7.7-1,.7-1,.2-2.5-1.1-2.7-4-.8-12.1-2.6-19.2-5.7-.2,0-.5-.1-.7-.1"/>
    <path class="st5" d="M17.2,19.6c3.8,3.7,14.7,8.4,18.9,10.2.2-.6,0-1.3-.7-1.5-6.8-2.6-13.8-5.9-18.2-8.6M29.2,15.3c-.4,1.2-.6,1.9-.7,2l-.2.9.9.4c7,3.5,14.3,6.5,21.6,9,2.7.9,5.6,1.8,8.4,2.6.1,0,.2,0,.3,0,.4,0,.7-.2,1-.5,0-.1.2-.2.2-.4.2-.6-.2-1.3-.8-1.5h0c-2.8-.8-5.5-1.6-8.2-2.5-4.8-1.6-9.5-3.4-14.2-5.5-2.1-.9-4.2-1.9-6.3-2.9.1-.3.3-.8.5-1.3-.8-.2-1.6-.3-2.4-.4"/>
    <path class="st5" d="M44.1,31.5c-.5,0-.9.3-1.1.7.7.2,1.5.5,2.3.7.1-.6-.2-1.2-.8-1.4-.1,0-.2,0-.4,0"/>
    <path class="st0" d="M31.1,48.3c-.2-.6-.8-1-1.5-.9-.1,0-5.8,1.4-12.3,2.9,0-.9-.2-2.1-1.1-3.1-.8-.9-2.3-1.7-2.9-1.3-.6.4-.1,1.8,0,2.1.4,1.2,1.3,2.1,2.1,2.6-.9.2-1.7.4-2.6.5,0-.9-.2-2.1-1.1-3.1-.8-.9-2.3-1.7-2.9-1.3-.6.4-.1,1.8,0,2.1.4,1.2,1.3,2.1,2.1,2.6-.9.2-1.7.3-2.5.5,0-.9-.1-2.1-1-3.1-.8-.8-2.1-1.6-2.6-1.2-.5.4-.1,1.7,0,1.9.4,1.2,1.4,2,2.2,2.5-.8.1-1.6.3-2.4.4,0-.7-.3-1.6-.9-2.3-.7-.8-1.9-1.4-2.4-1.1-.5.4-.1,1.6,0,1.8.2.7.7,1.3,1.2,1.8-.3,0-.7.2-1,.3-.2.1-1.4.7-1.3,1.3,0,.6,1.5,1.1,2.6,1,.2,0,.5,0,.7-.1-.3.7-.5,1.5-.4,2.3,0,.3.3,1.5.8,1.6.6.1,1.4-1,1.7-2.1.2-.9,0-1.7-.1-2.3.6,0,1.2-.2,1.9-.3-.3.7-.5,1.5-.4,2.5,0,.3.3,1.6.9,1.7.7.1,1.5-1.1,1.8-2.2.2-.9.1-1.7-.1-2.4.7-.1,1.3-.2,2-.4-.4.8-.7,1.9-.5,3,0,.3.3,1.8,1,1.9.7.1,1.7-1.2,2-2.4.3-1.1,0-2.1-.2-2.9.8-.2,1.5-.3,2.3-.5-.4.8-.8,1.9-.6,3.1,0,.3.3,1.8,1,1.9.7.1,1.7-1.2,2-2.4.3-1.2,0-2.2-.3-3,6.3-1.4,11.8-2.8,12.3-2.9.6-.2,1-.8.9-1.5h0Z"/>
  </g>
</svg>