<svg xmlns="http://www.w3.org/2000/svg" width="90" height="140" viewBox="0 0 90 140" preserveAspectRatio="xMidYMid meet"><title>logotype_fifam_dark</title><polygon points="39.244 123.282 39.244 111.57 42.002 111.57 42.002 109.504 34.43 109.504 34.43 111.57 37.178 111.57 37.178 123.282 39.244 123.282"/><rect x="43.4406" y="109.5042" width="2.0653" height="13.7777"/><path d="M59.3217,121.3219a6.949,6.949,0,1,0-4.9282,2.0555A6.7194,6.7194,0,0,0,59.3217,121.3219Zm-9.8479-4.93a4.9376,4.9376,0,1,1,1.4461,3.4735A4.7321,4.7321,0,0,1,49.4738,116.3924Z"/><polygon points="65.346 115.192 69.478 123.282 70.958 123.282 70.958 109.504 68.893 109.504 68.893 117.575 64.761 109.504 63.281 109.504 63.281 123.282 65.346 123.282 65.346 115.192"/><path d="M79.405,123.282h2.1425l-3.91-13.7778h-1.48l-3.91,13.7778H74.39l.51-1.8071h3.9973Zm-3.92-3.8724,1.4223-4.9478L78.3,119.41Z"/><polygon points="88.778 121.217 84.839 121.217 84.839 109.504 82.773 109.504 82.773 123.282 88.778 123.282 88.778 121.217"/><path d="M7.1839,133.1048a3.9484,3.9484,0,0,0-1.23-2.92,4.0653,4.0653,0,0,0-2.959-1.21H.5737v8.2628H2.995a4.065,4.065,0,0,0,2.959-1.21A3.9491,3.9491,0,0,0,7.1839,133.1048ZM2.995,136.3523H1.4667v-6.495H2.995a3.1962,3.1962,0,0,1,2.344.9561,3.208,3.208,0,0,1-.0049,4.5842A3.2009,3.2009,0,0,1,2.995,136.3523Z"/><rect y="126.2166" width="14.1493" height="0.7876"/><path d="M8.6729,128.9741v6.0626a2.2894,2.2894,0,0,0,2.2675,2.2577,2.2821,2.2821,0,0,0,2.2774-2.2577v-6.0626h-.8846v6.0626a1.3092,1.3092,0,0,1-.4128.97,1.3584,1.3584,0,0,1-.9849.403,1.377,1.377,0,0,1-1.3787-1.3732v-6.0626Z"/><rect y="139.2067" width="14.1493" height="0.7876"/><polygon points="17.322 139.994 19.388 139.994 19.388 135.172 22.539 135.172 22.539 133.105 19.388 133.105 19.388 128.282 23.327 128.282 23.327 126.217 17.322 126.217 17.322 139.994"/><rect x="25.1906" y="126.2166" width="2.066" height="13.7777"/><polygon points="31.753 126.217 29.687 126.217 29.687 139.994 35.692 139.994 35.692 137.929 31.753 137.929 31.753 126.217"/><polygon points="42.082 133.537 38.642 126.217 37.162 126.217 37.162 139.994 39.228 139.994 39.228 132.317 41.37 136.842 42.812 136.842 44.935 132.337 44.935 139.994 47.002 139.994 47.002 126.217 45.522 126.217 42.082 133.537"/><path d="M50.75,130.3334v7.4218h2.2773a3.6455,3.6455,0,0,0,2.6593-1.0924,3.6471,3.6471,0,0,0,0-5.2356,3.6468,3.6468,0,0,0-2.6593-1.0938Zm4.6529,3.7109a2.2031,2.2031,0,0,1-.6963,1.6441,2.3218,2.3218,0,0,1-1.6793.6768h-.886v-4.64h.886a2.3222,2.3222,0,0,1,1.6793.6768A2.2023,2.2023,0,0,1,55.4032,134.0443Z"/><path d="M58.5679,133.1878l.0506-.0716c.0351-.0519.0786-.1109.1333-.1783s.1138-.1488.1812-.2457.132-.1965.1979-.2976.1292-.2064.1966-.3173.125-.2149.1755-.316a2.2947,2.2947,0,0,0,.1193-.2976.8565.8565,0,0,0-.233-.907.9134.9134,0,0,0-.6628-.2738.8918.8918,0,0,0-.657.2738.905.905,0,0,0-.2724.6571.937.937,0,0,0,.1517.5237.8693.8693,0,0,0,.4057.337l-.4339,1.1133Z"/><path d="M61.2426,137.7552l.226-.7947h1.8772l.2387.7947h1.45l-2.1355-7.4218h-.9842l-2.1158,7.4218Zm1.1654-4.0633.5433,1.8772H61.8646Z"/><polygon points="71.169 137.755 71.169 130.333 70.186 130.333 68.478 133.925 66.796 130.333 65.811 130.333 65.811 137.755 67.203 137.755 67.203 134.481 67.999 136.15 68.969 136.15 69.778 134.443 69.778 137.755 71.169 137.755"/><rect x="72.378" y="130.3334" width="1.3914" height="7.4217"/><polygon points="78.273 131.725 78.273 130.333 74.973 130.333 74.973 137.755 78.273 137.755 78.273 136.365 76.364 136.365 76.364 135.291 77.852 135.291 77.852 133.9 76.364 133.9 76.364 131.725 78.273 131.725"/><polygon points="80.667 134.203 82.486 137.755 83.463 137.755 83.463 130.333 82.071 130.333 82.071 133.886 80.26 130.333 79.276 130.333 79.276 137.755 80.667 137.755 80.667 134.203"/><path d="M86.5615,136.4157a.8089.8089,0,0,1-.608-.2653.8988.8988,0,0,1-.2527-.6459h-1.39a2.2378,2.2378,0,0,0,.6627,1.63,2.2157,2.2157,0,0,0,3.17.01,2.2656,2.2656,0,0,0,.365-2.7083,2.2529,2.2529,0,0,0-.782-.8144l-1.456-.9a.5564.5564,0,0,1-.2653-.4914.5348.5348,0,0,1,.1642-.3917.541.541,0,0,1,.3918-.1657.5612.5612,0,0,1,.3987.1657.526.526,0,0,1,.1713.3917h1.3914a1.8679,1.8679,0,0,0-.5771-1.3788,1.8986,1.8986,0,0,0-1.3843-.5686,1.861,1.861,0,0,0-1.3774.5757A1.9926,1.9926,0,0,0,84.87,133.23a1.9983,1.9983,0,0,0,.6823.7076l1.4364.893a.8087.8087,0,0,1,.4212.7245.8557.8557,0,0,1-.848.8606Z"/><rect x="49.928" y="138.8093" width="39.2599" height="1.1907"/><rect x="0.6151" y="92.2941" width="2.0657" height="13.7781"/><polygon points="7.177 97.982 11.309 106.072 12.789 106.072 12.789 92.294 10.723 92.294 10.723 100.365 6.591 92.294 5.112 92.294 5.112 106.072 7.177 106.072 7.177 97.982"/><polygon points="19.053 106.072 19.053 94.36 21.81 94.36 21.81 92.294 14.239 92.294 14.239 94.36 16.987 94.36 16.987 106.072 19.053 106.072"/><polygon points="23.261 106.072 29.266 106.072 29.266 104.007 25.327 104.007 25.327 101.249 28.479 101.249 28.479 99.183 25.327 99.183 25.327 94.36 29.266 94.36 29.266 92.294 23.261 92.294 23.261 106.072"/><path d="M38.8792,98.7942a4.3253,4.3253,0,0,0-.7494-5.2078,4.2826,4.2826,0,0,0-3.1275-1.2923H31.1687v13.7781h2.0657V101.057h1.7679a3.4149,3.4149,0,0,0,.4322-.0193l1.989,5.0345h2.21l-2.2291-5.707A4.5671,4.5671,0,0,0,38.8792,98.7942Zm-2.2147-.4852a2.3029,2.3029,0,0,1-1.6622.6822H33.2344V94.36h1.7679a2.29,2.29,0,0,1,1.6766.6823,2.2321,2.2321,0,0,1,.6869,1.6429A2.1892,2.1892,0,0,1,36.6645,98.309Z"/><polygon points="48.876 92.294 46.811 92.294 46.811 100.365 42.679 92.294 41.199 92.294 41.199 106.072 43.265 106.072 43.265 97.982 47.397 106.072 48.876 106.072 48.876 92.294"/><path d="M52.9789,104.2659h3.9968l.5095,1.8063h2.1425L55.7171,92.2941h-1.48L50.327,106.0722H52.47Zm2.0079-7.014L56.38,102.2H53.5652Z"/><rect x="60.1696" y="98.4338" width="3.555" height="1.4795"/><path d="M16.7334,29.2433c4.6894.5834,9.3787,1.1742,14.1653,1.7726a.1541.1541,0,0,1,.1272.2094C27.937,39.2428,24.5116,47.0734,21.34,54.9938a.16.16,0,0,0,.0375.172c.4412.4188.86.8152,1.3013,1.2266a.163.163,0,0,0,.2244-.0075Q28.58,50.3156,34.2643,44.2538a.1582.1582,0,0,1,.2318,0c.06.0748.1122.1347.1646.202,1.78,2.296,3.5675,4.5847,5.3326,6.8807a.4379.4379,0,0,0,.6058.1646q4.4649-1.84,8.9449-3.65c.6433-.2618,1.279-.5161,1.93-.7779a.1606.1606,0,0,1,.1945.06c2.52,4.27,5.0185,8.4962,7.524,12.7293a.1461.1461,0,0,0,.172.0673c1.1891-.3141,2.3484-.6207,3.5376-.9423a.1466.1466,0,0,0,.1122-.172q-.9873-7.0341-1.96-14.0008a.1566.1566,0,0,1,.2768-.12q3.0625,3.3543,6.1254,6.6863c.1346.1421.2991.3441.4637.3515.688.03,1.3836.0224,2.0941.015a.15.15,0,0,0,.142-.202Q64.7715,35.6042,59.3342,19.543a.15.15,0,0,1,.15-.2019c3.8292.1869,7.5837.3739,11.3382.5534a.1526.1526,0,0,0,.09-.2842c-2.6775-1.6679-5.3551-3.3432-8.055-5.0259a.1518.1518,0,0,1-.0524-.202c.0449-.0822.0823-.1645.1272-.2393C65.3548,9.94,67.7631,5.7366,70.2162,1.5483A1.8252,1.8252,0,0,0,70.5079.12.1555.1555,0,0,0,70.2237.075a.69.69,0,0,1-.06.0972Q66.686,4.57,63.2158,8.9676c-.9947,1.2639-1.9894,2.52-3.0066,3.8068a.16.16,0,0,1-.2019.0374c-.9424-.5908-1.8773-1.1592-2.79-1.75a.4635.4635,0,0,0-.6357.0225c-2.6776,1.9669-5.3625,3.919-8.04,5.8934a1.114,1.114,0,0,0-.3665.5535c-1.0471,4.1958-2.0717,8.399-3.1038,12.6023-.1347.5534-.2767,1.1069-.4264,1.6977a.158.158,0,0,1-.2542.0823,1.9475,1.9475,0,0,1-.2169-.2094q-4.4427-5.228-8.8852-10.4633a.6205.6205,0,0,0-.7329-.172Q26.7254,24.5352,18.88,27.9719c-.7329.3216-1.4584.6507-2.1913.9723A.1577.1577,0,0,0,16.7334,29.2433Z"/><polygon points="46.092 80.01 46.092 77.951 41.207 77.951 41.207 88.937 43.266 88.937 43.266 85.288 45.469 85.288 45.469 83.228 43.266 83.228 43.266 80.01 46.092 80.01"/><polygon points="52.128 80.01 52.128 77.951 47.243 77.951 47.243 88.937 52.128 88.937 52.128 86.878 49.302 86.878 49.302 85.288 51.505 85.288 51.505 83.228 49.302 83.228 49.302 80.01 52.128 80.01"/><path d="M55.9731,86.9544a1.1962,1.1962,0,0,1-.9-.393,1.3368,1.3368,0,0,1-.3736-.9576H52.64a3.3155,3.3155,0,0,0,.9818,2.4088,3.2729,3.2729,0,0,0,4.6931.0193,3.3568,3.3568,0,0,0,.5411-4.0086,3.343,3.343,0,0,0-1.1588-1.2068L55.542,81.4852a.8232.8232,0,0,1-.3926-.728.8345.8345,0,0,1,.8237-.8233.8239.8239,0,0,1,.5893.2443.7774.7774,0,0,1,.2538.579h2.0592a2.7629,2.7629,0,0,0-.8524-2.04,2.8113,2.8113,0,0,0-2.05-.843,2.7616,2.7616,0,0,0-2.04.8524,2.95,2.95,0,0,0-.4645,3.51,2.941,2.941,0,0,0,1.01,1.0487l2.1266,1.3124a1.26,1.26,0,0,1,.2489,1.9825A1.2047,1.2047,0,0,1,55.9731,86.9544Z"/><polygon points="61.26 88.937 63.329 88.937 63.329 80.01 65.321 80.01 65.321 77.951 59.287 77.951 59.287 80.01 61.26 80.01 61.26 88.937"/><rect x="66.2874" y="77.9514" width="2.0589" height="10.9855"/><polygon points="72.202 88.937 73.639 88.937 76.8 77.951 74.654 77.951 72.911 83.976 71.187 77.951 69.051 77.951 72.202 88.937"/><path d="M77.5009,88.9368l.3354-1.178h2.7775l.3544,1.178h2.1455l-3.161-10.9854H78.497L75.3652,88.9368Zm1.7242-6.0242L80.03,85.7H78.42Z"/><polygon points="88.834 86.878 86.008 86.878 86.008 77.951 83.95 77.951 83.95 88.937 88.834 88.937 88.834 86.878"/></svg>