<?xml version="1.0" encoding="utf-8"?>
<!-- Generator: Adobe Illustrator 25.2.2, SVG Export Plug-In . SVG Version: 6.00 Build 0)  -->
<svg version="1.1" id="Calque_1" xmlns="http://www.w3.org/2000/svg" xmlns:xlink="http://www.w3.org/1999/xlink" x="0px" y="0px"
	 viewBox="0 0 188.7 190" style="enable-background:new 0 0 188.7 190;" xml:space="preserve">
<style type="text/css">
	.st0{fill:#FFFFFF;}
</style>
<path class="st0" d="M130.8,54.4c-1.2-0.5-2.6-0.8-3.9-0.7h-3.8v7.1h3.8c1.3,0.1,2.7-0.2,3.9-0.8c1-0.6,1.5-1.7,1.3-2.9
	C132.2,56.1,131.7,55,130.8,54.4z"/>
<path class="st0" d="M154.4,53.7h-2.9v20.1h2.3c2.1,0.1,4.2-0.2,6.2-0.9c1.5-0.6,2.8-1.7,3.6-3.1c0.9-1.9,1.3-3.9,1.2-6
	c0-3.6-0.9-6.1-2.6-7.7C160.6,54.5,157.9,53.7,154.4,53.7z"/>
<polygon class="st0" points="93.9,67.8 101.8,67.8 97.9,57.4 "/>
<path class="st0" d="M17.4,53.7h-2.8v20.1h2.3c2.1,0.1,4.2-0.2,6.2-0.9c1.5-0.6,2.8-1.7,3.6-3.1c0.9-1.9,1.3-3.9,1.2-6
	c0-3.6-0.9-6.1-2.5-7.7C23.5,54.5,20.9,53.7,17.4,53.7z"/>
<path class="st0" d="M164.6,38.4c-2.5-3.7-12.4-14.4-14.4-16.7c2.9-3.2,2.8-8.1-0.1-11.2c0-0.3,0-0.6,0-0.8c0-5.8-4.6-9.7-10.3-9.7
	c-7.6,0-9.7,5.9-9.7,9.8c0,3.1,1.2,6.1,3.5,8.3c-5.9,4.6-8.4,9.5-9.3,19.3c-0.1,1.4-0.1,2.8-0.1,4.2H0v44.3h136.4
	c1.2,7.1,1.8,14.2,1.8,21.4c0.3,11.6-4.5,44-4.5,44l-50.2,0.9v-21.7h-3L73.8,149l-6.6-18.5h-3v23.2h2.1v-20.2l6.5,18.2h2l6.5-18.1
	v20.1h2.1l0,0l66.2-0.6c0,0,3.2-29.7,5.8-38.8s10.4-17.9,12.5-21c2.6-4.2,4.8-8.6,6.5-13.2c0.9-3,2.1-5.2,2.1-16.2
	S167.3,42.5,164.6,38.4z M30,75.7c-2.9,2.7-7,4-12.5,4H8.1v-32h9.5c5.3,0,9.5,1.4,12.4,4.2c2.9,2.8,4.4,6.8,4.4,12
	C34.3,69.1,32.9,73,30,75.7z M45.8,79.7h-6.5v-32h6.5L45.8,79.7z M79,79.7h-6.7L59.5,58.9v20.9h-6.5v-32h6.6l12.8,20.7V47.8h6.5
	L79,79.7z M106.3,79.7l-2.2-6H91.7l-2.2,6h-7.1l13.1-32h4.8l13,32H106.3z M134,79.7l-7.5-13h-3.3v13h-6.5v-32h10.8
	c3.8,0,6.6,0.8,8.4,2.4c1.8,1.8,2.8,4.3,2.7,6.9c0.1,2-0.4,3.9-1.5,5.6c-1,1.6-2.5,2.7-4.3,3.3l8.6,13.8L134,79.7z M167,75.7
	c-2.9,2.7-7,4-12.5,4h-9.4v-32h9.5c5.3,0,9.5,1.4,12.4,4.2c2.9,2.8,4.4,6.8,4.4,12C171.3,69.1,169.9,73,167,75.7L167,75.7z"/>
<polygon class="st0" points="1.8,119.6 3.8,119.6 3.8,108.9 14,108.9 14,106.7 3.8,106.7 3.8,98.6 15.5,98.6 15.5,96.4 1.8,96.4 "/>
<polygon class="st0" points="33.2,98.6 33.2,96.4 19.9,96.4 19.9,119.6 33.2,119.6 33.2,117.4 22,117.4 22,108.9 32,108.9 32,106.7 
	22,106.7 22,98.6 "/>
<path class="st0" d="M50,113.5c0-1-0.2-2-0.5-2.9c-0.4-0.9-1-1.6-1.8-2.2c-1.1-0.8-2.2-1.5-3.5-2c-1.3-0.5-2.5-1.2-3.5-2.1
	c-0.7-0.7-1-1.6-1-2.6c0-1,0.3-1.9,1-2.6c0.7-0.7,1.6-1.1,2.6-1.1c0.8,0,1.7,0.3,2.4,0.8c0.7,0.6,1.3,1.3,1.7,2.1l1.7-1.2
	c-0.5-1.1-1.3-2.1-2.4-2.8c-1-0.7-2.2-1-3.4-1c-1.5-0.1-3.1,0.5-4.2,1.6c-1.1,1.1-1.6,2.7-1.6,4.2c0,0.9,0.2,1.8,0.5,2.7
	c0.4,0.8,1,1.5,1.7,2c1,0.7,2.1,1.3,3.3,1.8c1,0.4,2,0.9,2.8,1.6c0.6,0.4,1.1,1,1.5,1.7c0.3,0.7,0.5,1.4,0.5,2.2
	c0,1.1-0.4,2.2-1.1,2.9c-0.9,0.8-2.1,1.2-3.2,1.1c-1.3,0-2.5-0.4-3.4-1.3c-0.9-1-1.5-2.2-1.7-3.6l-2,0.6c0.2,1.8,1,3.5,2.3,4.7
	c1.3,1.2,3,1.8,4.8,1.8c1.8,0.1,3.5-0.5,4.8-1.7C49.5,116.9,50.1,115.2,50,113.5z"/>
<polygon class="st0" points="61.5,119.6 61.5,98.6 68.4,98.6 68.4,96.4 52.4,96.4 52.4,98.6 59.4,98.6 59.4,119.6 "/>
<rect x="72.7" y="96.4" class="st0" width="2.1" height="23.2"/>
<polygon class="st0" points="88.8,119.6 96.8,96.4 94.5,96.4 88,115.9 81.4,96.4 79.1,96.4 87.1,119.6 "/>
<path class="st0" d="M109.8,113.4l1.9,6.2h2.3l-7.6-23.2h-1.7l-7.5,23.2h2.3l1.9-6.2H109.8z M105.6,99.7l3.6,11.6H102L105.6,99.7z"
	/>
<polygon class="st0" points="118.3,96.4 118.3,119.6 129.6,119.6 129.6,117.4 120.4,117.4 120.4,96.4 "/>
<polygon class="st0" points="21.9,153.6 23.9,153.6 23.9,142.9 34.1,142.9 34.1,140.7 23.9,140.7 23.9,132.6 35.5,132.6 35.5,130.4 
	21.9,130.4 "/>
<rect x="40" y="130.4" class="st0" width="2.1" height="23.2"/>
<polygon class="st0" points="48.7,130.4 48.7,153.6 60,153.6 60,151.4 50.8,151.4 50.8,130.4 "/>
<path class="st0" d="M7.2,153.6v-10.2H6.3v4c-0.2-0.3-0.5-0.6-0.9-0.8c-0.4-0.2-0.8-0.3-1.2-0.3c-0.8,0-1.5,0.4-2,1
	c-0.5,0.8-0.8,1.7-0.8,2.7c0,1,0.2,1.9,0.7,2.7c0.5,0.7,1.2,1,2.1,1c0.4,0,0.8-0.1,1.2-0.3c0.4-0.2,0.7-0.5,0.9-0.8v1L7.2,153.6z
	 M5.9,152.1c-0.3,0.5-0.9,0.8-1.5,0.8c-0.6,0-1.2-0.3-1.5-0.8c-0.4-0.6-0.6-1.3-0.5-2.1c0-0.7,0.2-1.5,0.5-2.1
	c0.3-0.5,0.9-0.8,1.5-0.8c0.6,0,1.2,0.3,1.5,0.8c0.4,0.6,0.6,1.3,0.5,2.1C6.4,150.7,6.3,151.5,5.9,152.1L5.9,152.1z"/>
<path class="st0" d="M9.3,146.4v4.4c0,0.8,0.1,1.5,0.5,2.2c0.3,0.5,0.9,0.8,1.6,0.8c0.4,0,0.8-0.1,1.2-0.3c0.4-0.2,0.7-0.5,0.9-0.9
	v1h0.9v-7.2h-0.9v3.3c0,0.8-0.1,1.6-0.4,2.3c-0.3,0.5-0.8,0.9-1.4,0.8c-0.5,0.1-0.9-0.2-1.1-0.6c-0.2-0.5-0.3-1.1-0.3-1.7v-4.2H9.3z
	"/>
<path class="st0" d="M11.3,175.8c0.9-0.4,1.6-1.1,2-2c0.5-1,0.7-2,0.7-3.1c0.1-1.6-0.5-3.1-1.6-4.3c-1.2-1-2.8-1.6-4.4-1.4H1.8v23.2
	h6.8c1.8,0.1,3.5-0.5,4.8-1.7c1.2-1.3,1.8-3.1,1.6-4.8c0.1-1.3-0.3-2.7-0.9-3.8C13.4,176.9,12.5,176.1,11.3,175.8z M3.8,167.2H8
	c1.1-0.1,2.1,0.3,2.9,1.1c0.7,0.8,1.1,1.9,1,2.9c0,1-0.3,2-0.9,2.8c-0.7,0.7-1.6,1.1-2.6,1.1H3.8L3.8,167.2z M11.8,184.8
	c-0.9,0.8-2.2,1.3-3.4,1.2H3.8v-8.8H9c1.1-0.1,2.2,0.4,2.9,1.1c0.7,0.9,1.1,2,1,3.2C13,182.7,12.6,183.9,11.8,184.8L11.8,184.8z"/>
<path class="st0" d="M31.6,175.4c0.7-1.2,1.1-2.6,1-4c0.1-1.7-0.4-3.5-1.6-4.8c-1.4-1.2-3.2-1.8-5-1.6h-5.8v23.2h2.1v-10.3h4.2
	l5.1,10.3H34l-5.5-10.6C29.8,177.3,30.9,176.5,31.6,175.4z M25.8,175.7h-3.5v-8.5h3.5c3.2,0,4.8,1.4,4.8,4.3S29,175.7,25.8,175.7z"
	/>
<rect x="38.6" y="165" class="st0" width="2.1" height="23.2"/>
<polygon class="st0" points="44.9,167.2 51.9,167.2 51.9,188.2 54,188.2 54,167.2 61,167.2 61,165 44.9,165 "/>
<path class="st0" d="M68.6,165l-7.5,23.2h2.3l1.9-6.2h8.4l1.9,6.2h2.3L70.3,165H68.6z M65.9,180l3.6-11.6l3.5,11.5L65.9,180z"/>
<polygon class="st0" points="94.4,184.1 84.4,165 82.2,165 82.2,188.2 84.3,188.2 84.3,169 94.2,188.2 96.4,188.2 96.4,165 
	94.4,165 "/>
<polygon class="st0" points="115.2,184.1 105.3,165 103,165 103,188.2 105.1,188.2 105.1,169 115,188.2 117.3,188.2 117.3,165 
	115.2,165 "/>
<rect x="123.9" y="165" class="st0" width="2.1" height="23.2"/>
<path class="st0" d="M149,181.5c0.4-1.6,0.7-3.2,0.6-4.9c0-2.2-0.3-4.3-1.2-6.3c-0.7-1.7-1.8-3.1-3.2-4.2c-2.9-2-6.8-2-9.7,0
	c-1.4,1.1-2.6,2.5-3.2,4.2c-1.5,4-1.5,8.5,0,12.5c0.7,1.7,1.8,3.1,3.2,4.2c3.1,2.1,7.2,2,10.2-0.4l3,3.3l1.3-1.4l-2.9-3.3
	C148,184.1,148.6,182.8,149,181.5z M145.7,183.6l-3.3-3.7l-1.4,1.4l3.3,3.7c-2.3,1.6-5.3,1.6-7.6,0.1c-1.1-0.9-2-2-2.5-3.4
	c-0.6-1.6-0.9-3.4-0.9-5.1c0-1.8,0.3-3.5,0.9-5.1c0.5-1.3,1.4-2.5,2.5-3.4c2.3-1.6,5.3-1.6,7.6,0c1.1,0.9,2,2,2.5,3.4
	c0.6,1.6,0.9,3.4,0.9,5.1c0,1.4-0.2,2.7-0.5,4C146.8,181.7,146.3,182.7,145.7,183.6L145.7,183.6z"/>
<path class="st0" d="M167.2,179.5c0.1,1.8-0.3,3.6-1.3,5.1c-2.1,2.2-5.6,2.2-7.8,0.1c0,0-0.1-0.1-0.1-0.1c-1-1.5-1.4-3.2-1.3-5V165
	h-2.1v14.8c0,2.8,0.6,5,1.9,6.5c3,3,7.8,3,10.8,0c0,0,0,0,0,0c1.2-1.5,1.8-3.7,1.9-6.6V165h-2L167.2,179.5z"/>
<polygon class="st0" points="188.7,167.2 188.7,165 175.5,165 175.5,188.2 188.7,188.2 188.7,186 177.5,186 177.5,177.5 
	187.6,177.5 187.6,175.3 177.5,175.3 177.5,167.2 "/>
</svg>
