<svg xmlns="http://www.w3.org/2000/svg" width="20" height="20" viewBox="0 0 20 20"><title>night-mode_final</title><path d="M10,4.11a.6848.6848,0,0,0,.6849-.6849V.6849a.6849.6849,0,1,0-1.37,0v2.74A.6848.6848,0,0,0,10,4.11Z"/><path d="M10,15.89a.6848.6848,0,0,0-.6849.6849v2.74a.6849.6849,0,0,0,1.37,0v-2.74A.6848.6848,0,0,0,10,15.89Z"/><path d="M19.3151,9.3151h-2.74a.6849.6849,0,0,0,0,1.37h2.74a.6849.6849,0,0,0,0-1.37Z"/><path d="M4.11,10a.6848.6848,0,0,0-.6849-.6849H.6849a.6849.6849,0,0,0,0,1.37h2.74A.6848.6848,0,0,0,4.11,10Z"/><path d="M14.81,5.875a.6825.6825,0,0,0,.4842-.2006L17.2314,3.737a.6849.6849,0,1,0-.9686-.9685L14.3257,4.7058A.6849.6849,0,0,0,14.81,5.875Z"/><path d="M4.7058,14.3257,2.7685,16.2628a.6849.6849,0,1,0,.9685.9686l1.9374-1.9371a.6849.6849,0,1,0-.9686-.9686Z"/><path d="M15.2943,14.3257a.6849.6849,0,1,0-.9686.9686l1.9371,1.9371a.6849.6849,0,0,0,.9686-.9686Z"/><path d="M4.7058,5.6744a.6849.6849,0,0,0,.9686-.9686L3.737,2.7685a.6848.6848,0,1,0-.9685.9685Z"/><circle cx="10" cy="10" r="4.3835"/></svg>