<svg xmlns="http://www.w3.org/2000/svg" viewBox="0 0 20 20"><defs/><path d="M10 4.11a.68.68 0 00.68-.68V.68a.68.68 0 10-1.37 0v2.74a.68.68 0 00.69.69zM10 15.89a.68.68 0 00-.68.68v2.74a.68.68 0 001.37 0v-2.74a.68.68 0 00-.69-.68zM19.32 9.32h-2.74a.68.68 0 000 1.37h2.74a.68.68 0 000-1.37zM4.11 10a.68.68 0 00-.68-.68H.68a.68.68 0 000 1.37h2.74a.68.68 0 00.69-.69zM14.81 5.88a.68.68 0 00.48-.2l1.94-1.94a.68.68 0 10-.97-.97L14.33 4.7a.68.68 0 00.48 1.17zM4.7 14.33l-1.93 1.93a.68.68 0 10.97.97l1.93-1.94a.68.68 0 10-.96-.96zM15.3 14.33a.68.68 0 10-.97.96l1.93 1.94a.68.68 0 00.97-.97zM4.7 5.67a.68.68 0 00.97-.96L3.74 2.77a.68.68 0 10-.97.97zM14.38 10a4.38 4.38 0 00-8.76 0zM5.62 10a4.38 4.38 0 008.76 0z"/></svg>