<?xml version="1.0" encoding="utf-8"?>
<!-- Generator: Adobe Illustrator 27.3.1, SVG Export Plug-In . SVG Version: 6.00 Build 0)  -->
<svg version="1.1" id="Calque_1" xmlns="http://www.w3.org/2000/svg" xmlns:xlink="http://www.w3.org/1999/xlink" x="0px" y="0px"
	 viewBox="0 0 554 130" style="enable-background:new 0 0 554 130;" xml:space="preserve">
<style type="text/css">
	.st0{fill:#555D66;}
</style>
<g>
	<g>
		<circle class="st0" cx="46" cy="92" r="6"/>
		<circle class="st0" cx="88.1" cy="92" r="6"/>
		<circle class="st0" cx="67.1" cy="92" r="6"/>
		<path class="st0" d="M140,57.7h213.5v4H140V57.7z"/>
		<path class="st0" d="M140,67.7h166.1v4H140V67.7z"/>
		<path class="st0" d="M140,46.7h166.1v4H140V46.7z"/>
	</g>
</g>
<g>
	<g>
		<path class="st0" d="M73.2,58H70v-8.3h3.2c2.1,0,3.7,1.7,3.7,3.7v0.8C76.9,56.3,75.3,58,73.2,58z M70.8,57.2h2.4
			c1.6,0,2.9-1.3,2.9-2.9v-0.8c0-1.6-1.3-2.9-2.9-2.9h-2.4V57.2z"/>
		<path class="st0" d="M78.7,49.9c-0.1-0.1-0.2-0.3-0.2-0.4c0-0.2,0.1-0.3,0.2-0.4c0.1-0.1,0.3-0.2,0.4-0.2s0.3,0.1,0.4,0.2
			c0.1,0.1,0.2,0.3,0.2,0.4c0,0.2-0.1,0.3-0.2,0.4c-0.1,0.1-0.3,0.2-0.4,0.2S78.8,50.1,78.7,49.9z M78.7,58.1v-6.6h0.8v6.6H78.7z"/>
		<path class="st0" d="M82.1,57.3c-0.6-0.7-0.9-1.5-0.9-2.5c0-1,0.3-1.8,0.9-2.5c0.6-0.7,1.4-1,2.3-1c0.6,0,1.2,0.2,1.6,0.5
			c0.4,0.3,0.7,0.6,0.9,1h0v-1.3h0.8v6.6h-0.8v-1.3h0c-0.2,0.4-0.5,0.7-0.9,1c-0.4,0.3-1,0.5-1.6,0.5C83.5,58.3,82.7,57.9,82.1,57.3
			z M82.7,52.9C82.2,53.4,82,54,82,54.8c0,0.8,0.2,1.4,0.7,1.9c0.5,0.5,1.1,0.8,1.7,0.8c0.7,0,1.2-0.3,1.7-0.8s0.7-1.2,0.7-1.9
			c0-0.8-0.2-1.4-0.7-1.9s-1.1-0.8-1.7-0.8C83.8,52.1,83.2,52.4,82.7,52.9z"/>
		<path class="st0" d="M90.3,57.3c-0.6-0.7-0.9-1.5-0.9-2.5c0-1,0.3-1.8,0.9-2.5c0.6-0.7,1.4-1,2.3-1c0.6,0,1.2,0.2,1.6,0.5
			c0.4,0.3,0.7,0.6,0.9,1h0v-1.3h0.8v9.2h-5.6v-0.7h4.8v-3.1h0c-0.2,0.4-0.5,0.7-0.9,1c-0.4,0.3-1,0.5-1.6,0.5
			C91.6,58.3,90.9,57.9,90.3,57.3z M90.9,52.9c-0.5,0.5-0.7,1.2-0.7,1.9c0,0.8,0.2,1.4,0.7,1.9c0.5,0.5,1.1,0.8,1.7,0.8
			c0.7,0,1.2-0.3,1.7-0.8c0.5-0.5,0.7-1.2,0.7-1.9c0-0.8-0.2-1.4-0.7-1.9c-0.5-0.5-1.1-0.8-1.7-0.8C91.9,52.1,91.3,52.4,90.9,52.9z"
			/>
		<path class="st0" d="M97.9,51L97.9,51c-0.2,0-0.4-0.2-0.4-0.4v-1.1c0-0.2,0.2-0.4,0.4-0.4h0c0.2,0,0.4,0.2,0.4,0.4v1.1
			C98.4,50.8,98.2,51,97.9,51z"/>
	</g>
	<g>
		<path class="st0" d="M57.7,50.7C57.7,50.7,57.6,50.7,57.7,50.7C57.6,50.7,57.6,50.7,57.7,50.7c-0.1-0.1-0.2-0.1-0.3-0.2
			c-1-0.6-2-1.2-3.1-1.5c-1.5-0.5-3-0.8-4.6-0.7c-1.7,0-3.3,0.4-4.8,1.2c-1.5,0.8-2.8,1.9-3.8,3.3c-1,1.4-1.6,3-1.8,4.7
			c-0.2,1.5-0.1,3.1,0.4,4.7c0.4,1.3,0.9,2.5,1.5,3.7c-0.7-1.2-1.3-2.4-1.8-3.5c-0.7-1.8-1-3.4-1-5c0-1.9,0.6-3.8,1.7-5.3
			c1.1-1.5,2.6-2.8,4.3-3.5c1.6-0.7,3.4-1,5.3-0.9c1.5,0.1,3.1,0.5,4.7,1.2C55.5,49.4,56.6,50,57.7,50.7z"/>
		<path class="st0" d="M57.3,50.5c-2.3-1.5-5.1-2.1-7.8-1.7c-3,0.4-5.8,2.1-7.6,4.5c-1.8,2.4-2.6,5.5-2.2,8.5
			c0.2,1.4,0.7,2.7,1.3,3.9c0,0,0,0,0,0c-0.7-1.3-1.1-2.7-1.1-4.2c0-1.4,0.3-2.8,0.9-4.3c0.1-0.2,0.1-0.3,0.2-0.5
			c0.5-1,1.1-2,1.8-2.9c0.8-1.1,1.8-2,2.8-2.7c0.4-0.3,0.8-0.5,1.2-0.8h0c0.8-0.4,1.6-0.8,2.5-1c1.5-0.4,3-0.5,4.4-0.3
			c1.3,0.2,2.6,0.7,3.7,1.5C57.5,50.6,57.4,50.6,57.3,50.5z"/>
		<g>
			<path class="st0" d="M51.3,71.8c-2.5,0-4.9-0.8-6.9-2.3c-1.2-0.9-2.2-2.1-3-3.3c-0.8-1.4-1.2-3.1-1-4.7l0-0.1
				c0.1-0.7,0.3-2.5,1.6-4.1c0.4-0.4,1-1,2.7-2.4c0.3-0.2,0.6-0.5,1.1-1c0.3-0.3,0.5-0.6,0.6-0.8c0-0.1,0.1-0.1,0.1-0.2
				c0.2-0.3,1.2-1.7,2.8-2.6c1.9-1.1,3.8-0.9,4.5-0.9c2,0.2,3.5,1,4.4,1.6l0,0c1.1,0.9,3.9,3.3,4.5,7.6c0.6,4.2-1.3,7.4-2.2,8.5
				c-1.8,2.4-4.6,4.1-7.6,4.5C52.3,71.8,51.8,71.8,51.3,71.8z M52.9,52.2c-0.6,0-1.4,0.1-2.2,0.5c-0.8,0.5-1.6,1.3-1.9,1.8
				c0,0.1-0.1,0.1-0.1,0.2c-0.2,0.3-0.4,0.6-0.8,1.1c-0.6,0.7-1.1,1.1-1.4,1.3c-1.3,1-2.2,1.8-2.4,2c-0.8,1-1,2.1-1,2.6l0,0.1
				c-0.1,1,0.1,2.1,0.6,2.9c0.6,1,1.4,1.9,2.3,2.5c1.8,1.4,4.2,2,6.5,1.7c2.3-0.3,4.4-1.6,5.8-3.4c0.7-0.9,2.1-3.3,1.7-6.5
				c-0.5-3.3-2.7-5.2-3.4-5.8c-0.6-0.4-1.6-1-2.9-1.1C53.4,52.2,53.2,52.2,52.9,52.2z"/>
		</g>
	</g>
	<g>
		<path class="st0" d="M70.2,61c-0.2-0.2-0.3-0.4-0.3-0.7c0-0.3,0.1-0.5,0.3-0.7c0.2-0.2,0.5-0.3,0.8-0.3c0.3,0,0.5,0.1,0.8,0.3
			c0.2,0.2,0.3,0.4,0.3,0.7c0,0.3-0.1,0.5-0.3,0.7c-0.2,0.2-0.5,0.3-0.8,0.3C70.6,61.3,70.4,61.2,70.2,61z M70,68.9v-6.8h1.9v6.8H70
			z"/>
		<path class="st0" d="M73.3,68.9v-6.8h1.9v0.9h0.1c0.1-0.2,0.3-0.4,0.5-0.6c0.4-0.4,0.9-0.6,1.5-0.6c0.7,0,1.3,0.2,1.8,0.6
			c0.2,0.2,0.4,0.4,0.5,0.6h0.1c0.1-0.2,0.3-0.4,0.5-0.6c0.5-0.4,1-0.6,1.7-0.6c0.8,0,1.4,0.2,1.9,0.7c0.5,0.5,0.7,1.2,0.7,2.1v4.1
			h-1.9V65c0-1-0.4-1.5-1.3-1.5c-0.4,0-0.8,0.2-1,0.5c-0.3,0.3-0.4,0.7-0.4,1.2v3.7h-1.9V65c0-1-0.4-1.5-1.3-1.5
			c-0.4,0-0.8,0.2-1,0.5c-0.3,0.3-0.4,0.7-0.4,1.2v3.7H73.3z"/>
		<path class="st0" d="M86.3,68.2c-0.6-0.7-0.9-1.5-0.9-2.6s0.3-1.9,0.9-2.6c0.6-0.7,1.3-1,2.2-1c0.6,0,1.1,0.2,1.6,0.5
			c0.2,0.2,0.4,0.3,0.5,0.5h0.1v-0.9h1.9v6.8h-1.9v-0.9h-0.1c-0.1,0.2-0.3,0.4-0.5,0.5c-0.5,0.4-1,0.5-1.6,0.5
			C87.6,69.1,86.9,68.8,86.3,68.2z M87.8,64.1c-0.3,0.4-0.5,0.8-0.5,1.5c0,0.6,0.2,1.1,0.5,1.5c0.3,0.4,0.7,0.5,1.2,0.5
			c0.5,0,0.9-0.2,1.2-0.5c0.3-0.3,0.5-0.8,0.5-1.5c0-0.6-0.2-1.1-0.5-1.5c-0.3-0.3-0.7-0.5-1.2-0.5C88.5,63.6,88.1,63.7,87.8,64.1z"
			/>
		<path class="st0" d="M94.6,68c-0.6-0.7-0.9-1.5-0.9-2.5c0-1,0.3-1.9,0.9-2.5c0.6-0.7,1.3-1,2.2-1c0.6,0,1.1,0.2,1.6,0.5
			c0.2,0.2,0.4,0.3,0.5,0.5H99v-0.9h1.9v9.3h-6.2v-1.6H99v-1.9H99c-0.2,0.2-0.3,0.4-0.5,0.5c-0.5,0.4-1,0.5-1.6,0.5
			C96,69,95.2,68.7,94.6,68z M96.1,64.1c-0.3,0.3-0.5,0.8-0.5,1.4c0,0.6,0.2,1.1,0.5,1.4c0.3,0.3,0.7,0.5,1.2,0.5
			c0.5,0,0.9-0.2,1.2-0.5c0.3-0.3,0.5-0.8,0.5-1.4c0-0.6-0.2-1.1-0.5-1.4c-0.3-0.3-0.7-0.5-1.2-0.5C96.9,63.6,96.4,63.7,96.1,64.1z"
			/>
		<path class="st0" d="M103,68.1c-0.7-0.7-1.1-1.5-1.1-2.5s0.4-1.8,1.1-2.5c0.7-0.7,1.6-1,2.6-1c1,0,1.9,0.3,2.6,1
			c0.7,0.7,1,1.5,1,2.6V66h-5.3c0.1,0.4,0.3,0.8,0.6,1.1c0.3,0.3,0.7,0.5,1.1,0.5c0.5,0,0.9-0.1,1.2-0.4c0.1-0.1,0.2-0.2,0.3-0.4h2
			c-0.2,0.5-0.4,0.9-0.7,1.2c-0.7,0.8-1.7,1.2-2.9,1.2C104.6,69.1,103.7,68.8,103,68.1z M103.9,64.8h3.3c-0.1-0.4-0.3-0.7-0.5-0.9
			c-0.3-0.2-0.6-0.4-1.1-0.4c-0.4,0-0.8,0.1-1.1,0.4C104.2,64.2,104,64.5,103.9,64.8z"/>
		<path class="st0" d="M110.3,68.9v-6.8h1.9v1h0.1c0.1-0.2,0.2-0.4,0.4-0.6c0.4-0.4,0.8-0.6,1.4-0.6h0.8v1.8h-1
			c-0.5,0-0.9,0.1-1.2,0.4c-0.3,0.3-0.4,0.6-0.4,1.1v3.6H110.3z"/>
		<path class="st0" d="M115.9,61c-0.2-0.2-0.3-0.4-0.3-0.7c0-0.3,0.1-0.5,0.3-0.7c0.2-0.2,0.5-0.3,0.8-0.3c0.3,0,0.5,0.1,0.8,0.3
			c0.2,0.2,0.3,0.4,0.3,0.7c0,0.3-0.1,0.5-0.3,0.7c-0.2,0.2-0.5,0.3-0.8,0.3C116.3,61.3,116.1,61.2,115.9,61z M115.7,68.9v-6.8h1.9
			v6.8H115.7z"/>
		<path class="st0" d="M119.7,68.1c-0.7-0.7-1.1-1.5-1.1-2.5s0.4-1.8,1.1-2.5c0.7-0.7,1.6-1,2.6-1c1,0,1.9,0.3,2.6,1
			c0.7,0.7,1,1.5,1,2.6V66h-5.3c0.1,0.4,0.3,0.8,0.6,1.1c0.3,0.3,0.7,0.5,1.1,0.5c0.5,0,0.9-0.1,1.2-0.4c0.1-0.1,0.2-0.2,0.3-0.4h2
			c-0.2,0.5-0.4,0.9-0.7,1.2c-0.7,0.8-1.7,1.2-2.9,1.2C121.2,69.1,120.4,68.8,119.7,68.1z M120.6,64.8h3.3c-0.1-0.4-0.3-0.7-0.5-0.9
			c-0.3-0.2-0.6-0.4-1.1-0.4c-0.4,0-0.8,0.1-1.1,0.4S120.7,64.5,120.6,64.8z"/>
	</g>
</g>
</svg>
