<?xml version="1.0" encoding="UTF-8"?>
<svg id="Calque_1" xmlns="http://www.w3.org/2000/svg" xmlns:xlink="http://www.w3.org/1999/xlink" version="1.1" viewBox="0 0 554 130">
  <!-- Generator: Adobe Illustrator 29.2.1, SVG Export Plug-In . SVG Version: 2.1.0 Build 116)  -->
  <defs>
    <style>
      .st0 {
        fill-rule: evenodd;
      }

      .st0, .st1 {
        fill: #555d66;
      }
    </style>
  </defs>
  <circle class="st1" cx="46.9" cy="95" r="6"/>
  <circle class="st1" cx="89.1" cy="95" r="6"/>
  <circle class="st1" cx="68" cy="95" r="6"/>
  <path class="st0" d="M37.7,30h60v4h-60v-4Z"/>
  <path class="st0" d="M141.6,30h60v4h-60v-4Z"/>
  <path class="st0" d="M249.5,30h60v4h-60v-4Z"/>
  <path class="st0" d="M351.7,30h60v4h-60v-4Z"/>
  <path class="st0" d="M142,87.5h36v4h-36v-4Z"/>
  <path class="st0" d="M142,97.5h28v4h-28v-4Z"/>
  <path class="st0" d="M142,76.5h28v4h-28v-4Z"/>
  <path class="st0" d="M249.8,76.5h28v4h-28v-4Z"/>
  <path class="st0" d="M353.8,76.5h28v4h-28v-4Z"/>
  <path class="st0" d="M249.8,87.5h36v4h-36v-4Z"/>
  <path class="st0" d="M249.8,97.5h28v4h-28v-4Z"/>
  <path class="st0" d="M353.8,87.5h36v4h-36v-4Z"/>
  <path class="st0" d="M353.8,97.5h28v4h-28v-4Z"/>
</svg>