<?xml version="1.0" encoding="utf-8"?>
<!-- Generator: Adobe Illustrator 21.0.2, SVG Export Plug-In . SVG Version: 6.00 Build 0)  -->
<svg version="1.1" id="Calque_1" xmlns="http://www.w3.org/2000/svg" xmlns:xlink="http://www.w3.org/1999/xlink" x="0px" y="0px"
	 viewBox="0 0 554 130" style="enable-background:new 0 0 554 130;" xml:space="preserve">
<style type="text/css">
	.st0{fill:#FFFFFF;}
	.st1{fill:#555D66;}
</style>
<g>
	<path class="st0" d="M0,0h554v130H0V0z"/>
	<path class="st0" d="M0,0h552v110H0V0z"/>
	<g>
		<circle class="st1" cx="46" cy="104" r="6"/>
		<circle class="st1" cx="88.1" cy="104" r="6"/>
		<circle class="st1" cx="67.1" cy="104" r="6"/>
		<path class="st1" d="M40,69.7h213.5v4H40V69.7z"/>
		<path class="st1" d="M40,79.7h166.1v4H40V79.7z"/>
		<path class="st1" d="M40,58.7h166.1v4H40V58.7z"/>
	</g>
</g>
<path class="st1" d="M69.9,10.5c0.1,0.3,0,0.5-0.2,0.8c-1.4,2.4-2.7,4.7-4.1,7.1c0,0,0,0.1-0.1,0.1c0,0,0,0.1,0,0.1
	c1.5,0.9,3,1.9,4.5,2.8c0.1,0,0,0.2-0.1,0.2c-2.1-0.1-4.2-0.2-6.4-0.3c-0.1,0-0.1,0.1-0.1,0.1c2,6,4.1,12.1,6.1,18.1
	c0,0.1,0,0.1-0.1,0.1c-0.4,0-0.8,0-1.2,0c-0.1,0-0.2-0.1-0.3-0.2c-1.2-1.3-2.3-2.5-3.5-3.8l0,0c-0.1-0.1-0.2,0-0.2,0.1
	c0.4,2.6,0.7,5.3,1.1,7.9c0,0,0,0.1-0.1,0.1c-0.7,0.2-1.3,0.4-2,0.5c0,0-0.1,0-0.1,0c-1.4-2.4-2.8-4.8-4.2-7.2c0,0-0.1-0.1-0.1,0
	c-0.4,0.1-0.7,0.3-1.1,0.4c-1.7,0.7-3.4,1.4-5,2.1c-0.2,0.1-0.2,0-0.3-0.1c-1-1.3-2-2.6-3-3.9c0,0-0.1-0.1-0.1-0.1c0,0-0.1,0-0.1,0
	c-2.1,2.3-4.3,4.6-6.4,6.8c0,0-0.1,0-0.1,0c-0.2-0.2-0.5-0.5-0.7-0.7c0,0,0-0.1,0-0.1C44,37,45.9,32.6,47.6,28c0-0.1,0-0.1-0.1-0.1
	c-2.7-0.3-5.3-0.7-8-1c-0.1,0-0.1-0.1,0-0.2c0.4-0.2,0.8-0.4,1.2-0.5c3-1.3,5.9-2.6,8.8-3.9c0.1-0.1,0.3,0,0.4,0.1
	c1.7,2,3.3,3.9,5,5.9c0,0,0.1,0.1,0.1,0.1c0.1,0,0.1,0,0.1,0c0.1-0.3,0.2-0.6,0.2-1c0.6-2.4,1.2-4.7,1.8-7.1c0-0.1,0.1-0.2,0.2-0.3
	c1.5-1.1,3-2.2,4.5-3.3c0.1-0.1,0.2-0.1,0.4,0c0.5,0.3,1,0.7,1.6,1c0,0,0.1,0,0.1,0c0.6-0.7,1.1-1.4,1.7-2.1c1.3-1.7,2.6-3.3,3.9-5
	c0,0,0,0,0-0.1C69.8,10.4,69.9,10.4,69.9,10.5"/>
</svg>
