<?xml version="1.0" encoding="utf-8"?>
<!-- Generator: Adobe Illustrator 28.2.0, SVG Export Plug-In . SVG Version: 6.00 Build 0)  -->
<svg version="1.1" id="Calque_1" xmlns="http://www.w3.org/2000/svg" xmlns:xlink="http://www.w3.org/1999/xlink" x="0px" y="0px"
	 viewBox="0 0 554 130" style="enable-background:new 0 0 554 130;" xml:space="preserve">
<style type="text/css">
	.st0{fill-rule:evenodd;clip-rule:evenodd;fill:#555D66;}
	.st1{fill:#555D66;}
</style>
<g>
	<g>
		<circle class="st0" cx="420" cy="98.4" r="6"/>
		<circle class="st0" cx="462.2" cy="98.4" r="6"/>
		<circle class="st0" cx="441.1" cy="98.4" r="6"/>
		<path class="st0" d="M47.6,67h36v4h-36V67z"/>
		<path class="st0" d="M47.6,77h28v4h-28V77z"/>
		<path class="st0" d="M47.6,56h28v4h-28V56z"/>
		<path class="st0" d="M165.3,56h28v4h-28V56z"/>
		<path class="st0" d="M275.3,56h28v4h-28V56z"/>
		<path class="st0" d="M165.3,67h36v4h-36V67z"/>
		<path class="st0" d="M165.3,77h28v4h-28V77z"/>
		<path class="st0" d="M275.3,67h36v4h-36V67z"/>
		<path class="st0" d="M275.3,77h28v4h-28V77z"/>
	</g>
</g>
<path class="st1" d="M417.8,53h1.3l1.9,2.8h1.6l-2.2-3.1l0,0v-0.1l0.2-0.1c0.1,0,0.2-0.1,0.4-0.3c0.2-0.1,0.3-0.3,0.5-0.5
	c0.2-0.2,0.3-0.4,0.4-0.7c0.1-0.3,0.2-0.6,0.2-1c0-0.9-0.3-1.5-0.8-2.1c-0.6-0.5-1.3-0.8-2.3-0.8h-2.6v8.5h1.4V53z M417.8,48.5h1.2
	c0.5,0,0.9,0.1,1.2,0.4c0.3,0.3,0.4,0.7,0.4,1.2c0,0.5-0.1,0.9-0.4,1.2c-0.3,0.3-0.7,0.4-1.2,0.4h-1.2V48.5z"/>
<polygon class="st1" points="428.3,46.7 426.8,46.7 426,48.8 426.9,48.8 "/>
<path class="st1" d="M426.4,49.5L426.4,49.5c-0.9,0-1.6,0.3-2.2,0.9c-0.6,0.6-0.9,1.4-0.9,2.3c0,0.9,0.3,1.7,0.9,2.3
	c0.6,0.6,1.4,0.9,2.3,0.9c0.3,0,0.6,0,0.9-0.1c0.3-0.1,0.5-0.1,0.7-0.2c0.2-0.1,0.3-0.1,0.5-0.2c0.2-0.1,0.3-0.1,0.3-0.2
	c0,0,0.1-0.1,0.1-0.1v-1.3h-0.2l-0.1,0.1c-0.1,0-0.1,0.1-0.3,0.2c-0.1,0.1-0.3,0.2-0.4,0.2c-0.2,0.1-0.4,0.1-0.6,0.2
	c-0.2,0.1-0.5,0.1-0.8,0.1c-0.6,0-1.1-0.2-1.5-0.5c-0.4-0.3-0.6-0.7-0.6-1.2h4.8v-0.4c0-0.9-0.3-1.7-0.8-2.2
	C428.1,49.8,427.4,49.5,426.4,49.5z M424.6,52c0.1-0.3,0.4-0.6,0.7-0.9c0.3-0.2,0.7-0.4,1.2-0.4l0,0c0.5,0,0.8,0.1,1.1,0.3
	c0.3,0.2,0.4,0.5,0.5,0.9H424.6z"/>
<path class="st1" d="M432,54.8L432,54.8l0.1,0.1c0,0.1,0.1,0.2,0.2,0.3c0.1,0.1,0.2,0.2,0.4,0.3c0.2,0.1,0.4,0.2,0.6,0.3
	s0.5,0.1,0.8,0.1c0.8,0,1.5-0.3,2.1-0.9c0.6-0.6,0.9-1.4,0.9-2.3s-0.3-1.7-0.9-2.3v0c-0.6-0.6-1.3-0.9-2.1-0.9c-0.3,0-0.5,0-0.8,0.1
	c-0.3,0.1-0.4,0.2-0.6,0.3c-0.1,0.1-0.3,0.2-0.4,0.3s-0.2,0.2-0.2,0.3c0,0.1-0.1,0.1-0.1,0.1H432l-0.1-0.9h-1.3v8.6h1.3V54.8z
	 M432.5,51.3c0.4-0.4,0.8-0.6,1.3-0.6s1,0.2,1.3,0.6c0.4,0.4,0.5,0.8,0.5,1.4c0,0.6-0.2,1-0.5,1.4c-0.4,0.4-0.8,0.6-1.3,0.6
	s-1-0.2-1.3-0.6c-0.4-0.4-0.5-0.8-0.5-1.4C432,52.2,432.1,51.7,432.5,51.3z"/>
<path class="st1" d="M441.2,55.9c0.3,0,0.6,0,0.9-0.1c0.3-0.1,0.5-0.1,0.7-0.2c0.2-0.1,0.3-0.1,0.5-0.2c0.2-0.1,0.3-0.1,0.3-0.2
	c0,0,0.1-0.1,0.1-0.1v-1.3h-0.2l-0.1,0.1c-0.1,0-0.1,0.1-0.3,0.2c-0.1,0.1-0.3,0.2-0.4,0.2c-0.2,0.1-0.4,0.1-0.6,0.2
	c-0.2,0.1-0.5,0.1-0.8,0.1c-0.6,0-1.1-0.2-1.5-0.5c-0.4-0.3-0.6-0.7-0.6-1.2h4.8v-0.4c0-0.9-0.3-1.7-0.8-2.2
	c-0.5-0.5-1.3-0.8-2.2-0.8v0c-0.9,0-1.6,0.3-2.2,0.9c-0.6,0.6-0.9,1.4-0.9,2.3c0,0.9,0.3,1.7,0.9,2.3
	C439.5,55.6,440.3,55.9,441.2,55.9z M440,51.1c0.3-0.2,0.7-0.4,1.2-0.4l0,0c0.5,0,0.8,0.1,1.1,0.3c0.3,0.2,0.4,0.5,0.5,0.9h-3.5
	C439.5,51.6,439.7,51.3,440,51.1z"/>
<path class="st1" d="M446.6,52l0.1-0.1c0-0.1,0.1-0.2,0.2-0.3c0.1-0.1,0.2-0.2,0.3-0.4c0.1-0.1,0.3-0.2,0.5-0.3
	c0.2-0.1,0.4-0.1,0.5-0.1l0,0c0.3,0,0.5,0,0.7,0.1c0.2,0.1,0.3,0.1,0.4,0.2c0.1,0,0.1,0.1,0.1,0.1l0.3-1.2l-0.1-0.1
	c-0.1-0.1-0.3-0.2-0.5-0.2s-0.5-0.1-0.7-0.1c-0.2,0-0.4,0-0.6,0.1c-0.2,0.1-0.4,0.2-0.5,0.3c-0.1,0.1-0.2,0.2-0.3,0.3
	s-0.2,0.2-0.2,0.3c0,0.1,0,0.1-0.1,0.1h-0.1l-0.1-0.9h-1.3v6h1.3V52z"/>
<path class="st1" d="M450.9,53.7c0,0.7,0.2,1.2,0.5,1.6c0.4,0.4,0.8,0.6,1.4,0.6c0.3,0,0.5,0,0.8-0.1c0.3-0.1,0.4-0.2,0.5-0.2
	c0.1-0.1,0.1-0.1,0.2-0.1v-1.2h-0.2l-0.1,0.1c-0.1,0.1-0.2,0.2-0.4,0.2c-0.2,0.1-0.3,0.1-0.5,0.1c-0.3,0-0.5-0.1-0.7-0.3
	c-0.2-0.2-0.3-0.4-0.3-0.8v-2.7h1.9v-1.2h-1.9v-1.8h-0.1l-2.4,2.6v0.5h1.1V53.7z"/>
<path class="st1" d="M458.3,55.9c1,0,1.7-0.3,2.4-0.9c0.6-0.6,0.9-1.4,0.9-2.3c0-0.9-0.3-1.7-0.9-2.3c-0.6-0.6-1.4-0.9-2.4-0.9
	s-1.7,0.3-2.4,0.9c-0.6,0.6-0.9,1.4-0.9,2.3c0,0.9,0.3,1.7,0.9,2.3C456.5,55.6,457.3,55.9,458.3,55.9z M456.9,51.3
	c0.4-0.4,0.8-0.6,1.4-0.6c0.6,0,1,0.2,1.4,0.6c0.4,0.4,0.5,0.8,0.5,1.4s-0.2,1.1-0.5,1.4c-0.4,0.4-0.8,0.6-1.4,0.6
	c-0.6,0-1-0.2-1.4-0.6c-0.4-0.4-0.5-0.8-0.5-1.4S456.5,51.7,456.9,51.3z"/>
<path class="st1" d="M463.8,49.7c-0.1,0-0.2,0-0.3,0c-0.2,0-0.5,0-0.7-0.1v6.1h1.3v-6.1l-0.1,0C464,49.7,463.9,49.7,463.8,49.7z"/>
<path class="st1" d="M463.5,46.9c-0.2,0-0.4,0.1-0.6,0.2c-0.1,0.1-0.2,0.3-0.2,0.6c0,0.2,0.1,0.4,0.2,0.6c0.1,0.1,0.3,0.2,0.6,0.2
	c0.2,0,0.4-0.1,0.6-0.2c0.2-0.1,0.2-0.3,0.2-0.6c0-0.2-0.1-0.4-0.2-0.6C463.9,47,463.7,46.9,463.5,46.9z"/>
<path class="st1" d="M468.6,50.7c0.3,0,0.5,0,0.7,0.1c0.2,0.1,0.3,0.1,0.4,0.2c0.1,0,0.1,0.1,0.1,0.1l0.3-1.2l-0.1-0.1
	c-0.1-0.1-0.3-0.2-0.5-0.2s-0.5-0.1-0.7-0.1c-0.2,0-0.4,0-0.6,0.1c-0.2,0.1-0.4,0.2-0.5,0.3c-0.1,0.1-0.2,0.2-0.3,0.3
	s-0.2,0.2-0.2,0.3c0,0.1,0,0.1-0.1,0.1H467l-0.1-0.9h-1.3v6h1.3V52l0.1-0.1c0-0.1,0.1-0.2,0.2-0.3s0.2-0.2,0.3-0.4
	c0.1-0.1,0.3-0.2,0.5-0.3C468.2,50.8,468.4,50.7,468.6,50.7L468.6,50.7z"/>
<path class="st1" d="M473.5,55.9c0.3,0,0.6,0,0.9-0.1c0.3-0.1,0.5-0.1,0.7-0.2c0.2-0.1,0.3-0.1,0.5-0.2c0.2-0.1,0.3-0.1,0.3-0.2
	c0,0,0.1-0.1,0.1-0.1v-1.3h-0.2l-0.1,0.1c-0.1,0-0.1,0.1-0.3,0.2c-0.1,0.1-0.3,0.2-0.4,0.2c-0.2,0.1-0.4,0.1-0.6,0.2
	c-0.2,0.1-0.5,0.1-0.8,0.1c-0.6,0-1.1-0.2-1.5-0.5c-0.4-0.3-0.6-0.7-0.6-1.2h4.8v-0.4c0-0.9-0.3-1.7-0.8-2.2
	c-0.5-0.5-1.3-0.8-2.2-0.8v0c-0.9,0-1.6,0.3-2.2,0.9c-0.6,0.6-0.9,1.4-0.9,2.3c0,0.9,0.3,1.7,0.9,2.3
	C471.8,55.6,472.6,55.9,473.5,55.9z M472.3,51.1c0.3-0.2,0.7-0.4,1.2-0.4l0,0c0.5,0,0.8,0.1,1.1,0.3c0.3,0.2,0.4,0.5,0.5,0.9h-3.5
	C471.8,51.6,472,51.3,472.3,51.1z"/>
<path class="st1" d="M416.8,66.6c0.6,0.6,1.3,0.9,2.1,0.9c0.3,0,0.6,0,0.8-0.1c0.3-0.1,0.5-0.2,0.6-0.3c0.2-0.1,0.3-0.2,0.4-0.3
	c0.1-0.1,0.2-0.2,0.2-0.3c0-0.1,0.1-0.1,0.1-0.1h0.1l0.1,1h0.9v-8.8h-1v3.8H421l-0.1-0.1c0-0.1-0.1-0.2-0.2-0.3
	c-0.1-0.1-0.2-0.2-0.4-0.3c-0.2-0.1-0.4-0.2-0.6-0.3c-0.3-0.1-0.5-0.1-0.8-0.1c-0.8,0-1.5,0.3-2.1,0.9c-0.6,0.6-0.9,1.4-0.9,2.3
	C415.9,65.3,416.2,66,416.8,66.6L416.8,66.6z M417.5,62.7c0.4-0.4,0.9-0.6,1.5-0.6c0.6,0,1.1,0.2,1.5,0.6c0.4,0.4,0.6,1,0.6,1.6
	c0,0.7-0.2,1.2-0.6,1.6c-0.4,0.4-0.9,0.6-1.5,0.6c-0.6,0-1.1-0.2-1.5-0.6c-0.4-0.4-0.6-1-0.6-1.6C416.9,63.7,417.1,63.2,417.5,62.7z
	"/>
<path class="st1" d="M426.5,61.2c-0.9,0-1.6,0.3-2.2,0.9v0c-0.6,0.6-0.9,1.4-0.9,2.3c0,0.9,0.3,1.7,0.9,2.3c0.6,0.6,1.3,0.9,2.3,0.9
	c0.3,0,0.6,0,0.9-0.1c0.3-0.1,0.5-0.1,0.7-0.2c0.2-0.1,0.3-0.1,0.5-0.2c0.1-0.1,0.2-0.1,0.3-0.2c0,0,0.1-0.1,0.1-0.1v-1h-0.2
	l-0.2,0.2c-0.1,0.1-0.4,0.3-0.8,0.4c-0.4,0.1-0.8,0.2-1.2,0.2c-0.6,0-1.1-0.2-1.6-0.6c-0.4-0.4-0.6-0.9-0.7-1.5h5v-0.3
	c0-0.9-0.3-1.7-0.8-2.2C428.1,61.4,427.4,61.2,426.5,61.2z M424.5,63.6c0.1-0.4,0.4-0.8,0.7-1.1c0.3-0.3,0.8-0.4,1.3-0.4
	c0.5,0,0.9,0.1,1.3,0.4c0.3,0.3,0.5,0.6,0.6,1.1H424.5z"/>
<path class="st1" d="M432.6,66.6c-0.2,0-0.5,0-0.7-0.1c-0.2-0.1-0.4-0.1-0.6-0.2c-0.2-0.1-0.3-0.1-0.4-0.2c-0.1-0.1-0.2-0.1-0.3-0.2
	c0,0-0.1-0.1-0.1-0.1l-0.2,0.9l0.3,0.2c0.2,0.1,0.4,0.3,0.8,0.4c0.4,0.1,0.8,0.2,1.2,0.2c0.8,0,1.4-0.2,1.8-0.5
	c0.4-0.3,0.6-0.8,0.6-1.4l0,0c0-0.4-0.1-0.8-0.4-1c-0.2-0.3-0.5-0.5-0.9-0.6c-0.4-0.1-0.7-0.2-1.1-0.3c-0.4-0.1-0.7-0.2-0.9-0.3
	c-0.2-0.1-0.4-0.3-0.4-0.5c0-0.2,0.1-0.4,0.3-0.6c0.2-0.2,0.5-0.2,0.8-0.2c0.4,0,0.7,0.1,1,0.2c0.3,0.1,0.5,0.3,0.6,0.3
	c0.1,0.1,0.2,0.2,0.2,0.2l0.4-0.8l-0.1-0.1c-0.1-0.1-0.1-0.1-0.3-0.2c-0.1-0.1-0.3-0.2-0.4-0.3c-0.2-0.1-0.4-0.2-0.6-0.2
	c-0.3-0.1-0.5-0.1-0.8-0.1c-0.7,0-1.2,0.2-1.5,0.5c-0.4,0.3-0.6,0.7-0.6,1.2c0,0.4,0.1,0.7,0.4,1c0.2,0.3,0.5,0.5,0.9,0.6
	c0.4,0.1,0.7,0.2,1.1,0.3c0.4,0.1,0.7,0.2,0.9,0.4c0.2,0.2,0.4,0.4,0.4,0.6C433.9,66.3,433.5,66.6,432.6,66.6z"/>
<path class="st1" d="M443.4,65.6L443.4,65.6c0-0.4-0.1-0.8-0.3-1.1c-0.2-0.3-0.5-0.5-0.8-0.6c-0.3-0.1-0.6-0.2-1-0.3
	c-0.3-0.1-0.6-0.2-0.8-0.2c-0.2-0.1-0.3-0.2-0.3-0.3c0-0.2,0.1-0.3,0.2-0.4c0.2-0.1,0.4-0.1,0.6-0.1c0.3,0,0.6,0.1,0.9,0.2
	c0.3,0.1,0.4,0.2,0.5,0.3c0.1,0.1,0.1,0.1,0.2,0.2l0.6-1.2l-0.1-0.1c-0.1-0.1-0.2-0.1-0.3-0.2c-0.1-0.1-0.3-0.2-0.5-0.3
	c-0.2-0.1-0.4-0.2-0.7-0.2c-0.3-0.1-0.6-0.1-0.9-0.1c-0.7,0-1.3,0.2-1.7,0.5c-0.4,0.4-0.6,0.8-0.6,1.3c0,0.4,0.1,0.7,0.2,0.9
	c0.2,0.3,0.4,0.5,0.6,0.6c0.2,0.1,0.5,0.2,0.8,0.3c0.3,0.1,0.5,0.2,0.8,0.2c0.2,0.1,0.4,0.1,0.6,0.2c0.2,0.1,0.2,0.2,0.2,0.4
	c0,0.3-0.3,0.5-1,0.5c-0.4,0-0.7-0.1-1.1-0.2c-0.3-0.1-0.6-0.2-0.7-0.3c-0.1-0.1-0.2-0.1-0.2-0.2l-0.3,1.3l0.3,0.2
	c0.2,0.1,0.5,0.3,0.8,0.4c0.4,0.1,0.8,0.2,1.3,0.2c0.9,0,1.6-0.2,2-0.5C443.1,66.7,443.4,66.2,443.4,65.6z"/>
<path class="st1" d="M447,61L447,61c-0.5,0-0.9,0.1-1.4,0.2c-0.5,0.2-0.8,0.3-0.9,0.4c-0.1,0.1-0.2,0.2-0.3,0.2v1.5h0.2l0.2-0.2
	c0.2-0.1,0.4-0.3,0.8-0.4c0.4-0.1,0.8-0.2,1.2-0.2c0.9,0,1.3,0.4,1.3,1.2v0.5L448,64c-0.1-0.1-0.3-0.1-0.6-0.2
	c-0.3-0.1-0.6-0.1-0.9-0.1c-0.8,0-1.3,0.2-1.8,0.5c-0.4,0.4-0.6,0.8-0.6,1.4c0,0.5,0.2,1,0.6,1.3c0.4,0.4,0.9,0.5,1.5,0.5
	c0.3,0,0.5,0,0.8-0.1c0.2-0.1,0.4-0.2,0.5-0.2c0.1-0.1,0.2-0.2,0.3-0.3c0.1-0.1,0.2-0.2,0.2-0.2c0,0,0-0.1,0.1-0.1h0.1l0.1,0.9h1.6
	v-3.9c0-0.8-0.2-1.4-0.7-1.8C448.6,61.3,447.9,61,447,61z M448,65.3c-0.1,0.2-0.2,0.4-0.4,0.6c-0.2,0.2-0.5,0.3-0.9,0.3l0,0
	c-0.2,0-0.4-0.1-0.6-0.2c-0.2-0.1-0.2-0.3-0.2-0.5c0-0.2,0.1-0.4,0.3-0.6c0.2-0.1,0.4-0.2,0.7-0.2c0.5,0,0.9,0.1,1.2,0.3L448,65.3z"
	/>
<polygon class="st1" points="453.7,64.9 453.6,64.9 452,61.2 452,61.2 450.2,61.2 452.9,67.4 454.4,67.4 457,61.2 455.2,61.2 "/>
<path class="st1" d="M460.6,61c-1,0-1.9,0.3-2.5,0.9c-0.6,0.6-0.9,1.4-0.9,2.3c0,0.9,0.3,1.7,0.9,2.3c0.6,0.6,1.5,0.9,2.5,0.9
	s1.9-0.3,2.5-0.9c0.6-0.6,0.9-1.4,0.9-2.3c0-0.9-0.3-1.7-0.9-2.3C462.5,61.3,461.7,61,460.6,61z M461.8,65.6
	c-0.3,0.3-0.7,0.5-1.2,0.5c-0.5,0-0.9-0.2-1.2-0.5c-0.3-0.3-0.5-0.7-0.5-1.3c0-0.5,0.2-0.9,0.5-1.3c0.3-0.3,0.7-0.5,1.2-0.5
	c0.5,0,0.9,0.2,1.2,0.5c0.3,0.3,0.5,0.7,0.5,1.3C462.3,64.8,462.2,65.2,461.8,65.6z"/>
<path class="st1" d="M466,58.4c-0.3,0-0.5,0.1-0.7,0.2c-0.2,0.2-0.3,0.4-0.3,0.7c0,0.3,0.1,0.5,0.3,0.7c0.2,0.2,0.4,0.3,0.7,0.3
	c0.3,0,0.5-0.1,0.7-0.3c0.2-0.2,0.3-0.4,0.3-0.7c0-0.3-0.1-0.5-0.3-0.7C466.5,58.5,466.3,58.4,466,58.4z"/>
<path class="st1" d="M466.5,61.2c-0.1,0-0.3,0-0.4,0c-0.3,0-0.6,0-0.8-0.1v6.2h1.7v-6.2l-0.1,0C466.7,61.2,466.6,61.2,466.5,61.2z"
	/>
<path class="st1" d="M472.3,61.2c-0.2-0.1-0.4-0.1-0.7-0.1c-0.2,0-0.4,0-0.6,0.1c-0.2,0.1-0.3,0.2-0.5,0.3c-0.1,0.1-0.2,0.2-0.3,0.3
	c-0.1,0.1-0.2,0.2-0.2,0.3c0,0.1,0,0.1-0.1,0.1h-0.1l-0.1-0.9h-1.6v6.2h1.7v-3.7l0.1-0.1c0-0.1,0.1-0.2,0.2-0.3
	c0.1-0.1,0.2-0.2,0.3-0.3c0.1-0.1,0.3-0.2,0.4-0.3c0.2-0.1,0.3-0.1,0.5-0.1v0c0.5,0,0.9,0.1,1.1,0.4l0.3-1.3l-0.1-0.1
	C472.7,61.3,472.5,61.3,472.3,61.2z"/>
<rect x="473.3" y="62.8" class="st1" width="4" height="1.5"/>
<path class="st1" d="M480.7,59.8c0.2-0.2,0.4-0.2,0.6-0.2c0.4,0,0.7,0.1,0.8,0.3l0.5-1.2l-0.2-0.1c-0.1-0.1-0.3-0.2-0.6-0.3
	c-0.3-0.1-0.6-0.1-0.9-0.1c-0.7,0-1.2,0.2-1.6,0.6c-0.4,0.4-0.6,1-0.6,1.7v0.8h-1v1.5h1v4.7h1.7v-4.7h1.9v-1.5h-1.9v-0.7
	C480.5,60.2,480.5,60,480.7,59.8z"/>
<path class="st1" d="M485.9,61L485.9,61c-0.5,0-0.9,0.1-1.4,0.2c-0.5,0.2-0.8,0.3-0.9,0.4c-0.1,0.1-0.2,0.2-0.3,0.2v1.5h0.2l0.2-0.2
	c0.2-0.1,0.4-0.3,0.8-0.4c0.4-0.1,0.8-0.2,1.2-0.2c0.9,0,1.3,0.4,1.3,1.2v0.5l-0.2-0.1c-0.1-0.1-0.3-0.1-0.6-0.2
	c-0.3-0.1-0.6-0.1-0.9-0.1c-0.8,0-1.3,0.2-1.8,0.5c-0.4,0.4-0.6,0.8-0.6,1.4c0,0.5,0.2,1,0.6,1.3c0.4,0.4,0.9,0.5,1.5,0.5
	c0.3,0,0.5,0,0.8-0.1c0.2-0.1,0.4-0.2,0.5-0.2c0.1-0.1,0.2-0.2,0.3-0.3c0.1-0.1,0.2-0.2,0.2-0.2c0,0,0-0.1,0.1-0.1h0.1l0.1,0.9h1.6
	v-3.9c0-0.8-0.2-1.4-0.7-1.8C487.5,61.3,486.9,61,485.9,61z M486.9,65.3c-0.1,0.2-0.2,0.4-0.4,0.6c-0.2,0.2-0.5,0.3-0.9,0.3v0
	c-0.2,0-0.4-0.1-0.6-0.2c-0.2-0.1-0.2-0.3-0.2-0.5c0-0.2,0.1-0.4,0.3-0.6c0.2-0.1,0.4-0.2,0.7-0.2c0.5,0,0.9,0.1,1.2,0.3L486.9,65.3
	z"/>
<path class="st1" d="M491.3,61.2c-0.1,0-0.3,0-0.4,0c-0.3,0-0.6,0-0.8-0.1v6.2h1.7v-6.2l-0.1,0C491.6,61.2,491.5,61.2,491.3,61.2z"
	/>
<path class="st1" d="M490.9,58.4c-0.3,0-0.5,0.1-0.7,0.2c-0.2,0.2-0.3,0.4-0.3,0.7c0,0.3,0.1,0.5,0.3,0.7c0.2,0.2,0.4,0.3,0.7,0.3
	c0.3,0,0.5-0.1,0.7-0.3c0.2-0.2,0.3-0.4,0.3-0.7c0-0.3-0.1-0.5-0.3-0.7C491.4,58.5,491.2,58.4,490.9,58.4z"/>
<path class="st1" d="M497.2,61.2c-0.2-0.1-0.4-0.1-0.7-0.1c-0.2,0-0.4,0-0.6,0.1c-0.2,0.1-0.3,0.2-0.5,0.3c-0.1,0.1-0.2,0.2-0.3,0.3
	c-0.1,0.1-0.2,0.2-0.2,0.3c0,0.1,0,0.1-0.1,0.1h-0.1l-0.1-0.9h-1.6v6.2h1.7v-3.7l0.1-0.1c0-0.1,0.1-0.2,0.2-0.3
	c0.1-0.1,0.2-0.2,0.3-0.3c0.1-0.1,0.3-0.2,0.4-0.3c0.2-0.1,0.3-0.1,0.5-0.1l0,0c0.5,0,0.9,0.1,1.1,0.4l0.3-1.3l-0.1-0.1
	C497.6,61.3,497.4,61.3,497.2,61.2z"/>
<path class="st1" d="M504.3,64.2c0-1-0.3-1.8-0.8-2.3s-1.3-0.8-2.2-0.8l0,0c-0.9,0-1.7,0.3-2.3,0.9c-0.6,0.6-0.9,1.4-0.9,2.3
	c0,1,0.3,1.7,0.9,2.3c0.6,0.6,1.4,0.9,2.4,0.9c0.5,0,0.9-0.1,1.3-0.2c0.4-0.1,0.7-0.2,0.8-0.3c0.1-0.1,0.2-0.1,0.3-0.2v-1.5h-0.2
	l-0.2,0.2c-0.1,0.1-0.4,0.2-0.7,0.3c-0.4,0.1-0.8,0.2-1.2,0.2c-0.6,0-1-0.1-1.3-0.4c-0.3-0.3-0.5-0.6-0.6-1h4.7V64.2z M499.6,63.5
	c0.1-0.3,0.3-0.5,0.6-0.7c0.3-0.2,0.7-0.3,1.2-0.3c0.4,0,0.7,0.1,1,0.3c0.2,0.2,0.4,0.5,0.4,0.7H499.6z"/>
<path class="st1" d="M419.9,72.7c-0.3,0-0.5,0-0.8,0.1c-0.2,0.1-0.4,0.2-0.6,0.3c-0.1,0.1-0.3,0.2-0.4,0.3c-0.1,0.1-0.2,0.2-0.2,0.2
	c0,0-0.1,0.1-0.1,0.1h-0.1l-0.1-0.9h-1.6v8.7h1.7v-3.4h0.1l0.1,0.1c0,0.1,0.1,0.2,0.2,0.3c0.1,0.1,0.2,0.2,0.4,0.3s0.3,0.2,0.6,0.3
	c0.2,0.1,0.5,0.1,0.8,0.1c0.8,0,1.5-0.3,2.1-0.9c0.6-0.6,0.9-1.4,0.9-2.3s-0.3-1.7-0.9-2.3S420.7,72.7,419.9,72.7z M420.6,77.2
	c-0.3,0.3-0.7,0.5-1.2,0.5c-0.4,0-0.8-0.2-1.2-0.5c-0.3-0.3-0.5-0.7-0.5-1.3s0.2-0.9,0.5-1.3c0.3-0.3,0.7-0.5,1.2-0.5
	c0.5,0,0.9,0.2,1.2,0.5c0.3,0.3,0.5,0.7,0.5,1.3C421.1,76.4,420.9,76.9,420.6,77.2z"/>
<path class="st1" d="M426.6,72.7L426.6,72.7c-0.5,0-0.9,0.1-1.4,0.2c-0.5,0.2-0.8,0.3-0.9,0.4c-0.1,0.1-0.2,0.2-0.3,0.2v1.5h0.2
	l0.2-0.2c0.2-0.1,0.4-0.3,0.8-0.4c0.4-0.1,0.8-0.2,1.2-0.2c0.9,0,1.3,0.4,1.3,1.2v0.5l-0.2-0.1c-0.1-0.1-0.3-0.1-0.6-0.2
	c-0.3-0.1-0.6-0.1-0.9-0.1c-0.8,0-1.3,0.2-1.8,0.5c-0.4,0.4-0.6,0.8-0.6,1.4c0,0.5,0.2,1,0.6,1.3c0.4,0.4,0.9,0.5,1.5,0.5
	c0.3,0,0.5,0,0.8-0.1c0.2-0.1,0.4-0.2,0.5-0.2c0.1-0.1,0.2-0.2,0.3-0.3c0.1-0.1,0.2-0.2,0.2-0.2c0,0,0-0.1,0.1-0.1h0.1l0.1,0.9h1.6
	v-3.9c0-0.8-0.2-1.4-0.7-1.8C428.2,72.9,427.5,72.7,426.6,72.7z M427.6,77c-0.1,0.2-0.2,0.4-0.4,0.6c-0.2,0.2-0.5,0.3-0.9,0.3l0,0
	c-0.2,0-0.4-0.1-0.6-0.2c-0.2-0.1-0.2-0.3-0.2-0.5c0-0.2,0.1-0.4,0.3-0.6c0.2-0.1,0.4-0.2,0.7-0.2c0.5,0,0.9,0.1,1.2,0.3L427.6,77z"
	/>
<polygon class="st1" points="433.4,76.8 433.3,76.8 431.6,72.8 429.8,72.8 432.5,79 431.4,81.6 433.2,81.6 436.7,72.8 434.9,72.8 
	"/>
<path class="st1" d="M441.7,76.2c-0.2-0.3-0.5-0.5-0.8-0.6c-0.3-0.1-0.6-0.2-1-0.3c-0.3-0.1-0.6-0.2-0.8-0.2
	c-0.2-0.1-0.3-0.2-0.3-0.3c0-0.2,0.1-0.3,0.2-0.4c0.2-0.1,0.4-0.1,0.6-0.1c0.3,0,0.6,0.1,0.9,0.2c0.3,0.1,0.4,0.2,0.5,0.3
	c0.1,0.1,0.1,0.1,0.2,0.2l0.6-1.2l-0.1-0.1c-0.1-0.1-0.2-0.1-0.3-0.2c-0.1-0.1-0.3-0.2-0.5-0.3c-0.2-0.1-0.4-0.2-0.7-0.2
	c-0.3-0.1-0.6-0.1-0.9-0.1c-0.7,0-1.3,0.2-1.7,0.5c-0.4,0.4-0.6,0.8-0.6,1.3c0,0.4,0.1,0.7,0.2,0.9c0.2,0.3,0.4,0.5,0.6,0.6
	c0.2,0.1,0.5,0.2,0.8,0.3c0.3,0.1,0.5,0.2,0.8,0.2c0.2,0.1,0.4,0.1,0.6,0.2c0.2,0.1,0.2,0.2,0.2,0.4c0,0.3-0.3,0.5-1,0.5
	c-0.4,0-0.7-0.1-1.1-0.2c-0.3-0.1-0.6-0.2-0.7-0.3c-0.1-0.1-0.2-0.1-0.2-0.2l-0.3,1.3l0.3,0.2c0.2,0.1,0.5,0.3,0.8,0.4
	c0.4,0.1,0.8,0.2,1.3,0.2c0.9,0,1.6-0.2,2-0.5c0.4-0.3,0.7-0.8,0.7-1.4l0,0C442,76.8,441.9,76.5,441.7,76.2z"/>
<path class="st1" d="M445.7,72.7L445.7,72.7c-0.5,0-0.9,0.1-1.4,0.2c-0.5,0.2-0.8,0.3-0.9,0.4c-0.1,0.1-0.2,0.2-0.3,0.2v1.5h0.2
	l0.2-0.2c0.2-0.1,0.4-0.3,0.8-0.4c0.4-0.1,0.8-0.2,1.2-0.2c0.9,0,1.3,0.4,1.3,1.2v0.5l-0.2-0.1c-0.1-0.1-0.3-0.1-0.6-0.2
	c-0.3-0.1-0.6-0.1-0.9-0.1c-0.8,0-1.3,0.2-1.8,0.5c-0.4,0.4-0.6,0.8-0.6,1.4c0,0.5,0.2,1,0.6,1.3c0.4,0.4,0.9,0.5,1.5,0.5
	c0.3,0,0.5,0,0.8-0.1c0.2-0.1,0.4-0.2,0.5-0.2c0.1-0.1,0.2-0.2,0.3-0.3c0.1-0.1,0.2-0.2,0.2-0.2c0,0,0-0.1,0.1-0.1h0.1l0.1,0.9h1.6
	v-3.9c0-0.8-0.2-1.4-0.7-1.8C447.3,72.9,446.6,72.7,445.7,72.7z M446.7,77c-0.1,0.2-0.2,0.4-0.4,0.6c-0.2,0.2-0.5,0.3-0.9,0.3v0
	c-0.2,0-0.4-0.1-0.6-0.2c-0.2-0.1-0.2-0.3-0.2-0.5c0-0.2,0.1-0.4,0.3-0.6c0.2-0.1,0.4-0.2,0.7-0.2c0.5,0,0.9,0.1,1.2,0.3L446.7,77z"
	/>
<path class="st1" d="M455.2,73.3c-0.4-0.4-1-0.7-1.7-0.7c-0.3,0-0.5,0-0.7,0.1c-0.2,0.1-0.4,0.2-0.5,0.3c-0.1,0.1-0.3,0.2-0.4,0.3
	c-0.1,0.1-0.2,0.2-0.2,0.2c0,0,0,0.1-0.1,0.1h-0.1l-0.1-0.9h-1.6V79h1.7v-3.3c0-0.5,0.1-0.8,0.4-1.1c0.3-0.3,0.6-0.4,1.1-0.4
	c0.4,0,0.6,0.1,0.8,0.3c0.2,0.2,0.3,0.5,0.3,0.9V79h1.7v-3.8C455.9,74.4,455.7,73.8,455.2,73.3z"/>
<polygon class="st1" points="455.9,79 455.9,79 455.9,79 "/>
<path class="st1" d="M461.5,76.2c-0.2-0.3-0.5-0.5-0.8-0.6c-0.3-0.1-0.6-0.2-1-0.3c-0.3-0.1-0.6-0.2-0.8-0.2
	c-0.2-0.1-0.3-0.2-0.3-0.3c0-0.2,0.1-0.3,0.2-0.4c0.2-0.1,0.4-0.1,0.6-0.1c0.3,0,0.6,0.1,0.9,0.2c0.3,0.1,0.4,0.2,0.5,0.3
	c0.1,0.1,0.1,0.1,0.2,0.2l0.6-1.2l-0.1-0.1c-0.1-0.1-0.2-0.1-0.3-0.2c-0.1-0.1-0.3-0.2-0.5-0.3c-0.2-0.1-0.4-0.2-0.7-0.2
	c-0.3-0.1-0.6-0.1-0.9-0.1c-0.7,0-1.3,0.2-1.7,0.5c-0.4,0.4-0.6,0.8-0.6,1.3c0,0.4,0.1,0.7,0.2,0.9c0.2,0.3,0.4,0.5,0.6,0.6
	c0.2,0.1,0.5,0.2,0.8,0.3c0.3,0.1,0.5,0.2,0.8,0.2c0.2,0.1,0.4,0.1,0.6,0.2c0.2,0.1,0.2,0.2,0.2,0.4c0,0.3-0.3,0.5-1,0.5
	c-0.4,0-0.7-0.1-1.1-0.2c-0.3-0.1-0.6-0.2-0.7-0.3c-0.1-0.1-0.2-0.1-0.2-0.2l-0.3,1.3l0.3,0.2c0.2,0.1,0.5,0.3,0.8,0.4
	c0.4,0.1,0.8,0.2,1.3,0.2c0.9,0,1.6-0.2,2-0.5c0.4-0.3,0.7-0.8,0.7-1.4l0,0C461.9,76.8,461.7,76.5,461.5,76.2z"/>
<path class="st1" d="M379.7,69c0.9,0,1.5-0.4,1.7-0.6c0.3-0.2,0.4-0.6,0.1-0.9c-0.2-0.3-0.6-0.4-0.9-0.2c-0.1,0-0.6,0.4-1.3,0.2
	c-0.5-0.1-0.9-0.6-1.1-1.1c-0.1-0.4-0.5-0.6-0.8-0.5c-0.4,0.1-0.6,0.5-0.5,0.8c0.3,1,1,1.8,2,2.1l0,0C379.2,69,379.5,69,379.7,69z"
	/>
<path class="st1" d="M389.5,75.1c-0.4-0.1-0.7,0.2-0.8,0.6l-0.8,5.1c-0.1,0.4,0.2,0.7,0.6,0.8c0,0,0.1,0,0.1,0
	c0.3,0,0.6-0.2,0.7-0.6l0.8-5.1C390.2,75.5,389.9,75.2,389.5,75.1z"/>
<path class="st1" d="M385.3,75.9L385.3,75.9c-4,2-8.3,2.1-10.1,0.2c-0.1-0.1-0.2-0.3-0.3-0.4c2-0.5,3.4-0.8,3.6-0.9
	c0.4-0.1,0.6-0.5,0.5-0.8h0c-0.1-0.4-0.5-0.6-0.8-0.5c0,0-1.6,0.4-3.8,0.9c-0.4-1.2-0.4-2.7-0.2-4.7l0.1-0.7l-1.9-0.2
	c-0.2,0-0.5-0.1-0.6-0.2c0,0,0,0,0-0.1c0-0.1,0.3-0.3,0.9-0.7l0.2-0.1c0.2-0.2,1.2-0.8,1.7-1.1c0,0,0,0,0,0c0,0,0,0,0,0
	c0.2-0.1,0.3-0.3,0.3-0.6c0.3-1.4,0.4-1.8,0.7-2.7c0.1-0.4-0.1-0.7-0.4-0.9c-0.4-0.1-0.7,0.1-0.9,0.4c-0.3,0.9-0.5,1.4-0.7,2.8
	c-0.5,0.3-1.2,0.8-1.4,1l-0.2,0.1c-0.8,0.6-1.3,0.9-1.4,1.5c-0.1,0.4-0.1,0.7,0.1,1.1c0.3,0.6,0.9,0.7,1.6,0.8l0.6,0.1
	c-0.1,1.4-0.2,3,0.3,4.5c-0.6,0.1-1.2,0.3-1.8,0.4c0-0.5-0.1-1.2-0.6-1.7c-0.5-0.5-1.3-1-1.6-0.7c-0.3,0.2-0.1,1,0,1.2
	c0.2,0.7,0.7,1.2,1.2,1.5c-0.5,0.1-1,0.2-1.5,0.3c0-0.5-0.1-1.2-0.6-1.8c-0.5-0.5-1.3-1-1.6-0.7c-0.3,0.2-0.1,1,0,1.2
	c0.2,0.7,0.7,1.2,1.2,1.5c-0.5,0.1-1,0.2-1.4,0.3c0-0.5-0.1-1.2-0.6-1.7c-0.4-0.5-1.2-0.9-1.5-0.7c-0.3,0.2-0.1,1,0,1.1
	c0.2,0.7,0.8,1.2,1.2,1.4c-0.5,0.1-0.9,0.2-1.3,0.2c0-0.4-0.2-0.9-0.5-1.3c-0.4-0.4-1.1-0.8-1.4-0.6c-0.3,0.2-0.1,0.9,0,1
	c0.1,0.4,0.4,0.7,0.7,1c-0.2,0-0.4,0.1-0.6,0.2c-0.1,0.1-0.8,0.4-0.7,0.8c0,0.4,0.8,0.6,1.5,0.6c0.1,0,0.3,0,0.4-0.1
	c-0.2,0.4-0.3,0.8-0.2,1.3c0,0.1,0.1,0.8,0.5,0.9c0.3,0.1,0.8-0.6,0.9-1.2c0.1-0.5,0.1-0.9-0.1-1.3c0.3-0.1,0.7-0.1,1-0.2
	c-0.2,0.4-0.3,0.9-0.2,1.4c0,0.2,0.2,0.9,0.5,1c0.4,0.1,0.9-0.6,1-1.3c0.1-0.5,0.1-1-0.1-1.3c0.4-0.1,0.7-0.1,1.1-0.2
	c-0.2,0.5-0.4,1-0.3,1.7c0,0.2,0.2,1,0.6,1.1c0.4,0.1,0.9-0.7,1.1-1.4c0.2-0.6,0-1.2-0.1-1.6c0.4-0.1,0.9-0.2,1.3-0.3
	c-0.2,0.5-0.4,1.1-0.3,1.8c0,0.2,0.2,1,0.6,1.1c0.4,0.1,0.9-0.7,1.1-1.4c0.2-0.7,0-1.3-0.2-1.7c0.7-0.1,1.3-0.3,2-0.4
	c0.2,0.4,0.4,0.7,0.7,1c1.2,1.2,3,1.8,5.1,1.8c2,0,4.4-0.6,6.7-1.7c0.3-0.2,0.5-0.6,0.3-0.9C386,75.8,385.6,75.7,385.3,75.9z"/>
<path class="st1" d="M395.1,62.5L395.1,62.5c-1.6-0.4-3.1-0.9-4.6-1.4c-3.9-1.3-7.8-2.9-11.5-4.7c0.5-1.4,2-5.2,5.4-7
	c2.4-1.3,5.2-1.4,8.4-0.4c0.4,0.1,0.7-0.1,0.9-0.4c0.1-0.4-0.1-0.7-0.4-0.9c-3.6-1.2-6.8-1-9.5,0.5c-2.8,1.5-4.4,4.1-5.3,6
	c-4.5-1-7.6-1.1-9.6-0.4c-1.3,0.5-1.6,1.2-1.6,1.7c0,3,10.4,7.2,13.6,8.4c0.1,0,0.2,0,0.2,0c0.3,0,0.5-0.2,0.6-0.4
	c0.1-0.3,0-0.7-0.4-0.9c-6.2-2.4-12.8-5.8-12.8-7.2c0-0.1,0.2-0.3,0.7-0.5c1.7-0.6,4.6-0.5,8.6,0.3c-0.2,0.7-0.4,1.1-0.4,1.2
	l-0.1,0.5l0.5,0.2c3.9,2,8,3.7,12.2,5.1c1.6,0.5,3.1,1,4.7,1.4c0.1,0,0.1,0,0.2,0c0.3,0,0.6-0.2,0.7-0.5
	C395.6,63,395.4,62.6,395.1,62.5z"/>
<path class="st1" d="M386.9,71.9L386.9,71.9l-2.1-0.2l2-6.4c0.1-0.4-0.1-0.7-0.4-0.8c-0.4-0.1-0.7,0.1-0.8,0.4l-2.5,8l3.7,0.3
	c0,0,0,0,0.1,0c0.3,0,0.6-0.3,0.7-0.6C387.6,72.3,387.3,71.9,386.9,71.9z"/>
<path class="st1" d="M389.9,68.9c-1,0-1.8,0.6-2.2,1.5c-0.1,0.4,0.1,0.7,0.4,0.9c0.4,0.1,0.7-0.1,0.9-0.4c0.1-0.4,0.5-0.6,0.9-0.6
	c0.5,0,1,0.4,1,1c0,0.5-0.4,1-1,1c-0.4,0-0.7,0.3-0.7,0.7c0,0.4,0.3,0.7,0.7,0.7c1.3,0,2.3-1,2.3-2.3S391.2,68.9,389.9,68.9z"/>
</svg>
