<?xml version="1.0" encoding="utf-8"?>
<!-- Generator: Adobe Illustrator 25.2.1, SVG Export Plug-In . SVG Version: 6.00 Build 0)  -->
<svg version="1.1" id="Calque_1" xmlns="http://www.w3.org/2000/svg" xmlns:xlink="http://www.w3.org/1999/xlink" x="0px" y="0px"
	 viewBox="0 0 554 130" style="enable-background:new 0 0 554 130;" xml:space="preserve">
<style type="text/css">
	.st0{fill-rule:evenodd;clip-rule:evenodd;fill:#FFFFFF;}
	.st1{fill-rule:evenodd;clip-rule:evenodd;fill:#555D66;}
</style>
<g>
	<path class="st0" d="M0,0h554v130H0V0z"/>
	<path class="st0" d="M0,0h554v130H0V0z"/>
	<g>
		<path class="st1" d="M41,30h54v26H41V30z"/>
		<circle class="st1" cx="46.9" cy="95" r="6"/>
		<circle class="st1" cx="89.1" cy="95" r="6"/>
		<circle class="st1" cx="68" cy="95" r="6"/>
		<path class="st1" d="M328,30h60v4h-60V30z"/>
		<path class="st1" d="M330,87.5h36v4h-36V87.5z"/>
		<path class="st1" d="M330,97.5h28v4h-28V97.5z"/>
		<path class="st1" d="M330,76.5h28v4h-28V76.5z"/>
		<path class="st1" d="M404,76.5h28v4h-28V76.5z"/>
		<path class="st1" d="M478,76.5h28v4h-28V76.5z"/>
		<path class="st1" d="M404,87.5h36v4h-36V87.5z"/>
		<path class="st1" d="M404,97.5h28v4h-28V97.5z"/>
		<path class="st1" d="M478,87.5h36v4h-36V87.5z"/>
		<path class="st1" d="M478,97.5h28v4h-28V97.5z"/>
	</g>
</g>
</svg>
