<?xml version="1.0" encoding="utf-8"?>
<!-- Generator: Adobe Illustrator 21.0.2, SVG Export Plug-In . SVG Version: 6.00 Build 0)  -->
<svg version="1.1" id="Calque_1" xmlns="http://www.w3.org/2000/svg" xmlns:xlink="http://www.w3.org/1999/xlink" x="0px" y="0px"
	 viewBox="0 0 554 130" style="enable-background:new 0 0 554 130;" xml:space="preserve">
<style type="text/css">
	.st0{fill:#FFFFFF;}
	.st1{fill:#555D66;}
</style>
<g>
	<path class="st0" d="M0,0h554v130H0V0z"/>
	<path class="st0" d="M0,0h552v130H0V0z"/>
	<g>
		<path class="st1" d="M522.4,71.4L518,67c0.9-1.3,1.5-3,1.5-4.7c0-4.6-3.7-8.3-8.3-8.3c-4.6,0-8.3,3.7-8.3,8.3
			c0,4.6,3.7,8.3,8.3,8.3c1.8,0,3.4-0.5,4.7-1.5l4.4,4.4c0.3,0.3,0.7,0.4,1.1,0.4s0.8-0.1,1.1-0.4C523,73,523,72,522.4,71.4z
			 M505.8,62.3c0-2.9,2.4-5.3,5.3-5.3c2.9,0,5.3,2.4,5.3,5.3c0,1.5-0.6,2.8-1.5,3.7c0,0,0,0,0,0c0,0,0,0,0,0c-1,1-2.3,1.6-3.7,1.6
			C508.2,67.6,505.8,65.3,505.8,62.3z"/>
		<path class="st1" d="M30,57.2h18v2H30V57.2z"/>
		<path class="st1" d="M30,63.2h18v2H30V63.2z"/>
		<path class="st1" d="M30,69.2h18v2H30V69.2z"/>
		<path class="st1" d="M350,60.9h123v6.2H350V60.9z"/>
	</g>
</g>
<path class="st1" d="M295.6,32.8c0.1,0.4,0,0.8-0.3,1.3c-2.2,3.7-4.3,7.4-6.4,11.1c0,0.1-0.1,0.1-0.1,0.2c0,0.1,0,0.1,0,0.2
	c2.4,1.5,4.7,3,7.1,4.4c0.1,0.1,0.1,0.3-0.1,0.3c-3.3-0.2-6.6-0.3-10-0.5c-0.1,0-0.2,0.1-0.1,0.2c3.2,9.5,6.4,18.9,9.6,28.2
	c0,0.1,0,0.2-0.1,0.2c-0.6,0-1.2,0-1.8,0c-0.1,0-0.3-0.2-0.4-0.3c-1.8-2-3.6-3.9-5.4-5.9l0,0c-0.1-0.1-0.3,0-0.2,0.1
	c0.6,4.1,1.1,8.2,1.7,12.4c0,0.1,0,0.1-0.1,0.2c-1,0.3-2.1,0.6-3.1,0.8c-0.1,0-0.1,0-0.2-0.1c-2.2-3.7-4.4-7.5-6.6-11.2
	c0-0.1-0.1-0.1-0.2-0.1c-0.6,0.2-1.1,0.5-1.7,0.7c-2.6,1.1-5.3,2.1-7.9,3.2c-0.2,0.1-0.4,0.1-0.5-0.1c-1.6-2-3.1-4-4.7-6.1
	c0-0.1-0.1-0.1-0.1-0.2c-0.1-0.1-0.1-0.1-0.2,0c-3.4,3.6-6.7,7.1-10,10.7c-0.1,0.1-0.1,0.1-0.2,0c-0.4-0.4-0.8-0.7-1.1-1.1
	c0,0-0.1-0.1,0-0.2c2.8-7,5.8-13.9,8.5-21c0-0.1,0-0.2-0.1-0.2c-4.2-0.5-8.4-1-12.5-1.6c-0.1,0-0.2-0.2,0-0.3
	c0.6-0.3,1.3-0.6,1.9-0.9c4.6-2,9.2-4.1,13.8-6.1c0.2-0.1,0.5,0,0.6,0.2c2.6,3.1,5.2,6.2,7.8,9.2c0.1,0.1,0.1,0.1,0.2,0.2
	c0.1,0.1,0.2,0,0.2-0.1c0.1-0.5,0.3-1,0.4-1.5c0.9-3.7,1.8-7.4,2.7-11.1c0-0.2,0.2-0.4,0.3-0.5c2.4-1.7,4.7-3.5,7.1-5.2
	c0.2-0.2,0.3-0.2,0.6,0c0.8,0.5,1.6,1,2.5,1.5c0.1,0,0.1,0,0.2,0c0.9-1.1,1.8-2.2,2.7-3.4c2-2.6,4.1-5.2,6.1-7.8c0,0,0-0.1,0.1-0.1
	C295.4,32.7,295.5,32.7,295.6,32.8"/>
</svg>
