<?xml version="1.0" encoding="utf-8"?>
<!-- Generator: Adobe Illustrator 27.3.1, SVG Export Plug-In . SVG Version: 6.00 Build 0)  -->
<svg version="1.1" id="Calque_1" xmlns="http://www.w3.org/2000/svg" xmlns:xlink="http://www.w3.org/1999/xlink" x="0px" y="0px"
	 viewBox="0 0 554 130" style="enable-background:new 0 0 554 130;" xml:space="preserve">
<style type="text/css">
	.st0{fill-rule:evenodd;clip-rule:evenodd;fill:#555D66;}
	.st1{fill:#555D66;}
</style>
<g>
	<g>
		<path class="st0" d="M525.6,73.4l-4.4-4.4c0.9-1.3,1.5-3,1.5-4.7c0-4.6-3.7-8.3-8.3-8.3c-4.6,0-8.3,3.7-8.3,8.3s3.7,8.3,8.3,8.3
			c1.8,0,3.4-0.5,4.7-1.5l4.4,4.4c0.3,0.3,0.7,0.4,1.1,0.4s0.8-0.1,1.1-0.4C526.1,75,526.1,74,525.6,73.4z M509,64.3
			c0-2.9,2.4-5.3,5.3-5.3c2.9,0,5.3,2.4,5.3,5.3c0,1.5-0.6,2.8-1.5,3.7l0,0l0,0c-1,1-2.3,1.6-3.7,1.6C511.4,69.6,509,67.3,509,64.3z
			"/>
		<path class="st0" d="M454.4,64h24v4h-24V64z"/>
		<path class="st0" d="M414.4,64h24v4h-24V64z"/>
		<path class="st0" d="M374.4,64h24v4h-24V64z"/>
		<path class="st0" d="M334.4,64h24v4h-24V64z"/>
	</g>
</g>
<g>
	<g>
		<path class="st1" d="M78.1,63h-4.5V51.3h4.5c2.9,0,5.3,2.4,5.3,5.3v1.1C83.4,60.6,81.1,63,78.1,63z M74.8,61.8h3.3
			c2.3,0,4.1-1.8,4.1-4.1v-1.1c0-2.3-1.8-4.1-4.1-4.1h-3.3V61.8z"/>
		<path class="st1" d="M85.9,51.6c-0.2-0.2-0.2-0.4-0.2-0.6c0-0.2,0.1-0.4,0.2-0.6c0.2-0.2,0.4-0.2,0.6-0.2s0.4,0.1,0.6,0.2
			c0.2,0.2,0.2,0.4,0.2,0.6c0,0.2-0.1,0.4-0.2,0.6c-0.2,0.2-0.4,0.2-0.6,0.2S86.1,51.7,85.9,51.6z M85.9,63.2v-9.4h1.1v9.4H85.9z"/>
		<path class="st1" d="M90.7,62c-0.9-0.9-1.3-2.1-1.3-3.5c0-1.4,0.4-2.6,1.3-3.5c0.9-0.9,1.9-1.4,3.2-1.4c0.9,0,1.6,0.2,2.3,0.6
			c0.6,0.4,1,0.9,1.3,1.4h0v-1.9h1.1v9.4h-1.1v-1.9h0c-0.3,0.5-0.7,1-1.3,1.4c-0.6,0.4-1.4,0.6-2.3,0.6C92.7,63.4,91.6,62.9,90.7,62
			z M91.6,55.7c-0.7,0.7-1,1.7-1,2.8c0,1.1,0.3,2,1,2.8c0.7,0.7,1.5,1.1,2.5,1.1c0.9,0,1.7-0.4,2.4-1.1c0.7-0.7,1-1.6,1-2.8
			c0-1.1-0.3-2-1-2.8C95.8,55,95,54.6,94,54.6C93.1,54.6,92.3,55,91.6,55.7z"/>
		<path class="st1" d="M102.3,62c-0.9-0.9-1.3-2.1-1.3-3.5c0-1.4,0.4-2.6,1.3-3.5c0.9-0.9,1.9-1.4,3.2-1.4c0.9,0,1.6,0.2,2.3,0.6
			c0.6,0.4,1,0.9,1.3,1.4h0v-1.9h1.1v13h-8v-1h6.9v-4.4h0c-0.3,0.5-0.7,1-1.3,1.4c-0.6,0.4-1.4,0.6-2.3,0.6
			C104.2,63.4,103.2,62.9,102.3,62z M103.1,55.7c-0.7,0.7-1,1.7-1,2.8c0,1.1,0.3,2,1,2.8c0.7,0.7,1.5,1.1,2.5,1.1
			c0.9,0,1.7-0.4,2.4-1.1c0.7-0.7,1-1.6,1-2.8c0-1.1-0.3-2-1-2.8c-0.7-0.7-1.5-1.1-2.4-1.1C104.6,54.6,103.8,55,103.1,55.7z"/>
		<path class="st1" d="M113.3,53h-0.4c-0.2,0-0.4-0.2-0.4-0.4v-1.9c0-0.2,0.2-0.4,0.4-0.4h0.4c0.2,0,0.4,0.2,0.4,0.4v1.9
			C113.7,52.8,113.5,53,113.3,53z"/>
	</g>
	<g>
		<path class="st1" d="M56.2,52.7C56.2,52.6,56.1,52.6,56.2,52.7C56.1,52.6,56.1,52.6,56.2,52.7c-0.2-0.1-0.3-0.2-0.4-0.3
			c-1.4-0.9-2.9-1.6-4.4-2.2c-2.1-0.7-4.3-1.1-6.5-1c-2.4,0.1-4.7,0.6-6.7,1.7c-2.1,1.1-4,2.7-5.4,4.6c-1.4,2-2.3,4.3-2.6,6.7
			c-0.3,2.1-0.1,4.4,0.5,6.7c0.5,1.8,1.2,3.6,2.2,5.3c-1-1.8-1.8-3.4-2.5-5c-1-2.5-1.5-4.9-1.4-7.1c0-2.7,0.9-5.4,2.5-7.5
			c1.5-2.2,3.7-3.9,6.1-5c2.3-1,4.9-1.4,7.5-1.2c2.2,0.2,4.3,0.7,6.6,1.7C53.1,50.7,54.7,51.6,56.2,52.7z"/>
		<path class="st1" d="M55.7,52.4c-3.2-2.1-7.2-2.9-11-2.3c-4.3,0.6-8.2,2.9-10.7,6.4c-2.6,3.4-3.7,7.8-3.1,12.1
			c0.3,2,0.9,3.9,1.9,5.6c0,0,0,0,0,0.1c-1-1.8-1.5-3.9-1.6-5.9c0-2,0.4-4,1.3-6c0.1-0.2,0.2-0.5,0.3-0.7c0.7-1.4,1.5-2.8,2.5-4.1
			c1.2-1.5,2.5-2.8,4-3.9c0.6-0.4,1.1-0.8,1.7-1.1h0c1.1-0.6,2.3-1.1,3.5-1.5c2.1-0.6,4.2-0.7,6.3-0.4c1.9,0.3,3.7,1,5.3,2.1
			C56,52.5,55.9,52.5,55.7,52.4z"/>
		<g>
			<path class="st1" d="M47.1,82.5c-3.5,0-7-1.1-9.8-3.3c-1.7-1.3-3.2-2.9-4.2-4.7c-1.2-2-1.7-4.3-1.4-6.6l0-0.1
				c0.1-1,0.4-3.6,2.3-5.8c0.5-0.6,1.5-1.4,3.8-3.4c0.4-0.3,0.9-0.8,1.5-1.4c0.4-0.5,0.6-0.8,0.9-1.2c0.1-0.1,0.1-0.2,0.2-0.3
				c0.3-0.4,1.8-2.4,3.9-3.7c2.7-1.5,5.4-1.3,6.4-1.2c2.8,0.2,4.9,1.4,6.2,2.3l0,0c1.6,1.2,5.5,4.7,6.4,10.7
				c0.9,6-1.9,10.5-3.1,12.1c-2.6,3.5-6.5,5.8-10.7,6.4C48.6,82.4,47.9,82.5,47.1,82.5z M49.4,54.7c-0.9,0-2,0.1-3.1,0.8
				c-1.2,0.7-2.2,1.9-2.6,2.5c0,0.1-0.1,0.1-0.2,0.2c-0.3,0.4-0.6,0.9-1.2,1.5c-0.8,0.9-1.5,1.5-1.9,1.9c-1.8,1.5-3.1,2.5-3.3,2.9
				c-1.1,1.4-1.3,3-1.4,3.7l0,0.1c-0.2,1.4,0.1,2.9,0.9,4.1c0.8,1.4,1.9,2.6,3.2,3.6c2.6,2,5.9,2.8,9.2,2.3c3.2-0.5,6.2-2.2,8.1-4.8
				c0.9-1.2,3-4.6,2.4-9.2c-0.7-4.7-3.8-7.4-4.8-8.1c-0.9-0.6-2.3-1.4-4.2-1.6C50.1,54.7,49.8,54.7,49.4,54.7z"/>
		</g>
	</g>
	<g>
		<path class="st1" d="M73.9,67.2c-0.3-0.3-0.4-0.6-0.4-1c0-0.4,0.1-0.7,0.4-1c0.3-0.3,0.6-0.4,1.1-0.4c0.4,0,0.8,0.1,1.1,0.4
			c0.3,0.3,0.4,0.6,0.4,1c0,0.4-0.1,0.7-0.4,1c-0.3,0.3-0.6,0.4-1.1,0.4C74.5,67.6,74.2,67.5,73.9,67.2z M73.6,78.4v-9.6h2.6v9.6
			H73.6z"/>
		<path class="st1" d="M78.3,78.4v-9.6H81v1.3H81c0.2-0.3,0.4-0.6,0.6-0.8c0.6-0.5,1.3-0.8,2.2-0.8c1,0,1.8,0.3,2.5,0.9
			c0.3,0.3,0.5,0.6,0.7,0.9h0.1c0.2-0.3,0.4-0.6,0.7-0.9c0.7-0.6,1.5-0.9,2.4-0.9c1.2,0,2.1,0.3,2.7,1c0.6,0.7,1,1.7,1,3v5.8h-2.6
			v-5.5c0-1.4-0.6-2.1-1.8-2.1c-0.6,0-1.1,0.2-1.5,0.7c-0.4,0.5-0.6,1-0.6,1.8v5.2h-2.6v-5.5c0-1.4-0.6-2.1-1.8-2.1
			c-0.6,0-1.1,0.2-1.5,0.7c-0.4,0.5-0.6,1-0.6,1.8v5.2H78.3z"/>
		<path class="st1" d="M96.7,77.3c-0.8-0.9-1.3-2.2-1.3-3.7s0.4-2.7,1.3-3.7c0.8-0.9,1.9-1.4,3.1-1.4c0.8,0,1.6,0.3,2.3,0.8
			c0.3,0.2,0.5,0.5,0.7,0.8h0.1v-1.2h2.6v9.6h-2.6v-1.2h-0.1c-0.2,0.3-0.4,0.5-0.7,0.8c-0.7,0.5-1.4,0.8-2.3,0.8
			C98.6,78.7,97.5,78.3,96.7,77.3z M98.8,71.6c-0.4,0.5-0.7,1.2-0.7,2.1s0.2,1.6,0.7,2.1c0.4,0.5,1,0.8,1.7,0.8
			c0.7,0,1.3-0.2,1.8-0.7c0.5-0.5,0.7-1.2,0.7-2.1s-0.2-1.6-0.7-2.1c-0.5-0.5-1-0.7-1.8-0.7C99.8,70.8,99.2,71.1,98.8,71.6z"/>
		<path class="st1" d="M108.4,77.1c-0.9-0.9-1.3-2.1-1.3-3.6s0.4-2.7,1.3-3.6c0.9-0.9,1.9-1.4,3.1-1.4c0.8,0,1.6,0.3,2.3,0.8
			c0.3,0.2,0.5,0.5,0.7,0.8h0.1v-1.2h2.6V82h-8.7v-2.3h6.1V77h-0.1c-0.2,0.3-0.5,0.6-0.7,0.8c-0.7,0.5-1.4,0.8-2.3,0.8
			C110.3,78.5,109.3,78.1,108.4,77.1z M110.6,71.6c-0.5,0.5-0.7,1.2-0.7,2c0,0.8,0.2,1.5,0.7,2c0.5,0.5,1,0.7,1.8,0.7
			c0.7,0,1.3-0.2,1.7-0.7c0.4-0.5,0.7-1.2,0.7-2c0-0.8-0.2-1.5-0.7-2c-0.4-0.5-1-0.7-1.7-0.7C111.6,70.8,111,71.1,110.6,71.6z"/>
		<path class="st1" d="M120.3,77.2c-1-1-1.5-2.2-1.5-3.6s0.5-2.6,1.5-3.6c1-1,2.2-1.5,3.7-1.5c1.5,0,2.7,0.5,3.6,1.5
			c1,1,1.4,2.2,1.4,3.6v0.6h-7.5c0.1,0.6,0.4,1.2,0.8,1.6c0.5,0.4,1,0.7,1.6,0.7c0.7,0,1.2-0.2,1.7-0.6c0.2-0.2,0.3-0.4,0.5-0.6h2.8
			c-0.2,0.6-0.5,1.2-0.9,1.7c-1,1.1-2.3,1.7-4,1.7C122.5,78.7,121.3,78.2,120.3,77.2z M121.6,72.6h4.6c-0.1-0.5-0.4-0.9-0.8-1.3
			c-0.4-0.3-0.9-0.5-1.5-0.5c-0.6,0-1.1,0.2-1.5,0.5C122.1,71.7,121.8,72.1,121.6,72.6z"/>
		<path class="st1" d="M130.6,78.4v-9.6h2.6v1.4h0.1c0.1-0.3,0.3-0.6,0.5-0.8c0.5-0.5,1.2-0.8,1.9-0.8h1.1v2.5h-1.4
			c-0.7,0-1.3,0.2-1.7,0.6c-0.4,0.4-0.6,0.9-0.6,1.6v5.1H130.6z"/>
		<path class="st1" d="M138.5,67.2c-0.3-0.3-0.4-0.6-0.4-1c0-0.4,0.1-0.7,0.4-1c0.3-0.3,0.6-0.4,1.1-0.4c0.4,0,0.8,0.1,1.1,0.4
			c0.3,0.3,0.4,0.6,0.4,1c0,0.4-0.1,0.7-0.4,1c-0.3,0.3-0.6,0.4-1.1,0.4C139.2,67.6,138.8,67.5,138.5,67.2z M138.3,78.4v-9.6h2.6
			v9.6H138.3z"/>
		<path class="st1" d="M143.9,77.2c-1-1-1.5-2.2-1.5-3.6s0.5-2.6,1.5-3.6c1-1,2.2-1.5,3.7-1.5c1.5,0,2.7,0.5,3.6,1.5
			c1,1,1.4,2.2,1.4,3.6v0.6h-7.5c0.1,0.6,0.4,1.2,0.8,1.6c0.5,0.4,1,0.7,1.6,0.7c0.7,0,1.2-0.2,1.7-0.6c0.2-0.2,0.3-0.4,0.5-0.6h2.8
			c-0.2,0.6-0.5,1.2-0.9,1.7c-1,1.1-2.3,1.7-4,1.7C146.1,78.7,144.9,78.2,143.9,77.2z M145.2,72.6h4.6c-0.1-0.5-0.4-0.9-0.8-1.3
			c-0.4-0.3-0.9-0.5-1.5-0.5c-0.6,0-1.1,0.2-1.5,0.5C145.6,71.7,145.4,72.1,145.2,72.6z"/>
	</g>
</g>
</svg>
