<?xml version="1.0" encoding="UTF-8"?>
<svg id="Calque_1" xmlns="http://www.w3.org/2000/svg" xmlns:xlink="http://www.w3.org/1999/xlink" version="1.1" viewBox="0 0 554 130">
  <!-- Generator: Adobe Illustrator 29.2.1, SVG Export Plug-In . SVG Version: 2.1.0 Build 116)  -->
  <defs>
    <style>
      .st0 {
        fill-rule: evenodd;
      }

      .st0, .st1 {
        fill: #555d66;
      }
    </style>
  </defs>
  <g>
    <path class="st0" d="M525.6,73.4l-4.4-4.4c.9-1.3,1.5-3,1.5-4.7,0-4.6-3.7-8.3-8.3-8.3s-8.3,3.7-8.3,8.3,3.7,8.3,8.3,8.3,3.4-.5,4.7-1.5l4.4,4.4c.3.3.7.4,1.1.4s.8,0,1.1-.4c.4-.5.4-1.5,0-2.1ZM509,64.3c0-2.9,2.4-5.3,5.3-5.3s5.3,2.4,5.3,5.3-.6,2.8-1.5,3.7h0c-1,1-2.3,1.6-3.7,1.6-3,0-5.4-2.3-5.4-5.3Z"/>
    <path class="st0" d="M454.4,64h24v4h-24v-4Z"/>
    <path class="st0" d="M414.4,64h24v4h-24v-4Z"/>
    <path class="st0" d="M374.4,64h24v4h-24v-4Z"/>
    <path class="st0" d="M334.4,64h24v4h-24v-4Z"/>
  </g>
  <g>
    <path class="st1" d="M47.6,76.6s.7.5.8.6c.2.1.8.7.9.8s.4,0,.6,0c.5,0,1,.7,1.3,1,1-.7,1.7,0,2.5.5.3-.3.6-.6,1-.6s1,.3,1.4.3,2-.1,2.6-.2c1.2-.1,3.7-.5,4.8-1s.6-1.4,1.1-2.4,1.2-1.2,1.9-1.3.3,0,.3,0-.4.8-.6,1-.4.5-.5.7c-.2.5-.2.9-.1,1.4.7-.3,1.5-.4,1.5-1.4s-.2-.9-.2-1.4.6-1,.8-1.6c.3-.9,0-1.7.2-2.6s.4-.6.5-.8c.1-.7-.4-1.5-.4-2.2s.4-1.1,0-2c-.6-1.6-2.9-2.2-3.2-3.7s0-.5,0-.7c-.1-.3-.9-.8-1.3-.9s-.9,0-.7.2l1.7,1.2c-.4.2-1.1,0-1.5-.2-.7-.5-.5-1.5-1.1-1.8l-2.8-.9c1-.1,2.2.1,3.2.4,6.7,2.1,10.6,8.4,8.9,15.4s-12.8,12.4-19.9,6.9c-1.8-1.4-2.9-3-4-4.9ZM67.7,63.7c-.1-.9-.6-1.5-1.5-1.7l1.5,1.7ZM69.9,69.3c.4-.9.3-1.9-.7-2.4l.7,2.4ZM69.6,70.6s-.2,0-.2,0v2.4c.7-.5.9-1.6.2-2.3ZM70.8,74.9l.2-1.5v-.2c-.1,0-.3,0-.3,0-.2,0-.5,1.7.1,1.7ZM69.3,74.1c-.2,0,0,0-.1,0-.3.6-.4,1.4-.7,2,1-.2,1.2-1.3.8-2.1ZM68.3,78c-.4-.2-1.3.9-1.2,1,.6,0,1.2-.5,1.2-1ZM64.4,80.1c.8,0,1.6-.4,1.4-1.3l-1.4,1.3ZM51.5,80.1c.4-.3-.3-.5-.6-.6s-.7-.5-.9-.6-.2.1,0,.3c.3.4,1.1,1.4,1.7,1ZM63,79.6l-1.8,1c.8,0,1.9,0,1.8-1ZM53.7,80.2l-1.9-.4c.2.8,1.4,1.3,2.1.9l-.2-.5ZM57.6,80.7c-.1.1.6.4.7.5.5,0,1,0,1.4-.3l.2-.7-2.2.6ZM54.7,80.3c.4,1,1.6,1.2,2.2.2-.6-.7-1.4-.3-2.2-.2Z"/>
    <path class="st1" d="M70.5,50.8l-1.7-1.3c-.7.3-1.2-.3-1.6-.7-.2,0-.4.3-.6.3-.7.2-1.1-.4-1.7-.7-.1,0-.3.3-.4.4-.7.5-1.3,0-2,0-1.6.3-3.1.7-4.6,1s-.8,0-1.3.2c-1.5.6-.7,2-1.5,2.9s-1,.7-1.4.7-.2,0-.1,0c.3-.9,1.2-1.7.8-2.7,0,0,0,0,0,0-.2,0-1,.6-1.1.8-.2.4.2,1.1.1,1.6s-.6,1-.7,1.6.4,1.6,0,2.4-.3.3-.3.5c0,.9.6,1.5.5,2.4s-.2.6,0,1.2c.6,1.3,2.6,2,2.9,2.9s0,.3,0,.4c.3.9,1,1.1,1.9,1l-1.6-1.1c.6-.2,1.4,0,1.8.5s.1.9.7,1.2,1.7.4,1.8.4l.5-.7.2,1.8c-.5,0-.6-.5-.8-.8-1.2,0-2.4-.2-3.5-.6-5.6-2.1-8.7-7.8-7-13.6s11.8-10.6,18-5.4c1.1.9,2.3,2.1,2.6,3.5ZM64.1,47.8c-.2-.9-1.6-1-1.9,0,.5.6,1.2.1,1.9,0ZM61.5,47.5c-.7-.4-2.1-.4-1.9.7.2.2,1.6-.5,1.8-.6s.1,0,.1-.1ZM66.6,48.1c-.2-.7-1.3-1.1-1.9-.7l.3.5,1.6.2ZM58.4,47.8c-.8-.1-1.7.2-1.5,1.2l1.5-1.2ZM66.7,48.1c.5,0,1.1.6,1.5.7s.1,0,.2,0c-.3-.5-1.3-1.6-1.7-.6ZM55.5,48.5c-.7,0-1.3.5-1.2,1.2,0,0,.3-.2.3-.2.2-.2.5-.5.7-.8s.1,0,.1-.2ZM52.2,50.6c.5,0,.9-.5,1-1-.4.2-.7.6-1,1ZM51.6,54l.6-1.8c-.5.3-.9.8-.8,1.4s0,.4.2.4ZM50.5,54.3c0-.3,0-.6,0-.9-.5.3-.3,1-.4,1.5.2.1.4-.5.4-.6ZM51.6,57.1v-2c-.6.4-.8.8-.5,1.5s.4.7.5.5ZM52,60.3l-.7-2c-.3.8,0,1.7.7,2Z"/>
    <path class="st1" d="M55.8,35.6c0,0-.3.1-.2.3,1.6,0,2.2,2.3.8,3.2s-3,.9-3.7,1-.2,0-.2,0l-1.5-6.2c1.1-.1,3-1,4-.7s1.4,1.6.7,2.4ZM52.8,36.1c.6-.2,2-.3,2.1-1,.2-1.4-1.7-.7-2.4-.6l.3,1.6ZM55.6,36.8c-.6-.5-1.8,0-2.5.2l.4,1.8c.6-.2,2-.2,2.3-.8s0-.9-.2-1.1Z"/>
    <path class="st1" d="M34.9,67.7c0,0-.5,0-.4.2,2.1,2,.5,5-2.2,5.2s-3.9-1.3-3.6-3.5.7-1.8,1.5-2l.6,1h0c-.9.6-1.1,1.6-.6,2.4.8,1.4,4,.9,4.2-.8s-.5-1.9-1.7-1.9l.2,1.6h-1.1c0,.1-.4-2.6-.4-2.6l3.4-.6.2,1Z"/>
    <path class="st1" d="M60.7,32.4h2.4c2.4.2,3.3,2.4,2.7,4.5-.7,2.4-2.7,2.1-4.8,2s-.7,0-.7-.1l.4-6.4ZM61.6,37.8c1.5,0,2.7.4,3-1.5s-.7-2.8-2.6-2.7h-.1c0,0-.3,4.2-.3,4.2Z"/>
    <path class="st1" d="M31,59.9c1.7-.2,3.6.6,4,2.4.6,3-2.8,4.7-5.2,3.3-2.5-1.5-1.7-5.4,1.2-5.7ZM31.6,61.1c-2.8,0-2.9,3.4-.2,3.7s2.2-.2,2.5-1.3c.4-1.5-.9-2.4-2.3-2.4Z"/>
    <path class="st1" d="M87.9,50.3c1.5,0,2.9,1,3.2,2.5.7,3.6-4.8,5.5-6.4,2.2-1.1-2.3.9-4.6,3.2-4.7ZM87.7,51.5c-3.2.4-2.7,4.7.5,3.7s2.2-4.1-.5-3.7Z"/>
    <path class="st1" d="M74.7,40.6c-.3,1,1.8,2.9,2.5,1.9s0-.8-.2-1.1c-.8-1-2.5-1.9-1.5-3.4s3.8-.5,4.5,1,.2.8.3,1.2h-1.3c.1-.9-1-2.2-2-1.9s.7,2,1.1,2.4c.6.7.9,1.6.3,2.5-1.5,2.1-5.3-.3-5-2.5h1.3Z"/>
    <polygon class="st1" points="93.1 69 92 69 92.1 65.6 90.7 65.5 90.5 68.6 89.5 68.5 89.6 65.4 88 65.4 87.7 68.9 86.6 68.9 86.9 64.1 93.3 64.4 93.1 69"/>
    <polygon class="st1" points="68.9 34.6 68.5 36 71.4 36.9 71.2 37.9 68.1 37.1 67.7 38.7 71.2 39.7 70.8 40.8 66.2 39.3 68 33.2 72.4 34.5 72.4 34.7 72.2 35.5 72 35.5 68.9 34.6"/>
    <path class="st1" d="M44.2,36.9l1.1-.5,1.9,4c.7,1,2.6.1,2.5-1l-2-4.3,1.1-.5c0,0,.1.2.2.2.4.7,2,3.8,2,4.4.2,2.2-3.4,3.9-4.7,1.9l-2.1-4.3Z"/>
    <path class="st1" d="M92.4,57.1l.2,1.2-4.5.8c-1.1.4-.8,2.5.4,2.6l4.5-.7.2,1.2-4.8.7c-2.4,0-3.1-4.3-.9-5.1l4.9-.8Z"/>
    <path class="st1" d="M39.3,43.5c-.6-.2-1.1-.4-1.7.1-1.9,1.5,1.1,4.7,2.9,3.4s.7-1.4.3-2.2l1.1-.6c1.2,2-.5,4.6-2.8,4.4s-3.2-1.7-3.4-3.2,1.9-4.1,3.9-3h0c0,.1-.5,1.1-.5,1.1Z"/>
    <path class="st1" d="M81.4,48.6c-.2.1-.8-.7-1-.9l.6-1.2c-.5-.4-1.1-1.2-1.6-1.6s0,0-.2,0l-1.1.6-.9-.9,6.1-3,1,1-3,6ZM83,43l-2.5,1.4v.2c0,0,1.1,1.1,1.1,1.1l1.4-2.6Z"/>
    <polygon class="st1" points="32.2 52.1 33.7 52.7 34.7 50.3 35.7 50.7 34.6 53.1 37 54.3 36.6 55.4 30.7 52.7 32.5 48.9 33.4 49.3 32.2 52.1"/>
    <polygon class="st1" points="86.8 45.3 87.4 46.4 83 49.4 84.4 51.4 83.6 52.1 81.5 49 86.8 45.3"/>
    <polygon class="st1" points="36.4 55.8 35.3 59.5 29.1 57.7 29.4 56.6 34.6 58 35.3 55.5 36.4 55.8"/>
    <path class="st1" d="M46.7,43l-3,2.2-3.9-5.1.9-.7,3.2,4.2,2-1.4c0,0,.6.6.7.7s0,.1,0,.2Z"/>
    <polygon class="st1" points="92.8 70.7 92.5 71.9 87.3 70.8 86.7 73.2 85.6 73 86.5 69.3 92.8 70.7"/>
    <path class="st1" d="M55.4,92.2l1,3.5,1.6-3.1h.5c0,0-.5,4-.5,4h-.4s.4-3.2.4-3.2l-1.6,2.9c0,0-.2,0-.3,0-.2,0-.6-3-.9-3.3l-.3,3.2h-.4c0,0,.6-4.1.6-4.1h.4Z"/>
    <path class="st1" d="M38.1,86.8l3.2-1.4.4.3-2.9,2.8-.2-.2,2.2-2.3-3.1,1.4-.2-.3,1.3-3.1-2.2,2.3c-.1,0-.3-.2-.3-.2,0-.2,2.5-2.5,2.8-2.8l.3.4-1.3,3.2Z"/>
    <path class="st1" d="M68,93.9c.4.3,1,.7,1.3,1.1s.3.2.3.2h-.5c0,.1-1.5-1.2-1.5-1.2h-.9c0,.1.4,1.9.4,1.9h-.4c0,0-.9-3.8-.9-3.8.7-.1,1.8-.6,2.5-.4s1,1.2.5,1.8-.5.2-.6.4ZM66.5,93.8c.7-.2,2.3-.2,1.9-1.3s-1.6-.2-2.2-.1l.4,1.5Z"/>
    <polygon class="st1" points="47.1 93.1 48.7 90.1 49 90.3 47.2 93.9 46.8 93.5 46.3 89.7 44.7 92.7 44.4 92.4 46.2 88.9 46.6 89.1 47.1 93.1"/>
    <path class="st1" d="M79.4,87.3c.8.8,1.2,2.2.3,3-1.8,1.6-4.5-1.8-2.7-3.3s1.7-.5,2.4.2ZM77.6,87.1c-.1,0-.4.2-.5.3-1.2,1,.6,3.6,2,2.9s0-3.4-1.5-3.1Z"/>
    <path class="st1" d="M71,90.4c1.9-.2,3,3,1.4,3.9-2.5,1.5-4.3-3.6-1.4-3.9ZM71,90.8c-2.2.2-.8,4.3,1.1,3.3s.2-3.4-1.1-3.3Z"/>
    <polygon class="st1" points="83.1 84.5 84.2 85.4 85.8 83.6 86.1 83.9 84.3 86 81.2 83.4 82.8 81.4 83.1 81.6 81.8 83.4 82.8 84.2 84.1 82.7 84.4 82.9 83.1 84.5"/>
    <polygon class="st1" points="45.4 88.8 43.5 87.6 42.7 88.8 44.4 89.8 44.2 90.2 42.5 89.1 41.7 90.3 43.6 91.6 43.4 91.9 41.2 90.4 43.4 87 45.6 88.5 45.4 88.8"/>
    <polygon class="st1" points="59.3 92.6 61.9 92.5 61.9 93 59.8 93 59.8 94.4 61.8 94.4 61.8 94.7 59.8 94.7 59.8 96.2 62.1 96.2 62.1 96.6 59.3 96.6 59.3 92.6"/>
    <path class="st1" d="M52.1,92.2h-.4c.1-.9-1.6-1.5-1.9-.6s1.5,1.2,1.7,2.1c.4,2-3.3,1.6-2.9-.3h.4s0,.2,0,.4c0,1.1,2.3,1.4,2.1,0s-2.1-1-1.6-2.3,2.7-.5,2.6.8Z"/>
    <path class="st1" d="M74.2,91.5l.8,1.6h-.2c0,.1-.2.2-.2.2l-1.9-3.5c0-.1,1.7-1,1.9-1.1.6-.2,1.1.1,1.3.7.5,1.2-1,1.6-1.8,2.1ZM74,91.1c.6-.4,2.4-.9,1.6-1.9s-1.6.3-2.2.5l.7,1.3Z"/>
    <path class="st1" d="M37.8,81.4s.2.3.2.3l-2.3,3.7-.3-.3.6-1.1-1.1-1.4-1.3.3-.2-.4c1.9-.5,3.8-1.1,4.2-1.1ZM37.4,81.8l-2,.6.9,1.2,1.1-1.8Z"/>
    <path class="st1" d="M62,78.3c-.4-1.1-.7-1.9.5-2.6s1.1-.5,1.6,0c0,0-.6.4-.7.5-.6.5-.7,1.4-1.3,2Z"/>
    <path class="st1" d="M67.2,71.2l-.3,2.7c-1.6,0-1.2-3.1.3-2.7Z"/>
    <path class="st1" d="M65.2,92.6l-1.2.2c.1,1.1.3,2.4.5,3.6,0,0-.3,0-.4,0l-.4-3.6h-1.3c0,.1,0-.2,0-.2l2.8-.4v.4Z"/>
    <polygon class="st1" points="79.3 85.4 81.7 87.9 83.3 86.5 83.6 86.7 81.7 88.5 79 85.7 79.3 85.4"/>
    <path class="st1" d="M57.8,50c0,.4.4.8.4,1.2,0,.8-1.4,1.8-2.1,1,.4-.3,1-.6,1.2-1s0-.9.5-1.2Z"/>
    <path class="st1" d="M64.7,71.9s-.1,0-.1,0c-.8.7-.9,1.6-.6,2.6-1.3-.2-1.3-2.1-.2-2.6s.6-.1.9-.2h0Z"/>
    <path class="st1" d="M67.7,70.3c-1.5.1-1.3-1.4-1.2-2.4s0-.1,0-.2l.6.3.5,2.2Z"/>
    <path class="st1" d="M53.6,56.4l.2-2.4c1.4,0,1.2,2.7-.2,2.4Z"/>
    <path class="st1" d="M67.8,66.8c-.9,0-2.1-1.2-1.6-2s.2-.3.5-.3c.4.1.4,1,.6,1.4s.6.9.6.9Z"/>
    <path class="st1" d="M58.8,78c-.1,0-.1,0-.2,0-1.1-1.1,1.1-2.7,2.1-1.6-.8.3-1.9.5-1.9,1.7Z"/>
    <path class="st1" d="M64.3,68.4l.3,2.5c-1.4,0-1.5-2.1-.3-2.5Z"/>
    <rect class="st1" x="39.3" y="87.7" width="4.1" height=".4" transform="translate(-53.1 65) rotate(-51.2)"/>
    <path class="st1" d="M56.4,53.4c.8,0,1,.7.8,1.4s-.7.9-1.3,1h0c.7-.7.7-1.5.5-2.4Z"/>
    <path class="st1" d="M54.3,59.4c-.2,0-.5,0-.6-.3s-.4-1.8-.3-1.9c1.2-.2,1,1.4.9,2.2Z"/>
    <path class="st1" d="M64.8,67.5c-.5,0-.9-.3-1.1-.8s.1-1.1.3-1.8l.8,2.6Z"/>
    <path class="st1" d="M53.3,60.3c.9-.1,2.2,1.2,1.3,2-.4.2-.6-.9-.7-1.2s-.4-.5-.6-.8Z"/>
    <path class="st1" d="M60.6,50.1c1.2.7-.5,2.4-1.4,1.6s-.2-.1,0-.2c.7-.2,1.4-.6,1.5-1.4Z"/>
    <path class="st1" d="M65.1,64.4c-.9.2-2.4-1.2-1.5-1.9l1.5,1.9Z"/>
    <path class="st1" d="M56.2,58.7l-.2-2.2c1,.2,1.3,1.9.2,2.2Z"/>
    <polygon class="st1" points="94.8 67 94.9 67.2 94.9 68.1 93.7 68.1 93.8 67 94.8 67"/>
    <path class="st1" d="M95,65.3v.9s0,0,0,.1h-1.1c0-.2,0-.2,0-.2v-.9h1s0,0,.2,0Z"/>
    <path class="st1" d="M57.3,76.4v.2s-2,.5-2,.5l-.2-.2c.6-.9,1.2-.7,2.2-.5Z"/>
    <path class="st1" d="M56.7,61.8c-.2,0,0,0-.1,0-.3-.6-.4-1.5-.7-2.2,1.3.1,1.1,1.3.9,2.2Z"/>
    <path class="st1" d="M55.9,62.3c.7-.2,2,1,1.3,1.6l-1.4-1.5h0Z"/>
    <path class="st1" d="M54,76.4s.2.3.2.3h-1.9c.3-.8,1.1-.9,1.7-.3Z"/>
    <path class="st1" d="M63.8,50.6c-.3.9-1.1,1.3-1.8.5,0-.1,0,0,.1,0,.6-.2,1.1-.3,1.7-.4Z"/>
    <path class="st1" d="M60.9,69.3v1.9c-.6-.4-.8-.9-.4-1.5s.3-.5.4-.4Z"/>
    <path class="st1" d="M48.1,76.2l-1.4-2.2c.9.3,1.4,1.3,1.4,2.2Z"/>
    <path class="st1" d="M49.6,76.7l-1.4-1.6c.9-.1,1.3.8,1.4,1.6Z"/>
    <path class="st1" d="M66.5,50.9c-.2.2-.4.5-.7.6s-1-.2-1.1-.3-.1,0-.1-.2c0,0,.1,0,.2,0h1.8Z"/>
    <path class="st1" d="M60.1,74.7h-.2c0-.3-.2-.6-.2-.9s.4-.9.5-.9c.1,0,0,.2,0,.3,0,.4-.2,1-.2,1.4Z"/>
    <path class="st1" d="M61.7,64.9c-.7-.1-1.6-.6-1.1-1.5l1.1,1.5Z"/>
    <path class="st1" d="M59.3,60.7l-.2-1.6c.8.2.9,1.2.2,1.6Z"/>
    <polygon class="st1" points="61.8 60.2 61.8 60.3 61.7 60.4 59.9 59.9 60 59.6 61.8 60.2"/>
    <path class="st1" d="M61.9,62.2c-.9.1-1.3-.1-1.5-1l1.5,1Z"/>
    <path class="st1" d="M59.2,56.1c.3,0,.5.5.5.8s-.3,1-.5.9c0-.1,0-.3,0-.4v-1.2Z"/>
    <path class="st1" d="M71.4,53c-.8-.3-1.2-1-1.3-1.9l1.3,1.9Z"/>
    <path class="st1" d="M51.7,76.9l-1.6-1c.6-.4,1,.2,1.4.6s.3.4.3.4Z"/>
    <path class="st1" d="M70,52c-.8.2-1.1-.6-1.2-1.3l1.2,1.3Z"/>
    <path class="st1" d="M59.5,54.4l.2-1.5c.6.4.5,1.2-.2,1.5Z"/>
    <polygon class="st1" points="60.5 65.9 60.4 66.3 58.9 65.9 58.9 65.6 60.5 65.9"/>
    <path class="st1" d="M59.9,63c-.2-.2-1.2-1.3-1.1-1.4.6.3,1.2.5,1.1,1.4Z"/>
    <path class="st1" d="M59.8,64.3c.1.1.3.4.3.6,0,0,0,.1,0,0-.2,0-.9-.5-1.1-.7s-.2,0-.1-.2c.4,0,.7,0,1,.2Z"/>
    <path class="st1" d="M68.4,51.4c0,.1,0,0,0,.1-.3.2-.5,0-.8-.2s-.6-.6-.6-.7l1.5.7Z"/>
    <path class="st1" d="M61.5,91.5c-.3.3-.7.8-1.2.7l.5-.7h.6Z"/>
  </g>
</svg>