<?xml version="1.0" encoding="utf-8"?>
<!-- Generator: Adobe Illustrator 28.2.0, SVG Export Plug-In . SVG Version: 6.00 Build 0)  -->
<svg version="1.1" id="Calque_1" xmlns="http://www.w3.org/2000/svg" xmlns:xlink="http://www.w3.org/1999/xlink" x="0px" y="0px"
	 viewBox="0 0 554 130" style="enable-background:new 0 0 554 130;" xml:space="preserve">
<style type="text/css">
	.st0{fill-rule:evenodd;clip-rule:evenodd;fill:#555D66;}
	.st1{fill:#555D66;}
</style>
<g>
	<g>
		<path class="st0" d="M525.6,73.4l-4.4-4.4c0.9-1.3,1.5-3,1.5-4.7c0-4.6-3.7-8.3-8.3-8.3c-4.6,0-8.3,3.7-8.3,8.3s3.7,8.3,8.3,8.3
			c1.8,0,3.4-0.5,4.7-1.5l4.4,4.4c0.3,0.3,0.7,0.4,1.1,0.4s0.8-0.1,1.1-0.4C526.1,75,526.1,74,525.6,73.4z M509,64.3
			c0-2.9,2.4-5.3,5.3-5.3c2.9,0,5.3,2.4,5.3,5.3c0,1.5-0.6,2.8-1.5,3.7l0,0l0,0c-1,1-2.3,1.6-3.7,1.6C511.4,69.6,509,67.3,509,64.3z
			"/>
		<path class="st0" d="M454.4,64h24v4h-24V64z"/>
		<path class="st0" d="M414.4,64h24v4h-24V64z"/>
		<path class="st0" d="M374.4,64h24v4h-24V64z"/>
		<path class="st0" d="M334.4,64h24v4h-24V64z"/>
	</g>
</g>
<path class="st1" d="M268,58h18v2h-18V58z"/>
<path class="st1" d="M268,64h18v2h-18V64z"/>
<path class="st1" d="M268,70h18v2h-18V70z"/>
<g>
	<path class="st1" d="M77.9,54.9h1.3l1.9,2.8h1.6l-2.2-3.1h0v-0.1l0.2-0.1c0.1,0,0.2-0.1,0.4-0.3c0.2-0.1,0.3-0.3,0.5-0.5
		c0.2-0.2,0.3-0.4,0.4-0.7c0.1-0.3,0.2-0.6,0.2-1c0-0.9-0.3-1.5-0.8-2.1c-0.6-0.5-1.3-0.8-2.3-0.8h-2.6v8.5h1.4V54.9z M77.9,50.5
		h1.2c0.5,0,0.9,0.1,1.2,0.4c0.3,0.3,0.4,0.7,0.4,1.2c0,0.5-0.1,0.9-0.4,1.2c-0.3,0.3-0.7,0.4-1.2,0.4h-1.2V50.5z"/>
	<polygon class="st1" points="88.4,48.6 86.9,48.6 86.1,50.8 87,50.8 	"/>
	<path class="st1" d="M86.6,51.5L86.6,51.5c-0.9,0-1.6,0.3-2.2,0.9c-0.6,0.6-0.9,1.4-0.9,2.3c0,0.9,0.3,1.7,0.9,2.3
		c0.6,0.6,1.4,0.9,2.3,0.9c0.3,0,0.6,0,0.9-0.1c0.3-0.1,0.5-0.1,0.7-0.2c0.2-0.1,0.3-0.1,0.5-0.2c0.2-0.1,0.3-0.1,0.3-0.2
		c0,0,0.1-0.1,0.1-0.1v-1.3H89L88.9,56c-0.1,0-0.1,0.1-0.3,0.2c-0.1,0.1-0.3,0.2-0.4,0.2c-0.2,0.1-0.4,0.1-0.6,0.2
		c-0.2,0.1-0.5,0.1-0.8,0.1c-0.6,0-1.1-0.2-1.5-0.5c-0.4-0.3-0.6-0.7-0.6-1.2h4.8v-0.4c0-0.9-0.3-1.7-0.8-2.2
		C88.2,51.8,87.5,51.5,86.6,51.5z M84.8,53.9c0.1-0.3,0.4-0.6,0.7-0.9c0.3-0.2,0.7-0.4,1.2-0.4l0,0c0.5,0,0.8,0.1,1.1,0.3
		c0.3,0.2,0.4,0.5,0.5,0.9H84.8z"/>
	<path class="st1" d="M92.1,56.8L92.1,56.8l0.1,0.1c0,0.1,0.1,0.2,0.2,0.3c0.1,0.1,0.2,0.2,0.4,0.3c0.2,0.1,0.4,0.2,0.6,0.3
		c0.2,0.1,0.5,0.1,0.8,0.1c0.8,0,1.5-0.3,2.1-0.9c0.6-0.6,0.9-1.4,0.9-2.3c0-0.9-0.3-1.7-0.9-2.3v0c-0.6-0.6-1.3-0.9-2.1-0.9
		c-0.3,0-0.5,0-0.8,0.1c-0.3,0.1-0.4,0.2-0.6,0.3c-0.1,0.1-0.3,0.2-0.4,0.3c-0.1,0.1-0.2,0.2-0.2,0.3c0,0.1-0.1,0.1-0.1,0.1h-0.1
		l-0.1-0.9h-1.3v8.6h1.3V56.8z M92.6,53.3c0.4-0.4,0.8-0.6,1.3-0.6c0.5,0,1,0.2,1.3,0.6c0.4,0.4,0.5,0.8,0.5,1.4
		c0,0.6-0.2,1-0.5,1.4c-0.4,0.4-0.8,0.6-1.3,0.6c-0.5,0-1-0.2-1.3-0.6c-0.4-0.4-0.5-0.8-0.5-1.4C92.1,54.1,92.3,53.6,92.6,53.3z"/>
	<path class="st1" d="M101.4,57.9c0.3,0,0.6,0,0.9-0.1c0.3-0.1,0.5-0.1,0.7-0.2c0.2-0.1,0.3-0.1,0.5-0.2c0.2-0.1,0.3-0.1,0.3-0.2
		c0,0,0.1-0.1,0.1-0.1v-1.3h-0.2l-0.1,0.1c-0.1,0-0.1,0.1-0.3,0.2c-0.1,0.1-0.3,0.2-0.4,0.2c-0.2,0.1-0.4,0.1-0.6,0.2
		c-0.2,0.1-0.5,0.1-0.8,0.1c-0.6,0-1.1-0.2-1.5-0.5c-0.4-0.3-0.6-0.7-0.6-1.2h4.8v-0.4c0-0.9-0.3-1.7-0.8-2.2
		c-0.5-0.5-1.3-0.8-2.2-0.8v0c-0.9,0-1.6,0.3-2.2,0.9c-0.6,0.6-0.9,1.4-0.9,2.3c0,0.9,0.3,1.7,0.9,2.3
		C99.7,57.6,100.4,57.9,101.4,57.9z M100.2,53.1c0.3-0.2,0.7-0.4,1.2-0.4l0,0c0.5,0,0.8,0.1,1.1,0.3c0.3,0.2,0.4,0.5,0.5,0.9h-3.5
		C99.6,53.6,99.8,53.3,100.2,53.1z"/>
	<path class="st1" d="M106.7,54l0.1-0.1c0-0.1,0.1-0.2,0.2-0.3c0.1-0.1,0.2-0.2,0.3-0.4c0.1-0.1,0.3-0.2,0.5-0.3
		c0.2-0.1,0.4-0.1,0.5-0.1l0,0c0.3,0,0.5,0,0.7,0.1c0.2,0.1,0.3,0.1,0.4,0.2c0.1,0,0.1,0.1,0.1,0.1l0.3-1.2l-0.1-0.1
		c-0.1-0.1-0.3-0.2-0.5-0.2s-0.5-0.1-0.7-0.1c-0.2,0-0.4,0-0.6,0.1c-0.2,0.1-0.4,0.2-0.5,0.3c-0.1,0.1-0.2,0.2-0.3,0.3
		c-0.1,0.1-0.2,0.2-0.2,0.3c0,0.1,0,0.1-0.1,0.1h-0.1l-0.1-0.9h-1.3v6h1.3V54z"/>
	<path class="st1" d="M111,55.7c0,0.7,0.2,1.2,0.5,1.6c0.4,0.4,0.8,0.6,1.4,0.6c0.3,0,0.5,0,0.8-0.1c0.3-0.1,0.4-0.2,0.5-0.2
		c0.1-0.1,0.1-0.1,0.2-0.1v-1.2h-0.2l-0.1,0.1c-0.1,0.1-0.2,0.2-0.4,0.2c-0.2,0.1-0.3,0.1-0.5,0.1c-0.3,0-0.5-0.1-0.7-0.3
		c-0.2-0.2-0.3-0.4-0.3-0.8v-2.7h1.9v-1.2h-1.9v-1.8h-0.1l-2.4,2.6v0.5h1.1V55.7z"/>
	<path class="st1" d="M118.4,57.9c1,0,1.7-0.3,2.4-0.9c0.6-0.6,0.9-1.4,0.9-2.3c0-0.9-0.3-1.7-0.9-2.3c-0.6-0.6-1.4-0.9-2.4-0.9
		s-1.7,0.3-2.4,0.9c-0.6,0.6-0.9,1.4-0.9,2.3c0,0.9,0.3,1.7,0.9,2.3C116.7,57.6,117.4,57.9,118.4,57.9z M117,53.3
		c0.4-0.4,0.8-0.6,1.4-0.6c0.6,0,1,0.2,1.4,0.6c0.4,0.4,0.5,0.8,0.5,1.4c0,0.6-0.2,1.1-0.5,1.4c-0.4,0.4-0.8,0.6-1.4,0.6
		c-0.6,0-1-0.2-1.4-0.6c-0.4-0.4-0.5-0.8-0.5-1.4C116.5,54.1,116.7,53.6,117,53.3z"/>
	<path class="st1" d="M123.9,51.7c-0.1,0-0.2,0-0.3,0c-0.2,0-0.5,0-0.7-0.1v6.1h1.3v-6.1l-0.1,0C124.1,51.7,124,51.7,123.9,51.7z"/>
	<path class="st1" d="M123.6,48.9c-0.2,0-0.4,0.1-0.6,0.2c-0.1,0.1-0.2,0.3-0.2,0.6c0,0.2,0.1,0.4,0.2,0.6c0.1,0.1,0.3,0.2,0.6,0.2
		c0.2,0,0.4-0.1,0.6-0.2c0.2-0.1,0.2-0.3,0.2-0.6c0-0.2-0.1-0.4-0.2-0.6C124,48.9,123.8,48.9,123.6,48.9z"/>
	<path class="st1" d="M128.7,52.7c0.3,0,0.5,0,0.7,0.1c0.2,0.1,0.3,0.1,0.4,0.2c0.1,0,0.1,0.1,0.1,0.1l0.3-1.2l-0.1-0.1
		c-0.1-0.1-0.3-0.2-0.5-0.2c-0.2-0.1-0.5-0.1-0.7-0.1c-0.2,0-0.4,0-0.6,0.1c-0.2,0.1-0.4,0.2-0.5,0.3c-0.1,0.1-0.2,0.2-0.3,0.3
		c-0.1,0.1-0.2,0.2-0.2,0.3c0,0.1,0,0.1-0.1,0.1h-0.1l-0.1-0.9h-1.3v6h1.3V54l0.1-0.1c0-0.1,0.1-0.2,0.2-0.3
		c0.1-0.1,0.2-0.2,0.3-0.4c0.1-0.1,0.3-0.2,0.5-0.3C128.4,52.8,128.6,52.7,128.7,52.7L128.7,52.7z"/>
	<path class="st1" d="M133.7,57.9c0.3,0,0.6,0,0.9-0.1c0.3-0.1,0.5-0.1,0.7-0.2c0.2-0.1,0.3-0.1,0.5-0.2c0.2-0.1,0.3-0.1,0.3-0.2
		c0,0,0.1-0.1,0.1-0.1v-1.3H136l-0.1,0.1c-0.1,0-0.1,0.1-0.3,0.2c-0.1,0.1-0.3,0.2-0.4,0.2c-0.2,0.1-0.4,0.1-0.6,0.2
		c-0.2,0.1-0.5,0.1-0.8,0.1c-0.6,0-1.1-0.2-1.5-0.5c-0.4-0.3-0.6-0.7-0.6-1.2h4.8v-0.4c0-0.9-0.3-1.7-0.8-2.2
		c-0.5-0.5-1.3-0.8-2.2-0.8l0,0c-0.9,0-1.6,0.3-2.2,0.9c-0.6,0.6-0.9,1.4-0.9,2.3c0,0.9,0.3,1.7,0.9,2.3
		C131.9,57.6,132.7,57.9,133.7,57.9z M132.4,53.1c0.3-0.2,0.7-0.4,1.2-0.4l0,0c0.5,0,0.8,0.1,1.1,0.3c0.3,0.2,0.4,0.5,0.5,0.9h-3.5
		C131.9,53.6,132.1,53.3,132.4,53.1z"/>
	<path class="st1" d="M76.9,68.6c0.6,0.6,1.3,0.9,2.1,0.9c0.3,0,0.6,0,0.8-0.1c0.3-0.1,0.5-0.2,0.6-0.3c0.2-0.1,0.3-0.2,0.4-0.3
		c0.1-0.1,0.2-0.2,0.2-0.3c0-0.1,0.1-0.1,0.1-0.1h0.1l0.1,1h0.9v-8.8h-1v3.8h-0.1l-0.1-0.1c0-0.1-0.1-0.2-0.2-0.3
		c-0.1-0.1-0.2-0.2-0.4-0.3c-0.2-0.1-0.4-0.2-0.6-0.3c-0.3-0.1-0.5-0.1-0.8-0.1c-0.8,0-1.5,0.3-2.1,0.9c-0.6,0.6-0.9,1.4-0.9,2.3
		C76.1,67.2,76.3,68,76.9,68.6L76.9,68.6z M77.7,64.7c0.4-0.4,0.9-0.6,1.5-0.6c0.6,0,1.1,0.2,1.5,0.6c0.4,0.4,0.6,1,0.6,1.6
		c0,0.7-0.2,1.2-0.6,1.6c-0.4,0.4-0.9,0.6-1.5,0.6c-0.6,0-1.1-0.2-1.5-0.6c-0.4-0.4-0.6-1-0.6-1.6C77,65.7,77.2,65.1,77.7,64.7z"/>
	<path class="st1" d="M86.6,63.1c-0.9,0-1.6,0.3-2.2,0.9l0,0c-0.6,0.6-0.9,1.4-0.9,2.3c0,0.9,0.3,1.7,0.9,2.3
		c0.6,0.6,1.3,0.9,2.3,0.9c0.3,0,0.6,0,0.9-0.1c0.3-0.1,0.5-0.1,0.7-0.2c0.2-0.1,0.3-0.1,0.5-0.2c0.1-0.1,0.2-0.1,0.3-0.2
		c0,0,0.1-0.1,0.1-0.1v-1H89L88.8,68c-0.1,0.1-0.4,0.3-0.8,0.4c-0.4,0.1-0.8,0.2-1.2,0.2c-0.6,0-1.1-0.2-1.6-0.6
		c-0.4-0.4-0.6-0.9-0.7-1.5h5v-0.3c0-0.9-0.3-1.7-0.8-2.2C88.2,63.4,87.5,63.1,86.6,63.1z M84.7,65.6c0.1-0.4,0.4-0.8,0.7-1.1
		c0.3-0.3,0.8-0.4,1.3-0.4c0.5,0,0.9,0.1,1.3,0.4c0.3,0.3,0.5,0.6,0.6,1.1H84.7z"/>
	<path class="st1" d="M92.7,68.6c-0.2,0-0.5,0-0.7-0.1c-0.2-0.1-0.4-0.1-0.6-0.2c-0.2-0.1-0.3-0.1-0.4-0.2c-0.1-0.1-0.2-0.1-0.3-0.2
		c0,0-0.1-0.1-0.1-0.1l-0.2,0.9l0.3,0.2c0.2,0.1,0.4,0.3,0.8,0.4c0.4,0.1,0.8,0.2,1.2,0.2c0.8,0,1.4-0.2,1.8-0.5
		c0.4-0.3,0.6-0.8,0.6-1.4l0,0c0-0.4-0.1-0.8-0.4-1c-0.2-0.3-0.5-0.5-0.9-0.6c-0.4-0.1-0.7-0.2-1.1-0.3c-0.4-0.1-0.7-0.2-0.9-0.3
		c-0.2-0.1-0.4-0.3-0.4-0.5c0-0.2,0.1-0.4,0.3-0.6c0.2-0.2,0.5-0.2,0.8-0.2c0.4,0,0.7,0.1,1,0.2c0.3,0.1,0.5,0.3,0.6,0.3
		c0.1,0.1,0.2,0.2,0.2,0.2l0.4-0.8l-0.1-0.1c-0.1-0.1-0.1-0.1-0.3-0.2c-0.1-0.1-0.3-0.2-0.4-0.3c-0.2-0.1-0.4-0.2-0.6-0.2
		c-0.3-0.1-0.5-0.1-0.8-0.1c-0.7,0-1.2,0.2-1.5,0.5c-0.4,0.3-0.6,0.7-0.6,1.2c0,0.4,0.1,0.7,0.4,1c0.2,0.3,0.5,0.5,0.9,0.6
		c0.4,0.1,0.7,0.2,1.1,0.3c0.4,0.1,0.7,0.2,0.9,0.4c0.2,0.2,0.4,0.4,0.4,0.6C94.1,68.3,93.6,68.6,92.7,68.6z"/>
	<path class="st1" d="M103.5,67.6L103.5,67.6c0-0.4-0.1-0.8-0.3-1.1c-0.2-0.3-0.5-0.5-0.8-0.6c-0.3-0.1-0.6-0.2-1-0.3
		c-0.3-0.1-0.6-0.2-0.8-0.2c-0.2-0.1-0.3-0.2-0.3-0.3c0-0.2,0.1-0.3,0.2-0.4c0.2-0.1,0.4-0.1,0.6-0.1c0.3,0,0.6,0.1,0.9,0.2
		c0.3,0.1,0.4,0.2,0.5,0.3c0.1,0.1,0.1,0.1,0.2,0.2l0.6-1.2l-0.1-0.1c-0.1-0.1-0.2-0.1-0.3-0.2c-0.1-0.1-0.3-0.2-0.5-0.3
		c-0.2-0.1-0.4-0.2-0.7-0.2c-0.3-0.1-0.6-0.1-0.9-0.1c-0.7,0-1.3,0.2-1.7,0.5c-0.4,0.4-0.6,0.8-0.6,1.3c0,0.4,0.1,0.7,0.2,0.9
		c0.2,0.3,0.4,0.5,0.6,0.6c0.2,0.1,0.5,0.2,0.8,0.3c0.3,0.1,0.5,0.2,0.8,0.2c0.2,0.1,0.4,0.1,0.6,0.2c0.2,0.1,0.2,0.2,0.2,0.4
		c0,0.3-0.3,0.5-1,0.5c-0.4,0-0.7-0.1-1.1-0.2c-0.3-0.1-0.6-0.2-0.7-0.3c-0.1-0.1-0.2-0.1-0.2-0.2l-0.3,1.3l0.3,0.2
		c0.2,0.1,0.5,0.3,0.8,0.4c0.4,0.1,0.8,0.2,1.3,0.2c0.9,0,1.6-0.2,2-0.5C103.3,68.6,103.5,68.2,103.5,67.6z"/>
	<path class="st1" d="M107.2,63L107.2,63c-0.5,0-0.9,0.1-1.4,0.2c-0.5,0.2-0.8,0.3-0.9,0.4c-0.1,0.1-0.2,0.2-0.3,0.2v1.5h0.2
		l0.2-0.2c0.2-0.1,0.4-0.3,0.8-0.4c0.4-0.1,0.8-0.2,1.2-0.2c0.9,0,1.3,0.4,1.3,1.2v0.5l-0.2-0.1c-0.1-0.1-0.3-0.1-0.6-0.2
		c-0.3-0.1-0.6-0.1-0.9-0.1c-0.8,0-1.3,0.2-1.8,0.5c-0.4,0.4-0.6,0.8-0.6,1.4c0,0.5,0.2,1,0.6,1.3c0.4,0.4,0.9,0.5,1.5,0.5
		c0.3,0,0.5,0,0.8-0.1c0.2-0.1,0.4-0.2,0.5-0.2c0.1-0.1,0.2-0.2,0.3-0.3c0.1-0.1,0.2-0.2,0.2-0.2c0,0,0-0.1,0.1-0.1h0.1l0.1,0.9h1.6
		v-3.9c0-0.8-0.2-1.4-0.7-1.8C108.8,63.2,108.1,63,107.2,63z M108.2,67.3c-0.1,0.2-0.2,0.4-0.4,0.6c-0.2,0.2-0.5,0.3-0.9,0.3l0,0
		c-0.2,0-0.4-0.1-0.6-0.2c-0.2-0.1-0.2-0.3-0.2-0.5c0-0.2,0.1-0.4,0.3-0.6c0.2-0.1,0.4-0.2,0.7-0.2c0.5,0,0.9,0.1,1.2,0.3
		L108.2,67.3z"/>
	<polygon class="st1" points="113.8,66.9 113.7,66.9 112.2,63.2 112.2,63.2 110.4,63.2 113,69.3 114.5,69.3 117.2,63.2 115.4,63.2 	
		"/>
	<path class="st1" d="M120.8,63c-1,0-1.9,0.3-2.5,0.9c-0.6,0.6-0.9,1.4-0.9,2.3c0,0.9,0.3,1.7,0.9,2.3c0.6,0.6,1.5,0.9,2.5,0.9
		c1,0,1.9-0.3,2.5-0.9c0.6-0.6,0.9-1.4,0.9-2.3c0-0.9-0.3-1.7-0.9-2.3C122.6,63.3,121.8,63,120.8,63z M122,67.5
		c-0.3,0.3-0.7,0.5-1.2,0.5s-0.9-0.2-1.2-0.5c-0.3-0.3-0.5-0.7-0.5-1.3c0-0.5,0.2-0.9,0.5-1.3c0.3-0.3,0.7-0.5,1.2-0.5
		s0.9,0.2,1.2,0.5c0.3,0.3,0.5,0.7,0.5,1.3C122.5,66.8,122.3,67.2,122,67.5z"/>
	<path class="st1" d="M126.2,60.4c-0.3,0-0.5,0.1-0.7,0.2c-0.2,0.2-0.3,0.4-0.3,0.7s0.1,0.5,0.3,0.7c0.2,0.2,0.4,0.3,0.7,0.3
		c0.3,0,0.5-0.1,0.7-0.3c0.2-0.2,0.3-0.4,0.3-0.7c0-0.3-0.1-0.5-0.3-0.7C126.7,60.5,126.4,60.4,126.2,60.4z"/>
	<path class="st1" d="M126.6,63.2c-0.1,0-0.3,0-0.4,0c-0.3,0-0.6,0-0.8-0.1v6.2h1.7v-6.2l-0.1,0C126.8,63.2,126.7,63.2,126.6,63.2z"
		/>
	<path class="st1" d="M132.5,63.1c-0.2-0.1-0.4-0.1-0.7-0.1c-0.2,0-0.4,0-0.6,0.1c-0.2,0.1-0.3,0.2-0.5,0.3
		c-0.1,0.1-0.2,0.2-0.3,0.3c-0.1,0.1-0.2,0.2-0.2,0.3c0,0.1,0,0.1-0.1,0.1h-0.1l-0.1-0.9h-1.6v6.2h1.7v-3.7l0.1-0.1
		c0-0.1,0.1-0.2,0.2-0.3c0.1-0.1,0.2-0.2,0.3-0.3c0.1-0.1,0.3-0.2,0.4-0.3c0.2-0.1,0.3-0.1,0.5-0.1l0,0c0.5,0,0.9,0.1,1.1,0.4
		l0.3-1.3l-0.1-0.1C132.8,63.3,132.7,63.2,132.5,63.1z"/>
	<rect x="133.4" y="64.8" class="st1" width="4" height="1.5"/>
	<path class="st1" d="M140.8,61.8c0.2-0.2,0.4-0.2,0.6-0.2c0.4,0,0.7,0.1,0.8,0.3l0.5-1.2l-0.2-0.1c-0.1-0.1-0.3-0.2-0.6-0.3
		c-0.3-0.1-0.6-0.1-0.9-0.1c-0.7,0-1.2,0.2-1.6,0.6c-0.4,0.4-0.6,1-0.6,1.7v0.8h-1v1.5h1v4.7h1.7v-4.7h1.9v-1.5h-1.9v-0.7
		C140.6,62.2,140.7,61.9,140.8,61.8z"/>
	<path class="st1" d="M146.1,63L146.1,63c-0.5,0-0.9,0.1-1.4,0.2c-0.5,0.2-0.8,0.3-0.9,0.4c-0.1,0.1-0.2,0.2-0.3,0.2v1.5h0.2
		l0.2-0.2c0.2-0.1,0.4-0.3,0.8-0.4c0.4-0.1,0.8-0.2,1.2-0.2c0.9,0,1.3,0.4,1.3,1.2v0.5L147,66c-0.1-0.1-0.3-0.1-0.6-0.2
		c-0.3-0.1-0.6-0.1-0.9-0.1c-0.8,0-1.3,0.2-1.8,0.5c-0.4,0.4-0.6,0.8-0.6,1.4c0,0.5,0.2,1,0.6,1.3c0.4,0.4,0.9,0.5,1.5,0.5
		c0.3,0,0.5,0,0.8-0.1c0.2-0.1,0.4-0.2,0.5-0.2c0.1-0.1,0.2-0.2,0.3-0.3c0.1-0.1,0.2-0.2,0.2-0.2c0,0,0-0.1,0.1-0.1h0.1l0.1,0.9h1.6
		v-3.9c0-0.8-0.2-1.4-0.7-1.8C147.7,63.2,147,63,146.1,63z M147.1,67.3c-0.1,0.2-0.2,0.4-0.4,0.6c-0.2,0.2-0.5,0.3-0.9,0.3l0,0
		c-0.2,0-0.4-0.1-0.6-0.2c-0.2-0.1-0.2-0.3-0.2-0.5c0-0.2,0.1-0.4,0.3-0.6c0.2-0.1,0.4-0.2,0.7-0.2c0.5,0,0.9,0.1,1.2,0.3
		L147.1,67.3z"/>
	<path class="st1" d="M151.5,63.2c-0.1,0-0.3,0-0.4,0c-0.3,0-0.6,0-0.8-0.1v6.2h1.7v-6.2l-0.1,0C151.7,63.2,151.6,63.2,151.5,63.2z"
		/>
	<path class="st1" d="M151,60.4c-0.3,0-0.5,0.1-0.7,0.2c-0.2,0.2-0.3,0.4-0.3,0.7s0.1,0.5,0.3,0.7c0.2,0.2,0.4,0.3,0.7,0.3
		c0.3,0,0.5-0.1,0.7-0.3c0.2-0.2,0.3-0.4,0.3-0.7c0-0.3-0.1-0.5-0.3-0.7C151.6,60.5,151.3,60.4,151,60.4z"/>
	<path class="st1" d="M157.4,63.1c-0.2-0.1-0.4-0.1-0.7-0.1c-0.2,0-0.4,0-0.6,0.1c-0.2,0.1-0.3,0.2-0.5,0.3
		c-0.1,0.1-0.2,0.2-0.3,0.3c-0.1,0.1-0.2,0.2-0.2,0.3c0,0.1,0,0.1-0.1,0.1H155l-0.1-0.9h-1.6v6.2h1.7v-3.7l0.1-0.1
		c0-0.1,0.1-0.2,0.2-0.3c0.1-0.1,0.2-0.2,0.3-0.3c0.1-0.1,0.3-0.2,0.4-0.3c0.2-0.1,0.3-0.1,0.5-0.1l0,0c0.5,0,0.9,0.1,1.1,0.4
		l0.3-1.3l-0.1-0.1C157.7,63.3,157.6,63.2,157.4,63.1z"/>
	<path class="st1" d="M164.4,66.1c0-1-0.3-1.8-0.8-2.3s-1.3-0.8-2.2-0.8l0,0c-0.9,0-1.7,0.3-2.3,0.9c-0.6,0.6-0.9,1.4-0.9,2.3
		c0,1,0.3,1.7,0.9,2.3c0.6,0.6,1.4,0.9,2.4,0.9c0.5,0,0.9-0.1,1.3-0.2c0.4-0.1,0.7-0.2,0.8-0.3c0.1-0.1,0.2-0.1,0.3-0.2v-1.5h-0.2
		l-0.2,0.2c-0.1,0.1-0.4,0.2-0.7,0.3c-0.4,0.1-0.8,0.2-1.2,0.2c-0.6,0-1-0.1-1.3-0.4c-0.3-0.3-0.5-0.6-0.6-1h4.7V66.1z M159.7,65.5
		c0.1-0.3,0.3-0.5,0.6-0.7c0.3-0.2,0.7-0.3,1.2-0.3c0.4,0,0.7,0.1,1,0.3c0.2,0.2,0.4,0.5,0.4,0.7H159.7z"/>
	<path class="st1" d="M80,74.6c-0.3,0-0.5,0-0.8,0.1c-0.2,0.1-0.4,0.2-0.6,0.3c-0.1,0.1-0.3,0.2-0.4,0.3c-0.1,0.1-0.2,0.2-0.2,0.2
		c0,0-0.1,0.1-0.1,0.1h-0.1l-0.1-0.9h-1.6v8.7h1.7v-3.4H78l0.1,0.1c0,0.1,0.1,0.2,0.2,0.3c0.1,0.1,0.2,0.2,0.4,0.3S79,81,79.2,81
		c0.2,0.1,0.5,0.1,0.8,0.1c0.8,0,1.5-0.3,2.1-0.9c0.6-0.6,0.9-1.4,0.9-2.3c0-0.9-0.3-1.7-0.9-2.3C81.5,74.9,80.8,74.6,80,74.6z
		 M80.7,79.1c-0.3,0.3-0.7,0.5-1.2,0.5c-0.4,0-0.8-0.2-1.2-0.5c-0.3-0.3-0.5-0.7-0.5-1.3c0-0.5,0.2-0.9,0.5-1.3
		c0.3-0.3,0.7-0.5,1.2-0.5c0.5,0,0.9,0.2,1.2,0.5c0.3,0.3,0.5,0.7,0.5,1.3C81.2,78.4,81.1,78.8,80.7,79.1z"/>
	<path class="st1" d="M86.8,74.6L86.8,74.6c-0.5,0-0.9,0.1-1.4,0.2c-0.5,0.2-0.8,0.3-0.9,0.4c-0.1,0.1-0.2,0.2-0.3,0.2v1.5h0.2
		l0.2-0.2c0.2-0.1,0.4-0.3,0.8-0.4c0.4-0.1,0.8-0.2,1.2-0.2c0.9,0,1.3,0.4,1.3,1.2v0.5l-0.2-0.1c-0.1-0.1-0.3-0.1-0.6-0.2
		c-0.3-0.1-0.6-0.1-0.9-0.1c-0.8,0-1.3,0.2-1.8,0.5c-0.4,0.4-0.6,0.8-0.6,1.4c0,0.5,0.2,1,0.6,1.3c0.4,0.4,0.9,0.5,1.5,0.5
		c0.3,0,0.5,0,0.8-0.1c0.2-0.1,0.4-0.2,0.5-0.2c0.1-0.1,0.2-0.2,0.3-0.3c0.1-0.1,0.2-0.2,0.2-0.2c0,0,0-0.1,0.1-0.1h0.1l0.1,0.9h1.6
		v-3.9c0-0.8-0.2-1.4-0.7-1.8C88.4,74.8,87.7,74.6,86.8,74.6z M87.8,78.9c-0.1,0.2-0.2,0.4-0.4,0.6c-0.2,0.2-0.5,0.3-0.9,0.3l0,0
		c-0.2,0-0.4-0.1-0.6-0.2c-0.2-0.1-0.2-0.3-0.2-0.5c0-0.2,0.1-0.4,0.3-0.6c0.2-0.1,0.4-0.2,0.7-0.2c0.5,0,0.9,0.1,1.2,0.3L87.8,78.9
		z"/>
	<polygon class="st1" points="93.5,78.8 93.4,78.8 91.8,74.8 90,74.8 92.6,80.9 91.6,83.5 93.3,83.5 96.8,74.8 95,74.8 	"/>
	<path class="st1" d="M101.8,78.1c-0.2-0.3-0.5-0.5-0.8-0.6c-0.3-0.1-0.6-0.2-1-0.3c-0.3-0.1-0.6-0.2-0.8-0.2
		c-0.2-0.1-0.3-0.2-0.3-0.3c0-0.2,0.1-0.3,0.2-0.4c0.2-0.1,0.4-0.1,0.6-0.1c0.3,0,0.6,0.1,0.9,0.2c0.3,0.1,0.4,0.2,0.5,0.3
		c0.1,0.1,0.1,0.1,0.2,0.2l0.6-1.2l-0.1-0.1c-0.1-0.1-0.2-0.1-0.3-0.2c-0.1-0.1-0.3-0.2-0.5-0.3c-0.2-0.1-0.4-0.2-0.7-0.2
		c-0.3-0.1-0.6-0.1-0.9-0.1c-0.7,0-1.3,0.2-1.7,0.5c-0.4,0.4-0.6,0.8-0.6,1.3c0,0.4,0.1,0.7,0.2,0.9c0.2,0.3,0.4,0.5,0.6,0.6
		c0.2,0.1,0.5,0.2,0.8,0.3c0.3,0.1,0.5,0.2,0.8,0.2c0.2,0.1,0.4,0.1,0.6,0.2c0.2,0.1,0.2,0.2,0.2,0.4c0,0.3-0.3,0.5-1,0.5
		c-0.4,0-0.7-0.1-1.1-0.2c-0.3-0.1-0.6-0.2-0.7-0.3c-0.1-0.1-0.2-0.1-0.2-0.2l-0.3,1.3l0.3,0.2c0.2,0.1,0.5,0.3,0.8,0.4
		c0.4,0.1,0.8,0.2,1.3,0.2c0.9,0,1.6-0.2,2-0.5c0.4-0.3,0.7-0.8,0.7-1.4l0,0C102.2,78.8,102.1,78.4,101.8,78.1z"/>
	<path class="st1" d="M105.8,74.6L105.8,74.6c-0.5,0-0.9,0.1-1.4,0.2c-0.5,0.2-0.8,0.3-0.9,0.4c-0.1,0.1-0.2,0.2-0.3,0.2v1.5h0.2
		l0.2-0.2c0.2-0.1,0.4-0.3,0.8-0.4c0.4-0.1,0.8-0.2,1.2-0.2c0.9,0,1.3,0.4,1.3,1.2v0.5l-0.2-0.1c-0.1-0.1-0.3-0.1-0.6-0.2
		c-0.3-0.1-0.6-0.1-0.9-0.1c-0.8,0-1.3,0.2-1.8,0.5c-0.4,0.4-0.6,0.8-0.6,1.4c0,0.5,0.2,1,0.6,1.3c0.4,0.4,0.9,0.5,1.5,0.5
		c0.3,0,0.5,0,0.8-0.1c0.2-0.1,0.4-0.2,0.5-0.2c0.1-0.1,0.2-0.2,0.3-0.3c0.1-0.1,0.2-0.2,0.2-0.2c0,0,0-0.1,0.1-0.1h0.1L107,81h1.6
		v-3.9c0-0.8-0.2-1.4-0.7-1.8C107.4,74.8,106.7,74.6,105.8,74.6z M106.8,78.9c-0.1,0.2-0.2,0.4-0.4,0.6c-0.2,0.2-0.5,0.3-0.9,0.3
		l0,0c-0.2,0-0.4-0.1-0.6-0.2c-0.2-0.1-0.2-0.3-0.2-0.5c0-0.2,0.1-0.4,0.3-0.6c0.2-0.1,0.4-0.2,0.7-0.2c0.5,0,0.9,0.1,1.2,0.3
		L106.8,78.9z"/>
	<path class="st1" d="M115.4,75.3c-0.4-0.4-1-0.7-1.7-0.7c-0.3,0-0.5,0-0.7,0.1c-0.2,0.1-0.4,0.2-0.5,0.3c-0.1,0.1-0.3,0.2-0.4,0.3
		c-0.1,0.1-0.2,0.2-0.2,0.2c0,0,0,0.1-0.1,0.1h-0.1l-0.1-0.9H110V81h1.7v-3.3c0-0.5,0.1-0.8,0.4-1.1c0.3-0.3,0.6-0.4,1.1-0.4
		c0.4,0,0.6,0.1,0.8,0.3c0.2,0.2,0.3,0.5,0.3,0.9V81h1.7v-3.8C116,76.4,115.8,75.7,115.4,75.3z"/>
	<polygon class="st1" points="116,81 116,81 116,81 	"/>
	<path class="st1" d="M121.7,78.1c-0.2-0.3-0.5-0.5-0.8-0.6c-0.3-0.1-0.6-0.2-1-0.3c-0.3-0.1-0.6-0.2-0.8-0.2
		c-0.2-0.1-0.3-0.2-0.3-0.3c0-0.2,0.1-0.3,0.2-0.4c0.2-0.1,0.4-0.1,0.6-0.1c0.3,0,0.6,0.1,0.9,0.2c0.3,0.1,0.4,0.2,0.5,0.3
		c0.1,0.1,0.1,0.1,0.2,0.2l0.6-1.2l-0.1-0.1c-0.1-0.1-0.2-0.1-0.3-0.2c-0.1-0.1-0.3-0.2-0.5-0.3c-0.2-0.1-0.4-0.2-0.7-0.2
		c-0.3-0.1-0.6-0.1-0.9-0.1c-0.7,0-1.3,0.2-1.7,0.5c-0.4,0.4-0.6,0.8-0.6,1.3c0,0.4,0.1,0.7,0.2,0.9c0.2,0.3,0.4,0.5,0.6,0.6
		c0.2,0.1,0.5,0.2,0.8,0.3c0.3,0.1,0.5,0.2,0.8,0.2c0.2,0.1,0.4,0.1,0.6,0.2c0.2,0.1,0.2,0.2,0.2,0.4c0,0.3-0.3,0.5-1,0.5
		c-0.4,0-0.7-0.1-1.1-0.2c-0.3-0.1-0.6-0.2-0.7-0.3c-0.1-0.1-0.2-0.1-0.2-0.2l-0.3,1.3l0.3,0.2c0.2,0.1,0.5,0.3,0.8,0.4
		c0.4,0.1,0.8,0.2,1.3,0.2c0.9,0,1.6-0.2,2-0.5c0.4-0.3,0.7-0.8,0.7-1.4l0,0C122,78.8,121.9,78.4,121.7,78.1z"/>
	<path class="st1" d="M39.8,70.9c0.9,0,1.5-0.4,1.7-0.6c0.3-0.2,0.4-0.6,0.2-0.9c-0.2-0.3-0.6-0.4-0.9-0.2c-0.1,0-0.6,0.4-1.3,0.2
		c-0.5-0.1-0.9-0.6-1.1-1.1c-0.1-0.4-0.5-0.6-0.8-0.5c-0.4,0.1-0.6,0.5-0.5,0.8c0.3,1,1,1.8,2,2.1l0,0
		C39.4,70.9,39.6,70.9,39.8,70.9z"/>
	<path class="st1" d="M49.7,77.1c-0.4-0.1-0.7,0.2-0.8,0.6l-0.8,5.1c-0.1,0.4,0.2,0.7,0.6,0.8c0,0,0.1,0,0.1,0
		c0.3,0,0.6-0.2,0.7-0.6l0.8-5.1C50.3,77.5,50,77.1,49.7,77.1z"/>
	<path class="st1" d="M45.4,77.8L45.4,77.8c-4,2-8.3,2.1-10.1,0.2c-0.1-0.1-0.2-0.3-0.3-0.4c2-0.5,3.4-0.8,3.6-0.9
		c0.4-0.1,0.6-0.5,0.5-0.8h0c-0.1-0.4-0.5-0.6-0.8-0.5c0,0-1.6,0.4-3.8,0.9c-0.4-1.2-0.4-2.7-0.2-4.7l0.1-0.7l-1.9-0.2
		c-0.2,0-0.5-0.1-0.6-0.2c0,0,0,0,0-0.1c0-0.1,0.3-0.3,0.9-0.7l0.2-0.1c0.2-0.2,1.2-0.8,1.7-1.1c0,0,0,0,0,0c0,0,0,0,0,0
		c0.2-0.1,0.3-0.3,0.3-0.6c0.3-1.4,0.4-1.8,0.7-2.7c0.1-0.4-0.1-0.7-0.4-0.9c-0.4-0.1-0.7,0.1-0.9,0.4c-0.3,0.9-0.5,1.4-0.7,2.8
		c-0.5,0.3-1.2,0.8-1.4,1l-0.2,0.1c-0.8,0.6-1.3,0.9-1.4,1.5c-0.1,0.4-0.1,0.7,0.1,1.1c0.3,0.6,0.9,0.7,1.6,0.8l0.6,0.1
		c-0.1,1.4-0.2,3,0.3,4.5c-0.6,0.1-1.2,0.3-1.8,0.4c0-0.5-0.1-1.2-0.6-1.7c-0.5-0.5-1.3-1-1.6-0.7c-0.3,0.2-0.1,1,0,1.2
		c0.2,0.7,0.7,1.2,1.2,1.5c-0.5,0.1-1,0.2-1.5,0.3c0-0.5-0.1-1.2-0.6-1.8c-0.5-0.5-1.3-1-1.6-0.7c-0.3,0.2-0.1,1,0,1.2
		c0.2,0.7,0.7,1.2,1.2,1.5c-0.5,0.1-1,0.2-1.4,0.3c0-0.5-0.1-1.2-0.6-1.7c-0.4-0.5-1.2-0.9-1.5-0.7c-0.3,0.2-0.1,1,0,1.1
		c0.2,0.7,0.8,1.2,1.2,1.4c-0.5,0.1-0.9,0.2-1.3,0.2c0-0.4-0.2-0.9-0.5-1.3c-0.4-0.4-1.1-0.8-1.4-0.6c-0.3,0.2-0.1,0.9,0,1
		c0.1,0.4,0.4,0.7,0.7,1c-0.2,0-0.4,0.1-0.6,0.2c-0.1,0.1-0.8,0.4-0.7,0.8c0,0.4,0.8,0.6,1.5,0.6c0.1,0,0.3,0,0.4-0.1
		c-0.2,0.4-0.3,0.8-0.2,1.3c0,0.1,0.1,0.8,0.5,0.9c0.3,0.1,0.8-0.6,0.9-1.2c0.1-0.5,0.1-0.9-0.1-1.3c0.3-0.1,0.7-0.1,1-0.2
		c-0.2,0.4-0.3,0.9-0.2,1.4c0,0.2,0.2,0.9,0.5,1c0.4,0.1,0.9-0.6,1-1.3c0.1-0.5,0.1-1-0.1-1.3c0.4-0.1,0.7-0.1,1.1-0.2
		c-0.2,0.5-0.4,1-0.3,1.7c0,0.2,0.2,1,0.6,1.1c0.4,0.1,0.9-0.7,1.1-1.4c0.2-0.6,0-1.2-0.1-1.6c0.4-0.1,0.9-0.2,1.3-0.3
		c-0.2,0.5-0.4,1.1-0.3,1.8c0,0.2,0.2,1,0.6,1.1c0.4,0.1,0.9-0.7,1.1-1.4c0.2-0.7,0-1.3-0.2-1.7c0.7-0.1,1.3-0.3,2-0.4
		c0.2,0.4,0.4,0.7,0.7,1c1.2,1.2,3,1.8,5.1,1.8c2,0,4.4-0.6,6.7-1.7c0.3-0.2,0.5-0.6,0.3-0.9C46.1,77.8,45.7,77.7,45.4,77.8z"/>
	<path class="st1" d="M55.2,64.5L55.2,64.5c-1.6-0.4-3.1-0.9-4.6-1.4c-3.9-1.3-7.8-2.9-11.5-4.7c0.5-1.4,2-5.2,5.4-7
		c2.4-1.3,5.2-1.4,8.4-0.4c0.4,0.1,0.7-0.1,0.9-0.4c0.1-0.4-0.1-0.7-0.4-0.9c-3.6-1.2-6.8-1-9.5,0.5c-2.8,1.5-4.4,4.1-5.3,6
		c-4.5-1-7.6-1.1-9.6-0.4c-1.3,0.5-1.6,1.2-1.6,1.7c0,3,10.4,7.2,13.6,8.4c0.1,0,0.2,0,0.2,0c0.3,0,0.5-0.2,0.6-0.4
		c0.1-0.3,0-0.7-0.4-0.9c-6.2-2.4-12.8-5.8-12.8-7.2c0-0.1,0.2-0.3,0.7-0.5c1.7-0.6,4.6-0.5,8.6,0.3c-0.2,0.7-0.4,1.1-0.4,1.2
		L37.4,59l0.5,0.2c3.9,2,8,3.7,12.2,5.1c1.6,0.5,3.1,1,4.7,1.4c0.1,0,0.1,0,0.2,0c0.3,0,0.6-0.2,0.7-0.5
		C55.8,64.9,55.5,64.6,55.2,64.5z"/>
	<path class="st1" d="M47.1,73.9L47.1,73.9L45,73.7l2-6.4c0.1-0.4-0.1-0.7-0.4-0.8c-0.4-0.1-0.7,0.1-0.8,0.4l-2.5,8l3.7,0.3
		c0,0,0,0,0.1,0c0.3,0,0.6-0.3,0.7-0.6C47.7,74.2,47.4,73.9,47.1,73.9z"/>
	<path class="st1" d="M50.1,70.9c-1,0-1.8,0.6-2.2,1.5c-0.1,0.4,0.1,0.7,0.4,0.9c0.4,0.1,0.7-0.1,0.9-0.4c0.1-0.4,0.5-0.6,0.9-0.6
		c0.5,0,1,0.4,1,1c0,0.5-0.4,1-1,1c-0.4,0-0.7,0.3-0.7,0.7c0,0.4,0.3,0.7,0.7,0.7c1.3,0,2.3-1,2.3-2.3S51.3,70.9,50.1,70.9z"/>
</g>
</svg>
