<?xml version="1.0" encoding="utf-8"?>
<!-- Generator: Adobe Illustrator 27.3.1, SVG Export Plug-In . SVG Version: 6.00 Build 0)  -->
<svg version="1.1" id="Calque_1" xmlns="http://www.w3.org/2000/svg" xmlns:xlink="http://www.w3.org/1999/xlink" x="0px" y="0px"
	 viewBox="0 0 554 130" style="enable-background:new 0 0 554 130;" xml:space="preserve">
<style type="text/css">
	.st0{fill:#FFFFFF;}
	.st1{fill:#555D66;}
</style>
<g>
	<path class="st0" d="M0,0h554v130H0V0z"/>
	<path class="st0" d="M0,0h552v130H0V0z"/>
	<g>
		<path class="st1" d="M522.4,71.4L518,67c0.9-1.3,1.5-3,1.5-4.7c0-4.6-3.7-8.3-8.3-8.3c-4.6,0-8.3,3.7-8.3,8.3s3.7,8.3,8.3,8.3
			c1.8,0,3.4-0.5,4.7-1.5l4.4,4.4c0.3,0.3,0.7,0.4,1.1,0.4s0.8-0.1,1.1-0.4C523,73,523,72,522.4,71.4z M505.8,62.3
			c0-2.9,2.4-5.3,5.3-5.3c2.9,0,5.3,2.4,5.3,5.3c0,1.5-0.6,2.8-1.5,3.7l0,0l0,0c-1,1-2.3,1.6-3.7,1.6
			C508.2,67.6,505.8,65.3,505.8,62.3z"/>
		<path class="st1" d="M30,57.2h18v2H30V57.2z"/>
		<path class="st1" d="M30,63.2h18v2H30V63.2z"/>
		<path class="st1" d="M30,69.2h18v2H30V69.2z"/>
		<path class="st1" d="M350,60.9h123v6.2H350V60.9z"/>
	</g>
</g>
<rect x="244.9" y="42.3" class="st1" width="64.2" height="39.7"/>
</svg>
