<?xml version="1.0" encoding="UTF-8"?>
<svg id="Calque_1" data-name="Calque 1" xmlns="http://www.w3.org/2000/svg" viewBox="0 0 554 74.66">
  <defs>
    <style>
      .cls-1 {
        fill: #555d66;
        fill-rule: evenodd;
      }
    </style>
  </defs>
  <g>
    <path class="cls-1" d="M20.33,16.95h24.87c4.18,0,7.56,3.62,7.56,8.09v23.82c0,4.47-3.39,8.09-7.56,8.09h-24.87c-4.18,0-7.56-3.62-7.56-8.09v-23.82c0-4.47,3.39-8.09,7.56-8.09Z"/>
    <path class="cls-1" d="M68.8,21.53h50v4h-50v-4Z"/>
    <path class="cls-1" d="M68.54,49.1h36v4h-36v-4Z"/>
    <path class="cls-1" d="M68.54,38.1h28v4h-28v-4Z"/>
  </g>
  <g>
    <path class="cls-1" d="M158.31,16.95h24.87c4.18,0,7.56,3.62,7.56,8.09v23.82c0,4.47-3.39,8.09-7.56,8.09h-24.87c-4.18,0-7.56-3.62-7.56-8.09v-23.82c0-4.47,3.39-8.09,7.56-8.09Z"/>
    <path class="cls-1" d="M206.78,21.53h50v4h-50v-4Z"/>
    <path class="cls-1" d="M206.52,49.1h36v4h-36v-4Z"/>
    <path class="cls-1" d="M206.52,38.1h28v4h-28v-4Z"/>
  </g>
  <g>
    <path class="cls-1" d="M296.28,16.95h24.87c4.18,0,7.56,3.62,7.56,8.09v23.82c0,4.47-3.39,8.09-7.56,8.09h-24.87c-4.18,0-7.56-3.62-7.56-8.09v-23.82c0-4.47,3.39-8.09,7.56-8.09Z"/>
    <path class="cls-1" d="M344.75,21.53h50v4h-50v-4Z"/>
    <path class="cls-1" d="M344.49,49.1h36v4h-36v-4Z"/>
    <path class="cls-1" d="M344.49,38.1h28v4h-28v-4Z"/>
  </g>
  <g>
    <path class="cls-1" d="M434.26,16.95h24.87c4.18,0,7.56,3.62,7.56,8.09v23.82c0,4.47-3.39,8.09-7.56,8.09h-24.87c-4.18,0-7.56-3.62-7.56-8.09v-23.82c0-4.47,3.39-8.09,7.56-8.09Z"/>
    <path class="cls-1" d="M482.73,21.53h50v4h-50v-4Z"/>
    <path class="cls-1" d="M482.47,49.1h36v4h-36v-4Z"/>
    <path class="cls-1" d="M482.47,38.1h28v4h-28v-4Z"/>
  </g>
</svg>